<svg xmlns="http://www.w3.org/2000/svg" viewBox="0 0 1200 800"><defs><style>.cls-1{fill:#10162f;}.cls-121,.cls-122,.cls-123,.cls-2,.cls-35,.cls-36{fill:none;stroke-miterlimit:10;}.cls-122,.cls-2,.cls-35,.cls-36{stroke:#fff;}.cls-123,.cls-2{stroke-width:4px;}.cls-3,.cls-38{font-size:24px;}.cls-114,.cls-116,.cls-3,.cls-38,.cls-6,.cls-64{fill:#fff;}.cls-3,.cls-38,.cls-6{font-family:DINNextLTPro-Regular, DIN Next LT Pro;}.cls-4{letter-spacing:-0.02em;}.cls-5{letter-spacing:-0.01em;}.cls-6{font-size:12px;}.cls-7{letter-spacing:0em;}.cls-8{letter-spacing:-0.06em;}.cls-9{letter-spacing:-0.02em;}.cls-10{letter-spacing:0em;}.cls-11{letter-spacing:-0.01em;}.cls-12{letter-spacing:-0.07em;}.cls-13{letter-spacing:-0.01em;}.cls-14{letter-spacing:0em;}.cls-15{letter-spacing:-0.01em;}.cls-16{letter-spacing:-0.02em;}.cls-17{letter-spacing:-0.01em;}.cls-18{letter-spacing:0em;}.cls-19{letter-spacing:-0.01em;}.cls-20{letter-spacing:-0.01em;}.cls-21{letter-spacing:-0.01em;}.cls-22{letter-spacing:-0.01em;}.cls-23{letter-spacing:-0.01em;}.cls-24{letter-spacing:-0.01em;}.cls-25{letter-spacing:-0.02em;}.cls-26{letter-spacing:-0.01em;}.cls-27{letter-spacing:-0.04em;}.cls-28{letter-spacing:-0.02em;}.cls-29{letter-spacing:-0.02em;}.cls-30{letter-spacing:-0.02em;}.cls-31{letter-spacing:-0.01em;}.cls-32{letter-spacing:-0.02em;}.cls-33{letter-spacing:-0.01em;}.cls-34{letter-spacing:-0.01em;}.cls-36{stroke-linecap:square;}.cls-37{letter-spacing:-0.01em;}.cls-38,.cls-61{letter-spacing:-0.02em;}.cls-39{letter-spacing:-0.02em;}.cls-40{letter-spacing:0em;}.cls-41{letter-spacing:-0.02em;}.cls-42{letter-spacing:0em;}.cls-43{letter-spacing:-0.02em;}.cls-44{letter-spacing:-0.01em;}.cls-45{letter-spacing:0em;}.cls-46{letter-spacing:0em;}.cls-47{letter-spacing:-0.01em;}.cls-48{letter-spacing:-0.01em;}.cls-49{letter-spacing:-0.01em;}.cls-50{letter-spacing:-0.02em;}.cls-51{letter-spacing:-0.01em;}.cls-52{letter-spacing:0em;}.cls-53{letter-spacing:0em;}.cls-54{letter-spacing:-0.01em;}.cls-55{letter-spacing:-0.02em;}.cls-56{letter-spacing:-0.01em;}.cls-57{letter-spacing:-0.01em;}.cls-58{letter-spacing:-0.02em;}.cls-59{letter-spacing:-0.01em;}.cls-60{letter-spacing:-0.02em;}.cls-62{letter-spacing:-0.02em;}.cls-63{letter-spacing:-0.01em;}.cls-64{font-size:36px;}.cls-114,.cls-64,.cls-77,.cls-93{font-family:DINNextLTPro-Bold, DIN Next LT Pro;font-weight:700;}.cls-65{letter-spacing:-0.02em;}.cls-66{letter-spacing:-0.01em;}.cls-67{letter-spacing:0em;}.cls-68{letter-spacing:-0.02em;}.cls-69{letter-spacing:-0.01em;}.cls-70{letter-spacing:-0.01em;}.cls-71{letter-spacing:-0.01em;}.cls-72{letter-spacing:-0.02em;}.cls-73{letter-spacing:-0.01em;}.cls-74{letter-spacing:-0.01em;}.cls-75{letter-spacing:-0.01em;}.cls-76{letter-spacing:-0.01em;}.cls-114,.cls-77,.cls-93{font-size:50px;}.cls-77{fill:#3a10e5;}.cls-78{letter-spacing:-0.01em;}.cls-79{letter-spacing:-0.01em;}.cls-80{letter-spacing:-0.03em;}.cls-81{letter-spacing:-0.02em;}.cls-82{letter-spacing:-0.02em;}.cls-83{letter-spacing:-0.02em;}.cls-84{letter-spacing:-0.02em;}.cls-85{letter-spacing:-0.02em;}.cls-86{letter-spacing:-0.02em;}.cls-87{letter-spacing:-0.02em;}.cls-88{letter-spacing:0em;}.cls-89{letter-spacing:-0.02em;}.cls-90{letter-spacing:-0.02em;}.cls-91{letter-spacing:-0.02em;}.cls-92{letter-spacing:-0.01em;}.cls-115,.cls-93{fill:#ffd300;}.cls-94{letter-spacing:-0.02em;}.cls-95{letter-spacing:0em;}.cls-96{letter-spacing:-0.02em;}.cls-97{letter-spacing:-0.01em;}.cls-98{letter-spacing:-0.02em;}.cls-99{letter-spacing:-0.01em;}.cls-100{letter-spacing:0em;}.cls-101{letter-spacing:-0.01em;}.cls-102{letter-spacing:-0.02em;}.cls-103{letter-spacing:-0.02em;}.cls-104{letter-spacing:-0.02em;}.cls-105{letter-spacing:-0.02em;}.cls-106{letter-spacing:-0.01em;}.cls-107{letter-spacing:-0.02em;}.cls-108{letter-spacing:-0.02em;}.cls-109{letter-spacing:-0.02em;}.cls-110{letter-spacing:-0.02em;}.cls-111{letter-spacing:-0.02em;}.cls-112{letter-spacing:-0.02em;}.cls-113{letter-spacing:-0.01em;}.cls-117{letter-spacing:0em;}.cls-118{letter-spacing:0em;}.cls-119{letter-spacing:-0.02em;}.cls-120{letter-spacing:-0.02em;}.cls-121,.cls-123{stroke:#ffd300;}.cls-121,.cls-122{stroke-width:3px;}</style></defs><g id="bg"><rect class="cls-1" width="1200" height="800"/></g><g id="Layer_11" data-name="Layer 11"><path class="cls-2" d="M340.59,420.56c21.85,7.35,31.33,5.16,82.75,16.37"/><path class="cls-2" d="M251.35,382.43c7.83,2.85,44.55,20.72,89.24,39.13"/><text class="cls-3" transform="translate(228.47 301.82)"><tspan class="cls-4">2</tspan><tspan class="cls-5" x="12.51" y="0">00</tspan><tspan x="38.12" y="0">0</tspan></text><text class="cls-6" transform="translate(119.69 388.28)"><tspan class="cls-7">4</tspan><tspan class="cls-8" x="6.51" y="0">.</tspan><tspan class="cls-9" x="8.59" y="0">9</tspan><tspan x="14.86" y="0">5 </tspan><tspan class="cls-10" x="24.25" y="0">p</tspan><tspan class="cls-11" x="30.72" y="0">e</tspan><tspan x="36.77" y="0">r </tspan><tspan class="cls-12" x="44.57" y="0">1</tspan><tspan class="cls-13" x="50.28" y="0">,</tspan><tspan class="cls-14" x="52.86" y="0">00</tspan><tspan x="65.78" y="0">0</tspan></text><text class="cls-6" transform="translate(119.4 461.84)"><tspan class="cls-7">4</tspan><tspan class="cls-15" x="6.51" y="0">.</tspan><tspan class="cls-16" x="9.23" y="0">6</tspan><tspan x="15.45" y="0">2 </tspan><tspan class="cls-10" x="24.83" y="0">p</tspan><tspan class="cls-17" x="31.31" y="0">e</tspan><tspan x="37.35" y="0">r </tspan><tspan class="cls-12" x="45.15" y="0">1</tspan><tspan class="cls-13" x="50.86" y="0">,</tspan><tspan class="cls-14" x="53.44" y="0">00</tspan><tspan x="66.36" y="0">0</tspan></text><text class="cls-6" transform="translate(119.28 537.51)"><tspan class="cls-7">4</tspan><tspan class="cls-18" x="6.51" y="0">.</tspan><tspan class="cls-19" x="9.3" y="0">2</tspan><tspan x="15.67" y="0">9 </tspan><tspan class="cls-10" x="25.06" y="0">p</tspan><tspan class="cls-11" x="31.54" y="0">e</tspan><tspan x="37.58" y="0">r </tspan><tspan class="cls-12" x="45.38" y="0">1</tspan><tspan class="cls-13" x="51.09" y="0">,</tspan><tspan class="cls-14" x="53.67" y="0">00</tspan><tspan x="66.59" y="0">0</tspan></text><text class="cls-6" transform="translate(1083.29 393.01)"><tspan class="cls-20">8</tspan><tspan class="cls-21" x="6.38" y="0">lb</tspan><tspan x="15.98" y="0">s</tspan></text><text class="cls-6" transform="translate(1083.31 461.84)"><tspan class="cls-22">6</tspan><tspan class="cls-21" x="6.33" y="0">lb</tspan><tspan x="15.94" y="0">s</tspan></text><text class="cls-6" transform="translate(1083.27 537.51)"><tspan class="cls-23">4l</tspan><tspan class="cls-24" x="9.66" y="0">b</tspan><tspan x="16.03" y="0">s</tspan></text><text class="cls-6" transform="translate(1083.36 609.93)"><tspan class="cls-25">2</tspan><tspan class="cls-23" x="6.23" y="0">l</tspan><tspan class="cls-26" x="9.47" y="0">b</tspan><tspan x="15.83" y="0">s</tspan></text><text class="cls-3" transform="translate(317.23 301.82)"><tspan class="cls-4">2</tspan><tspan class="cls-5" x="12.51" y="0">0</tspan><tspan class="cls-27" x="25.31" y="0">0</tspan><tspan x="37.33" y="0">1</tspan></text><text class="cls-3" transform="translate(400.67 301.82)"><tspan class="cls-4">2</tspan><tspan class="cls-5" x="12.51" y="0">0</tspan><tspan class="cls-28" x="25.31" y="0">0</tspan><tspan x="37.79" y="0">2</tspan></text><text class="cls-3" transform="translate(488.99 301.82)"><tspan class="cls-4">2</tspan><tspan class="cls-5" x="12.51" y="0">0</tspan><tspan class="cls-29" x="25.31" y="0">0</tspan><tspan x="37.91" y="0">3</tspan></text><text class="cls-3" transform="translate(572.54 301.82)"><tspan class="cls-4">2</tspan><tspan class="cls-5" x="12.51" y="0">0</tspan><tspan class="cls-24" x="25.31" y="0">0</tspan><tspan x="38.14" y="0">4</tspan></text><text class="cls-3" transform="translate(661.09 301.82)"><tspan class="cls-4">2</tspan><tspan class="cls-5" x="12.51" y="0">0</tspan><tspan class="cls-30" x="25.31" y="0">0</tspan><tspan x="37.79" y="0">5</tspan></text><text class="cls-3" transform="translate(744.64 301.82)"><tspan class="cls-4">2</tspan><tspan class="cls-5" x="12.51" y="0">0</tspan><tspan class="cls-31" x="25.31" y="0">0</tspan><tspan x="38.03" y="0">6</tspan></text><text class="cls-3" transform="translate(833.17 301.82)"><tspan class="cls-4">2</tspan><tspan class="cls-5" x="12.51" y="0">0</tspan><tspan class="cls-32" x="25.31" y="0">0</tspan><tspan x="37.72" y="0">7</tspan></text><text class="cls-3" transform="translate(916.67 301.82)"><tspan class="cls-4">2</tspan><tspan class="cls-5" x="12.51" y="0">0</tspan><tspan class="cls-33" x="25.31" y="0">0</tspan><tspan x="38.05" y="0">8</tspan></text><text class="cls-3" transform="translate(1005.05 301.82)"><tspan class="cls-4">2</tspan><tspan class="cls-5" x="12.51" y="0">0</tspan><tspan class="cls-34" x="25.31" y="0">0</tspan><tspan x="38.04" y="0">9</tspan></text><line class="cls-35" x1="209.41" y1="321.62" x2="1071.12" y2="321.62"/><line class="cls-35" x1="209.41" y1="390.37" x2="1071.12" y2="390.37"/><line class="cls-35" x1="209.41" y1="463.11" x2="1071.12" y2="463.11"/><line class="cls-35" x1="209.41" y1="535.86" x2="1071.12" y2="535.86"/><line class="cls-36" x1="209.41" y1="309.34" x2="209.41" y2="321.61"/><line class="cls-36" x1="295.58" y1="309.34" x2="295.58" y2="321.61"/><line class="cls-36" x1="381.76" y1="309.34" x2="381.76" y2="321.61"/><line class="cls-36" x1="467.93" y1="309.34" x2="467.93" y2="321.61"/><line class="cls-36" x1="554.1" y1="309.34" x2="554.1" y2="321.61"/><line class="cls-36" x1="640.27" y1="309.34" x2="640.27" y2="321.61"/><line class="cls-36" x1="726.44" y1="309.34" x2="726.44" y2="321.61"/><line class="cls-36" x1="812.61" y1="309.34" x2="812.61" y2="321.61"/><line class="cls-36" x1="898.78" y1="309.34" x2="898.78" y2="321.61"/><line class="cls-36" x1="984.95" y1="309.34" x2="984.95" y2="321.61"/><line class="cls-36" x1="1071.12" y1="309.34" x2="1071.12" y2="321.61"/><text class="cls-3" transform="translate(229.01 647.12)"><tspan class="cls-4">2</tspan><tspan class="cls-5" x="12.51" y="0">00</tspan><tspan x="38.12" y="0">0</tspan></text><text class="cls-3" transform="translate(317.78 647.12)"><tspan class="cls-4">2</tspan><tspan class="cls-5" x="12.51" y="0">0</tspan><tspan class="cls-27" x="25.31" y="0">0</tspan><tspan x="37.33" y="0">1</tspan></text><text class="cls-3" transform="translate(401.22 647.12)"><tspan class="cls-4">2</tspan><tspan class="cls-5" x="12.51" y="0">0</tspan><tspan class="cls-28" x="25.31" y="0">0</tspan><tspan x="37.79" y="0">2</tspan></text><text class="cls-3" transform="translate(489.53 647.12)"><tspan class="cls-4">2</tspan><tspan class="cls-5" x="12.51" y="0">0</tspan><tspan class="cls-29" x="25.31" y="0">0</tspan><tspan x="37.91" y="0">3</tspan></text><text class="cls-3" transform="translate(573.09 647.12)"><tspan class="cls-4">2</tspan><tspan class="cls-5" x="12.51" y="0">0</tspan><tspan class="cls-24" x="25.31" y="0">0</tspan><tspan x="38.14" y="0">4</tspan></text><text class="cls-3" transform="translate(661.64 647.12)"><tspan class="cls-4">2</tspan><tspan class="cls-5" x="12.51" y="0">0</tspan><tspan class="cls-30" x="25.31" y="0">0</tspan><tspan x="37.79" y="0">5</tspan></text><text class="cls-3" transform="translate(745.18 647.12)"><tspan class="cls-4">2</tspan><tspan class="cls-5" x="12.51" y="0">0</tspan><tspan class="cls-31" x="25.31" y="0">0</tspan><tspan x="38.03" y="0">6</tspan></text><text class="cls-3" transform="translate(833.71 647.12)"><tspan class="cls-4">2</tspan><tspan class="cls-5" x="12.51" y="0">0</tspan><tspan class="cls-32" x="25.31" y="0">0</tspan><tspan x="37.72" y="0">7</tspan></text><text class="cls-3" transform="translate(917.21 647.12)"><tspan class="cls-4">2</tspan><tspan class="cls-5" x="12.51" y="0">0</tspan><tspan class="cls-33" x="25.31" y="0">0</tspan><tspan x="38.05" y="0">8</tspan></text><text class="cls-3" transform="translate(1005.59 647.12)"><tspan class="cls-4">2</tspan><tspan class="cls-5" x="12.51" y="0">0</tspan><tspan class="cls-34" x="25.31" y="0">0</tspan><tspan x="38.04" y="0">9</tspan></text><line class="cls-35" x1="1071.12" y1="608.61" x2="209.41" y2="608.61"/><line class="cls-36" x1="1071.12" y1="620.89" x2="1071.12" y2="608.62"/><line class="cls-36" x1="984.95" y1="620.89" x2="984.95" y2="608.62"/><line class="cls-36" x1="898.78" y1="620.89" x2="898.78" y2="608.62"/><line class="cls-36" x1="812.61" y1="620.89" x2="812.61" y2="608.62"/><line class="cls-36" x1="726.44" y1="620.89" x2="726.44" y2="608.62"/><line class="cls-36" x1="640.27" y1="620.89" x2="640.27" y2="608.62"/><line class="cls-36" x1="554.1" y1="620.89" x2="554.1" y2="608.62"/><line class="cls-36" x1="467.93" y1="620.89" x2="467.93" y2="608.62"/><line class="cls-36" x1="381.76" y1="620.89" x2="381.76" y2="608.62"/><line class="cls-36" x1="295.58" y1="620.89" x2="295.58" y2="608.62"/><line class="cls-36" x1="209.41" y1="620.89" x2="209.41" y2="608.62"/><text class="cls-6" transform="translate(118.15 608.61)"><tspan class="cls-37">3</tspan><tspan class="cls-8" x="6.36" y="0">.</tspan><tspan class="cls-9" x="8.44" y="0">9</tspan><tspan x="14.71" y="0">5 </tspan><tspan class="cls-10" x="24.1" y="0">p</tspan><tspan class="cls-11" x="30.57" y="0">e</tspan><tspan x="36.62" y="0">r </tspan><tspan class="cls-12" x="44.42" y="0">1</tspan><tspan class="cls-13" x="50.13" y="0">,</tspan><tspan class="cls-14" x="52.71" y="0">00</tspan><tspan x="65.63" y="0">0</tspan></text><text class="cls-38" transform="translate(1152.9 345.52) rotate(90)">M<tspan class="cls-39" x="17.67" y="0">a</tspan><tspan class="cls-40" x="29.75" y="0">r</tspan><tspan class="cls-41" x="39.48" y="0">g</tspan><tspan class="cls-39" x="51.65" y="0">a</tspan><tspan class="cls-42" x="63.73" y="0">r</tspan><tspan class="cls-43" x="73.59" y="0">i</tspan><tspan class="cls-44" x="79.11" y="0">n</tspan><tspan class="cls-45" x="91.93" y="0">e </tspan><tspan class="cls-46" x="109.98" y="0">C</tspan><tspan class="cls-47" x="123.58" y="0">o</tspan><tspan class="cls-48" x="135.69" y="0">n</tspan><tspan class="cls-49" x="148.44" y="0">s</tspan><tspan class="cls-50" x="159.87" y="0">u</tspan><tspan class="cls-51" x="172.39" y="0">m</tspan><tspan class="cls-52" x="192.45" y="0">e</tspan><tspan class="cls-53" x="204.63" y="0">d</tspan></text><text class="cls-3" transform="translate(90.67 563.68) rotate(-90)"><tspan class="cls-51">D</tspan><tspan class="cls-54" x="14.74" y="0">i</tspan><tspan class="cls-55" x="20.55" y="0">v</tspan><tspan class="cls-47" x="31.62" y="0">o</tspan><tspan class="cls-56" x="43.74" y="0">r</tspan><tspan class="cls-57" x="53.36" y="0">c</tspan><tspan x="64.34" y="0">e </tspan><tspan class="cls-58" x="82.39" y="0">R</tspan><tspan class="cls-59" x="96.73" y="0">a</tspan><tspan class="cls-60" x="108.88" y="0">t</tspan><tspan class="cls-53" x="116.03" y="0">e </tspan><tspan class="cls-43" x="134.08" y="0">i</tspan><tspan x="139.59" y="0">n </tspan><tspan class="cls-61" x="158.41" y="0">M</tspan><tspan class="cls-62" x="176.08" y="0">a</tspan><tspan class="cls-43" x="188.15" y="0">i</tspan><tspan class="cls-63" x="193.67" y="0">n</tspan><tspan x="206.48" y="0">e</tspan></text><text class="cls-64" transform="translate(482 158.14)"><tspan class="cls-65">c</tspan><tspan class="cls-66" x="16.74" y="0">o</tspan><tspan class="cls-67" x="35.42" y="0">r</tspan><tspan class="cls-68" x="50.65" y="0">r</tspan><tspan class="cls-69" x="65.32" y="0">e</tspan><tspan class="cls-70" x="83.89" y="0">l</tspan><tspan class="cls-71" x="94.63" y="0">a</tspan><tspan class="cls-72" x="113.14" y="0">t</tspan><tspan class="cls-73" x="124.4" y="0">e</tspan><tspan x="143.12" y="0">s </tspan><tspan class="cls-74" x="169.79" y="0">w</tspan><tspan class="cls-75" x="196.99" y="0">i</tspan><tspan class="cls-76" x="206.11" y="0">t</tspan><tspan x="217.63" y="0">h</tspan></text><text class="cls-77" transform="translate(365.67 113.83)"><tspan class="cls-78">D</tspan><tspan class="cls-79" x="30.88" y="0">i</tspan><tspan class="cls-80" x="43.59" y="0">v</tspan><tspan class="cls-81" x="67.72" y="0">o</tspan><tspan class="cls-82" x="93.46" y="0">r</tspan><tspan class="cls-83" x="113.65" y="0">c</tspan><tspan x="136.69" y="0">e </tspan><tspan class="cls-84" x="174.84" y="0">R</tspan><tspan class="cls-85" x="204.88" y="0">a</tspan><tspan class="cls-86" x="230.38" y="0">t</tspan><tspan x="245.81" y="0">e </tspan><tspan class="cls-87" x="283.96" y="0">i</tspan><tspan class="cls-88" x="296.33" y="0">n </tspan><tspan class="cls-89" x="335.78" y="0">M</tspan><tspan class="cls-90" x="373" y="0">a</tspan><tspan class="cls-91" x="398.56" y="0">i</tspan><tspan class="cls-92" x="410.93" y="0">n</tspan><tspan x="437.85" y="0">e</tspan></text><text class="cls-93" transform="translate(368.67 109.83)"><tspan class="cls-78">D</tspan><tspan class="cls-79" x="30.88" y="0">i</tspan><tspan class="cls-80" x="43.59" y="0">v</tspan><tspan class="cls-81" x="67.72" y="0">o</tspan><tspan class="cls-82" x="93.46" y="0">r</tspan><tspan class="cls-83" x="113.65" y="0">c</tspan><tspan x="136.69" y="0">e </tspan><tspan class="cls-84" x="174.84" y="0">R</tspan><tspan class="cls-85" x="204.88" y="0">a</tspan><tspan class="cls-86" x="230.38" y="0">t</tspan><tspan x="245.81" y="0">e </tspan><tspan class="cls-87" x="283.96" y="0">i</tspan><tspan class="cls-88" x="296.33" y="0">n </tspan><tspan class="cls-89" x="335.78" y="0">M</tspan><tspan class="cls-90" x="373" y="0">a</tspan><tspan class="cls-91" x="398.56" y="0">i</tspan><tspan class="cls-92" x="410.93" y="0">n</tspan><tspan x="437.85" y="0">e</tspan></text><text class="cls-77" transform="translate(195.19 216.5)"><tspan class="cls-94">P</tspan><tspan class="cls-81" x="29.33" y="0">e</tspan><tspan x="54.93" y="0">r </tspan><tspan class="cls-95" x="88.03" y="0">C</tspan><tspan class="cls-96" x="116.61" y="0">a</tspan><tspan class="cls-97" x="142.17" y="0">p</tspan><tspan class="cls-98" x="169.1" y="0">i</tspan><tspan class="cls-99" x="181.57" y="0">t</tspan><tspan class="cls-100" x="197.38" y="0">a </tspan><tspan class="cls-101" x="235.58" y="0">C</tspan><tspan class="cls-81" x="264.05" y="0">o</tspan><tspan class="cls-102" x="289.79" y="0">n</tspan><tspan class="cls-103" x="316.59" y="0">s</tspan><tspan class="cls-104" x="340.96" y="0">u</tspan><tspan class="cls-105" x="367.53" y="0">m</tspan><tspan class="cls-106" x="408.97" y="0">p</tspan><tspan class="cls-107" x="435.91" y="0">t</tspan><tspan class="cls-108" x="451.7" y="0">i</tspan><tspan class="cls-81" x="464.18" y="0">o</tspan><tspan x="489.93" y="0">n </tspan><tspan class="cls-109" x="529.38" y="0">o</tspan><tspan x="554.92" y="0">f </tspan><tspan class="cls-110" x="583.67" y="0">M</tspan><tspan class="cls-96" x="620.89" y="0">a</tspan><tspan class="cls-111" x="646.45" y="0">r</tspan><tspan class="cls-112" x="666.95" y="0">g</tspan><tspan class="cls-96" x="693.02" y="0">a</tspan><tspan class="cls-113" x="718.58" y="0">r</tspan><tspan class="cls-91" x="739.53" y="0">i</tspan><tspan class="cls-92" x="751.91" y="0">n</tspan><tspan x="778.83" y="0">e</tspan></text><text class="cls-114" transform="translate(198.19 212.5)"><tspan class="cls-94">P</tspan><tspan class="cls-81" x="29.33" y="0">e</tspan><tspan x="54.93" y="0">r </tspan><tspan class="cls-95" x="88.03" y="0">C</tspan><tspan class="cls-96" x="116.61" y="0">a</tspan><tspan class="cls-97" x="142.17" y="0">p</tspan><tspan class="cls-98" x="169.1" y="0">i</tspan><tspan class="cls-99" x="181.57" y="0">t</tspan><tspan class="cls-100" x="197.38" y="0">a </tspan><tspan class="cls-101" x="235.58" y="0">C</tspan><tspan class="cls-81" x="264.05" y="0">o</tspan><tspan class="cls-102" x="289.79" y="0">n</tspan><tspan class="cls-103" x="316.59" y="0">s</tspan><tspan class="cls-104" x="340.96" y="0">u</tspan><tspan class="cls-105" x="367.53" y="0">m</tspan><tspan class="cls-106" x="408.97" y="0">p</tspan><tspan class="cls-107" x="435.91" y="0">t</tspan><tspan class="cls-108" x="451.7" y="0">i</tspan><tspan class="cls-81" x="464.18" y="0">o</tspan><tspan x="489.93" y="0">n </tspan><tspan class="cls-109" x="529.38" y="0">o</tspan><tspan x="554.92" y="0">f </tspan><tspan class="cls-110" x="583.67" y="0">M</tspan><tspan class="cls-96" x="620.89" y="0">a</tspan><tspan class="cls-111" x="646.45" y="0">r</tspan><tspan class="cls-112" x="666.95" y="0">g</tspan><tspan class="cls-96" x="693.02" y="0">a</tspan><tspan class="cls-113" x="718.58" y="0">r</tspan><tspan class="cls-91" x="739.53" y="0">i</tspan><tspan class="cls-92" x="751.91" y="0">n</tspan><tspan x="778.83" y="0">e</tspan></text><rect class="cls-115" x="245.47" y="345.74" width="11.75" height="11.75" transform="translate(322.25 -74.74) rotate(45)"/><rect class="cls-115" x="417.47" y="447.2" width="11.75" height="11.75" transform="translate(444.36 -166.65) rotate(45)"/><rect class="cls-115" x="509.54" y="496.08" width="11.75" height="11.75" transform="translate(505.9 -217.43) rotate(45)"/><rect class="cls-115" x="594.9" y="514.14" width="11.75" height="11.75" transform="translate(543.67 -272.5) rotate(45)"/><rect class="cls-115" x="677.65" y="568.28" width="11.75" height="11.75" transform="translate(606.19 -315.16) rotate(45)"/><rect class="cls-115" x="763.39" y="544.37" width="11.75" height="11.75" transform="translate(614.39 -382.79) rotate(45)"/><rect class="cls-115" x="849.13" y="544.37" width="11.75" height="11.75" transform="translate(639.5 -443.42) rotate(45)"/><rect class="cls-115" x="935.24" y="544.37" width="11.75" height="11.75" transform="translate(664.72 -504.3) rotate(45)"/><rect class="cls-115" x="1021.72" y="572.45" width="11.75" height="11.75" transform="translate(709.91 -557.23) rotate(45)"/><circle class="cls-116" cx="251.35" cy="382.43" r="7.83"/><circle class="cls-116" cx="340.59" cy="420.56" r="7.83"/><circle class="cls-116" cx="423.34" cy="436.93" r="7.83"/><circle class="cls-116" cx="515.41" cy="480.94" r="7.83"/><circle class="cls-116" cx="600.78" cy="485.82" r="7.83"/><circle class="cls-116" cx="685.02" cy="535.86" r="7.83"/><circle class="cls-116" cx="769.27" cy="506.41" r="7.83"/><circle class="cls-116" cx="855" cy="506.41" r="7.83"/><circle class="cls-116" cx="941.11" cy="522.44" r="7.83"/><circle class="cls-116" cx="1027.59" cy="547.79" r="7.83"/><text class="cls-38" transform="translate(343.62 688.54)">M<tspan class="cls-39" x="17.67" y="0">a</tspan><tspan class="cls-40" x="29.75" y="0">r</tspan><tspan class="cls-41" x="39.48" y="0">g</tspan><tspan class="cls-39" x="51.65" y="0">a</tspan><tspan class="cls-42" x="63.73" y="0">r</tspan><tspan class="cls-43" x="73.59" y="0">i</tspan><tspan class="cls-44" x="79.11" y="0">n</tspan><tspan class="cls-45" x="91.93" y="0">e </tspan><tspan class="cls-57" x="109.98" y="0">c</tspan><tspan class="cls-47" x="120.96" y="0">o</tspan><tspan class="cls-48" x="133.07" y="0">n</tspan><tspan class="cls-49" x="145.82" y="0">s</tspan><tspan class="cls-50" x="157.25" y="0">u</tspan><tspan class="cls-51" x="169.77" y="0">m</tspan><tspan class="cls-117" x="189.83" y="0">e</tspan><tspan class="cls-53" x="202.02" y="0">d</tspan></text><text class="cls-3" transform="translate(692.75 688.54)"><tspan class="cls-51">D</tspan><tspan class="cls-54" x="14.74" y="0">i</tspan><tspan class="cls-55" x="20.55" y="0">v</tspan><tspan class="cls-47" x="31.62" y="0">o</tspan><tspan class="cls-56" x="43.74" y="0">r</tspan><tspan class="cls-57" x="53.36" y="0">c</tspan><tspan x="64.34" y="0">e </tspan><tspan class="cls-118" x="82.39" y="0">r</tspan><tspan class="cls-59" x="92.2" y="0">a</tspan><tspan class="cls-60" x="104.34" y="0">t</tspan><tspan x="111.49" y="0">e </tspan><tspan class="cls-119" x="129.54" y="0">i</tspan><tspan x="135.06" y="0">n </tspan><tspan class="cls-61" x="153.87" y="0">M</tspan><tspan class="cls-120" x="171.55" y="0">a</tspan><tspan class="cls-119" x="183.62" y="0">i</tspan><tspan class="cls-63" x="189.13" y="0">n</tspan><tspan x="201.95" y="0">e</tspan></text><rect class="cls-115" x="662.16" y="675.75" width="11.75" height="11.75" transform="translate(677.65 -272.73) rotate(45)"/><line class="cls-121" x1="646.19" y1="681.63" x2="689.88" y2="681.63"/><rect class="cls-116" x="311.69" y="675.75" width="11.75" height="11.75" rx="5.87" transform="translate(575 -24.91) rotate(45)"/><line class="cls-122" x1="295.72" y1="681.63" x2="339.41" y2="681.63"/><rect class="cls-115" x="334.71" y="419.84" width="11.75" height="11.75" transform="translate(400.78 -116.14) rotate(45)"/><path class="cls-2" d="M423.34,436.93c35.2,0,46,44,92.07,44"/><path class="cls-2" d="M515.41,480.94c37.81,4.12,70.83,1.34,85.37,4.88"/><path class="cls-2" d="M600.78,485.82c40.19-.78,45.41,50,84.24,50"/><path class="cls-2" d="M685,535.86c47.92,1.78,56.27-33.9,84.25-29.44"/><path class="cls-2" d="M769.27,506.41H855"/><path class="cls-2" d="M855,506.41c50.71,0,49.36,4.43,86.11,16"/><path class="cls-2" d="M941.11,522.44c24.42,1.49,57.93,15.47,86.48,25.35"/><path class="cls-123" d="M251.35,351.61c13.16,18.67,54.86,48.78,89.24,74.11"/><path class="cls-123" d="M340.59,425.72c14.73,8.87,62.58,15.67,82.75,27.35"/><path class="cls-123" d="M423.34,453.07c23.54,0,46,38.32,92.07,48.89"/><path class="cls-123" d="M515.41,502c8.34,4.26,48.83,10.76,85.37,18.06"/><path class="cls-123" d="M600.78,520c32.83,8,42.12,51,82.75,54.13"/><path class="cls-123" d="M683.53,574.15c24.59,6.12,60-28,85.74-23.91"/><path class="cls-123" d="M769.27,550.24H855"/><path class="cls-123" d="M855,550.24h86.11"/><path class="cls-123" d="M941.11,550.24c27.93-2.63,57.89,15.6,86.48,28.09"/></g></svg>