<svg xmlns="http://www.w3.org/2000/svg" viewBox="0 0 850.2 365.91"><defs><style>.cls-1,.cls-4{fill:#10172f;}.cls-1{stroke:#fff;stroke-linecap:round;stroke-linejoin:round;}.cls-2{fill:#fff;}.cls-3{fill:none;stroke:#10172f;stroke-miterlimit:10;stroke-width:2px;}</style></defs><g id="Layer_2" data-name="Layer 2"><g id="Layer_1-2" data-name="Layer 1"><rect class="cls-1" x="286.9" y="0.5" width="276.41" height="148.49"/><path class="cls-2" d="M375.13,65.53a12.17,12.17,0,0,1-5,.9c-5.32,0-9.3-3.37-9.3-9.56,0-5.93,4-9.9,9.85-9.9a10.11,10.11,0,0,1,4.47.83l-.6,2a8.85,8.85,0,0,0-3.79-.78c-4.43,0-7.36,2.83-7.36,7.79,0,4.62,2.66,7.57,7.23,7.57a10,10,0,0,0,4-.78Z"/><path class="cls-2" d="M385.42,66.13l-.22-1.71h-.08a5,5,0,0,1-4.14,2,3.86,3.86,0,0,1-4.13-3.89c0-3.28,2.9-5.08,8.13-5v-.29a2.78,2.78,0,0,0-3.08-3.12,6.54,6.54,0,0,0-3.53,1l-.56-1.64a8.6,8.6,0,0,1,4.47-1.19c4.14,0,5.15,2.83,5.15,5.54v5.07a20.11,20.11,0,0,0,.21,3.24ZM385,59.22c-2.66-.06-5.71.42-5.71,3a2.17,2.17,0,0,0,2.3,2.36,3.41,3.41,0,0,0,3.3-2.27,2.72,2.72,0,0,0,.11-.78Z"/><path class="cls-2" d="M394.25,48.69v3.9h3.54v1.87h-3.54v7.29c0,1.69.48,2.64,1.86,2.64a5,5,0,0,0,1.43-.17l.11,1.87a6.24,6.24,0,0,1-2.2.34,3.46,3.46,0,0,1-2.66-1.05,5.16,5.16,0,0,1-1-3.53V54.46h-2.09V52.59h2.09V49.33Z"/><path class="cls-2" d="M401.77,59.81c.05,3.32,2.16,4.7,4.63,4.7a9,9,0,0,0,3.75-.7l.44,1.75a10.84,10.84,0,0,1-4.52.87c-4.16,0-6.67-2.78-6.67-6.84s2.42-7.31,6.38-7.31c4.41,0,5.57,3.88,5.57,6.37a6.56,6.56,0,0,1-.08,1.16ZM409,58c0-1.55-.64-4-3.4-4-2.51,0-3.58,2.27-3.78,4Z"/><path class="cls-2" d="M426.1,52.59c-.06,1-.11,2.06-.11,3.71v7.86c0,3.13-.64,5-1.93,6.2A7.29,7.29,0,0,1,419.12,72a8.78,8.78,0,0,1-4.52-1.11l.62-1.9a7.58,7.58,0,0,0,4,1.09c2.51,0,4.36-1.32,4.36-4.75V63.8h-.06a4.78,4.78,0,0,1-4.3,2.29c-3.38,0-5.78-2.88-5.78-6.63,0-4.59,3-7.18,6.12-7.18a4.49,4.49,0,0,1,4.22,2.34h.06l.1-2Zm-2.56,5.33a3.77,3.77,0,0,0-.13-1.1A3.57,3.57,0,0,0,420,54.19c-2.35,0-4,2-4,5.14,0,2.65,1.37,4.88,4,4.88a3.62,3.62,0,0,0,3.43-2.54,4.42,4.42,0,0,0,.19-1.31Z"/><path class="cls-2" d="M442.33,59.23c0,5-3.48,7.21-6.74,7.21-3.67,0-6.51-2.68-6.51-7,0-4.53,3-7.18,6.73-7.18S442.33,55.11,442.33,59.23Zm-10.74.16c0,3,1.7,5.2,4.11,5.2s4.12-2.2,4.12-5.28c0-2.29-1.15-5.18-4.08-5.18S431.59,56.82,431.59,59.39Z"/><path class="cls-2" d="M445.44,56.81c0-1.6,0-3-.11-4.22h2.15l.1,2.66h.09a4.1,4.1,0,0,1,3.77-3,2.9,2.9,0,0,1,.68.07v2.32a4.12,4.12,0,0,0-.84-.07A3.43,3.43,0,0,0,448,57.75a5.93,5.93,0,0,0-.1,1.15v7.23h-2.45Z"/><path class="cls-2" d="M457.46,48.76a1.48,1.48,0,0,1-1.56,1.53,1.47,1.47,0,0,1-1.49-1.53,1.5,1.5,0,0,1,1.53-1.53A1.47,1.47,0,0,1,457.46,48.76Zm-2.75,17.37V52.59h2.45V66.13Z"/><path class="cls-2" d="M470.92,65.64a9.28,9.28,0,0,1-3.89.79c-4.08,0-6.75-2.78-6.75-6.92a6.89,6.89,0,0,1,7.27-7.22A7.83,7.83,0,0,1,471,53l-.54,1.89a6,6,0,0,0-2.88-.65c-3.09,0-4.79,2.31-4.78,5.13,0,3.13,2,5.06,4.72,5.06a7.13,7.13,0,0,0,3-.65Z"/><path class="cls-2" d="M481.34,66.13l-.22-1.71h-.07a5,5,0,0,1-4.14,2,3.86,3.86,0,0,1-4.14-3.89c0-3.28,2.91-5.08,8.14-5v-.29a2.78,2.78,0,0,0-3.08-3.12,6.54,6.54,0,0,0-3.53,1l-.56-1.64a8.54,8.54,0,0,1,4.47-1.19c4.14,0,5.15,2.83,5.15,5.54v5.07a21.41,21.41,0,0,0,.2,3.24ZM481,59.22c-2.67-.06-5.72.42-5.72,3a2.18,2.18,0,0,0,2.3,2.36,3.39,3.39,0,0,0,3.3-2.27,2.43,2.43,0,0,0,.12-.78Z"/><path class="cls-2" d="M487.33,46.25h2.45V66.13h-2.45Z"/><path class="cls-2" d="M379.55,99.73l-6.18-18.87H376l2.93,9.3c.81,2.55,1.51,4.85,2,7H381c.52-2.19,1.3-4.56,2.14-7l3.2-9.33H389l-6.74,18.87Z"/><path class="cls-2" d="M397.53,99.73,397.31,98h-.08a5,5,0,0,1-4.14,2A3.86,3.86,0,0,1,389,96.15c0-3.28,2.9-5.08,8.13-5v-.29A2.78,2.78,0,0,0,394,87.7a6.54,6.54,0,0,0-3.53,1l-.56-1.64a8.57,8.57,0,0,1,4.47-1.19c4.14,0,5.15,2.83,5.15,5.54v5.07a20.11,20.11,0,0,0,.21,3.24Zm-.39-6.91c-2.66-.06-5.71.42-5.71,3a2.17,2.17,0,0,0,2.3,2.36A3.41,3.41,0,0,0,397,96a2.72,2.72,0,0,0,.11-.78Z"/><path class="cls-2" d="M403.51,90.41c0-1.6,0-3-.11-4.22h2.16l.09,2.66h.09a4.1,4.1,0,0,1,3.77-3,2.9,2.9,0,0,1,.68.07v2.32a4.12,4.12,0,0,0-.84-.07,3.43,3.43,0,0,0-3.29,3.15,5.93,5.93,0,0,0-.1,1.15v7.23h-2.45Z"/><path class="cls-2" d="M415.53,82.36a1.53,1.53,0,1,1-3,0A1.5,1.5,0,0,1,414,80.83,1.47,1.47,0,0,1,415.53,82.36Zm-2.75,17.37V86.19h2.45V99.73Z"/><path class="cls-2" d="M426.84,99.73,426.62,98h-.07a5,5,0,0,1-4.14,2,3.86,3.86,0,0,1-4.14-3.89c0-3.28,2.91-5.08,8.14-5v-.29a2.78,2.78,0,0,0-3.08-3.12,6.54,6.54,0,0,0-3.53,1l-.56-1.64a8.54,8.54,0,0,1,4.47-1.19c4.14,0,5.15,2.83,5.15,5.54v5.07a21.41,21.41,0,0,0,.2,3.24Zm-.38-6.91c-2.67-.06-5.72.42-5.72,3a2.18,2.18,0,0,0,2.3,2.36,3.4,3.4,0,0,0,3.3-2.27,2.43,2.43,0,0,0,.12-.78Z"/><path class="cls-2" d="M432.71,99.73c.07-.93.11-2.29.11-3.49V79.85h2.45v8.51h.06A5,5,0,0,1,440,85.88c3.36,0,5.72,2.8,5.71,6.9,0,4.86-3.08,7.26-6.1,7.26A4.88,4.88,0,0,1,435,97.51H435l-.12,2.22Zm2.56-5.43a4.35,4.35,0,0,0,.1.9,3.81,3.81,0,0,0,3.7,2.88c2.59,0,4.11-2.1,4.11-5.21,0-2.72-1.41-5.05-4-5.05a3.93,3.93,0,0,0-3.73,3,4.33,4.33,0,0,0-.14,1Z"/><path class="cls-2" d="M448.76,79.85h2.45V99.73h-2.45Z"/><path class="cls-2" d="M456.75,93.41c0,3.32,2.16,4.7,4.63,4.7a9.06,9.06,0,0,0,3.75-.7l.43,1.75A10.77,10.77,0,0,1,461,100c-4.16,0-6.66-2.78-6.66-6.84s2.42-7.31,6.37-7.31c4.42,0,5.58,3.88,5.58,6.37a5.57,5.57,0,0,1-.09,1.16Zm7.2-1.78c0-1.55-.63-4-3.39-4-2.52,0-3.59,2.27-3.78,4Z"/><path class="cls-2" d="M469.05,97.22a6.64,6.64,0,0,0,3.26,1c1.8,0,2.63-.89,2.63-2s-.71-1.8-2.51-2.48c-2.45-.88-3.61-2.21-3.6-3.84,0-2.18,1.77-4,4.68-4a6.55,6.55,0,0,1,3.32.84l-.61,1.79a5.28,5.28,0,0,0-2.78-.8c-1.45,0-2.24.84-2.24,1.86s.79,1.62,2.57,2.31c2.33.87,3.54,2,3.55,4.07,0,2.4-1.86,4.08-5.06,4.08a7.71,7.71,0,0,1-3.81-1Z"/><rect class="cls-1" x="0.5" y="216.92" width="276.41" height="148.49"/><path class="cls-2" d="M91.18,291.16V272.29h2.68l6,9.54a55,55,0,0,1,3.36,6.14l.06,0c-.22-2.52-.26-4.82-.26-7.74v-7.91h2.29v18.87h-2.47l-6-9.57a60.9,60.9,0,0,1-3.51-6.31l-.08,0c.14,2.4.18,4.67.18,7.79v8.07Z"/><path class="cls-2" d="M121.73,284.26c0,5-3.48,7.21-6.73,7.21-3.67,0-6.51-2.68-6.51-7,0-4.53,3-7.18,6.72-7.18C119.11,277.31,121.73,280.14,121.73,284.26Zm-10.73.16c0,3,1.7,5.2,4.1,5.2s4.13-2.2,4.13-5.28c0-2.29-1.16-5.18-4.08-5.18S111,281.85,111,284.42Z"/><path class="cls-2" d="M124.85,281.28c0-1.42,0-2.54-.11-3.66h2.14l.13,2.18h.07a4.66,4.66,0,0,1,4.27-2.49,4,4,0,0,1,3.82,2.72h.05a5.63,5.63,0,0,1,1.53-1.77,4.64,4.64,0,0,1,3-.95c1.81,0,4.47,1.17,4.47,5.88v8h-2.4V283.5c0-2.62-1-4.17-2.94-4.17a3.2,3.2,0,0,0-2.93,2.21,4,4,0,0,0-.2,1.24v8.38h-2.41V283c0-2.15-.95-3.7-2.81-3.7a3.4,3.4,0,0,0-3.07,2.45,4,4,0,0,0-.19,1.22v8.16h-2.4Z"/><path class="cls-2" d="M151,273.79a1.48,1.48,0,0,1-1.56,1.53,1.47,1.47,0,0,1-1.49-1.53,1.49,1.49,0,0,1,1.53-1.53A1.47,1.47,0,0,1,151,273.79Zm-2.75,17.37V277.62h2.45v13.54Z"/><path class="cls-2" d="M154.75,281.28c0-1.42,0-2.54-.11-3.66h2.18l.13,2.23H157a5,5,0,0,1,4.48-2.54c1.86,0,4.77,1.12,4.77,5.77v8.08h-2.45v-7.81c0-2.19-.82-4-3.13-4a3.54,3.54,0,0,0-3.32,2.53,3.85,3.85,0,0,0-.17,1.14v8.16h-2.45Z"/><path class="cls-2" d="M177.8,291.16l-.22-1.71h-.07a5,5,0,0,1-4.14,2,3.86,3.86,0,0,1-4.14-3.89c0-3.28,2.91-5.08,8.14-5v-.29a2.79,2.79,0,0,0-3.09-3.12,6.51,6.51,0,0,0-3.52,1l-.56-1.64a8.54,8.54,0,0,1,4.47-1.19c4.14,0,5.15,2.83,5.15,5.54v5.07a21.41,21.41,0,0,0,.2,3.24Zm-.38-6.91c-2.67-.06-5.72.42-5.72,3a2.16,2.16,0,0,0,2.3,2.35,3.39,3.39,0,0,0,3.3-2.26,2.47,2.47,0,0,0,.12-.78Z"/><path class="cls-2" d="M183.79,271.28h2.45v19.88h-2.45Z"/><path class="cls-2" d="M87.24,301.27a13.22,13.22,0,0,0-2.51,8.19,13.42,13.42,0,0,0,2.51,8.11H85.87a12.9,12.9,0,0,1-2.62-8.12,13.16,13.16,0,0,1,2.62-8.18Z"/><path class="cls-2" d="M97.42,301v11.7c0,.87,0,1.83.08,2.5H95.93l-.09-1.67h0a3.54,3.54,0,0,1-3.28,1.89c-2.35,0-4.16-2-4.16-4.92,0-3.23,2-5.19,4.35-5.19a3.22,3.22,0,0,1,2.92,1.46h0V301Zm-1.75,8.46a3.81,3.81,0,0,0-.07-.75,2.61,2.61,0,0,0-2.55-2c-1.82,0-2.91,1.59-2.91,3.72,0,2,1,3.6,2.87,3.6a2.65,2.65,0,0,0,2.57-2.12,3,3,0,0,0,.09-.75Z"/><path class="cls-2" d="M101.33,310.64a3.09,3.09,0,0,0,3.31,3.36,6.49,6.49,0,0,0,2.68-.5l.31,1.25a7.79,7.79,0,0,1-3.23.62,4.51,4.51,0,0,1-4.76-4.88c0-2.93,1.73-5.22,4.56-5.22,3.15,0,4,2.76,4,4.55a4.15,4.15,0,0,1-.06.82Zm5.15-1.27c0-1.1-.45-2.84-2.42-2.84a2.89,2.89,0,0,0-2.71,2.84Z"/><path class="cls-2" d="M110.12,313.37a4.79,4.79,0,0,0,2.33.69c1.29,0,1.88-.63,1.88-1.44s-.51-1.29-1.8-1.77c-1.74-.64-2.57-1.59-2.57-2.75,0-1.56,1.27-2.83,3.35-2.83a4.69,4.69,0,0,1,2.37.59l-.44,1.28a3.82,3.82,0,0,0-2-.57c-1,0-1.61.6-1.61,1.33s.57,1.16,1.84,1.65c1.67.62,2.53,1.46,2.54,2.9,0,1.72-1.33,2.92-3.62,2.92a5.52,5.52,0,0,1-2.72-.67Z"/><path class="cls-2" d="M125.19,314.81a6.68,6.68,0,0,1-2.78.56,4.61,4.61,0,0,1-4.83-4.94,4.93,4.93,0,0,1,5.2-5.16,5.76,5.76,0,0,1,2.45.51l-.4,1.36a4.22,4.22,0,0,0-2-.47,3.36,3.36,0,0,0-3.42,3.66,3.32,3.32,0,0,0,3.37,3.62,5.23,5.23,0,0,0,2.16-.46Z"/><path class="cls-2" d="M127.24,308.5c0-1.14,0-2.12-.08-3h1.55l.06,1.89h.07a2.93,2.93,0,0,1,2.69-2.11,1.89,1.89,0,0,1,.49.05V307a2.69,2.69,0,0,0-.6-.05,2.45,2.45,0,0,0-2.35,2.25,4.32,4.32,0,0,0-.07.82v5.17h-1.76Z"/><path class="cls-2" d="M135.83,302.75a1.09,1.09,0,1,1-2.18,0,1.07,1.07,0,0,1,1.1-1.09A1,1,0,0,1,135.83,302.75Zm-2,12.41v-9.67h1.75v9.67Z"/><path class="cls-2" d="M138.54,308.64c0-1.24,0-2.24-.08-3.15H140l.09,1.64h0a3.79,3.79,0,0,1,3.44-1.86c2.34,0,4.1,2,4.1,4.9,0,3.49-2.13,5.21-4.4,5.21a3.38,3.38,0,0,1-3-1.52h0v5.26h-1.75Zm1.75,2.58a3.38,3.38,0,0,0,.08.72A2.69,2.69,0,0,0,143,314c1.87,0,2.94-1.53,2.94-3.75,0-1.93-1-3.59-2.87-3.59a2.79,2.79,0,0,0-2.66,2.17,3,3,0,0,0-.12.72Z"/><path class="cls-2" d="M152,302.7v2.79h2.53v1.33H152V312c0,1.21.35,1.89,1.33,1.89a3.51,3.51,0,0,0,1-.13l.08,1.34a4.61,4.61,0,0,1-1.57.24,2.49,2.49,0,0,1-1.9-.74,3.7,3.7,0,0,1-.68-2.53v-5.28h-1.5v-1.33h1.5v-2.34Z"/><path class="cls-2" d="M158.51,302.75a1.09,1.09,0,1,1-2.18,0,1.07,1.07,0,0,1,1.1-1.09A1,1,0,0,1,158.51,302.75Zm-2,12.41v-9.67h1.75v9.67Z"/><path class="cls-2" d="M170,310.23c0,3.58-2.48,5.15-4.81,5.15-2.62,0-4.65-1.91-4.65-5,0-3.24,2.13-5.13,4.81-5.13S170,307.28,170,310.23Zm-7.67.11c0,2.12,1.22,3.72,2.94,3.72s2.94-1.57,2.94-3.77c0-1.64-.82-3.71-2.91-3.71S162.31,308.51,162.31,310.34Z"/><path class="cls-2" d="M172.21,308.1c0-1,0-1.81-.08-2.61h1.55l.1,1.59h.05a3.56,3.56,0,0,1,3.2-1.81c1.33,0,3.41.8,3.41,4.12v5.77h-1.75v-5.58c0-1.56-.59-2.87-2.24-2.87a2.52,2.52,0,0,0-2.37,1.8,2.89,2.89,0,0,0-.12.82v5.83h-1.75Z"/><path class="cls-2" d="M183.06,313.37a4.79,4.79,0,0,0,2.33.69c1.28,0,1.88-.63,1.88-1.44s-.51-1.29-1.8-1.77c-1.75-.64-2.57-1.59-2.57-2.75,0-1.56,1.27-2.83,3.35-2.83a4.69,4.69,0,0,1,2.37.59l-.44,1.28a3.83,3.83,0,0,0-2-.57c-1,0-1.6.6-1.6,1.33s.57,1.16,1.84,1.65c1.67.62,2.53,1.46,2.54,2.9,0,1.72-1.33,2.92-3.62,2.92a5.52,5.52,0,0,1-2.72-.67Z"/><path class="cls-2" d="M190.17,317.57a13.55,13.55,0,0,0,2.51-8.17,13.35,13.35,0,0,0-2.51-8.13h1.36a12.83,12.83,0,0,1,2.62,8.15,13,13,0,0,1-2.62,8.15Z"/><rect class="cls-1" x="286.9" y="216.92" width="276.41" height="148.49"/><path class="cls-2" d="M400.26,281.53c0,6.48-3.95,9.94-8.76,9.94-5,0-8.48-3.88-8.48-9.58,0-6,3.7-9.91,8.74-9.91S400.26,275.93,400.26,281.53Zm-14.67.3c0,4,2.2,7.65,6,7.65s6.05-3.55,6.05-7.84c0-3.75-2-7.68-6-7.68S385.59,277.71,385.59,281.83Z"/><path class="cls-2" d="M403.39,281.84c0-1.6,0-3-.11-4.22h2.15l.1,2.66h.09a4.1,4.1,0,0,1,3.77-3,2.9,2.9,0,0,1,.68.07v2.32a3.51,3.51,0,0,0-.84-.07,3.43,3.43,0,0,0-3.29,3.15,5.93,5.93,0,0,0-.1,1.15v7.23h-2.45Z"/><path class="cls-2" d="M424,271.28v16.39c0,1.2,0,2.56.11,3.49h-2.19l-.13-2.34h-.06a5,5,0,0,1-4.6,2.65c-3.28,0-5.81-2.78-5.81-6.88,0-4.53,2.79-7.28,6.09-7.28a4.51,4.51,0,0,1,4.08,2.06h.06v-8.09Zm-2.45,11.85a4.68,4.68,0,0,0-.11-1.05,3.63,3.63,0,0,0-3.56-2.84c-2.55,0-4.08,2.24-4.08,5.21,0,2.75,1.37,5,4,5a3.72,3.72,0,0,0,3.6-3,4.32,4.32,0,0,0,.12-1Z"/><path class="cls-2" d="M430.81,273.79a1.48,1.48,0,0,1-1.56,1.53,1.47,1.47,0,0,1-1.49-1.53,1.49,1.49,0,0,1,1.53-1.53A1.47,1.47,0,0,1,430.81,273.79Zm-2.75,17.37V277.62h2.45v13.54Z"/><path class="cls-2" d="M434.61,281.28c0-1.42,0-2.54-.11-3.66h2.18l.13,2.23h.07a5,5,0,0,1,4.48-2.54c1.86,0,4.77,1.12,4.77,5.77v8.08h-2.45v-7.81c0-2.19-.83-4-3.13-4a3.54,3.54,0,0,0-3.32,2.53,3.85,3.85,0,0,0-.17,1.14v8.16h-2.45Z"/><path class="cls-2" d="M457.66,291.16l-.22-1.71h-.07a5,5,0,0,1-4.14,2,3.86,3.86,0,0,1-4.14-3.89c0-3.28,2.91-5.08,8.14-5v-.29a2.79,2.79,0,0,0-3.09-3.12,6.51,6.51,0,0,0-3.52,1l-.56-1.64a8.54,8.54,0,0,1,4.47-1.19c4.14,0,5.15,2.83,5.15,5.54v5.07a21.41,21.41,0,0,0,.2,3.24Zm-.38-6.91c-2.67-.06-5.72.42-5.72,3a2.16,2.16,0,0,0,2.3,2.35,3.39,3.39,0,0,0,3.3-2.26,2.47,2.47,0,0,0,.12-.78Z"/><path class="cls-2" d="M463.65,271.28h2.45v19.88h-2.45Z"/><path class="cls-2" d="M355.2,301.27a13.22,13.22,0,0,0-2.51,8.19,13.42,13.42,0,0,0,2.51,8.11h-1.37a12.84,12.84,0,0,1-2.62-8.12,13.1,13.1,0,0,1,2.62-8.18Z"/><path class="cls-2" d="M359,302.75a1.09,1.09,0,1,1-1.09-1.09A1.06,1.06,0,0,1,359,302.75Zm-2,12.41v-9.67h1.75v9.67Z"/><path class="cls-2" d="M361.75,308.1c0-1,0-1.81-.08-2.61h1.55l.1,1.59h.05a3.56,3.56,0,0,1,3.2-1.81c1.32,0,3.4.8,3.4,4.12v5.77h-1.75v-5.58c0-1.56-.59-2.87-2.23-2.87a2.52,2.52,0,0,0-2.37,1.8,2.57,2.57,0,0,0-.12.82v5.83h-1.75Z"/><path class="cls-2" d="M372.85,301h1.75v6h0a3.43,3.43,0,0,1,1.26-1.25,3.58,3.58,0,0,1,1.8-.48c1.31,0,3.37.79,3.37,4.13v5.76h-1.75v-5.57c0-1.56-.59-2.87-2.23-2.87a2.57,2.57,0,0,0-2.38,1.75,2.45,2.45,0,0,0-.11.84v5.85h-1.75Z"/><path class="cls-2" d="M384.93,310.64a3.08,3.08,0,0,0,3.31,3.36,6.49,6.49,0,0,0,2.68-.5l.31,1.25a7.83,7.83,0,0,1-3.23.62,4.51,4.51,0,0,1-4.76-4.88c0-2.93,1.73-5.22,4.55-5.22,3.16,0,4,2.76,4,4.55a4.15,4.15,0,0,1-.06.82Zm5.15-1.27c0-1.1-.45-2.84-2.43-2.84a2.89,2.89,0,0,0-2.7,2.84Z"/><path class="cls-2" d="M394,308.5c0-1.14,0-2.12-.08-3h1.54l.07,1.89h.06a2.94,2.94,0,0,1,2.7-2.11,1.89,1.89,0,0,1,.49.05V307a2.69,2.69,0,0,0-.6-.05,2.46,2.46,0,0,0-2.36,2.25,5.33,5.33,0,0,0-.07.82v5.17H394Z"/><path class="cls-2" d="M401.29,310.64A3.08,3.08,0,0,0,404.6,314a6.49,6.49,0,0,0,2.68-.5l.31,1.25a7.83,7.83,0,0,1-3.23.62,4.51,4.51,0,0,1-4.76-4.88c0-2.93,1.73-5.22,4.55-5.22,3.16,0,4,2.76,4,4.55a4.15,4.15,0,0,1-.06.82Zm5.15-1.27c0-1.1-.45-2.84-2.43-2.84a2.89,2.89,0,0,0-2.7,2.84Z"/><path class="cls-2" d="M410.33,308.1c0-1,0-1.81-.08-2.61h1.55l.1,1.59H412a3.55,3.55,0,0,1,3.19-1.81c1.33,0,3.41.8,3.41,4.12v5.77H416.8v-5.58c0-1.56-.59-2.87-2.23-2.87a2.52,2.52,0,0,0-2.37,1.8,2.57,2.57,0,0,0-.12.82v5.83h-1.75Z"/><path class="cls-2" d="M423.46,302.7v2.79H426v1.33h-2.52V312c0,1.21.34,1.89,1.33,1.89a3.61,3.61,0,0,0,1-.13l.08,1.34a4.63,4.63,0,0,1-1.58.24,2.47,2.47,0,0,1-1.89-.74,3.7,3.7,0,0,1-.69-2.53v-5.28h-1.5v-1.33h1.5v-2.34Z"/><path class="cls-2" d="M432.2,308.5c0-1.14,0-2.12-.08-3h1.54l.07,1.89h.06a2.94,2.94,0,0,1,2.7-2.11,1.89,1.89,0,0,1,.49.05V307a2.69,2.69,0,0,0-.6-.05,2.46,2.46,0,0,0-2.36,2.25,5.33,5.33,0,0,0-.07.82v5.17H432.2Z"/><path class="cls-2" d="M444,315.16l-.16-1.22h-.05a3.6,3.6,0,0,1-3,1.44,2.76,2.76,0,0,1-2.95-2.78c0-2.34,2.07-3.63,5.81-3.6v-.21a2,2,0,0,0-2.2-2.23,4.73,4.73,0,0,0-2.52.72l-.4-1.17a6.13,6.13,0,0,1,3.19-.84c3,0,3.68,2,3.68,4v3.62a16.28,16.28,0,0,0,.14,2.31Zm-.28-4.94c-1.9,0-4.08.3-4.08,2.17a1.55,1.55,0,0,0,1.64,1.69,2.42,2.42,0,0,0,2.36-1.62,1.89,1.89,0,0,0,.08-.56Z"/><path class="cls-2" d="M448.28,308.1c0-1,0-1.81-.08-2.61h1.56l.1,1.59h.05a3.55,3.55,0,0,1,3.19-1.81c1.33,0,3.41.8,3.41,4.12v5.77h-1.75v-5.58c0-1.56-.59-2.87-2.23-2.87a2.52,2.52,0,0,0-2.37,1.8,2.57,2.57,0,0,0-.12.82v5.83h-1.76Z"/><path class="cls-2" d="M461.13,309.92h0c.24-.34.57-.77.84-1.1l2.86-3.33H467l-3.74,4,4.26,5.7h-2.14L462,310.51l-.9,1v3.64h-1.75V301h1.75Z"/><path class="cls-2" d="M471.07,302.75a1.06,1.06,0,0,1-1.12,1.09,1,1,0,0,1-1.06-1.09,1.07,1.07,0,0,1,1.09-1.09A1.05,1.05,0,0,1,471.07,302.75Zm-2,12.41v-9.67h1.75v9.67Z"/><path class="cls-2" d="M473.78,308.1c0-1,0-1.81-.08-2.61h1.56l.1,1.59h0a3.58,3.58,0,0,1,3.2-1.81c1.33,0,3.41.8,3.41,4.12v5.77h-1.75v-5.58c0-1.56-.59-2.87-2.23-2.87a2.52,2.52,0,0,0-2.37,1.8,2.56,2.56,0,0,0-.13.82v5.83h-1.75Z"/><path class="cls-2" d="M493.23,305.49c-.05.68-.08,1.46-.08,2.64v5.62c0,2.24-.46,3.58-1.38,4.43a5.22,5.22,0,0,1-3.53,1.16,6.19,6.19,0,0,1-3.23-.8l.45-1.35a5.45,5.45,0,0,0,2.84.78c1.8,0,3.12-.94,3.12-3.39V313.5h0a3.43,3.43,0,0,1-3.08,1.63c-2.41,0-4.12-2.05-4.12-4.73,0-3.29,2.13-5.13,4.37-5.13a3.22,3.22,0,0,1,3,1.66h0l.07-1.44Zm-1.83,3.8a2.48,2.48,0,0,0-.1-.79,2.54,2.54,0,0,0-2.47-1.87c-1.68,0-2.88,1.42-2.88,3.67,0,1.89,1,3.48,2.87,3.48a2.56,2.56,0,0,0,2.44-1.81,2.93,2.93,0,0,0,.14-.94Z"/><path class="cls-2" d="M495,317.57a13.48,13.48,0,0,0,2.51-8.17,13.29,13.29,0,0,0-2.51-8.13h1.37a12.83,12.83,0,0,1,2.62,8.15,13,13,0,0,1-2.62,8.15Z"/><line class="cls-3" x1="286.9" y1="154.92" x2="225.93" y2="209.53"/><polygon class="cls-4" points="225.41 199.02 227.4 199.2 226.5 209.02 236.36 209.2 236.32 211.2 224.31 210.98 225.41 199.02"/><line class="cls-3" x1="425.1" y1="148.99" x2="425.1" y2="209.87"/><polygon class="cls-4" points="416.92 203.24 418.39 201.88 425.1 209.1 431.81 201.88 433.28 203.24 425.1 212.03 416.92 203.24"/><rect class="cls-1" x="573.29" y="216.92" width="276.41" height="148.49"/><path class="cls-2" d="M685.06,272.55a22.33,22.33,0,0,1,4.45-.41c2.45,0,4,.42,5.18,1.37a4,4,0,0,1,1.58,3.34,4.47,4.47,0,0,1-3.19,4.14v.07a4.83,4.83,0,0,1,3.89,4.73,5,5,0,0,1-1.61,3.76c-1.3,1.22-3.43,1.78-6.52,1.78a33.6,33.6,0,0,1-3.78-.21Zm2.43,7.73h2.24c2.55,0,4.06-1.36,4.06-3.19,0-2.19-1.66-3.07-4.13-3.07a10.13,10.13,0,0,0-2.17.17Zm0,9a11.22,11.22,0,0,0,2.06.13c2.53,0,4.85-.93,4.85-3.67,0-2.57-2.22-3.64-4.88-3.65h-2Z"/><path class="cls-2" d="M702.94,273.79a1.49,1.49,0,0,1-1.57,1.53,1.46,1.46,0,0,1-1.48-1.53,1.49,1.49,0,0,1,1.53-1.53A1.47,1.47,0,0,1,702.94,273.79Zm-2.75,17.37V277.62h2.45v13.54Z"/><path class="cls-2" d="M706.74,281.28c0-1.42,0-2.54-.11-3.66h2.18l.13,2.23H709a5,5,0,0,1,4.48-2.54c1.86,0,4.77,1.12,4.77,5.77v8.08h-2.45v-7.81c0-2.19-.83-4-3.13-4a3.54,3.54,0,0,0-3.32,2.53,3.85,3.85,0,0,0-.17,1.14v8.16h-2.45Z"/><path class="cls-2" d="M729.79,291.16l-.22-1.71h-.07a5,5,0,0,1-4.14,2,3.86,3.86,0,0,1-4.14-3.89c0-3.28,2.91-5.08,8.14-5v-.29a2.79,2.79,0,0,0-3.09-3.12,6.51,6.51,0,0,0-3.52,1l-.56-1.64a8.54,8.54,0,0,1,4.47-1.19c4.14,0,5.15,2.83,5.15,5.54v5.07a21.41,21.41,0,0,0,.2,3.24Zm-.38-6.91c-2.67-.06-5.72.42-5.72,3a2.16,2.16,0,0,0,2.3,2.35,3.39,3.39,0,0,0,3.3-2.26,2.8,2.8,0,0,0,.12-.78Z"/><path class="cls-2" d="M735.77,281.84c0-1.6,0-3-.11-4.22h2.16l.09,2.66H738a4.11,4.11,0,0,1,3.77-3,3,3,0,0,1,.69.07v2.32a3.56,3.56,0,0,0-.84-.07,3.44,3.44,0,0,0-3.3,3.15,6.84,6.84,0,0,0-.1,1.15v7.23h-2.45Z"/><path class="cls-2" d="M746.52,277.62l3,8c.32.9.65,2,.87,2.77h.07c.24-.8.54-1.84.87-2.82l2.67-7.95h2.62l-3.71,9.64c-1.75,4.66-3,7-4.64,8.5a6.78,6.78,0,0,1-3,1.58l-.61-2.06a6.41,6.41,0,0,0,2.16-1.2,7.81,7.81,0,0,0,2.06-2.75,1.56,1.56,0,0,0,.19-.59,1.63,1.63,0,0,0-.17-.63l-5-12.49Z"/><path class="cls-2" d="M669,301.27a13.22,13.22,0,0,0-2.51,8.19,13.49,13.49,0,0,0,2.51,8.11H667.6a12.91,12.91,0,0,1-2.61-8.12,13.1,13.1,0,0,1,2.61-8.18Z"/><path class="cls-2" d="M670.27,315.16v-1.07l1.38-1.34c3.32-3.17,4.83-4.85,4.84-6.81a2.31,2.31,0,0,0-2.56-2.55,4.49,4.49,0,0,0-2.77,1.1l-.56-1.23a5.68,5.68,0,0,1,3.68-1.32,3.65,3.65,0,0,1,4,3.77c0,2.42-1.74,4.36-4.48,7l-1,1v0h5.83v1.46Z"/><path class="cls-2" d="M692.24,314.81a6.68,6.68,0,0,1-2.78.56,4.61,4.61,0,0,1-4.83-4.94,4.93,4.93,0,0,1,5.2-5.16,5.76,5.76,0,0,1,2.45.51l-.39,1.36a4.27,4.27,0,0,0-2.06-.47,3.36,3.36,0,0,0-3.42,3.66,3.32,3.32,0,0,0,3.38,3.62,5.22,5.22,0,0,0,2.15-.46Z"/><path class="cls-2" d="M699.68,315.16l-.15-1.22h-.06a3.6,3.6,0,0,1-3,1.44,2.76,2.76,0,0,1-3-2.78c0-2.34,2.08-3.63,5.81-3.6v-.21a2,2,0,0,0-2.2-2.23,4.73,4.73,0,0,0-2.52.72l-.4-1.17a6.14,6.14,0,0,1,3.2-.84c2.95,0,3.67,2,3.67,4v3.62a14.85,14.85,0,0,0,.15,2.31Zm-.27-4.94c-1.91,0-4.08.3-4.08,2.17a1.55,1.55,0,0,0,1.64,1.69,2.44,2.44,0,0,0,2.36-1.62,1.89,1.89,0,0,0,.08-.56Z"/><path class="cls-2" d="M706,302.7v2.79h2.53v1.33H706V312c0,1.21.35,1.89,1.33,1.89a3.51,3.51,0,0,0,1-.13l.08,1.34a4.61,4.61,0,0,1-1.57.24,2.49,2.49,0,0,1-1.9-.74,3.7,3.7,0,0,1-.68-2.53v-5.28h-1.5v-1.33h1.5v-2.34Z"/><path class="cls-2" d="M711.36,310.64a3.09,3.09,0,0,0,3.31,3.36,6.49,6.49,0,0,0,2.68-.5l.31,1.25a7.79,7.79,0,0,1-3.23.62,4.51,4.51,0,0,1-4.76-4.88c0-2.93,1.73-5.22,4.56-5.22,3.15,0,4,2.76,4,4.55a4.15,4.15,0,0,1-.06.82Zm5.15-1.27c0-1.1-.45-2.84-2.42-2.84a2.9,2.9,0,0,0-2.71,2.84Z"/><path class="cls-2" d="M728.75,305.49c0,.68-.09,1.46-.09,2.64v5.62c0,2.24-.45,3.58-1.38,4.43a5.2,5.2,0,0,1-3.52,1.16,6.19,6.19,0,0,1-3.23-.8l.44-1.35a5.49,5.49,0,0,0,2.85.78c1.79,0,3.11-.94,3.11-3.39V313.5h0a3.41,3.41,0,0,1-3.07,1.63c-2.41,0-4.13-2.05-4.13-4.73,0-3.29,2.14-5.13,4.37-5.13a3.22,3.22,0,0,1,3,1.66h0l.07-1.44Zm-1.83,3.8a2.8,2.8,0,0,0-.1-.79,2.56,2.56,0,0,0-2.47-1.87c-1.68,0-2.88,1.42-2.88,3.67,0,1.89,1,3.48,2.86,3.48a2.59,2.59,0,0,0,2.45-1.81,3.24,3.24,0,0,0,.14-.94Z"/><path class="cls-2" d="M740.33,310.23c0,3.58-2.48,5.15-4.81,5.15-2.62,0-4.65-1.91-4.65-5,0-3.24,2.13-5.13,4.81-5.13S740.33,307.28,740.33,310.23Zm-7.67.11c0,2.12,1.22,3.72,2.94,3.72s2.94-1.57,2.94-3.77c0-1.64-.82-3.71-2.91-3.71S732.66,308.51,732.66,310.34Z"/><path class="cls-2" d="M742.55,308.5c0-1.14,0-2.12-.08-3H744l.06,1.89h.07a2.93,2.93,0,0,1,2.69-2.11,1.89,1.89,0,0,1,.49.05V307a2.69,2.69,0,0,0-.6-.05,2.45,2.45,0,0,0-2.35,2.25,4.32,4.32,0,0,0-.07.82v5.17h-1.76Z"/><path class="cls-2" d="M751.14,302.75a1.09,1.09,0,1,1-2.18,0,1.07,1.07,0,0,1,1.1-1.09A1,1,0,0,1,751.14,302.75Zm-2,12.41v-9.67h1.75v9.67Z"/><path class="cls-2" d="M754.84,310.64a3.09,3.09,0,0,0,3.31,3.36,6.49,6.49,0,0,0,2.68-.5l.31,1.25a7.79,7.79,0,0,1-3.23.62,4.51,4.51,0,0,1-4.76-4.88c0-2.93,1.73-5.22,4.56-5.22,3.15,0,4,2.76,4,4.55a4.15,4.15,0,0,1-.06.82Zm5.15-1.27c0-1.1-.45-2.84-2.42-2.84a2.89,2.89,0,0,0-2.71,2.84Z"/><path class="cls-2" d="M763.63,313.37a4.79,4.79,0,0,0,2.33.69c1.29,0,1.88-.63,1.88-1.44s-.51-1.29-1.8-1.77c-1.75-.64-2.57-1.59-2.57-2.75,0-1.56,1.27-2.83,3.35-2.83a4.69,4.69,0,0,1,2.37.59l-.44,1.28a3.82,3.82,0,0,0-2-.57c-1,0-1.61.6-1.61,1.33s.57,1.16,1.84,1.65c1.67.62,2.53,1.46,2.54,2.9,0,1.72-1.33,2.92-3.62,2.92a5.52,5.52,0,0,1-2.72-.67Z"/><path class="cls-2" d="M770.74,317.57a13.55,13.55,0,0,0,2.51-8.17,13.35,13.35,0,0,0-2.51-8.13h1.36a12.83,12.83,0,0,1,2.62,8.15,13,13,0,0,1-2.62,8.15Z"/><line class="cls-3" x1="563.31" y1="154.92" x2="607.34" y2="210.34"/><polygon class="cls-4" points="596.82 210.24 597.11 208.26 606.86 209.74 607.63 199.9 609.62 200.06 608.69 212.04 596.82 210.24"/><text/></g></g></svg>