<?xml version="1.0" encoding="UTF-8"?>
<svg width="1214px" height="941px" viewBox="0 0 1214 941" version="1.1" xmlns="http://www.w3.org/2000/svg" xmlns:xlink="http://www.w3.org/1999/xlink">
    <title>Binomial PMF vs CDF 3</title>
    <g id="Binomial-PMF-vs-CDF-3" stroke="none" stroke-width="1" fill="none" fill-rule="evenodd">
        <rect fill="#0F1931" x="0" y="0" width="1214" height="941"></rect>
        <g id="Grid" transform="translate(364.041305, 411.000000)"></g>
        <rect id="Rectangle-Copy-23" fill="#66C4FF" x="685.5" y="712.80927" width="45" height="31"></rect>
        <rect id="Rectangle-Copy-7" fill="#FF8C00" x="685.5" y="799.442652" width="45" height="10"></rect>
        <rect id="Rectangle-Copy-21" fill="#F966FF" x="685.5" y="778.331183" width="45" height="19"></rect>
        <rect id="Rectangle-Copy-22" fill="#AEE938" x="685.5" y="746.882078" width="45" height="29"></rect>
        <rect id="Rectangle-Copy-24" fill="#FFD300" x="685.5" y="660.387653" width="45" height="50"></rect>
        <rect id="Rectangle-Copy-25" fill="#E91C11" x="685.5" y="575.612213" width="45" height="82"></rect>
        <rect id="Rectangle-Copy-26" fill="#008A27" x="685.5" y="522.04929" width="45" height="50"></rect>
        <path d="M522,197 L538,197 C540.209139,197 542,198.790861 542,201 L542,329 L542,329 L518,329 L518,201 C518,198.790861 519.790861,197 522,197 Z" id="Rectangle-Copy-9" fill="#66C4FF"></path>
        <path d="M576,112 L592,112 C594.209139,112 596,113.790861 596,116 L596,329 L596,329 L572,329 L572,116 C572,113.790861 573.790861,112 576,112 Z" id="Rectangle-Copy-11" fill="#FFD300"></path>
        <path d="M628,76 L644,76 C646.209139,76 648,77.790861 648,80 L648,329 L648,329 L624,329 L624,80 C624,77.790861 625.790861,76 628,76 Z" id="Rectangle-Copy-13" fill="#E91C11"></path>
        <path d="M680,112 L696,112 C698.209139,112 700,113.790861 700,116 L700,329 L700,329 L676,329 L676,116 C676,113.790861 677.790861,112 680,112 Z" id="Rectangle-Copy-15" fill="#008A27"></path>
        <polygon id="Line" fill="#FFFFFF" fill-rule="nonzero" points="396.494521 781.740448 396.50551 779.740478 443.496151 779.998669 443.485162 781.998639"></polygon>
        <polygon id="Line-Copy" fill="#FFFFFF" fill-rule="nonzero" points="444.946013 764.740448 444.957002 762.740478 491.947644 762.998669 491.936655 764.998639"></polygon>
        <polygon id="Line-Copy-2" fill="#FFFFFF" fill-rule="nonzero" points="493.397506 745.740448 493.408495 743.740478 540.399136 743.998669 540.388147 745.998639"></polygon>
        <polygon id="Line-Copy-3" fill="#FFFFFF" fill-rule="nonzero" points="541.848998 703.740448 541.859987 701.740478 588.850629 701.998669 588.83964 703.998639"></polygon>
        <polygon id="Line-Copy-4" fill="#FFFFFF" fill-rule="nonzero" points="590.300491 655.740448 590.31148 653.740478 637.302121 653.998669 637.291132 655.998639"></polygon>
        <polygon id="Line-Copy-5" fill="#FFFFFF" fill-rule="nonzero" points="637.751983 580.740448 637.762972 578.740478 684.753614 578.998669 684.742625 580.998639"></polygon>
        <polygon id="Line-Copy-6" fill="#FFFFFF" fill-rule="nonzero" points="685.203476 519.740448 685.214465 517.740478 732.205106 517.998669 732.194117 519.998639"></polygon>
        <polygon id="Line-Copy-7" fill="#FFFFFF" fill-rule="nonzero" points="735.654968 494.740448 735.665957 492.740478 782.656599 492.998669 782.64561 494.998639"></polygon>
        <polygon id="Line-Copy-8" fill="#FFFFFF" fill-rule="nonzero" points="784.106461 461.740448 784.11745 459.740478 831.108091 459.998669 831.097102 461.998639"></polygon>
        <polygon id="Line-Copy-9" fill="#FFFFFF" fill-rule="nonzero" points="830.557954 443.740448 830.568942 441.740478 877.559584 441.998669 877.548595 443.998639"></polygon>
        <polygon id="Line-Copy-10" fill="#FFFFFF" fill-rule="nonzero" points="878.009446 421.740448 878.020435 419.740478 925.011076 419.998669 925.000087 421.998639"></polygon>
        <polygon id="Line-Copy-10" fill="#FFFFFF" fill-rule="nonzero" points="878.009446 421.740448 878.020435 419.740478 925.011076 419.998669 925.000087 421.998639"></polygon>
        <g id="Group-5" transform="translate(393.554000, 813.000000)" fill="#FFFFFF" fill-rule="nonzero">
            <path d="M4.446,34.144 C5.898,34.144 7.002,33.592 7.758,32.488 C8.514,31.384 8.892,29.77 8.892,27.646 C8.892,25.522 8.514,23.911 7.758,22.813 C7.002,21.715 5.898,21.166 4.446,21.166 C2.994,21.166 1.89,21.718 1.134,22.822 C0.378,23.926 0,25.54 0,27.664 C0,29.776 0.378,31.384 1.134,32.488 C1.89,33.592 2.994,34.144 4.446,34.144 Z M4.446,32.902 C3.438,32.902 2.694,32.476 2.214,31.624 C1.734,30.772 1.494,29.446 1.494,27.646 C1.494,25.846 1.734,24.526 2.214,23.686 C2.694,22.846 3.438,22.426 4.446,22.426 C5.466,22.426 6.213,22.843 6.687,23.677 C7.161,24.511 7.398,25.834 7.398,27.646 C7.398,29.446 7.158,30.772 6.678,31.624 C6.198,32.476 5.454,32.902 4.446,32.902 Z" id="0"></path>
            <path d="M8.48730458,2 C9.59187408,2 10.4873046,2.8954305 10.4873046,4 C10.4873046,5.0543618 9.67142679,5.91816512 8.63656693,5.99451426 L8.48730458,6 L0.487304581,6 C-0.617264918,6 -1.51269542,5.1045695 -1.51269542,4 C-1.51269542,2.9456382 -0.696817628,2.08183488 0.338042236,2.00548574 L0.487304581,2 L8.48730458,2 Z" id="1" transform="translate(4.487305, 4.000000) rotate(-90.000000) translate(-4.487305, -4.000000) "></path>
        </g>
        <g id="Group-4-Copy-2" transform="translate(680.617000, 813.000000)" fill="#FFFFFF" fill-rule="nonzero">
            <path d="M4.806,34.144 C5.586,34.144 6.288,33.97 6.912,33.622 C7.536,33.274 8.022,32.788 8.37,32.164 C8.718,31.54 8.892,30.838 8.892,30.058 C8.892,29.266 8.724,28.564 8.388,27.952 C8.052,27.34 7.584,26.866 6.984,26.53 C6.384,26.194 5.7,26.026 4.932,26.026 C4.128,26.026 3.42,26.224 2.808,26.62 C2.196,27.016 1.752,27.55 1.476,28.222 L1.476,28.222 L1.476,27.952 C1.476,26.188 1.779,24.823 2.385,23.857 C2.991,22.891 3.84,22.408 4.932,22.408 C5.496,22.408 6.051,22.525 6.597,22.759 C7.143,22.993 7.716,23.362 8.316,23.866 L8.316,23.866 L8.874,22.732 C8.346,22.228 7.734,21.841 7.038,21.571 C6.342,21.301 5.628,21.166 4.896,21.166 C3.876,21.166 3,21.433 2.268,21.967 C1.536,22.501 0.975,23.278 0.585,24.298 C0.195,25.318 0,26.542 0,27.97 C0,29.95 0.417,31.474 1.251,32.542 C2.085,33.61 3.27,34.144 4.806,34.144 Z M4.734,32.902 C3.894,32.902 3.213,32.641 2.691,32.119 C2.169,31.597 1.908,30.916 1.908,30.076 C1.908,29.248 2.169,28.573 2.691,28.051 C3.213,27.529 3.888,27.268 4.716,27.268 C5.532,27.268 6.189,27.526 6.687,28.042 C7.185,28.558 7.434,29.236 7.434,30.076 C7.434,30.928 7.188,31.612 6.696,32.128 C6.204,32.644 5.55,32.902 4.734,32.902 Z" id="6"></path>
            <path d="M8.42430458,2 C9.52887408,2 10.4243046,2.8954305 10.4243046,4 C10.4243046,5.0543618 9.60842679,5.91816512 8.57356693,5.99451426 L8.42430458,6 L0.424304581,6 C-0.680264918,6 -1.57569542,5.1045695 -1.57569542,4 C-1.57569542,2.9456382 -0.759817628,2.08183488 0.275042236,2.00548574 L0.424304581,2 L8.42430458,2 Z" id="4" transform="translate(4.424305, 4.000000) rotate(-90.000000) translate(-4.424305, -4.000000) "></path>
        </g>
        <g id="Group-4-Copy" transform="translate(489.788000, 813.000000)" fill="#FFFFFF" fill-rule="nonzero">
            <path d="M8.514,34 L8.514,32.758 L2.25,32.758 L5.85,28.852 C6.606,28.024 7.149,27.274 7.479,26.602 C7.809,25.93 7.974,25.228 7.974,24.496 C7.974,23.476 7.635,22.666 6.957,22.066 C6.279,21.466 5.358,21.166 4.194,21.166 C3.426,21.166 2.661,21.307 1.899,21.589 C1.137,21.871 0.504,22.252 0,22.732 L0,22.732 L0.558,23.866 C1.734,22.894 2.934,22.408 4.158,22.408 C4.902,22.408 5.478,22.594 5.886,22.966 C6.294,23.338 6.498,23.872 6.498,24.568 C6.498,25.108 6.363,25.645 6.093,26.179 C5.823,26.713 5.388,27.316 4.788,27.988 L4.788,27.988 L0.342,32.884 L0.342,34 L8.514,34 Z" id="2"></path>
            <path d="M8.25330458,2 C9.35787408,2 10.2533046,2.8954305 10.2533046,4 C10.2533046,5.0543618 9.43742679,5.91816512 8.40256693,5.99451426 L8.25330458,6 L0.253304581,6 C-0.851264918,6 -1.74669542,5.1045695 -1.74669542,4 C-1.74669542,2.9456382 -0.930817628,2.08183488 0.104042236,2.00548574 L0.253304581,2 L8.25330458,2 Z" id="4" transform="translate(4.253305, 4.000000) rotate(-90.000000) translate(-4.253305, -4.000000) "></path>
        </g>
        <g id="Group-Copy" transform="translate(775.446000, 813.000000)" fill="#FFFFFF" fill-rule="nonzero">
            <path d="M4.554,34.126 C6.006,34.126 7.128,33.817 7.92,33.199 C8.712,32.581 9.108,31.726 9.108,30.634 C9.108,29.866 8.901,29.206 8.487,28.654 C8.073,28.102 7.494,27.712 6.75,27.484 C7.374,27.256 7.872,26.881 8.244,26.359 C8.616,25.837 8.802,25.228 8.802,24.532 C8.802,23.5 8.427,22.681 7.677,22.075 C6.927,21.469 5.886,21.166 4.554,21.166 C3.222,21.166 2.181,21.469 1.431,22.075 C0.681,22.681 0.306,23.5 0.306,24.532 C0.306,25.228 0.492,25.834 0.864,26.35 C1.236,26.866 1.74,27.244 2.376,27.484 C1.632,27.7 1.05,28.084 0.63,28.636 C0.21,29.188 0,29.854 0,30.634 C0,31.726 0.396,32.581 1.188,33.199 C1.98,33.817 3.102,34.126 4.554,34.126 Z M4.554,26.944 C3.642,26.944 2.949,26.746 2.475,26.35 C2.001,25.954 1.764,25.384 1.764,24.64 C1.764,23.932 2.001,23.38 2.475,22.984 C2.949,22.588 3.642,22.39 4.554,22.39 C5.466,22.39 6.159,22.588 6.633,22.984 C7.107,23.38 7.344,23.932 7.344,24.64 C7.344,25.384 7.107,25.954 6.633,26.35 C6.159,26.746 5.466,26.944 4.554,26.944 Z M4.554,32.902 C2.49,32.902 1.458,32.116 1.458,30.544 C1.458,28.972 2.49,28.186 4.554,28.186 C6.618,28.186 7.65,28.972 7.65,30.544 C7.65,32.116 6.618,32.902 4.554,32.902 Z" id="8"></path>
            <path d="M8.554,2 C9.6585695,2 10.554,2.8954305 10.554,4 C10.554,5.0543618 9.73812221,5.91816512 8.70326234,5.99451426 L8.554,6 L0.554,6 C-0.5505695,6 -1.446,5.1045695 -1.446,4 C-1.446,2.9456382 -0.630122209,2.08183488 0.404737655,2.00548574 L0.554,2 L8.554,2 Z" id="5" transform="translate(4.554000, 4.000000) rotate(-90.000000) translate(-4.554000, -4.000000) "></path>
        </g>
        <g id="Group-2-Copy-2" transform="translate(869.414000, 813.000000)" fill="#FFFFFF" fill-rule="nonzero">
            <path d="M7.182,34 L7.182,32.758 L4.392,32.758 L4.392,21.31 L3.33,21.31 L0,23.416 L0.684,24.55 L2.916,23.146 L2.916,32.758 L0.126,32.758 L0.126,34 L7.182,34 Z M13.986,34.144 C15.438,34.144 16.542,33.592 17.298,32.488 C18.054,31.384 18.432,29.77 18.432,27.646 C18.432,25.522 18.054,23.911 17.298,22.813 C16.542,21.715 15.438,21.166 13.986,21.166 C12.534,21.166 11.43,21.718 10.674,22.822 C9.918,23.926 9.54,25.54 9.54,27.664 C9.54,29.776 9.918,31.384 10.674,32.488 C11.43,33.592 12.534,34.144 13.986,34.144 Z M13.986,32.902 C12.978,32.902 12.234,32.476 11.754,31.624 C11.274,30.772 11.034,29.446 11.034,27.646 C11.034,25.846 11.274,24.526 11.754,23.686 C12.234,22.846 12.978,22.426 13.986,22.426 C15.006,22.426 15.753,22.843 16.227,23.677 C16.701,24.511 16.938,25.834 16.938,27.646 C16.938,29.446 16.698,30.772 16.218,31.624 C15.738,32.476 14.994,32.902 13.986,32.902 Z" id="10"></path>
            <path d="M12.6273046,2 C13.7318741,2 14.6273046,2.8954305 14.6273046,4 C14.6273046,5.0543618 13.8114268,5.91816512 12.7765669,5.99451426 L12.6273046,6 L4.62730458,6 C3.52273508,6 2.62730458,5.1045695 2.62730458,4 C2.62730458,2.9456382 3.44318237,2.08183488 4.47804224,2.00548574 L4.62730458,2 L12.6273046,2 Z" id="6" transform="translate(8.627305, 4.000000) rotate(-90.000000) translate(-8.627305, -4.000000) "></path>
        </g>
        <g id="Group-2-Copy" transform="translate(584.518000, 813.000000)" fill="#FFFFFF" fill-rule="nonzero">
            <path d="M7.326,34 L7.326,31.246 L9.234,31.246 L9.234,30.022 L7.326,30.022 L7.326,21.31 L6.12,21.31 L0,30.13 L0,31.246 L5.868,31.246 L5.868,34 L7.326,34 Z M5.868,30.022 L1.53,30.022 L5.868,23.776 L5.868,30.022 Z" id="4"></path>
            <path d="M8.52330458,2 C9.62787408,2 10.5233046,2.8954305 10.5233046,4 C10.5233046,5.0543618 9.70742679,5.91816512 8.67256693,5.99451426 L8.52330458,6 L0.523304581,6 C-0.581264918,6 -1.47669542,5.1045695 -1.47669542,4 C-1.47669542,2.9456382 -0.660817628,2.08183488 0.374042236,2.00548574 L0.523304581,2 L8.52330458,2 Z" id="6" transform="translate(4.523305, 4.000000) rotate(-90.000000) translate(-4.523305, -4.000000) "></path>
        </g>
        <path d="M926,409 C929.313708,409 932,411.686292 932,415 L932,807 C932,810.313708 929.313708,813 926,813 L350,813 C346.686292,813 344,810.313708 344,807 L344,415 C344,411.686292 346.686292,409 350,409 L926,409 Z M926,411 L350,411 C347.857805,411 346.108921,412.683968 346,414.80036 L346,415 L346,807 C346,809.142195 347.683968,810.891079 349.80036,810.995105 L350,811 L926,811 C928.142195,811 929.891079,809.316032 930,807.19964 L930,807 L930,415 C930,412.857805 928.316032,411.108921 926.19964,411.004895 L926,411 Z" id="Rectangle" fill="#FFFFFF" fill-rule="nonzero"></path>
        <g id="Group-3-Copy" transform="translate(282.000000, 65.000000)">
            <g id="Grid" transform="translate(82.000000, 0.000000)"></g>
            <g id="Group-5" transform="translate(91.554000, 266.000000)" fill="#FFFFFF" fill-rule="nonzero">
                <path d="M4.446,24.344 C5.898,24.344 7.002,23.792 7.758,22.688 C8.514,21.584 8.892,19.97 8.892,17.846 C8.892,15.722 8.514,14.111 7.758,13.013 C7.002,11.915 5.898,11.366 4.446,11.366 C2.994,11.366 1.89,11.918 1.134,13.022 C0.378,14.126 0,15.74 0,17.864 C0,19.976 0.378,21.584 1.134,22.688 C1.89,23.792 2.994,24.344 4.446,24.344 Z M4.446,23.102 C3.438,23.102 2.694,22.676 2.214,21.824 C1.734,20.972 1.494,19.646 1.494,17.846 C1.494,16.046 1.734,14.726 2.214,13.886 C2.694,13.046 3.438,12.626 4.446,12.626 C5.466,12.626 6.213,13.043 6.687,13.877 C7.161,14.711 7.398,16.034 7.398,17.846 C7.398,19.646 7.158,20.972 6.678,21.824 C6.198,22.676 5.454,23.102 4.446,23.102 Z" id="0"></path>
                <path d="M7.08730458,0.6 C8.19187408,0.6 9.08730458,1.4954305 9.08730458,2.6 C9.08730458,3.6543618 8.27142679,4.51816512 7.23656693,4.59451426 L7.08730458,4.6 L1.88730458,4.6 C0.782735082,4.6 -0.112695419,3.7045695 -0.112695419,2.6 C-0.112695419,1.5456382 0.703182372,0.681834878 1.73804224,0.605485736 L1.88730458,0.6 L7.08730458,0.6 Z" id="1" transform="translate(4.487305, 2.600000) rotate(-90.000000) translate(-4.487305, -2.600000) "></path>
            </g>
            <g id="Group-6-Copy-2" transform="translate(8.675690, 1.166000)" fill="#FFFFFF" fill-rule="nonzero">
                <path d="M4.446,12.978 C5.898,12.978 7.002,12.426 7.758,11.322 C8.514,10.218 8.892,8.604 8.892,6.48 C8.892,4.356 8.514,2.745 7.758,1.647 C7.002,0.549 5.898,0 4.446,0 C2.994,0 1.89,0.552 1.134,1.656 C0.378,2.76 0,4.374 0,6.498 C0,8.61 0.378,10.218 1.134,11.322 C1.89,12.426 2.994,12.978 4.446,12.978 Z M4.446,11.736 C3.438,11.736 2.694,11.31 2.214,10.458 C1.734,9.606 1.494,8.28 1.494,6.48 C1.494,4.68 1.734,3.36 2.214,2.52 C2.694,1.68 3.438,1.26 4.446,1.26 C5.466,1.26 6.213,1.677 6.687,2.511 C7.161,3.345 7.398,4.668 7.398,6.48 C7.398,8.28 7.158,9.606 6.678,10.458 C6.198,11.31 5.454,11.736 4.446,11.736 Z M12.816,12.834 L12.816,10.998 L10.98,10.998 L10.98,12.834 L12.816,12.834 Z M23.67,12.834 L23.67,11.592 L17.406,11.592 L21.006,7.686 C21.762,6.858 22.305,6.108 22.635,5.436 C22.965,4.764 23.13,4.062 23.13,3.33 C23.13,2.31 22.791,1.5 22.113,0.9 C21.435,0.3 20.514,0 19.35,0 C18.582,0 17.817,0.141 17.055,0.423 C16.293,0.705 15.66,1.086 15.156,1.566 L15.156,1.566 L15.714,2.7 C16.89,1.728 18.09,1.242 19.314,1.242 C20.058,1.242 20.634,1.428 21.042,1.8 C21.45,2.172 21.654,2.706 21.654,3.402 C21.654,3.942 21.519,4.479 21.249,5.013 C20.979,5.547 20.544,6.15 19.944,6.822 L19.944,6.822 L15.498,11.718 L15.498,12.834 L23.67,12.834 Z M30.366,12.96 C31.23,12.96 31.986,12.789 32.634,12.447 C33.282,12.105 33.783,11.628 34.137,11.016 C34.491,10.404 34.668,9.696 34.668,8.892 C34.668,8.1 34.506,7.401 34.182,6.795 C33.858,6.189 33.399,5.718 32.805,5.382 C32.211,5.046 31.512,4.878 30.708,4.878 C30.168,4.878 29.667,4.965 29.205,5.139 C28.743,5.313 28.344,5.562 28.008,5.886 L28.008,5.886 L28.008,1.368 L34.164,1.368 L34.164,0.144 L26.55,0.144 L26.55,7.578 L27.576,7.578 C28.296,6.594 29.262,6.102 30.474,6.102 C31.302,6.102 31.965,6.36 32.463,6.876 C32.961,7.392 33.21,8.07 33.21,8.91 C33.21,9.774 32.958,10.458 32.454,10.962 C31.95,11.466 31.254,11.718 30.366,11.718 C29.13,11.718 27.924,11.232 26.748,10.26 L26.748,10.26 L26.19,11.394 C26.706,11.874 27.339,12.255 28.089,12.537 C28.839,12.819 29.598,12.96 30.366,12.96 Z" id="0.25"></path>
                <path d="M53.3243097,4.834 C54.4288792,4.834 55.3243097,5.7294305 55.3243097,6.834 C55.3243097,7.8883618 54.508432,8.75216512 53.4735721,8.82851426 L53.3243097,8.834 L45.3296358,8.834 C44.2250663,8.834 43.3296358,7.9385695 43.3296358,6.834 C43.3296358,5.7796382 44.1455136,4.91583488 45.1803735,4.83948574 L45.3296358,4.834 L53.3243097,4.834 Z" id="1"></path>
            </g>
            <g id="Group-6-Copy-3" transform="translate(8.675690, 52.166000)" fill="#FFFFFF" fill-rule="nonzero">
                <path d="M4.446,12.978 C5.898,12.978 7.002,12.426 7.758,11.322 C8.514,10.218 8.892,8.604 8.892,6.48 C8.892,4.356 8.514,2.745 7.758,1.647 C7.002,0.549 5.898,0 4.446,0 C2.994,0 1.89,0.552 1.134,1.656 C0.378,2.76 0,4.374 0,6.498 C0,8.61 0.378,10.218 1.134,11.322 C1.89,12.426 2.994,12.978 4.446,12.978 Z M4.446,11.736 C3.438,11.736 2.694,11.31 2.214,10.458 C1.734,9.606 1.494,8.28 1.494,6.48 C1.494,4.68 1.734,3.36 2.214,2.52 C2.694,1.68 3.438,1.26 4.446,1.26 C5.466,1.26 6.213,1.677 6.687,2.511 C7.161,3.345 7.398,4.668 7.398,6.48 C7.398,8.28 7.158,9.606 6.678,10.458 C6.198,11.31 5.454,11.736 4.446,11.736 Z M12.816,12.834 L12.816,10.998 L10.98,10.998 L10.98,12.834 L12.816,12.834 Z M23.67,12.834 L23.67,11.592 L17.406,11.592 L21.006,7.686 C21.762,6.858 22.305,6.108 22.635,5.436 C22.965,4.764 23.13,4.062 23.13,3.33 C23.13,2.31 22.791,1.5 22.113,0.9 C21.435,0.3 20.514,0 19.35,0 C18.582,0 17.817,0.141 17.055,0.423 C16.293,0.705 15.66,1.086 15.156,1.566 L15.156,1.566 L15.714,2.7 C16.89,1.728 18.09,1.242 19.314,1.242 C20.058,1.242 20.634,1.428 21.042,1.8 C21.45,2.172 21.654,2.706 21.654,3.402 C21.654,3.942 21.519,4.479 21.249,5.013 C20.979,5.547 20.544,6.15 19.944,6.822 L19.944,6.822 L15.498,11.718 L15.498,12.834 L23.67,12.834 Z M30.168,12.978 C31.62,12.978 32.724,12.426 33.48,11.322 C34.236,10.218 34.614,8.604 34.614,6.48 C34.614,4.356 34.236,2.745 33.48,1.647 C32.724,0.549 31.62,0 30.168,0 C28.716,0 27.612,0.552 26.856,1.656 C26.1,2.76 25.722,4.374 25.722,6.498 C25.722,8.61 26.1,10.218 26.856,11.322 C27.612,12.426 28.716,12.978 30.168,12.978 Z M30.168,11.736 C29.16,11.736 28.416,11.31 27.936,10.458 C27.456,9.606 27.216,8.28 27.216,6.48 C27.216,4.68 27.456,3.36 27.936,2.52 C28.416,1.68 29.16,1.26 30.168,1.26 C31.188,1.26 31.935,1.677 32.409,2.511 C32.883,3.345 33.12,4.668 33.12,6.48 C33.12,8.28 32.88,9.606 32.4,10.458 C31.92,11.31 31.176,11.736 30.168,11.736 Z" id="0.20"></path>
                <path d="M53.3243097,4.834 C54.4288792,4.834 55.3243097,5.7294305 55.3243097,6.834 C55.3243097,7.8883618 54.508432,8.75216512 53.4735721,8.82851426 L53.3243097,8.834 L45.3296358,8.834 C44.2250663,8.834 43.3296358,7.9385695 43.3296358,6.834 C43.3296358,5.7796382 44.1455136,4.91583488 45.1803735,4.83948574 L45.3296358,4.834 L53.3243097,4.834 Z" id="1"></path>
            </g>
            <g id="Group-6-Copy-8" transform="translate(8.675690, 104.166000)" fill="#FFFFFF" fill-rule="nonzero">
                <path d="M4.446,12.978 C5.898,12.978 7.002,12.426 7.758,11.322 C8.514,10.218 8.892,8.604 8.892,6.48 C8.892,4.356 8.514,2.745 7.758,1.647 C7.002,0.549 5.898,0 4.446,0 C2.994,0 1.89,0.552 1.134,1.656 C0.378,2.76 0,4.374 0,6.498 C0,8.61 0.378,10.218 1.134,11.322 C1.89,12.426 2.994,12.978 4.446,12.978 Z M4.446,11.736 C3.438,11.736 2.694,11.31 2.214,10.458 C1.734,9.606 1.494,8.28 1.494,6.48 C1.494,4.68 1.734,3.36 2.214,2.52 C2.694,1.68 3.438,1.26 4.446,1.26 C5.466,1.26 6.213,1.677 6.687,2.511 C7.161,3.345 7.398,4.668 7.398,6.48 C7.398,8.28 7.158,9.606 6.678,10.458 C6.198,11.31 5.454,11.736 4.446,11.736 Z M12.816,12.834 L12.816,10.998 L10.98,10.998 L10.98,12.834 L12.816,12.834 Z M23.364,12.834 L23.364,11.592 L20.574,11.592 L20.574,0.144 L19.512,0.144 L16.182,2.25 L16.866,3.384 L19.098,1.98 L19.098,11.592 L16.308,11.592 L16.308,12.834 L23.364,12.834 Z M30.366,12.96 C31.23,12.96 31.986,12.789 32.634,12.447 C33.282,12.105 33.783,11.628 34.137,11.016 C34.491,10.404 34.668,9.696 34.668,8.892 C34.668,8.1 34.506,7.401 34.182,6.795 C33.858,6.189 33.399,5.718 32.805,5.382 C32.211,5.046 31.512,4.878 30.708,4.878 C30.168,4.878 29.667,4.965 29.205,5.139 C28.743,5.313 28.344,5.562 28.008,5.886 L28.008,5.886 L28.008,1.368 L34.164,1.368 L34.164,0.144 L26.55,0.144 L26.55,7.578 L27.576,7.578 C28.296,6.594 29.262,6.102 30.474,6.102 C31.302,6.102 31.965,6.36 32.463,6.876 C32.961,7.392 33.21,8.07 33.21,8.91 C33.21,9.774 32.958,10.458 32.454,10.962 C31.95,11.466 31.254,11.718 30.366,11.718 C29.13,11.718 27.924,11.232 26.748,10.26 L26.748,10.26 L26.19,11.394 C26.706,11.874 27.339,12.255 28.089,12.537 C28.839,12.819 29.598,12.96 30.366,12.96 Z" id="0.15"></path>
                <path d="M53.3243097,4.834 C54.4288792,4.834 55.3243097,5.7294305 55.3243097,6.834 C55.3243097,7.8883618 54.508432,8.75216512 53.4735721,8.82851426 L53.3243097,8.834 L45.3296358,8.834 C44.2250663,8.834 43.3296358,7.9385695 43.3296358,6.834 C43.3296358,5.7796382 44.1455136,4.91583488 45.1803735,4.83948574 L45.3296358,4.834 L53.3243097,4.834 Z" id="1"></path>
            </g>
            <g id="Group-6-Copy-4" transform="translate(8.675690, 156.166000)" fill="#FFFFFF" fill-rule="nonzero">
                <path d="M4.446,12.978 C5.898,12.978 7.002,12.426 7.758,11.322 C8.514,10.218 8.892,8.604 8.892,6.48 C8.892,4.356 8.514,2.745 7.758,1.647 C7.002,0.549 5.898,0 4.446,0 C2.994,0 1.89,0.552 1.134,1.656 C0.378,2.76 0,4.374 0,6.498 C0,8.61 0.378,10.218 1.134,11.322 C1.89,12.426 2.994,12.978 4.446,12.978 Z M4.446,11.736 C3.438,11.736 2.694,11.31 2.214,10.458 C1.734,9.606 1.494,8.28 1.494,6.48 C1.494,4.68 1.734,3.36 2.214,2.52 C2.694,1.68 3.438,1.26 4.446,1.26 C5.466,1.26 6.213,1.677 6.687,2.511 C7.161,3.345 7.398,4.668 7.398,6.48 C7.398,8.28 7.158,9.606 6.678,10.458 C6.198,11.31 5.454,11.736 4.446,11.736 Z M12.816,12.834 L12.816,10.998 L10.98,10.998 L10.98,12.834 L12.816,12.834 Z M23.364,12.834 L23.364,11.592 L20.574,11.592 L20.574,0.144 L19.512,0.144 L16.182,2.25 L16.866,3.384 L19.098,1.98 L19.098,11.592 L16.308,11.592 L16.308,12.834 L23.364,12.834 Z M30.168,12.978 C31.62,12.978 32.724,12.426 33.48,11.322 C34.236,10.218 34.614,8.604 34.614,6.48 C34.614,4.356 34.236,2.745 33.48,1.647 C32.724,0.549 31.62,0 30.168,0 C28.716,0 27.612,0.552 26.856,1.656 C26.1,2.76 25.722,4.374 25.722,6.498 C25.722,8.61 26.1,10.218 26.856,11.322 C27.612,12.426 28.716,12.978 30.168,12.978 Z M30.168,11.736 C29.16,11.736 28.416,11.31 27.936,10.458 C27.456,9.606 27.216,8.28 27.216,6.48 C27.216,4.68 27.456,3.36 27.936,2.52 C28.416,1.68 29.16,1.26 30.168,1.26 C31.188,1.26 31.935,1.677 32.409,2.511 C32.883,3.345 33.12,4.668 33.12,6.48 C33.12,8.28 32.88,9.606 32.4,10.458 C31.92,11.31 31.176,11.736 30.168,11.736 Z" id="0.10"></path>
                <path d="M53.3243097,4.834 C54.4288792,4.834 55.3243097,5.7294305 55.3243097,6.834 C55.3243097,7.8883618 54.508432,8.75216512 53.4735721,8.82851426 L53.3243097,8.834 L45.3296358,8.834 C44.2250663,8.834 43.3296358,7.9385695 43.3296358,6.834 C43.3296358,5.7796382 44.1455136,4.91583488 45.1803735,4.83948574 L45.3296358,4.834 L53.3243097,4.834 Z" id="1"></path>
            </g>
            <g id="Group-6-Copy-7" transform="translate(8.675690, 208.166000)" fill="#FFFFFF" fill-rule="nonzero">
                <path d="M4.446,12.978 C5.898,12.978 7.002,12.426 7.758,11.322 C8.514,10.218 8.892,8.604 8.892,6.48 C8.892,4.356 8.514,2.745 7.758,1.647 C7.002,0.549 5.898,0 4.446,0 C2.994,0 1.89,0.552 1.134,1.656 C0.378,2.76 0,4.374 0,6.498 C0,8.61 0.378,10.218 1.134,11.322 C1.89,12.426 2.994,12.978 4.446,12.978 Z M4.446,11.736 C3.438,11.736 2.694,11.31 2.214,10.458 C1.734,9.606 1.494,8.28 1.494,6.48 C1.494,4.68 1.734,3.36 2.214,2.52 C2.694,1.68 3.438,1.26 4.446,1.26 C5.466,1.26 6.213,1.677 6.687,2.511 C7.161,3.345 7.398,4.668 7.398,6.48 C7.398,8.28 7.158,9.606 6.678,10.458 C6.198,11.31 5.454,11.736 4.446,11.736 Z M12.816,12.834 L12.816,10.998 L10.98,10.998 L10.98,12.834 L12.816,12.834 Z M19.368,12.978 C20.82,12.978 21.924,12.426 22.68,11.322 C23.436,10.218 23.814,8.604 23.814,6.48 C23.814,4.356 23.436,2.745 22.68,1.647 C21.924,0.549 20.82,0 19.368,0 C17.916,0 16.812,0.552 16.056,1.656 C15.3,2.76 14.922,4.374 14.922,6.498 C14.922,8.61 15.3,10.218 16.056,11.322 C16.812,12.426 17.916,12.978 19.368,12.978 Z M19.368,11.736 C18.36,11.736 17.616,11.31 17.136,10.458 C16.656,9.606 16.416,8.28 16.416,6.48 C16.416,4.68 16.656,3.36 17.136,2.52 C17.616,1.68 18.36,1.26 19.368,1.26 C20.388,1.26 21.135,1.677 21.609,2.511 C22.083,3.345 22.32,4.668 22.32,6.48 C22.32,8.28 22.08,9.606 21.6,10.458 C21.12,11.31 20.376,11.736 19.368,11.736 Z M30.366,12.96 C31.23,12.96 31.986,12.789 32.634,12.447 C33.282,12.105 33.783,11.628 34.137,11.016 C34.491,10.404 34.668,9.696 34.668,8.892 C34.668,8.1 34.506,7.401 34.182,6.795 C33.858,6.189 33.399,5.718 32.805,5.382 C32.211,5.046 31.512,4.878 30.708,4.878 C30.168,4.878 29.667,4.965 29.205,5.139 C28.743,5.313 28.344,5.562 28.008,5.886 L28.008,5.886 L28.008,1.368 L34.164,1.368 L34.164,0.144 L26.55,0.144 L26.55,7.578 L27.576,7.578 C28.296,6.594 29.262,6.102 30.474,6.102 C31.302,6.102 31.965,6.36 32.463,6.876 C32.961,7.392 33.21,8.07 33.21,8.91 C33.21,9.774 32.958,10.458 32.454,10.962 C31.95,11.466 31.254,11.718 30.366,11.718 C29.13,11.718 27.924,11.232 26.748,10.26 L26.748,10.26 L26.19,11.394 C26.706,11.874 27.339,12.255 28.089,12.537 C28.839,12.819 29.598,12.96 30.366,12.96 Z" id="0.05"></path>
                <path d="M53.3243097,4.834 C54.4288792,4.834 55.3243097,5.7294305 55.3243097,6.834 C55.3243097,7.8883618 54.508432,8.75216512 53.4735721,8.82851426 L53.3243097,8.834 L45.3296358,8.834 C44.2250663,8.834 43.3296358,7.9385695 43.3296358,6.834 C43.3296358,5.7796382 44.1455136,4.91583488 45.1803735,4.83948574 L45.3296358,4.834 L53.3243097,4.834 Z" id="1"></path>
            </g>
            <g id="Group-6-Copy-5" transform="translate(0.000000, 248.000000)" fill-rule="nonzero">
                <path d="M13.1216903,18.144 C14.5736903,18.144 15.6776903,17.592 16.4336903,16.488 C17.1896903,15.384 17.5676903,13.77 17.5676903,11.646 C17.5676903,9.522 17.1896903,7.911 16.4336903,6.813 C15.6776903,5.715 14.5736903,5.166 13.1216903,5.166 C11.6696903,5.166 10.5656903,5.718 9.80969026,6.822 C9.05369026,7.926 8.67569026,9.54 8.67569026,11.664 C8.67569026,13.776 9.05369026,15.384 9.80969026,16.488 C10.5656903,17.592 11.6696903,18.144 13.1216903,18.144 Z M13.1216903,16.902 C12.1136903,16.902 11.3696903,16.476 10.8896903,15.624 C10.4096903,14.772 10.1696903,13.446 10.1696903,11.646 C10.1696903,9.846 10.4096903,8.526 10.8896903,7.686 C11.3696903,6.846 12.1136903,6.426 13.1216903,6.426 C14.1416903,6.426 14.8886903,6.843 15.3626903,7.677 C15.8366903,8.511 16.0736903,9.834 16.0736903,11.646 C16.0736903,13.446 15.8336903,14.772 15.3536903,15.624 C14.8736903,16.476 14.1296903,16.902 13.1216903,16.902 Z M21.4916903,18 L21.4916903,16.164 L19.6556903,16.164 L19.6556903,18 L21.4916903,18 Z M28.0436903,18.144 C29.4956903,18.144 30.5996903,17.592 31.3556903,16.488 C32.1116903,15.384 32.4896903,13.77 32.4896903,11.646 C32.4896903,9.522 32.1116903,7.911 31.3556903,6.813 C30.5996903,5.715 29.4956903,5.166 28.0436903,5.166 C26.5916903,5.166 25.4876903,5.718 24.7316903,6.822 C23.9756903,7.926 23.5976903,9.54 23.5976903,11.664 C23.5976903,13.776 23.9756903,15.384 24.7316903,16.488 C25.4876903,17.592 26.5916903,18.144 28.0436903,18.144 Z M28.0436903,16.902 C27.0356903,16.902 26.2916903,16.476 25.8116903,15.624 C25.3316903,14.772 25.0916903,13.446 25.0916903,11.646 C25.0916903,9.846 25.3316903,8.526 25.8116903,7.686 C26.2916903,6.846 27.0356903,6.426 28.0436903,6.426 C29.0636903,6.426 29.8106903,6.843 30.2846903,7.677 C30.7586903,8.511 30.9956903,9.834 30.9956903,11.646 C30.9956903,13.446 30.7556903,14.772 30.2756903,15.624 C29.7956903,16.476 29.0516903,16.902 28.0436903,16.902 Z M38.8436903,18.144 C40.2956903,18.144 41.3996903,17.592 42.1556903,16.488 C42.9116903,15.384 43.2896903,13.77 43.2896903,11.646 C43.2896903,9.522 42.9116903,7.911 42.1556903,6.813 C41.3996903,5.715 40.2956903,5.166 38.8436903,5.166 C37.3916903,5.166 36.2876903,5.718 35.5316903,6.822 C34.7756903,7.926 34.3976903,9.54 34.3976903,11.664 C34.3976903,13.776 34.7756903,15.384 35.5316903,16.488 C36.2876903,17.592 37.3916903,18.144 38.8436903,18.144 Z M38.8436903,16.902 C37.8356903,16.902 37.0916903,16.476 36.6116903,15.624 C36.1316903,14.772 35.8916903,13.446 35.8916903,11.646 C35.8916903,9.846 36.1316903,8.526 36.6116903,7.686 C37.0916903,6.846 37.8356903,6.426 38.8436903,6.426 C39.8636903,6.426 40.6106903,6.843 41.0846903,7.677 C41.5586903,8.511 41.7956903,9.834 41.7956903,11.646 C41.7956903,13.446 41.5556903,14.772 41.0756903,15.624 C40.5956903,16.476 39.8516903,16.902 38.8436903,16.902 Z" id="0.00" fill="#FFFFFF"></path>
                <line x1="62" y1="12" x2="54.0053261" y2="12" id="1" stroke="#FFFFFF" stroke-width="4" stroke-linecap="round"></line>
            </g>
            <g id="Group-4" transform="translate(142.814000, 266.000000)" fill="#FFFFFF" fill-rule="nonzero">
                <polygon id="1" points="7.182 24.2 7.182 22.958 4.392 22.958 4.392 11.51 3.33 11.51 0 13.616 0.684 14.75 2.916 13.346 2.916 22.958 0.126 22.958 0.126 24.2"></polygon>
                <path d="M5.82730458,0.6 C6.93187408,0.6 7.82730458,1.4954305 7.82730458,2.6 C7.82730458,3.6543618 7.01142679,4.51816512 5.97656693,4.59451426 L5.82730458,4.6 L0.627304581,4.6 C-0.477264918,4.6 -1.37269542,3.7045695 -1.37269542,2.6 C-1.37269542,1.5456382 -0.556817628,0.681834878 0.478042236,0.605485736 L0.627304581,0.6 L5.82730458,0.6 Z" id="4" transform="translate(3.227305, 2.600000) rotate(-90.000000) translate(-3.227305, -2.600000) "></path>
            </g>
            <g id="Group-4-Copy-2" transform="translate(401.617000, 266.000000)" fill="#FFFFFF" fill-rule="nonzero">
                <path d="M4.806,24.344 C5.586,24.344 6.288,24.17 6.912,23.822 C7.536,23.474 8.022,22.988 8.37,22.364 C8.718,21.74 8.892,21.038 8.892,20.258 C8.892,19.466 8.724,18.764 8.388,18.152 C8.052,17.54 7.584,17.066 6.984,16.73 C6.384,16.394 5.7,16.226 4.932,16.226 C4.128,16.226 3.42,16.424 2.808,16.82 C2.196,17.216 1.752,17.75 1.476,18.422 L1.476,18.422 L1.476,18.152 C1.476,16.388 1.779,15.023 2.385,14.057 C2.991,13.091 3.84,12.608 4.932,12.608 C5.496,12.608 6.051,12.725 6.597,12.959 C7.143,13.193 7.716,13.562 8.316,14.066 L8.316,14.066 L8.874,12.932 C8.346,12.428 7.734,12.041 7.038,11.771 C6.342,11.501 5.628,11.366 4.896,11.366 C3.876,11.366 3,11.633 2.268,12.167 C1.536,12.701 0.975,13.478 0.585,14.498 C0.195,15.518 0,16.742 0,18.17 C0,20.15 0.417,21.674 1.251,22.742 C2.085,23.81 3.27,24.344 4.806,24.344 Z M4.734,23.102 C3.894,23.102 3.213,22.841 2.691,22.319 C2.169,21.797 1.908,21.116 1.908,20.276 C1.908,19.448 2.169,18.773 2.691,18.251 C3.213,17.729 3.888,17.468 4.716,17.468 C5.532,17.468 6.189,17.726 6.687,18.242 C7.185,18.758 7.434,19.436 7.434,20.276 C7.434,21.128 7.188,21.812 6.696,22.328 C6.204,22.844 5.55,23.102 4.734,23.102 Z" id="6"></path>
                <path d="M7.02430458,0.6 C8.12887408,0.6 9.02430458,1.4954305 9.02430458,2.6 C9.02430458,3.6543618 8.20842679,4.51816512 7.17356693,4.59451426 L7.02430458,4.6 L1.82430458,4.6 C0.719735082,4.6 -0.175695419,3.7045695 -0.175695419,2.6 C-0.175695419,1.5456382 0.640182372,0.681834878 1.67504224,0.605485736 L1.82430458,0.6 L7.02430458,0.6 Z" id="4" transform="translate(4.424305, 2.600000) rotate(-90.000000) translate(-4.424305, -2.600000) "></path>
            </g>
            <g id="Group-4-Copy" transform="translate(191.788000, 266.000000)" fill="#FFFFFF" fill-rule="nonzero">
                <path d="M8.514,24.2 L8.514,22.958 L2.25,22.958 L5.85,19.052 C6.606,18.224 7.149,17.474 7.479,16.802 C7.809,16.13 7.974,15.428 7.974,14.696 C7.974,13.676 7.635,12.866 6.957,12.266 C6.279,11.666 5.358,11.366 4.194,11.366 C3.426,11.366 2.661,11.507 1.899,11.789 C1.137,12.071 0.504,12.452 0,12.932 L0,12.932 L0.558,14.066 C1.734,13.094 2.934,12.608 4.158,12.608 C4.902,12.608 5.478,12.794 5.886,13.166 C6.294,13.538 6.498,14.072 6.498,14.768 C6.498,15.308 6.363,15.845 6.093,16.379 C5.823,16.913 5.388,17.516 4.788,18.188 L4.788,18.188 L0.342,23.084 L0.342,24.2 L8.514,24.2 Z" id="2"></path>
                <path d="M6.85330458,0.6 C7.95787408,0.6 8.85330458,1.4954305 8.85330458,2.6 C8.85330458,3.6543618 8.03742679,4.51816512 7.00256693,4.59451426 L6.85330458,4.6 L1.65330458,4.6 C0.548735082,4.6 -0.346695419,3.7045695 -0.346695419,2.6 C-0.346695419,1.5456382 0.469182372,0.681834878 1.50404224,0.605485736 L1.65330458,0.6 L6.85330458,0.6 Z" id="4" transform="translate(4.253305, 2.600000) rotate(-90.000000) translate(-4.253305, -2.600000) "></path>
            </g>
            <g id="Group-4-Copy-3" transform="translate(451.806000, 266.000000)" fill="#FFFFFF" fill-rule="nonzero">
                <polygon id="7" points="2.448 24.2 8.388 12.608 8.388 11.51 0 11.51 0 12.752 6.768 12.752 0.846 24.2"></polygon>
                <path d="M6.83530458,0.6 C7.93987408,0.6 8.83530458,1.4954305 8.83530458,2.6 C8.83530458,3.6543618 8.01942679,4.51816512 6.98456693,4.59451426 L6.83530458,4.6 L1.63530458,4.6 C0.530735082,4.6 -0.364695419,3.7045695 -0.364695419,2.6 C-0.364695419,1.5456382 0.451182372,0.681834878 1.48604224,0.605485736 L1.63530458,0.6 L6.83530458,0.6 Z" id="4" transform="translate(4.235305, 2.600000) rotate(-90.000000) translate(-4.235305, -2.600000) "></path>
            </g>
            <g id="Group" transform="translate(243.608000, 266.000000)" fill="#FFFFFF" fill-rule="nonzero">
                <path d="M4.266,24.326 C5.55,24.326 6.567,24.008 7.317,23.372 C8.067,22.736 8.442,21.866 8.442,20.762 C8.442,19.97 8.244,19.313 7.848,18.791 C7.452,18.269 6.882,17.9 6.138,17.684 C6.774,17.444 7.269,17.051 7.623,16.505 C7.977,15.959 8.154,15.32 8.154,14.588 C8.154,13.604 7.815,12.821 7.137,12.239 C6.459,11.657 5.544,11.366 4.392,11.366 C3.588,11.366 2.814,11.504 2.07,11.78 C1.326,12.056 0.696,12.44 0.18,12.932 L0.18,12.932 L0.738,14.066 C1.914,13.094 3.114,12.608 4.338,12.608 C5.094,12.608 5.676,12.791 6.084,13.157 C6.492,13.523 6.696,14.048 6.696,14.732 C6.696,15.512 6.444,16.109 5.94,16.523 C5.436,16.937 4.716,17.144 3.78,17.144 L3.78,17.144 L2.61,17.144 L2.61,18.386 L4.068,18.386 C6.012,18.386 6.984,19.16 6.984,20.708 C6.984,21.488 6.75,22.079 6.282,22.481 C5.814,22.883 5.13,23.084 4.23,23.084 C2.934,23.084 1.71,22.598 0.558,21.626 L0.558,21.626 L0,22.76 C0.516,23.252 1.152,23.636 1.908,23.912 C2.664,24.188 3.45,24.326 4.266,24.326 Z" id="3"></path>
                <path d="M6.992,0.6 C8.0965695,0.6 8.992,1.4954305 8.992,2.6 C8.992,3.6543618 8.17612221,4.51816512 7.14126234,4.59451426 L6.992,4.6 L1.792,4.6 C0.6874305,4.6 -0.208,3.7045695 -0.208,2.6 C-0.208,1.5456382 0.607877791,0.681834878 1.64273766,0.605485736 L1.792,0.6 L6.992,0.6 Z" id="5" transform="translate(4.392000, 2.600000) rotate(-90.000000) translate(-4.392000, -2.600000) "></path>
            </g>
            <g id="Group-Copy" transform="translate(503.446000, 266.000000)" fill="#FFFFFF" fill-rule="nonzero">
                <path d="M4.554,24.326 C6.006,24.326 7.128,24.017 7.92,23.399 C8.712,22.781 9.108,21.926 9.108,20.834 C9.108,20.066 8.901,19.406 8.487,18.854 C8.073,18.302 7.494,17.912 6.75,17.684 C7.374,17.456 7.872,17.081 8.244,16.559 C8.616,16.037 8.802,15.428 8.802,14.732 C8.802,13.7 8.427,12.881 7.677,12.275 C6.927,11.669 5.886,11.366 4.554,11.366 C3.222,11.366 2.181,11.669 1.431,12.275 C0.681,12.881 0.306,13.7 0.306,14.732 C0.306,15.428 0.492,16.034 0.864,16.55 C1.236,17.066 1.74,17.444 2.376,17.684 C1.632,17.9 1.05,18.284 0.63,18.836 C0.21,19.388 0,20.054 0,20.834 C0,21.926 0.396,22.781 1.188,23.399 C1.98,24.017 3.102,24.326 4.554,24.326 Z M4.554,17.144 C3.642,17.144 2.949,16.946 2.475,16.55 C2.001,16.154 1.764,15.584 1.764,14.84 C1.764,14.132 2.001,13.58 2.475,13.184 C2.949,12.788 3.642,12.59 4.554,12.59 C5.466,12.59 6.159,12.788 6.633,13.184 C7.107,13.58 7.344,14.132 7.344,14.84 C7.344,15.584 7.107,16.154 6.633,16.55 C6.159,16.946 5.466,17.144 4.554,17.144 Z M4.554,23.102 C2.49,23.102 1.458,22.316 1.458,20.744 C1.458,19.172 2.49,18.386 4.554,18.386 C6.618,18.386 7.65,19.172 7.65,20.744 C7.65,22.316 6.618,23.102 4.554,23.102 Z" id="8"></path>
                <path d="M7.154,0.6 C8.2585695,0.6 9.154,1.4954305 9.154,2.6 C9.154,3.6543618 8.33812221,4.51816512 7.30326234,4.59451426 L7.154,4.6 L1.954,4.6 C0.8494305,4.6 -0.046,3.7045695 -0.046,2.6 C-0.046,1.5456382 0.769877791,0.681834878 1.80473766,0.605485736 L1.954,0.6 L7.154,0.6 Z" id="5" transform="translate(4.554000, 2.600000) rotate(-90.000000) translate(-4.554000, -2.600000) "></path>
            </g>
            <g id="Group-2" transform="translate(350.022000, 266.000000)" fill="#FFFFFF" fill-rule="nonzero">
                <path d="M4.176,24.326 C5.04,24.326 5.796,24.155 6.444,23.813 C7.092,23.471 7.593,22.994 7.947,22.382 C8.301,21.77 8.478,21.062 8.478,20.258 C8.478,19.466 8.316,18.767 7.992,18.161 C7.668,17.555 7.209,17.084 6.615,16.748 C6.021,16.412 5.322,16.244 4.518,16.244 C3.978,16.244 3.477,16.331 3.015,16.505 C2.553,16.679 2.154,16.928 1.818,17.252 L1.818,17.252 L1.818,12.734 L7.974,12.734 L7.974,11.51 L0.36,11.51 L0.36,18.944 L1.386,18.944 C2.106,17.96 3.072,17.468 4.284,17.468 C5.112,17.468 5.775,17.726 6.273,18.242 C6.771,18.758 7.02,19.436 7.02,20.276 C7.02,21.14 6.768,21.824 6.264,22.328 C5.76,22.832 5.064,23.084 4.176,23.084 C2.94,23.084 1.734,22.598 0.558,21.626 L0.558,21.626 L0,22.76 C0.516,23.24 1.149,23.621 1.899,23.903 C2.649,24.185 3.408,24.326 4.176,24.326 Z" id="5"></path>
                <path d="M6.61930458,0.6 C7.72387408,0.6 8.61930458,1.4954305 8.61930458,2.6 C8.61930458,3.6543618 7.80342679,4.51816512 6.76856693,4.59451426 L6.61930458,4.6 L1.41930458,4.6 C0.314735082,4.6 -0.580695419,3.7045695 -0.580695419,2.6 C-0.580695419,1.5456382 0.235182372,0.681834878 1.27004224,0.605485736 L1.41930458,0.6 L6.61930458,0.6 Z" id="6" transform="translate(4.019305, 2.600000) rotate(-90.000000) translate(-4.019305, -2.600000) "></path>
            </g>
            <g id="Group-2-Copy-2" transform="translate(607.414000, 266.000000)" fill="#FFFFFF" fill-rule="nonzero">
                <path d="M7.182,24.2 L7.182,22.958 L4.392,22.958 L4.392,11.51 L3.33,11.51 L0,13.616 L0.684,14.75 L2.916,13.346 L2.916,22.958 L0.126,22.958 L0.126,24.2 L7.182,24.2 Z M13.986,24.344 C15.438,24.344 16.542,23.792 17.298,22.688 C18.054,21.584 18.432,19.97 18.432,17.846 C18.432,15.722 18.054,14.111 17.298,13.013 C16.542,11.915 15.438,11.366 13.986,11.366 C12.534,11.366 11.43,11.918 10.674,13.022 C9.918,14.126 9.54,15.74 9.54,17.864 C9.54,19.976 9.918,21.584 10.674,22.688 C11.43,23.792 12.534,24.344 13.986,24.344 Z M13.986,23.102 C12.978,23.102 12.234,22.676 11.754,21.824 C11.274,20.972 11.034,19.646 11.034,17.846 C11.034,16.046 11.274,14.726 11.754,13.886 C12.234,13.046 12.978,12.626 13.986,12.626 C15.006,12.626 15.753,13.043 16.227,13.877 C16.701,14.711 16.938,16.034 16.938,17.846 C16.938,19.646 16.698,20.972 16.218,21.824 C15.738,22.676 14.994,23.102 13.986,23.102 Z" id="10"></path>
                <path d="M11.2273046,0.6 C12.3318741,0.6 13.2273046,1.4954305 13.2273046,2.6 C13.2273046,3.6543618 12.4114268,4.51816512 11.3765669,4.59451426 L11.2273046,4.6 L6.02730458,4.6 C4.92273508,4.6 4.02730458,3.7045695 4.02730458,2.6 C4.02730458,1.5456382 4.84318237,0.681834878 5.87804224,0.605485736 L6.02730458,0.6 L11.2273046,0.6 Z" id="6" transform="translate(8.627305, 2.600000) rotate(-90.000000) translate(-8.627305, -2.600000) "></path>
            </g>
            <g id="Group-2-Copy" transform="translate(297.518000, 266.000000)" fill="#FFFFFF" fill-rule="nonzero">
                <path d="M7.326,24.2 L7.326,21.446 L9.234,21.446 L9.234,20.222 L7.326,20.222 L7.326,11.51 L6.12,11.51 L0,20.33 L0,21.446 L5.868,21.446 L5.868,24.2 L7.326,24.2 Z M5.868,20.222 L1.53,20.222 L5.868,13.976 L5.868,20.222 Z" id="4"></path>
                <path d="M7.12330458,0.6 C8.22787408,0.6 9.12330458,1.4954305 9.12330458,2.6 C9.12330458,3.6543618 8.30742679,4.51816512 7.27256693,4.59451426 L7.12330458,4.6 L1.92330458,4.6 C0.818735082,4.6 -0.0766954187,3.7045695 -0.0766954187,2.6 C-0.0766954187,1.5456382 0.739182372,0.681834878 1.77404224,0.605485736 L1.92330458,0.6 L7.12330458,0.6 Z" id="6" transform="translate(4.523305, 2.600000) rotate(-90.000000) translate(-4.523305, -2.600000) "></path>
            </g>
            <g id="Group-2-Copy-3" transform="translate(557.518000, 266.000000)" fill="#FFFFFF" fill-rule="nonzero">
                <path d="M4.176,18.242 C3.36,18.242 2.703,17.987 2.205,17.477 C1.707,16.967 1.458,16.286 1.458,15.434 C1.458,14.582 1.704,13.898 2.196,13.382 C2.688,12.866 3.342,12.608 4.158,12.608 C4.998,12.608 5.679,12.869 6.201,13.391 C6.723,13.913 6.984,14.594 6.984,15.434 C6.984,16.262 6.723,16.937 6.201,17.459 C5.679,17.981 5.004,18.242 4.176,18.242 Z M7.398,17.325 L7.398,17.558 C7.398,19.322 7.098,20.687 6.498,21.653 C5.898,22.619 5.052,23.102 3.96,23.102 C3.396,23.102 2.841,22.985 2.295,22.751 C1.749,22.517 1.176,22.148 0.576,21.644 L0.576,21.644 L0.018,22.778 C0.546,23.282 1.158,23.669 1.854,23.939 C2.55,24.209 3.258,24.344 3.978,24.344 C5.526,24.344 6.732,23.747 7.596,22.553 C8.46,21.359 8.892,19.688 8.892,17.54 C8.892,15.56 8.475,14.036 7.641,12.968 C6.807,11.9 5.622,11.366 4.086,11.366 C3.306,11.366 2.604,11.54 1.98,11.888 C1.356,12.236 0.87,12.722 0.522,13.346 C0.174,13.97 1.13686838e-13,14.672 1.13686838e-13,15.452 C1.13686838e-13,16.244 0.168,16.946 0.504,17.558 C0.84,18.17 1.308,18.644 1.908,18.98 C2.508,19.316 3.192,19.484 3.96,19.484 C4.74,19.484 5.439,19.292 6.057,18.908 C6.675,18.524 7.122,17.996 7.398,17.324 L7.398,17.325 Z" id="9"></path>
                <path d="M7.12330458,0.6 C8.22787408,0.6 9.12330458,1.4954305 9.12330458,2.6 C9.12330458,3.6543618 8.30742679,4.51816512 7.27256693,4.59451426 L7.12330458,4.6 L1.92330458,4.6 C0.818735082,4.6 -0.0766954187,3.7045695 -0.0766954187,2.6 C-0.0766954187,1.5456382 0.739182372,0.681834878 1.77404224,0.605485736 L1.92330458,0.6 L7.12330458,0.6 Z" id="6" transform="translate(4.523305, 2.600000) rotate(-90.000000) translate(-4.523305, -2.600000) "></path>
            </g>
            <path d="M644,0 C647.313708,0 650,2.6862915 650,6 L650,260 C650,263.313708 647.313708,266 644,266 L68,266 C64.6862915,266 62,263.313708 62,260 L62,6 C62,2.6862915 64.6862915,0 68,0 L644,0 Z M644,2 L68,2 C65.8578046,2 64.1089211,3.68396847 64,5.80035966 L64,6 L64,260 C64,262.142195 65.6839685,263.891079 67.8003597,263.995105 L68,264 L644,264 C646.142195,264 647.891079,262.316032 648,260.19964 L648,260 L648,6 C648,3.85780461 646.316032,2.10892112 644.19964,2.00489531 L644,2 Z" id="Rectangle" fill="#FFFFFF" fill-rule="nonzero"></path>
            <path d="M449,132 L465,132 C467.209139,132 469,133.790861 469,136 L469,264 L469,264 L445,264 L445,136 C445,133.790861 446.790861,132 449,132 Z" id="Rectangle-Copy-17" fill="#222F4F"></path>
            <path d="M499,210 L515,210 C517.209139,210 519,211.790861 519,214 L519,264 L519,264 L495,264 L495,214 C495,211.790861 496.790861,210 499,210 Z" id="Rectangle-Copy-18" fill="#222F4F"></path>
            <path d="M555,236 L571,236 C573.209139,236 575,237.790861 575,240 L575,264 L575,264 L551,264 L551,240 C551,237.790861 552.790861,236 555,236 Z" id="Rectangle-Copy-19" fill="#222F4F"></path>
            <path d="M607,250 L623,250 C625.209139,250 627,251.790861 627,254 L627,264 L627,264 L603,264 L603,254 C603,251.790861 604.790861,250 607,250 Z" id="Rectangle-Copy-20" fill="#222F4F"></path>
        </g>
        <path d="M370,315 L386,315 C388.209139,315 390,316.790861 390,319 L390,329 L390,329 L366,329 L366,319 C366,316.790861 367.790861,315 370,315 Z" id="Rectangle" fill="#FF8C00"></path>
        <path d="M420,301 L436,301 C438.209139,301 440,302.790861 440,305 L440,329 L440,329 L416,329 L416,305 C416,302.790861 417.790861,301 420,301 Z" id="Rectangle-Copy" fill="#F966FF"></path>
        <path d="M470,275 L486,275 C488.209139,275 490,276.790861 490,279 L490,329 L490,329 L466,329 L466,279 C466,276.790861 467.790861,275 470,275 Z" id="Rectangle-Copy-7" fill="#AEE938"></path>
        <g id="Group-6-Copy-2" transform="translate(282.000000, 403.000000)">
            <text id="1.0" font-family="NunitoSans-Regular, Nunito Sans" font-size="18" font-weight="normal" fill="#FFFFFF">
                <tspan x="13.139" y="18">1.0</tspan>
            </text>
            <line x1="62.0413046" y1="12" x2="54.0413046" y2="12" id="1" stroke="#FFFFFF" stroke-width="4" stroke-linecap="round" fill-rule="nonzero"></line>
        </g>
        <g id="Group-6-Copy-3" transform="translate(282.000000, 481.000000)">
            <text id="0.80" font-family="NunitoSans-Regular, Nunito Sans" font-size="18" font-weight="normal" fill="#FFFFFF">
                <tspan x="7.739" y="18">0.80</tspan>
            </text>
            <line x1="62.0413046" y1="12" x2="54.0413046" y2="12" id="1" stroke="#FFFFFF" stroke-width="4" stroke-linecap="round" fill-rule="nonzero"></line>
        </g>
        <g id="Group-6-Copy-8" transform="translate(282.000000, 559.000000)">
            <text id="0.60" font-family="NunitoSans-Regular, Nunito Sans" font-size="18" font-weight="normal" fill="#FFFFFF">
                <tspan x="7.748" y="18">0.60</tspan>
            </text>
            <line x1="62.0413046" y1="12" x2="54.0413046" y2="12" id="1" stroke="#FFFFFF" stroke-width="4" stroke-linecap="round" fill-rule="nonzero"></line>
        </g>
        <g id="Group-6-Copy-4" transform="translate(282.000000, 639.000000)">
            <text id="0.40" font-family="NunitoSans-Regular, Nunito Sans" font-size="18" font-weight="normal" fill="#FFFFFF">
                <tspan x="7.739" y="18">0.40</tspan>
            </text>
            <line x1="62.0413046" y1="12" x2="54.0413046" y2="12" id="1" stroke="#FFFFFF" stroke-width="4" stroke-linecap="round" fill-rule="nonzero"></line>
        </g>
        <g id="Group-6-Copy-7" transform="translate(282.000000, 717.000000)">
            <text id="0.20" font-family="NunitoSans-Regular, Nunito Sans" font-size="18" font-weight="normal" fill="#FFFFFF">
                <tspan x="7.739" y="18">0.20</tspan>
            </text>
            <line x1="62.0413046" y1="12" x2="54.0413046" y2="12" id="1" stroke="#FFFFFF" stroke-width="4" stroke-linecap="round" fill-rule="nonzero"></line>
        </g>
        <g id="Group-6-Copy-5" transform="translate(282.000000, 795.000000)">
            <text id="0.0" font-family="NunitoSans-Regular, Nunito Sans" font-size="18" font-weight="normal" fill="#FFFFFF">
                <tspan x="13.139" y="18">0.0</tspan>
            </text>
            <line x1="62.0413046" y1="12" x2="54.0413046" y2="12" id="1" stroke="#FFFFFF" stroke-width="4" stroke-linecap="round" fill-rule="nonzero"></line>
        </g>
    </g>
</svg>