<?xml version="1.0" encoding="utf-8" standalone="no"?>
<!DOCTYPE svg PUBLIC "-//W3C//DTD SVG 1.1//EN"
  "http://www.w3.org/Graphics/SVG/1.1/DTD/svg11.dtd">
<!-- Created with matplotlib (https://matplotlib.org/) -->
<svg height="262.19625pt" version="1.1" viewBox="0 0 389.653693 262.19625" width="389.653693pt" xmlns="http://www.w3.org/2000/svg" xmlns:xlink="http://www.w3.org/1999/xlink">
 <defs>
  <style type="text/css">
*{stroke-linecap:butt;stroke-linejoin:round;}
  </style>
 </defs>
 <g id="figure_1">
  <g id="patch_1">
   <path d="M 0 262.19625 
L 389.653693 262.19625 
L 389.653693 0 
L 0 0 
z
" style="fill:#ffffff;"/>
  </g>
  <g id="axes_1">
   <g id="patch_2">
    <path d="M 46.965625 224.64 
L 381.765625 224.64 
L 381.765625 7.2 
L 46.965625 7.2 
z
" style="fill:#ffffff;"/>
   </g>
   <g id="patch_3">
    <path clip-path="url(#p35bb95046f)" d="M 62.183807 224.64 
L 66.795377 224.64 
L 66.795377 198.420993 
L 62.183807 198.420993 
z
" style="fill:#1f77b4;fill-opacity:0.75;stroke:#000000;stroke-linejoin:miter;stroke-width:0.461157;"/>
   </g>
   <g id="patch_4">
    <path clip-path="url(#p35bb95046f)" d="M 66.795377 224.64 
L 71.406947 224.64 
L 71.406947 149.538099 
L 66.795377 149.538099 
z
" style="fill:#1f77b4;fill-opacity:0.75;stroke:#000000;stroke-linejoin:miter;stroke-width:0.461157;"/>
   </g>
   <g id="patch_5">
    <path clip-path="url(#p35bb95046f)" d="M 71.406947 224.64 
L 76.018518 224.64 
L 76.018518 119.319583 
L 71.406947 119.319583 
z
" style="fill:#1f77b4;fill-opacity:0.75;stroke:#000000;stroke-linejoin:miter;stroke-width:0.461157;"/>
   </g>
   <g id="patch_6">
    <path clip-path="url(#p35bb95046f)" d="M 76.018518 224.64 
L 80.630088 224.64 
L 80.630088 119.763973 
L 76.018518 119.763973 
z
" style="fill:#1f77b4;fill-opacity:0.75;stroke:#000000;stroke-linejoin:miter;stroke-width:0.461157;"/>
   </g>
   <g id="patch_7">
    <path clip-path="url(#p35bb95046f)" d="M 80.630088 224.64 
L 85.241658 224.64 
L 85.241658 37.996223 
L 80.630088 37.996223 
z
" style="fill:#1f77b4;fill-opacity:0.75;stroke:#000000;stroke-linejoin:miter;stroke-width:0.461157;"/>
   </g>
   <g id="patch_8">
    <path clip-path="url(#p35bb95046f)" d="M 85.241658 224.64 
L 89.853228 224.64 
L 89.853228 43.773292 
L 85.241658 43.773292 
z
" style="fill:#1f77b4;fill-opacity:0.75;stroke:#000000;stroke-linejoin:miter;stroke-width:0.461157;"/>
   </g>
   <g id="patch_9">
    <path clip-path="url(#p35bb95046f)" d="M 89.853228 224.64 
L 94.464799 224.64 
L 94.464799 36.218663 
L 89.853228 36.218663 
z
" style="fill:#1f77b4;fill-opacity:0.75;stroke:#000000;stroke-linejoin:miter;stroke-width:0.461157;"/>
   </g>
   <g id="patch_10">
    <path clip-path="url(#p35bb95046f)" d="M 94.464799 224.64 
L 99.076369 224.64 
L 99.076369 17.554286 
L 94.464799 17.554286 
z
" style="fill:#1f77b4;fill-opacity:0.75;stroke:#000000;stroke-linejoin:miter;stroke-width:0.461157;"/>
   </g>
   <g id="patch_11">
    <path clip-path="url(#p35bb95046f)" d="M 99.076369 224.64 
L 103.687939 224.64 
L 103.687939 60.21572 
L 99.076369 60.21572 
z
" style="fill:#1f77b4;fill-opacity:0.75;stroke:#000000;stroke-linejoin:miter;stroke-width:0.461157;"/>
   </g>
   <g id="patch_12">
    <path clip-path="url(#p35bb95046f)" d="M 103.687939 224.64 
L 108.299509 224.64 
L 108.299509 101.988375 
L 103.687939 101.988375 
z
" style="fill:#1f77b4;fill-opacity:0.75;stroke:#000000;stroke-linejoin:miter;stroke-width:0.461157;"/>
   </g>
   <g id="patch_13">
    <path clip-path="url(#p35bb95046f)" d="M 108.299509 224.64 
L 112.91108 224.64 
L 112.91108 131.762502 
L 108.299509 131.762502 
z
" style="fill:#1f77b4;fill-opacity:0.75;stroke:#000000;stroke-linejoin:miter;stroke-width:0.461157;"/>
   </g>
   <g id="patch_14">
    <path clip-path="url(#p35bb95046f)" d="M 112.91108 224.64 
L 117.52265 224.64 
L 117.52265 133.095671 
L 112.91108 133.095671 
z
" style="fill:#1f77b4;fill-opacity:0.75;stroke:#000000;stroke-linejoin:miter;stroke-width:0.461157;"/>
   </g>
   <g id="patch_15">
    <path clip-path="url(#p35bb95046f)" d="M 117.52265 224.64 
L 122.13422 224.64 
L 122.13422 162.869798 
L 117.52265 162.869798 
z
" style="fill:#1f77b4;fill-opacity:0.75;stroke:#000000;stroke-linejoin:miter;stroke-width:0.461157;"/>
   </g>
   <g id="patch_16">
    <path clip-path="url(#p35bb95046f)" d="M 122.13422 224.64 
L 126.74579 224.64 
L 126.74579 157.981508 
L 122.13422 157.981508 
z
" style="fill:#1f77b4;fill-opacity:0.75;stroke:#000000;stroke-linejoin:miter;stroke-width:0.461157;"/>
   </g>
   <g id="patch_17">
    <path clip-path="url(#p35bb95046f)" d="M 126.74579 224.64 
L 131.357361 224.64 
L 131.357361 162.869798 
L 126.74579 162.869798 
z
" style="fill:#1f77b4;fill-opacity:0.75;stroke:#000000;stroke-linejoin:miter;stroke-width:0.461157;"/>
   </g>
   <g id="patch_18">
    <path clip-path="url(#p35bb95046f)" d="M 131.357361 224.64 
L 135.968931 224.64 
L 135.968931 199.309773 
L 131.357361 199.309773 
z
" style="fill:#1f77b4;fill-opacity:0.75;stroke:#000000;stroke-linejoin:miter;stroke-width:0.461157;"/>
   </g>
   <g id="patch_19">
    <path clip-path="url(#p35bb95046f)" d="M 135.968931 224.64 
L 140.580501 224.64 
L 140.580501 161.092238 
L 135.968931 161.092238 
z
" style="fill:#1f77b4;fill-opacity:0.75;stroke:#000000;stroke-linejoin:miter;stroke-width:0.461157;"/>
   </g>
   <g id="patch_20">
    <path clip-path="url(#p35bb95046f)" d="M 140.580501 224.64 
L 145.192071 224.64 
L 145.192071 196.643433 
L 140.580501 196.643433 
z
" style="fill:#1f77b4;fill-opacity:0.75;stroke:#000000;stroke-linejoin:miter;stroke-width:0.461157;"/>
   </g>
   <g id="patch_21">
    <path clip-path="url(#p35bb95046f)" d="M 145.192071 224.64 
L 149.803642 224.64 
L 149.803642 198.420993 
L 145.192071 198.420993 
z
" style="fill:#1f77b4;fill-opacity:0.75;stroke:#000000;stroke-linejoin:miter;stroke-width:0.461157;"/>
   </g>
   <g id="patch_22">
    <path clip-path="url(#p35bb95046f)" d="M 149.803642 224.64 
L 154.415212 224.64 
L 154.415212 191.755144 
L 149.803642 191.755144 
z
" style="fill:#1f77b4;fill-opacity:0.75;stroke:#000000;stroke-linejoin:miter;stroke-width:0.461157;"/>
   </g>
   <g id="patch_23">
    <path clip-path="url(#p35bb95046f)" d="M 154.415212 224.64 
L 159.026782 224.64 
L 159.026782 198.420993 
L 154.415212 198.420993 
z
" style="fill:#1f77b4;fill-opacity:0.75;stroke:#000000;stroke-linejoin:miter;stroke-width:0.461157;"/>
   </g>
   <g id="patch_24">
    <path clip-path="url(#p35bb95046f)" d="M 159.026782 224.64 
L 163.638352 224.64 
L 163.638352 211.308302 
L 159.026782 211.308302 
z
" style="fill:#1f77b4;fill-opacity:0.75;stroke:#000000;stroke-linejoin:miter;stroke-width:0.461157;"/>
   </g>
   <g id="patch_25">
    <path clip-path="url(#p35bb95046f)" d="M 163.638352 224.64 
L 168.249923 224.64 
L 168.249923 197.532213 
L 163.638352 197.532213 
z
" style="fill:#1f77b4;fill-opacity:0.75;stroke:#000000;stroke-linejoin:miter;stroke-width:0.461157;"/>
   </g>
   <g id="patch_26">
    <path clip-path="url(#p35bb95046f)" d="M 168.249923 224.64 
L 172.861493 224.64 
L 172.861493 193.088314 
L 168.249923 193.088314 
z
" style="fill:#1f77b4;fill-opacity:0.75;stroke:#000000;stroke-linejoin:miter;stroke-width:0.461157;"/>
   </g>
   <g id="patch_27">
    <path clip-path="url(#p35bb95046f)" d="M 172.861493 224.64 
L 177.473063 224.64 
L 177.473063 215.752201 
L 172.861493 215.752201 
z
" style="fill:#1f77b4;fill-opacity:0.75;stroke:#000000;stroke-linejoin:miter;stroke-width:0.461157;"/>
   </g>
   <g id="patch_28">
    <path clip-path="url(#p35bb95046f)" d="M 177.473063 224.64 
L 182.084633 224.64 
L 182.084633 211.308302 
L 177.473063 211.308302 
z
" style="fill:#1f77b4;fill-opacity:0.75;stroke:#000000;stroke-linejoin:miter;stroke-width:0.461157;"/>
   </g>
   <g id="patch_29">
    <path clip-path="url(#p35bb95046f)" d="M 182.084633 224.64 
L 186.696204 224.64 
L 186.696204 215.752201 
L 182.084633 215.752201 
z
" style="fill:#1f77b4;fill-opacity:0.75;stroke:#000000;stroke-linejoin:miter;stroke-width:0.461157;"/>
   </g>
   <g id="patch_30">
    <path clip-path="url(#p35bb95046f)" d="M 186.696204 224.64 
L 191.307774 224.64 
L 191.307774 206.420012 
L 186.696204 206.420012 
z
" style="fill:#1f77b4;fill-opacity:0.75;stroke:#000000;stroke-linejoin:miter;stroke-width:0.461157;"/>
   </g>
   <g id="patch_31">
    <path clip-path="url(#p35bb95046f)" d="M 191.307774 224.64 
L 195.919344 224.64 
L 195.919344 219.751711 
L 191.307774 219.751711 
z
" style="fill:#1f77b4;fill-opacity:0.75;stroke:#000000;stroke-linejoin:miter;stroke-width:0.461157;"/>
   </g>
   <g id="patch_32">
    <path clip-path="url(#p35bb95046f)" d="M 195.919344 224.64 
L 200.530914 224.64 
L 200.530914 215.752201 
L 195.919344 215.752201 
z
" style="fill:#1f77b4;fill-opacity:0.75;stroke:#000000;stroke-linejoin:miter;stroke-width:0.461157;"/>
   </g>
   <g id="patch_33">
    <path clip-path="url(#p35bb95046f)" d="M 200.530914 224.64 
L 205.142485 224.64 
L 205.142485 202.420503 
L 200.530914 202.420503 
z
" style="fill:#1f77b4;fill-opacity:0.75;stroke:#000000;stroke-linejoin:miter;stroke-width:0.461157;"/>
   </g>
   <g id="patch_34">
    <path clip-path="url(#p35bb95046f)" d="M 205.142485 224.64 
L 209.754055 224.64 
L 209.754055 223.75122 
L 205.142485 223.75122 
z
" style="fill:#1f77b4;fill-opacity:0.75;stroke:#000000;stroke-linejoin:miter;stroke-width:0.461157;"/>
   </g>
   <g id="patch_35">
    <path clip-path="url(#p35bb95046f)" d="M 209.754055 224.64 
L 214.365625 224.64 
L 214.365625 216.196591 
L 209.754055 216.196591 
z
" style="fill:#1f77b4;fill-opacity:0.75;stroke:#000000;stroke-linejoin:miter;stroke-width:0.461157;"/>
   </g>
   <g id="patch_36">
    <path clip-path="url(#p35bb95046f)" d="M 214.365625 224.64 
L 218.977195 224.64 
L 218.977195 219.751711 
L 214.365625 219.751711 
z
" style="fill:#1f77b4;fill-opacity:0.75;stroke:#000000;stroke-linejoin:miter;stroke-width:0.461157;"/>
   </g>
   <g id="patch_37">
    <path clip-path="url(#p35bb95046f)" d="M 218.977195 224.64 
L 223.588765 224.64 
L 223.588765 213.530251 
L 218.977195 213.530251 
z
" style="fill:#1f77b4;fill-opacity:0.75;stroke:#000000;stroke-linejoin:miter;stroke-width:0.461157;"/>
   </g>
   <g id="patch_38">
    <path clip-path="url(#p35bb95046f)" d="M 223.588765 224.64 
L 228.200336 224.64 
L 228.200336 222.86244 
L 223.588765 222.86244 
z
" style="fill:#1f77b4;fill-opacity:0.75;stroke:#000000;stroke-linejoin:miter;stroke-width:0.461157;"/>
   </g>
   <g id="patch_39">
    <path clip-path="url(#p35bb95046f)" d="M 228.200336 224.64 
L 232.811906 224.64 
L 232.811906 215.307811 
L 228.200336 215.307811 
z
" style="fill:#1f77b4;fill-opacity:0.75;stroke:#000000;stroke-linejoin:miter;stroke-width:0.461157;"/>
   </g>
   <g id="patch_40">
    <path clip-path="url(#p35bb95046f)" d="M 232.811906 224.64 
L 237.423476 224.64 
L 237.423476 215.307811 
L 232.811906 215.307811 
z
" style="fill:#1f77b4;fill-opacity:0.75;stroke:#000000;stroke-linejoin:miter;stroke-width:0.461157;"/>
   </g>
   <g id="patch_41">
    <path clip-path="url(#p35bb95046f)" d="M 237.423476 224.64 
L 242.035046 224.64 
L 242.035046 223.75122 
L 237.423476 223.75122 
z
" style="fill:#1f77b4;fill-opacity:0.75;stroke:#000000;stroke-linejoin:miter;stroke-width:0.461157;"/>
   </g>
   <g id="patch_42">
    <path clip-path="url(#p35bb95046f)" d="M 242.035046 224.64 
L 246.646617 224.64 
L 246.646617 214.863421 
L 242.035046 214.863421 
z
" style="fill:#1f77b4;fill-opacity:0.75;stroke:#000000;stroke-linejoin:miter;stroke-width:0.461157;"/>
   </g>
   <g id="patch_43">
    <path clip-path="url(#p35bb95046f)" d="M 246.646617 224.64 
L 251.258187 224.64 
L 251.258187 223.75122 
L 246.646617 223.75122 
z
" style="fill:#1f77b4;fill-opacity:0.75;stroke:#000000;stroke-linejoin:miter;stroke-width:0.461157;"/>
   </g>
   <g id="patch_44">
    <path clip-path="url(#p35bb95046f)" d="M 251.258187 224.64 
L 255.869757 224.64 
L 255.869757 219.751711 
L 251.258187 219.751711 
z
" style="fill:#1f77b4;fill-opacity:0.75;stroke:#000000;stroke-linejoin:miter;stroke-width:0.461157;"/>
   </g>
   <g id="patch_45">
    <path clip-path="url(#p35bb95046f)" d="M 255.869757 224.64 
L 260.481327 224.64 
L 260.481327 222.86244 
L 255.869757 222.86244 
z
" style="fill:#1f77b4;fill-opacity:0.75;stroke:#000000;stroke-linejoin:miter;stroke-width:0.461157;"/>
   </g>
   <g id="patch_46">
    <path clip-path="url(#p35bb95046f)" d="M 260.481327 224.64 
L 265.092898 224.64 
L 265.092898 219.751711 
L 260.481327 219.751711 
z
" style="fill:#1f77b4;fill-opacity:0.75;stroke:#000000;stroke-linejoin:miter;stroke-width:0.461157;"/>
   </g>
   <g id="patch_47">
    <path clip-path="url(#p35bb95046f)" d="M 265.092898 224.64 
L 269.704468 224.64 
L 269.704468 214.419031 
L 265.092898 214.419031 
z
" style="fill:#1f77b4;fill-opacity:0.75;stroke:#000000;stroke-linejoin:miter;stroke-width:0.461157;"/>
   </g>
   <g id="patch_48">
    <path clip-path="url(#p35bb95046f)" d="M 269.704468 224.64 
L 274.316038 224.64 
L 274.316038 224.19561 
L 269.704468 224.19561 
z
" style="fill:#1f77b4;fill-opacity:0.75;stroke:#000000;stroke-linejoin:miter;stroke-width:0.461157;"/>
   </g>
   <g id="patch_49">
    <path clip-path="url(#p35bb95046f)" d="M 274.316038 224.64 
L 278.927608 224.64 
L 278.927608 221.97366 
L 274.316038 221.97366 
z
" style="fill:#1f77b4;fill-opacity:0.75;stroke:#000000;stroke-linejoin:miter;stroke-width:0.461157;"/>
   </g>
   <g id="patch_50">
    <path clip-path="url(#p35bb95046f)" d="M 278.927608 224.64 
L 283.539179 224.64 
L 283.539179 223.30683 
L 278.927608 223.30683 
z
" style="fill:#1f77b4;fill-opacity:0.75;stroke:#000000;stroke-linejoin:miter;stroke-width:0.461157;"/>
   </g>
   <g id="patch_51">
    <path clip-path="url(#p35bb95046f)" d="M 283.539179 224.64 
L 288.150749 224.64 
L 288.150749 210.863912 
L 283.539179 210.863912 
z
" style="fill:#1f77b4;fill-opacity:0.75;stroke:#000000;stroke-linejoin:miter;stroke-width:0.461157;"/>
   </g>
   <g id="patch_52">
    <path clip-path="url(#p35bb95046f)" d="M 288.150749 224.64 
L 292.762319 224.64 
L 292.762319 224.64 
L 288.150749 224.64 
z
" style="fill:#1f77b4;fill-opacity:0.75;stroke:#000000;stroke-linejoin:miter;stroke-width:0.461157;"/>
   </g>
   <g id="patch_53">
    <path clip-path="url(#p35bb95046f)" d="M 292.762319 224.64 
L 297.373889 224.64 
L 297.373889 224.19561 
L 292.762319 224.19561 
z
" style="fill:#1f77b4;fill-opacity:0.75;stroke:#000000;stroke-linejoin:miter;stroke-width:0.461157;"/>
   </g>
   <g id="patch_54">
    <path clip-path="url(#p35bb95046f)" d="M 297.373889 224.64 
L 301.98546 224.64 
L 301.98546 218.862931 
L 297.373889 218.862931 
z
" style="fill:#1f77b4;fill-opacity:0.75;stroke:#000000;stroke-linejoin:miter;stroke-width:0.461157;"/>
   </g>
   <g id="patch_55">
    <path clip-path="url(#p35bb95046f)" d="M 301.98546 224.64 
L 306.59703 224.64 
L 306.59703 224.64 
L 301.98546 224.64 
z
" style="fill:#1f77b4;fill-opacity:0.75;stroke:#000000;stroke-linejoin:miter;stroke-width:0.461157;"/>
   </g>
   <g id="patch_56">
    <path clip-path="url(#p35bb95046f)" d="M 306.59703 224.64 
L 311.2086 224.64 
L 311.2086 221.97366 
L 306.59703 221.97366 
z
" style="fill:#1f77b4;fill-opacity:0.75;stroke:#000000;stroke-linejoin:miter;stroke-width:0.461157;"/>
   </g>
   <g id="patch_57">
    <path clip-path="url(#p35bb95046f)" d="M 311.2086 224.64 
L 315.82017 224.64 
L 315.82017 223.75122 
L 311.2086 223.75122 
z
" style="fill:#1f77b4;fill-opacity:0.75;stroke:#000000;stroke-linejoin:miter;stroke-width:0.461157;"/>
   </g>
   <g id="patch_58">
    <path clip-path="url(#p35bb95046f)" d="M 315.82017 224.64 
L 320.431741 224.64 
L 320.431741 221.97366 
L 315.82017 221.97366 
z
" style="fill:#1f77b4;fill-opacity:0.75;stroke:#000000;stroke-linejoin:miter;stroke-width:0.461157;"/>
   </g>
   <g id="patch_59">
    <path clip-path="url(#p35bb95046f)" d="M 320.431741 224.64 
L 325.043311 224.64 
L 325.043311 224.19561 
L 320.431741 224.19561 
z
" style="fill:#1f77b4;fill-opacity:0.75;stroke:#000000;stroke-linejoin:miter;stroke-width:0.461157;"/>
   </g>
   <g id="patch_60">
    <path clip-path="url(#p35bb95046f)" d="M 325.043311 224.64 
L 329.654881 224.64 
L 329.654881 222.41805 
L 325.043311 222.41805 
z
" style="fill:#1f77b4;fill-opacity:0.75;stroke:#000000;stroke-linejoin:miter;stroke-width:0.461157;"/>
   </g>
   <g id="patch_61">
    <path clip-path="url(#p35bb95046f)" d="M 329.654881 224.64 
L 334.266451 224.64 
L 334.266451 219.307321 
L 329.654881 219.307321 
z
" style="fill:#1f77b4;fill-opacity:0.75;stroke:#000000;stroke-linejoin:miter;stroke-width:0.461157;"/>
   </g>
   <g id="patch_62">
    <path clip-path="url(#p35bb95046f)" d="M 334.266451 224.64 
L 338.878022 224.64 
L 338.878022 224.19561 
L 334.266451 224.19561 
z
" style="fill:#1f77b4;fill-opacity:0.75;stroke:#000000;stroke-linejoin:miter;stroke-width:0.461157;"/>
   </g>
   <g id="patch_63">
    <path clip-path="url(#p35bb95046f)" d="M 338.878022 224.64 
L 343.489592 224.64 
L 343.489592 222.86244 
L 338.878022 222.86244 
z
" style="fill:#1f77b4;fill-opacity:0.75;stroke:#000000;stroke-linejoin:miter;stroke-width:0.461157;"/>
   </g>
   <g id="patch_64">
    <path clip-path="url(#p35bb95046f)" d="M 343.489592 224.64 
L 348.101162 224.64 
L 348.101162 224.64 
L 343.489592 224.64 
z
" style="fill:#1f77b4;fill-opacity:0.75;stroke:#000000;stroke-linejoin:miter;stroke-width:0.461157;"/>
   </g>
   <g id="patch_65">
    <path clip-path="url(#p35bb95046f)" d="M 348.101162 224.64 
L 352.712732 224.64 
L 352.712732 223.30683 
L 348.101162 223.30683 
z
" style="fill:#1f77b4;fill-opacity:0.75;stroke:#000000;stroke-linejoin:miter;stroke-width:0.461157;"/>
   </g>
   <g id="patch_66">
    <path clip-path="url(#p35bb95046f)" d="M 352.712732 224.64 
L 357.324303 224.64 
L 357.324303 224.64 
L 352.712732 224.64 
z
" style="fill:#1f77b4;fill-opacity:0.75;stroke:#000000;stroke-linejoin:miter;stroke-width:0.461157;"/>
   </g>
   <g id="patch_67">
    <path clip-path="url(#p35bb95046f)" d="M 357.324303 224.64 
L 361.935873 224.64 
L 361.935873 224.64 
L 357.324303 224.64 
z
" style="fill:#1f77b4;fill-opacity:0.75;stroke:#000000;stroke-linejoin:miter;stroke-width:0.461157;"/>
   </g>
   <g id="patch_68">
    <path clip-path="url(#p35bb95046f)" d="M 361.935873 224.64 
L 366.547443 224.64 
L 366.547443 219.751711 
L 361.935873 219.751711 
z
" style="fill:#1f77b4;fill-opacity:0.75;stroke:#000000;stroke-linejoin:miter;stroke-width:0.461157;"/>
   </g>
   <g id="matplotlib.axis_1">
    <g id="xtick_1">
     <g id="line2d_1">
      <defs>
       <path d="M 0 0 
L 0 3.5 
" id="m122e304c05" style="stroke:#000000;stroke-width:0.8;"/>
      </defs>
      <g>
       <use style="stroke:#000000;stroke-width:0.8;" x="82.474716" xlink:href="#m122e304c05" y="224.64"/>
      </g>
     </g>
     <g id="text_1">
      <!-- 2500 -->
      <defs>
       <path d="M 19.1875 8.296875 
L 53.609375 8.296875 
L 53.609375 0 
L 7.328125 0 
L 7.328125 8.296875 
Q 12.9375 14.109375 22.625 23.890625 
Q 32.328125 33.6875 34.8125 36.53125 
Q 39.546875 41.84375 41.421875 45.53125 
Q 43.3125 49.21875 43.3125 52.78125 
Q 43.3125 58.59375 39.234375 62.25 
Q 35.15625 65.921875 28.609375 65.921875 
Q 23.96875 65.921875 18.8125 64.3125 
Q 13.671875 62.703125 7.8125 59.421875 
L 7.8125 69.390625 
Q 13.765625 71.78125 18.9375 73 
Q 24.125 74.21875 28.421875 74.21875 
Q 39.75 74.21875 46.484375 68.546875 
Q 53.21875 62.890625 53.21875 53.421875 
Q 53.21875 48.921875 51.53125 44.890625 
Q 49.859375 40.875 45.40625 35.40625 
Q 44.1875 33.984375 37.640625 27.21875 
Q 31.109375 20.453125 19.1875 8.296875 
z
" id="DejaVuSans-50"/>
       <path d="M 10.796875 72.90625 
L 49.515625 72.90625 
L 49.515625 64.59375 
L 19.828125 64.59375 
L 19.828125 46.734375 
Q 21.96875 47.46875 24.109375 47.828125 
Q 26.265625 48.1875 28.421875 48.1875 
Q 40.625 48.1875 47.75 41.5 
Q 54.890625 34.8125 54.890625 23.390625 
Q 54.890625 11.625 47.5625 5.09375 
Q 40.234375 -1.421875 26.90625 -1.421875 
Q 22.3125 -1.421875 17.546875 -0.640625 
Q 12.796875 0.140625 7.71875 1.703125 
L 7.71875 11.625 
Q 12.109375 9.234375 16.796875 8.0625 
Q 21.484375 6.890625 26.703125 6.890625 
Q 35.15625 6.890625 40.078125 11.328125 
Q 45.015625 15.765625 45.015625 23.390625 
Q 45.015625 31 40.078125 35.4375 
Q 35.15625 39.890625 26.703125 39.890625 
Q 22.75 39.890625 18.8125 39.015625 
Q 14.890625 38.140625 10.796875 36.28125 
z
" id="DejaVuSans-53"/>
       <path d="M 31.78125 66.40625 
Q 24.171875 66.40625 20.328125 58.90625 
Q 16.5 51.421875 16.5 36.375 
Q 16.5 21.390625 20.328125 13.890625 
Q 24.171875 6.390625 31.78125 6.390625 
Q 39.453125 6.390625 43.28125 13.890625 
Q 47.125 21.390625 47.125 36.375 
Q 47.125 51.421875 43.28125 58.90625 
Q 39.453125 66.40625 31.78125 66.40625 
z
M 31.78125 74.21875 
Q 44.046875 74.21875 50.515625 64.515625 
Q 56.984375 54.828125 56.984375 36.375 
Q 56.984375 17.96875 50.515625 8.265625 
Q 44.046875 -1.421875 31.78125 -1.421875 
Q 19.53125 -1.421875 13.0625 8.265625 
Q 6.59375 17.96875 6.59375 36.375 
Q 6.59375 54.828125 13.0625 64.515625 
Q 19.53125 74.21875 31.78125 74.21875 
z
" id="DejaVuSans-48"/>
      </defs>
      <g transform="translate(69.749716 239.238437)scale(0.1 -0.1)">
       <use xlink:href="#DejaVuSans-50"/>
       <use x="63.623047" xlink:href="#DejaVuSans-53"/>
       <use x="127.246094" xlink:href="#DejaVuSans-48"/>
       <use x="190.869141" xlink:href="#DejaVuSans-48"/>
      </g>
     </g>
    </g>
    <g id="xtick_2">
     <g id="line2d_2">
      <g>
       <use style="stroke:#000000;stroke-width:0.8;" x="123.056534" xlink:href="#m122e304c05" y="224.64"/>
      </g>
     </g>
     <g id="text_2">
      <!-- 5000 -->
      <g transform="translate(110.331534 239.238437)scale(0.1 -0.1)">
       <use xlink:href="#DejaVuSans-53"/>
       <use x="63.623047" xlink:href="#DejaVuSans-48"/>
       <use x="127.246094" xlink:href="#DejaVuSans-48"/>
       <use x="190.869141" xlink:href="#DejaVuSans-48"/>
      </g>
     </g>
    </g>
    <g id="xtick_3">
     <g id="line2d_3">
      <g>
       <use style="stroke:#000000;stroke-width:0.8;" x="163.638352" xlink:href="#m122e304c05" y="224.64"/>
      </g>
     </g>
     <g id="text_3">
      <!-- 7500 -->
      <defs>
       <path d="M 8.203125 72.90625 
L 55.078125 72.90625 
L 55.078125 68.703125 
L 28.609375 0 
L 18.3125 0 
L 43.21875 64.59375 
L 8.203125 64.59375 
z
" id="DejaVuSans-55"/>
      </defs>
      <g transform="translate(150.913352 239.238437)scale(0.1 -0.1)">
       <use xlink:href="#DejaVuSans-55"/>
       <use x="63.623047" xlink:href="#DejaVuSans-53"/>
       <use x="127.246094" xlink:href="#DejaVuSans-48"/>
       <use x="190.869141" xlink:href="#DejaVuSans-48"/>
      </g>
     </g>
    </g>
    <g id="xtick_4">
     <g id="line2d_4">
      <g>
       <use style="stroke:#000000;stroke-width:0.8;" x="204.22017" xlink:href="#m122e304c05" y="224.64"/>
      </g>
     </g>
     <g id="text_4">
      <!-- 10000 -->
      <defs>
       <path d="M 12.40625 8.296875 
L 28.515625 8.296875 
L 28.515625 63.921875 
L 10.984375 60.40625 
L 10.984375 69.390625 
L 28.421875 72.90625 
L 38.28125 72.90625 
L 38.28125 8.296875 
L 54.390625 8.296875 
L 54.390625 0 
L 12.40625 0 
z
" id="DejaVuSans-49"/>
      </defs>
      <g transform="translate(188.31392 239.238437)scale(0.1 -0.1)">
       <use xlink:href="#DejaVuSans-49"/>
       <use x="63.623047" xlink:href="#DejaVuSans-48"/>
       <use x="127.246094" xlink:href="#DejaVuSans-48"/>
       <use x="190.869141" xlink:href="#DejaVuSans-48"/>
       <use x="254.492188" xlink:href="#DejaVuSans-48"/>
      </g>
     </g>
    </g>
    <g id="xtick_5">
     <g id="line2d_5">
      <g>
       <use style="stroke:#000000;stroke-width:0.8;" x="244.801989" xlink:href="#m122e304c05" y="224.64"/>
      </g>
     </g>
     <g id="text_5">
      <!-- 12500 -->
      <g transform="translate(228.895739 239.238437)scale(0.1 -0.1)">
       <use xlink:href="#DejaVuSans-49"/>
       <use x="63.623047" xlink:href="#DejaVuSans-50"/>
       <use x="127.246094" xlink:href="#DejaVuSans-53"/>
       <use x="190.869141" xlink:href="#DejaVuSans-48"/>
       <use x="254.492188" xlink:href="#DejaVuSans-48"/>
      </g>
     </g>
    </g>
    <g id="xtick_6">
     <g id="line2d_6">
      <g>
       <use style="stroke:#000000;stroke-width:0.8;" x="285.383807" xlink:href="#m122e304c05" y="224.64"/>
      </g>
     </g>
     <g id="text_6">
      <!-- 15000 -->
      <g transform="translate(269.477557 239.238437)scale(0.1 -0.1)">
       <use xlink:href="#DejaVuSans-49"/>
       <use x="63.623047" xlink:href="#DejaVuSans-53"/>
       <use x="127.246094" xlink:href="#DejaVuSans-48"/>
       <use x="190.869141" xlink:href="#DejaVuSans-48"/>
       <use x="254.492188" xlink:href="#DejaVuSans-48"/>
      </g>
     </g>
    </g>
    <g id="xtick_7">
     <g id="line2d_7">
      <g>
       <use style="stroke:#000000;stroke-width:0.8;" x="325.965625" xlink:href="#m122e304c05" y="224.64"/>
      </g>
     </g>
     <g id="text_7">
      <!-- 17500 -->
      <g transform="translate(310.059375 239.238437)scale(0.1 -0.1)">
       <use xlink:href="#DejaVuSans-49"/>
       <use x="63.623047" xlink:href="#DejaVuSans-55"/>
       <use x="127.246094" xlink:href="#DejaVuSans-53"/>
       <use x="190.869141" xlink:href="#DejaVuSans-48"/>
       <use x="254.492188" xlink:href="#DejaVuSans-48"/>
      </g>
     </g>
    </g>
    <g id="xtick_8">
     <g id="line2d_8">
      <g>
       <use style="stroke:#000000;stroke-width:0.8;" x="366.547443" xlink:href="#m122e304c05" y="224.64"/>
      </g>
     </g>
     <g id="text_8">
      <!-- 20000 -->
      <g transform="translate(350.641193 239.238437)scale(0.1 -0.1)">
       <use xlink:href="#DejaVuSans-50"/>
       <use x="63.623047" xlink:href="#DejaVuSans-48"/>
       <use x="127.246094" xlink:href="#DejaVuSans-48"/>
       <use x="190.869141" xlink:href="#DejaVuSans-48"/>
       <use x="254.492188" xlink:href="#DejaVuSans-48"/>
      </g>
     </g>
    </g>
    <g id="text_9">
     <!-- rent -->
     <defs>
      <path d="M 41.109375 46.296875 
Q 39.59375 47.171875 37.8125 47.578125 
Q 36.03125 48 33.890625 48 
Q 26.265625 48 22.1875 43.046875 
Q 18.109375 38.09375 18.109375 28.8125 
L 18.109375 0 
L 9.078125 0 
L 9.078125 54.6875 
L 18.109375 54.6875 
L 18.109375 46.1875 
Q 20.953125 51.171875 25.484375 53.578125 
Q 30.03125 56 36.53125 56 
Q 37.453125 56 38.578125 55.875 
Q 39.703125 55.765625 41.0625 55.515625 
z
" id="DejaVuSans-114"/>
      <path d="M 56.203125 29.59375 
L 56.203125 25.203125 
L 14.890625 25.203125 
Q 15.484375 15.921875 20.484375 11.0625 
Q 25.484375 6.203125 34.421875 6.203125 
Q 39.59375 6.203125 44.453125 7.46875 
Q 49.3125 8.734375 54.109375 11.28125 
L 54.109375 2.78125 
Q 49.265625 0.734375 44.1875 -0.34375 
Q 39.109375 -1.421875 33.890625 -1.421875 
Q 20.796875 -1.421875 13.15625 6.1875 
Q 5.515625 13.8125 5.515625 26.8125 
Q 5.515625 40.234375 12.765625 48.109375 
Q 20.015625 56 32.328125 56 
Q 43.359375 56 49.78125 48.890625 
Q 56.203125 41.796875 56.203125 29.59375 
z
M 47.21875 32.234375 
Q 47.125 39.59375 43.09375 43.984375 
Q 39.0625 48.390625 32.421875 48.390625 
Q 24.90625 48.390625 20.390625 44.140625 
Q 15.875 39.890625 15.1875 32.171875 
z
" id="DejaVuSans-101"/>
      <path d="M 54.890625 33.015625 
L 54.890625 0 
L 45.90625 0 
L 45.90625 32.71875 
Q 45.90625 40.484375 42.875 44.328125 
Q 39.84375 48.1875 33.796875 48.1875 
Q 26.515625 48.1875 22.3125 43.546875 
Q 18.109375 38.921875 18.109375 30.90625 
L 18.109375 0 
L 9.078125 0 
L 9.078125 54.6875 
L 18.109375 54.6875 
L 18.109375 46.1875 
Q 21.34375 51.125 25.703125 53.5625 
Q 30.078125 56 35.796875 56 
Q 45.21875 56 50.046875 50.171875 
Q 54.890625 44.34375 54.890625 33.015625 
z
" id="DejaVuSans-110"/>
      <path d="M 18.3125 70.21875 
L 18.3125 54.6875 
L 36.8125 54.6875 
L 36.8125 47.703125 
L 18.3125 47.703125 
L 18.3125 18.015625 
Q 18.3125 11.328125 20.140625 9.421875 
Q 21.96875 7.515625 27.59375 7.515625 
L 36.8125 7.515625 
L 36.8125 0 
L 27.59375 0 
Q 17.1875 0 13.234375 3.875 
Q 9.28125 7.765625 9.28125 18.015625 
L 9.28125 47.703125 
L 2.6875 47.703125 
L 2.6875 54.6875 
L 9.28125 54.6875 
L 9.28125 70.21875 
z
" id="DejaVuSans-116"/>
     </defs>
     <g transform="translate(204.217188 252.916562)scale(0.1 -0.1)">
      <use xlink:href="#DejaVuSans-114"/>
      <use x="38.863281" xlink:href="#DejaVuSans-101"/>
      <use x="100.386719" xlink:href="#DejaVuSans-110"/>
      <use x="163.765625" xlink:href="#DejaVuSans-116"/>
     </g>
    </g>
   </g>
   <g id="matplotlib.axis_2">
    <g id="ytick_1">
     <g id="line2d_9">
      <defs>
       <path d="M 0 0 
L -3.5 0 
" id="mc1db37faa1" style="stroke:#000000;stroke-width:0.8;"/>
      </defs>
      <g>
       <use style="stroke:#000000;stroke-width:0.8;" x="46.965625" xlink:href="#mc1db37faa1" y="224.64"/>
      </g>
     </g>
     <g id="text_10">
      <!-- 0 -->
      <g transform="translate(33.603125 228.439219)scale(0.1 -0.1)">
       <use xlink:href="#DejaVuSans-48"/>
      </g>
     </g>
    </g>
    <g id="ytick_2">
     <g id="line2d_10">
      <g>
       <use style="stroke:#000000;stroke-width:0.8;" x="46.965625" xlink:href="#mc1db37faa1" y="180.201006"/>
      </g>
     </g>
     <g id="text_11">
      <!-- 100 -->
      <g transform="translate(20.878125 184.000224)scale(0.1 -0.1)">
       <use xlink:href="#DejaVuSans-49"/>
       <use x="63.623047" xlink:href="#DejaVuSans-48"/>
       <use x="127.246094" xlink:href="#DejaVuSans-48"/>
      </g>
     </g>
    </g>
    <g id="ytick_3">
     <g id="line2d_11">
      <g>
       <use style="stroke:#000000;stroke-width:0.8;" x="46.965625" xlink:href="#mc1db37faa1" y="135.762011"/>
      </g>
     </g>
     <g id="text_12">
      <!-- 200 -->
      <g transform="translate(20.878125 139.56123)scale(0.1 -0.1)">
       <use xlink:href="#DejaVuSans-50"/>
       <use x="63.623047" xlink:href="#DejaVuSans-48"/>
       <use x="127.246094" xlink:href="#DejaVuSans-48"/>
      </g>
     </g>
    </g>
    <g id="ytick_4">
     <g id="line2d_12">
      <g>
       <use style="stroke:#000000;stroke-width:0.8;" x="46.965625" xlink:href="#mc1db37faa1" y="91.323017"/>
      </g>
     </g>
     <g id="text_13">
      <!-- 300 -->
      <defs>
       <path d="M 40.578125 39.3125 
Q 47.65625 37.796875 51.625 33 
Q 55.609375 28.21875 55.609375 21.1875 
Q 55.609375 10.40625 48.1875 4.484375 
Q 40.765625 -1.421875 27.09375 -1.421875 
Q 22.515625 -1.421875 17.65625 -0.515625 
Q 12.796875 0.390625 7.625 2.203125 
L 7.625 11.71875 
Q 11.71875 9.328125 16.59375 8.109375 
Q 21.484375 6.890625 26.8125 6.890625 
Q 36.078125 6.890625 40.9375 10.546875 
Q 45.796875 14.203125 45.796875 21.1875 
Q 45.796875 27.640625 41.28125 31.265625 
Q 36.765625 34.90625 28.71875 34.90625 
L 20.21875 34.90625 
L 20.21875 43.015625 
L 29.109375 43.015625 
Q 36.375 43.015625 40.234375 45.921875 
Q 44.09375 48.828125 44.09375 54.296875 
Q 44.09375 59.90625 40.109375 62.90625 
Q 36.140625 65.921875 28.71875 65.921875 
Q 24.65625 65.921875 20.015625 65.03125 
Q 15.375 64.15625 9.8125 62.3125 
L 9.8125 71.09375 
Q 15.4375 72.65625 20.34375 73.4375 
Q 25.25 74.21875 29.59375 74.21875 
Q 40.828125 74.21875 47.359375 69.109375 
Q 53.90625 64.015625 53.90625 55.328125 
Q 53.90625 49.265625 50.4375 45.09375 
Q 46.96875 40.921875 40.578125 39.3125 
z
" id="DejaVuSans-51"/>
      </defs>
      <g transform="translate(20.878125 95.122235)scale(0.1 -0.1)">
       <use xlink:href="#DejaVuSans-51"/>
       <use x="63.623047" xlink:href="#DejaVuSans-48"/>
       <use x="127.246094" xlink:href="#DejaVuSans-48"/>
      </g>
     </g>
    </g>
    <g id="ytick_5">
     <g id="line2d_13">
      <g>
       <use style="stroke:#000000;stroke-width:0.8;" x="46.965625" xlink:href="#mc1db37faa1" y="46.884022"/>
      </g>
     </g>
     <g id="text_14">
      <!-- 400 -->
      <defs>
       <path d="M 37.796875 64.3125 
L 12.890625 25.390625 
L 37.796875 25.390625 
z
M 35.203125 72.90625 
L 47.609375 72.90625 
L 47.609375 25.390625 
L 58.015625 25.390625 
L 58.015625 17.1875 
L 47.609375 17.1875 
L 47.609375 0 
L 37.796875 0 
L 37.796875 17.1875 
L 4.890625 17.1875 
L 4.890625 26.703125 
z
" id="DejaVuSans-52"/>
      </defs>
      <g transform="translate(20.878125 50.683241)scale(0.1 -0.1)">
       <use xlink:href="#DejaVuSans-52"/>
       <use x="63.623047" xlink:href="#DejaVuSans-48"/>
       <use x="127.246094" xlink:href="#DejaVuSans-48"/>
      </g>
     </g>
    </g>
    <g id="text_15">
     <!-- Count -->
     <defs>
      <path d="M 64.40625 67.28125 
L 64.40625 56.890625 
Q 59.421875 61.53125 53.78125 63.8125 
Q 48.140625 66.109375 41.796875 66.109375 
Q 29.296875 66.109375 22.65625 58.46875 
Q 16.015625 50.828125 16.015625 36.375 
Q 16.015625 21.96875 22.65625 14.328125 
Q 29.296875 6.6875 41.796875 6.6875 
Q 48.140625 6.6875 53.78125 8.984375 
Q 59.421875 11.28125 64.40625 15.921875 
L 64.40625 5.609375 
Q 59.234375 2.09375 53.4375 0.328125 
Q 47.65625 -1.421875 41.21875 -1.421875 
Q 24.65625 -1.421875 15.125 8.703125 
Q 5.609375 18.84375 5.609375 36.375 
Q 5.609375 53.953125 15.125 64.078125 
Q 24.65625 74.21875 41.21875 74.21875 
Q 47.75 74.21875 53.53125 72.484375 
Q 59.328125 70.75 64.40625 67.28125 
z
" id="DejaVuSans-67"/>
      <path d="M 30.609375 48.390625 
Q 23.390625 48.390625 19.1875 42.75 
Q 14.984375 37.109375 14.984375 27.296875 
Q 14.984375 17.484375 19.15625 11.84375 
Q 23.34375 6.203125 30.609375 6.203125 
Q 37.796875 6.203125 41.984375 11.859375 
Q 46.1875 17.53125 46.1875 27.296875 
Q 46.1875 37.015625 41.984375 42.703125 
Q 37.796875 48.390625 30.609375 48.390625 
z
M 30.609375 56 
Q 42.328125 56 49.015625 48.375 
Q 55.71875 40.765625 55.71875 27.296875 
Q 55.71875 13.875 49.015625 6.21875 
Q 42.328125 -1.421875 30.609375 -1.421875 
Q 18.84375 -1.421875 12.171875 6.21875 
Q 5.515625 13.875 5.515625 27.296875 
Q 5.515625 40.765625 12.171875 48.375 
Q 18.84375 56 30.609375 56 
z
" id="DejaVuSans-111"/>
      <path d="M 8.5 21.578125 
L 8.5 54.6875 
L 17.484375 54.6875 
L 17.484375 21.921875 
Q 17.484375 14.15625 20.5 10.265625 
Q 23.53125 6.390625 29.59375 6.390625 
Q 36.859375 6.390625 41.078125 11.03125 
Q 45.3125 15.671875 45.3125 23.6875 
L 45.3125 54.6875 
L 54.296875 54.6875 
L 54.296875 0 
L 45.3125 0 
L 45.3125 8.40625 
Q 42.046875 3.421875 37.71875 1 
Q 33.40625 -1.421875 27.6875 -1.421875 
Q 18.265625 -1.421875 13.375 4.4375 
Q 8.5 10.296875 8.5 21.578125 
z
M 31.109375 56 
z
" id="DejaVuSans-117"/>
     </defs>
     <g transform="translate(14.798438 130.768437)rotate(-90)scale(0.1 -0.1)">
      <use xlink:href="#DejaVuSans-67"/>
      <use x="69.824219" xlink:href="#DejaVuSans-111"/>
      <use x="131.005859" xlink:href="#DejaVuSans-117"/>
      <use x="194.384766" xlink:href="#DejaVuSans-110"/>
      <use x="257.763672" xlink:href="#DejaVuSans-116"/>
     </g>
    </g>
   </g>
   <g id="patch_69">
    <path d="M 46.965625 224.64 
L 46.965625 7.2 
" style="fill:none;stroke:#000000;stroke-linecap:square;stroke-linejoin:miter;stroke-width:0.8;"/>
   </g>
   <g id="patch_70">
    <path d="M 381.765625 224.64 
L 381.765625 7.2 
" style="fill:none;stroke:#000000;stroke-linecap:square;stroke-linejoin:miter;stroke-width:0.8;"/>
   </g>
   <g id="patch_71">
    <path d="M 46.965625 224.64 
L 381.765625 224.64 
" style="fill:none;stroke:#000000;stroke-linecap:square;stroke-linejoin:miter;stroke-width:0.8;"/>
   </g>
   <g id="patch_72">
    <path d="M 46.965625 7.2 
L 381.765625 7.2 
" style="fill:none;stroke:#000000;stroke-linecap:square;stroke-linejoin:miter;stroke-width:0.8;"/>
   </g>
  </g>
 </g>
 <defs>
  <clipPath id="p35bb95046f">
   <rect height="217.44" width="334.8" x="46.965625" y="7.2"/>
  </clipPath>
 </defs>
</svg>
