<?xml version="1.0" encoding="utf-8" standalone="no"?>
<!DOCTYPE svg PUBLIC "-//W3C//DTD SVG 1.1//EN"
  "http://www.w3.org/Graphics/SVG/1.1/DTD/svg11.dtd">
<!-- Created with matplotlib (https://matplotlib.org/) -->
<svg height="504pt" version="1.1" viewBox="0 0 864 504" width="864pt" xmlns="http://www.w3.org/2000/svg" xmlns:xlink="http://www.w3.org/1999/xlink">
 <metadata>
  <rdf:RDF xmlns:cc="http://creativecommons.org/ns#" xmlns:dc="http://purl.org/dc/elements/1.1/" xmlns:rdf="http://www.w3.org/1999/02/22-rdf-syntax-ns#">
   <cc:Work>
    <dc:type rdf:resource="http://purl.org/dc/dcmitype/StillImage"/>
    <dc:date>2022-02-25T15:39:16.020878</dc:date>
    <dc:format>image/svg+xml</dc:format>
    <dc:creator>
     <cc:Agent>
      <dc:title>Matplotlib v3.3.4, https://matplotlib.org/</dc:title>
     </cc:Agent>
    </dc:creator>
   </cc:Work>
  </rdf:RDF>
 </metadata>
 <defs>
  <style type="text/css">*{stroke-linecap:butt;stroke-linejoin:round;}</style>
 </defs>
 <g id="figure_1">
  <g id="patch_1">
   <path d="M 0 504 
L 864 504 
L 864 0 
L 0 0 
z
" style="fill:#10162f;"/>
  </g>
  <g id="axes_1">
   <g id="patch_2">
    <path d="M 108 375.768 
L 541.270588 375.768 
L 541.270588 60.48 
L 108 60.48 
z
" style="fill:#10162f;"/>
   </g>
   <g id="line2d_1">
    <path clip-path="url(#p103a0f192b)" d="M 108 357.221647 
L 541.270588 357.221647 
" style="fill:none;stroke:#d3d3d3;stroke-dasharray:5,2.5;stroke-dashoffset:0;stroke-width:0.5;"/>
   </g>
   <g id="line2d_2">
    <path clip-path="url(#p103a0f192b)" d="M 108 264.489882 
L 541.270588 264.489882 
" style="fill:none;stroke:#d3d3d3;stroke-dasharray:5,2.5;stroke-dashoffset:0;stroke-width:0.5;"/>
   </g>
   <g id="line2d_3">
    <path clip-path="url(#p103a0f192b)" d="M 108 171.758118 
L 541.270588 171.758118 
" style="fill:none;stroke:#d3d3d3;stroke-dasharray:5,2.5;stroke-dashoffset:0;stroke-width:0.5;"/>
   </g>
   <g id="line2d_4">
    <path clip-path="url(#p103a0f192b)" d="M 108 79.026353 
L 541.270588 79.026353 
" style="fill:none;stroke:#d3d3d3;stroke-dasharray:5,2.5;stroke-dashoffset:0;stroke-width:0.5;"/>
   </g>
   <g id="line2d_5">
    <path clip-path="url(#p103a0f192b)" d="M 108 375.768 
L 108 60.48 
" style="fill:none;stroke:#d3d3d3;stroke-dasharray:5,2.5;stroke-dashoffset:0;stroke-width:0.5;"/>
   </g>
   <g id="line2d_6">
    <path clip-path="url(#p103a0f192b)" d="M 177.882353 375.768 
L 177.882353 60.48 
" style="fill:none;stroke:#d3d3d3;stroke-dasharray:5,2.5;stroke-dashoffset:0;stroke-width:0.5;"/>
   </g>
   <g id="line2d_7">
    <path clip-path="url(#p103a0f192b)" d="M 247.764706 375.768 
L 247.764706 60.48 
" style="fill:none;stroke:#d3d3d3;stroke-dasharray:5,2.5;stroke-dashoffset:0;stroke-width:0.5;"/>
   </g>
   <g id="line2d_8">
    <path clip-path="url(#p103a0f192b)" d="M 317.647059 375.768 
L 317.647059 60.48 
" style="fill:none;stroke:#d3d3d3;stroke-dasharray:5,2.5;stroke-dashoffset:0;stroke-width:0.5;"/>
   </g>
   <g id="line2d_9">
    <path clip-path="url(#p103a0f192b)" d="M 387.529412 375.768 
L 387.529412 60.48 
" style="fill:none;stroke:#d3d3d3;stroke-dasharray:5,2.5;stroke-dashoffset:0;stroke-width:0.5;"/>
   </g>
   <g id="line2d_10">
    <path clip-path="url(#p103a0f192b)" d="M 457.411765 375.768 
L 457.411765 60.48 
" style="fill:none;stroke:#d3d3d3;stroke-dasharray:5,2.5;stroke-dashoffset:0;stroke-width:0.5;"/>
   </g>
   <g id="line2d_11">
    <path clip-path="url(#p103a0f192b)" d="M 527.294118 375.768 
L 527.294118 60.48 
" style="fill:none;stroke:#d3d3d3;stroke-dasharray:5,2.5;stroke-dashoffset:0;stroke-width:0.5;"/>
   </g>
   <g id="line2d_12">
    <path clip-path="url(#p103a0f192b)" d="M 121.976471 348.021008 
L 135.952941 339.925414 
L 149.929412 331.82982 
L 163.905882 323.734227 
L 177.882353 315.638633 
L 191.858824 307.543039 
L 205.835294 299.447446 
L 219.811765 291.351852 
L 233.788235 283.256258 
L 247.764706 275.160665 
L 261.741176 267.065071 
L 275.717647 258.969478 
L 289.694118 250.873884 
L 303.670588 242.77829 
L 317.647059 234.682697 
L 331.623529 226.587103 
L 345.6 218.491509 
L 359.576471 210.395916 
L 373.552941 202.300322 
L 387.529412 194.204728 
L 401.505882 186.109135 
L 415.482353 178.013541 
L 429.458824 169.917948 
L 443.435294 161.822354 
L 457.411765 153.72676 
L 471.388235 145.631167 
L 485.364706 137.535573 
L 499.341176 129.439979 
L 513.317647 121.344386 
L 527.294118 113.248792 
" style="fill:none;stroke:#66c4ff;stroke-linecap:round;stroke-width:6;"/>
   </g>
   <g id="PathCollection_1">
    <defs>
     <path d="M 0 4.472136 
C 1.186024 4.472136 2.323632 4.000923 3.162278 3.162278 
C 4.000923 2.323632 4.472136 1.186024 4.472136 0 
C 4.472136 -1.186024 4.000923 -2.323632 3.162278 -3.162278 
C 2.323632 -4.000923 1.186024 -4.472136 0 -4.472136 
C -1.186024 -4.472136 -2.323632 -4.000923 -3.162278 -3.162278 
C -4.000923 -2.323632 -4.472136 -1.186024 -4.472136 0 
C -4.472136 1.186024 -4.000923 2.323632 -3.162278 3.162278 
C -2.323632 4.000923 -1.186024 4.472136 0 4.472136 
z
" id="mb5b23db25a" style="stroke:#1557ff;"/>
    </defs>
    <g clip-path="url(#p103a0f192b)">
     <use style="fill:#1557ff;stroke:#1557ff;" x="121.976471" xlink:href="#mb5b23db25a" y="341.496194"/>
     <use style="fill:#1557ff;stroke:#1557ff;" x="135.952941" xlink:href="#mb5b23db25a" y="331.414026"/>
     <use style="fill:#1557ff;stroke:#1557ff;" x="149.929412" xlink:href="#mb5b23db25a" y="329.395255"/>
     <use style="fill:#1557ff;stroke:#1557ff;" x="163.905882" xlink:href="#mb5b23db25a" y="326.273162"/>
     <use style="fill:#1557ff;stroke:#1557ff;" x="177.882353" xlink:href="#mb5b23db25a" y="319.202551"/>
     <use style="fill:#1557ff;stroke:#1557ff;" x="191.858824" xlink:href="#mb5b23db25a" y="311.676997"/>
     <use style="fill:#1557ff;stroke:#1557ff;" x="205.835294" xlink:href="#mb5b23db25a" y="300.983541"/>
     <use style="fill:#1557ff;stroke:#1557ff;" x="219.811765" xlink:href="#mb5b23db25a" y="291.765076"/>
     <use style="fill:#1557ff;stroke:#1557ff;" x="233.788235" xlink:href="#mb5b23db25a" y="280.674543"/>
     <use style="fill:#1557ff;stroke:#1557ff;" x="247.764706" xlink:href="#mb5b23db25a" y="266.550197"/>
     <use style="fill:#1557ff;stroke:#1557ff;" x="261.741176" xlink:href="#mb5b23db25a" y="267.926892"/>
     <use style="fill:#1557ff;stroke:#1557ff;" x="275.717647" xlink:href="#mb5b23db25a" y="269.203252"/>
     <use style="fill:#1557ff;stroke:#1557ff;" x="289.694118" xlink:href="#mb5b23db25a" y="262.60242"/>
     <use style="fill:#1557ff;stroke:#1557ff;" x="303.670588" xlink:href="#mb5b23db25a" y="248.877562"/>
     <use style="fill:#1557ff;stroke:#1557ff;" x="317.647059" xlink:href="#mb5b23db25a" y="236.916463"/>
     <use style="fill:#1557ff;stroke:#1557ff;" x="331.623529" xlink:href="#mb5b23db25a" y="223.934943"/>
     <use style="fill:#1557ff;stroke:#1557ff;" x="345.6" xlink:href="#mb5b23db25a" y="208.410348"/>
     <use style="fill:#1557ff;stroke:#1557ff;" x="359.576471" xlink:href="#mb5b23db25a" y="206.287161"/>
     <use style="fill:#1557ff;stroke:#1557ff;" x="373.552941" xlink:href="#mb5b23db25a" y="212.683798"/>
     <use style="fill:#1557ff;stroke:#1557ff;" x="387.529412" xlink:href="#mb5b23db25a" y="197.801834"/>
     <use style="fill:#1557ff;stroke:#1557ff;" x="401.505882" xlink:href="#mb5b23db25a" y="185.743366"/>
     <use style="fill:#1557ff;stroke:#1557ff;" x="415.482353" xlink:href="#mb5b23db25a" y="172.145551"/>
     <use style="fill:#1557ff;stroke:#1557ff;" x="429.458824" xlink:href="#mb5b23db25a" y="171.565792"/>
     <use style="fill:#1557ff;stroke:#1557ff;" x="443.435294" xlink:href="#mb5b23db25a" y="158.442022"/>
     <use style="fill:#1557ff;stroke:#1557ff;" x="457.411765" xlink:href="#mb5b23db25a" y="149.694449"/>
     <use style="fill:#1557ff;stroke:#1557ff;" x="471.388235" xlink:href="#mb5b23db25a" y="151.215621"/>
     <use style="fill:#1557ff;stroke:#1557ff;" x="485.364706" xlink:href="#mb5b23db25a" y="140.413297"/>
     <use style="fill:#1557ff;stroke:#1557ff;" x="499.341176" xlink:href="#mb5b23db25a" y="131.65367"/>
     <use style="fill:#1557ff;stroke:#1557ff;" x="513.317647" xlink:href="#mb5b23db25a" y="122.279786"/>
     <use style="fill:#1557ff;stroke:#1557ff;" x="527.294118" xlink:href="#mb5b23db25a" y="101.817224"/>
    </g>
   </g>
   <g id="PathCollection_2">
    <defs>
     <path d="M 0 6.123724 
C 1.624031 6.123724 3.181764 5.47849 4.330127 4.330127 
C 5.47849 3.181764 6.123724 1.624031 6.123724 0 
C 6.123724 -1.624031 5.47849 -3.181764 4.330127 -4.330127 
C 3.181764 -5.47849 1.624031 -6.123724 0 -6.123724 
C -1.624031 -6.123724 -3.181764 -5.47849 -4.330127 -4.330127 
C -5.47849 -3.181764 -6.123724 -1.624031 -6.123724 0 
C -6.123724 1.624031 -5.47849 3.181764 -4.330127 4.330127 
C -3.181764 5.47849 -1.624031 6.123724 0 6.123724 
z
" id="m0a65ce0af8" style="stroke:#ffd300;stroke-width:4;"/>
    </defs>
    <g clip-path="url(#p103a0f192b)">
     <use style="fill:#1557ff;stroke:#ffd300;stroke-width:4;" x="177.882353" xlink:href="#m0a65ce0af8" y="319.202551"/>
    </g>
   </g>
   <g id="PathCollection_3">
    <g clip-path="url(#p103a0f192b)">
     <use style="fill:#1557ff;stroke:#ffd300;stroke-width:4;" x="317.647059" xlink:href="#m0a65ce0af8" y="236.916463"/>
    </g>
   </g>
   <g id="PathCollection_4">
    <g clip-path="url(#p103a0f192b)">
     <use style="fill:#1557ff;stroke:#ffd300;stroke-width:4;" x="457.411765" xlink:href="#m0a65ce0af8" y="149.694449"/>
    </g>
   </g>
   <g id="matplotlib.axis_1">
    <g id="xtick_1">
     <g id="line2d_13">
      <defs>
       <path d="M 0 0 
L 0 3.5 
" id="mc05b054e91" style="stroke:#ffffff;stroke-width:0.8;"/>
      </defs>
      <g>
       <use style="fill:#ffffff;stroke:#ffffff;stroke-width:0.8;" x="108" xlink:href="#mc05b054e91" y="375.768"/>
      </g>
     </g>
     <g id="text_1">
      <!-- 1990 -->
      <g style="fill:#ffffff;" transform="translate(89.91375 399.418)scale(0.14 -0.14)">
       <defs>
        <path d="M 32.703125 72.5 
C 29 64.59375 23.09375 63.296875 11 63 
L 11 56.703125 
L 29.5 56.703125 
L 29.5 7.90625 
L 11 7.90625 
L 11 0 
L 53.90625 0 
L 53.90625 7.90625 
L 38.703125 7.90625 
L 38.703125 72.5 
z
" id="SuisseIntlMono-49"/>
        <path d="M 46.90625 49.296875 
C 46.90625 39.59375 40.90625 32.59375 31.796875 32.59375 
C 23 32.59375 16.90625 39.59375 16.90625 49.296875 
C 16.90625 59.09375 23 66 32 66 
C 41.09375 66 46.90625 59.203125 46.90625 49.296875 
z
M 30.703125 6.59375 
C 24 6.59375 19.296875 10.09375 18.203125 16.59375 
L 8.203125 16.59375 
C 9.703125 7.5 16.796875 -1.296875 30.203125 -1.296875 
C 50.09375 -1.296875 57.5 18.796875 57.5 39.09375 
C 57.5 61.203125 49.203125 73.796875 31.796875 73.796875 
C 16.703125 73.796875 7.09375 62.203125 7.09375 48.90625 
C 7.09375 34.59375 17 24.40625 29.796875 24.40625 
C 38.90625 24.40625 44.90625 28.703125 48 34.296875 
C 47.59375 17.703125 41.59375 6.59375 30.703125 6.59375 
z
" id="SuisseIntlMono-57"/>
        <path d="M 32.203125 -1.296875 
C 50.5 -1.296875 57.59375 14.09375 57.59375 36.59375 
C 57.59375 59.09375 50.5 73.796875 32.203125 73.796875 
C 13.90625 73.796875 6.90625 59.09375 6.90625 36.59375 
C 6.90625 14.09375 13.90625 -1.296875 32.203125 -1.296875 
z
M 16.203125 36.59375 
C 16.203125 56.40625 21.296875 66 32.203125 66 
C 40.90625 66 46 59.796875 47.59375 47.203125 
L 16.296875 32.90625 
C 16.203125 34.09375 16.203125 35.296875 16.203125 36.59375 
z
M 32.203125 6.59375 
C 23.59375 6.59375 18.59375 12.90625 16.90625 25.296875 
L 48.203125 39.796875 
C 48.296875 38.703125 48.296875 37.703125 48.296875 36.59375 
C 48.296875 16.796875 43.09375 6.59375 32.203125 6.59375 
z
" id="SuisseIntlMono-48"/>
       </defs>
       <use xlink:href="#SuisseIntlMono-49"/>
       <use x="64.599991" xlink:href="#SuisseIntlMono-57"/>
       <use x="129.199982" xlink:href="#SuisseIntlMono-57"/>
       <use x="193.799973" xlink:href="#SuisseIntlMono-48"/>
      </g>
     </g>
    </g>
    <g id="xtick_2">
     <g id="line2d_14">
      <g>
       <use style="fill:#ffffff;stroke:#ffffff;stroke-width:0.8;" x="177.882353" xlink:href="#mc05b054e91" y="375.768"/>
      </g>
     </g>
     <g id="text_2">
      <!-- 1995 -->
      <g style="fill:#ffffff;" transform="translate(159.796103 399.418)scale(0.14 -0.14)">
       <defs>
        <path d="M 32.203125 6.59375 
C 22.5 6.59375 17.5 12.796875 16.5 21.59375 
L 7.203125 21.59375 
C 8.09375 9.796875 16 -1.296875 32.09375 -1.296875 
C 45 -1.296875 57.296875 7.5 57.296875 23.90625 
C 57.296875 39.59375 46.09375 48.40625 34.09375 48.40625 
C 28.296875 48.40625 22.90625 46.703125 19.09375 43 
L 21.703125 64.703125 
L 54.09375 64.703125 
L 54.09375 72.5 
L 13.90625 72.5 
L 9.203125 33.203125 
L 18.796875 32.796875 
C 20.296875 36.296875 25.09375 40.40625 32 40.40625 
C 39.5 40.40625 47.5 35.59375 47.5 23.796875 
C 47.5 12.796875 40.5 6.59375 32.203125 6.59375 
z
" id="SuisseIntlMono-53"/>
       </defs>
       <use xlink:href="#SuisseIntlMono-49"/>
       <use x="64.599991" xlink:href="#SuisseIntlMono-57"/>
       <use x="129.199982" xlink:href="#SuisseIntlMono-57"/>
       <use x="193.799973" xlink:href="#SuisseIntlMono-53"/>
      </g>
     </g>
    </g>
    <g id="xtick_3">
     <g id="line2d_15">
      <g>
       <use style="fill:#ffffff;stroke:#ffffff;stroke-width:0.8;" x="247.764706" xlink:href="#mc05b054e91" y="375.768"/>
      </g>
     </g>
     <g id="text_3">
      <!-- 2000 -->
      <g style="fill:#ffffff;" transform="translate(229.678456 399.418)scale(0.14 -0.14)">
       <defs>
        <path d="M 33.40625 73.796875 
C 18.703125 73.796875 9.09375 63.296875 9.296875 49.5 
L 18.703125 49.5 
C 18.90625 61.40625 25.796875 66 33.296875 66 
C 41.5 66 45.796875 60.59375 45.796875 53.09375 
C 45.796875 40.40625 32.296875 26.796875 8 7.90625 
L 8 0 
L 56.90625 0 
L 56.90625 7.90625 
L 20.90625 7.90625 
C 39.40625 22.703125 55.59375 37.5 55.59375 54.296875 
C 55.59375 66.59375 46.09375 73.796875 33.40625 73.796875 
z
" id="SuisseIntlMono-50"/>
       </defs>
       <use xlink:href="#SuisseIntlMono-50"/>
       <use x="64.599991" xlink:href="#SuisseIntlMono-48"/>
       <use x="129.199982" xlink:href="#SuisseIntlMono-48"/>
       <use x="193.799973" xlink:href="#SuisseIntlMono-48"/>
      </g>
     </g>
    </g>
    <g id="xtick_4">
     <g id="line2d_16">
      <g>
       <use style="fill:#ffffff;stroke:#ffffff;stroke-width:0.8;" x="317.647059" xlink:href="#mc05b054e91" y="375.768"/>
      </g>
     </g>
     <g id="text_4">
      <!-- 2005 -->
      <g style="fill:#ffffff;" transform="translate(299.560809 399.418)scale(0.14 -0.14)">
       <use xlink:href="#SuisseIntlMono-50"/>
       <use x="64.599991" xlink:href="#SuisseIntlMono-48"/>
       <use x="129.199982" xlink:href="#SuisseIntlMono-48"/>
       <use x="193.799973" xlink:href="#SuisseIntlMono-53"/>
      </g>
     </g>
    </g>
    <g id="xtick_5">
     <g id="line2d_17">
      <g>
       <use style="fill:#ffffff;stroke:#ffffff;stroke-width:0.8;" x="387.529412" xlink:href="#mc05b054e91" y="375.768"/>
      </g>
     </g>
     <g id="text_5">
      <!-- 2010 -->
      <g style="fill:#ffffff;" transform="translate(369.443162 399.418)scale(0.14 -0.14)">
       <use xlink:href="#SuisseIntlMono-50"/>
       <use x="64.599991" xlink:href="#SuisseIntlMono-48"/>
       <use x="129.199982" xlink:href="#SuisseIntlMono-49"/>
       <use x="193.799973" xlink:href="#SuisseIntlMono-48"/>
      </g>
     </g>
    </g>
    <g id="xtick_6">
     <g id="line2d_18">
      <g>
       <use style="fill:#ffffff;stroke:#ffffff;stroke-width:0.8;" x="457.411765" xlink:href="#mc05b054e91" y="375.768"/>
      </g>
     </g>
     <g id="text_6">
      <!-- 2015 -->
      <g style="fill:#ffffff;" transform="translate(439.325515 399.418)scale(0.14 -0.14)">
       <use xlink:href="#SuisseIntlMono-50"/>
       <use x="64.599991" xlink:href="#SuisseIntlMono-48"/>
       <use x="129.199982" xlink:href="#SuisseIntlMono-49"/>
       <use x="193.799973" xlink:href="#SuisseIntlMono-53"/>
      </g>
     </g>
    </g>
    <g id="xtick_7">
     <g id="line2d_19">
      <g>
       <use style="fill:#ffffff;stroke:#ffffff;stroke-width:0.8;" x="527.294118" xlink:href="#mc05b054e91" y="375.768"/>
      </g>
     </g>
     <g id="text_7">
      <!-- 2020 -->
      <g style="fill:#ffffff;" transform="translate(509.207868 399.418)scale(0.14 -0.14)">
       <use xlink:href="#SuisseIntlMono-50"/>
       <use x="64.599991" xlink:href="#SuisseIntlMono-48"/>
       <use x="129.199982" xlink:href="#SuisseIntlMono-50"/>
       <use x="193.799973" xlink:href="#SuisseIntlMono-48"/>
      </g>
     </g>
    </g>
    <g id="text_8">
     <!-- Year  -->
     <g style="fill:#ffffff;" transform="translate(299.280294 437.443313)scale(0.22 -0.22)">
      <defs>
       <path d="M 21.09375 29.796875 
L 0.90625 70 
L 14.90625 70 
L 27.59375 42.796875 
L 40.296875 70 
L 54.296875 70 
L 34.09375 29.796875 
L 34.09375 0 
L 21.09375 0 
z
" id="ApercuPro-Bold-89"/>
       <path d="M 51.90625 21.203125 
L 17.09375 21.203125 
Q 17.90625 15.59375 21.046875 12.6875 
Q 24.203125 9.796875 29.09375 9.796875 
Q 33.296875 9.796875 36.140625 11.6875 
Q 39 13.59375 41.296875 17.59375 
L 51.296875 13.90625 
Q 48.203125 6.796875 42.640625 3 
Q 37.09375 -0.796875 28.40625 -0.796875 
Q 20.203125 -0.796875 14.75 3.046875 
Q 9.296875 6.90625 6.75 12.84375 
Q 4.203125 18.796875 4.203125 25.203125 
Q 4.203125 31.59375 6.75 37.546875 
Q 9.296875 43.5 14.75 47.34375 
Q 20.203125 51.203125 28.40625 51.203125 
Q 36.296875 51.203125 41.59375 47.453125 
Q 46.90625 43.703125 49.40625 38 
Q 51.90625 32.296875 51.90625 26.296875 
z
M 39.203125 31 
Q 38.296875 35.203125 35.640625 37.890625 
Q 33 40.59375 28.40625 40.59375 
Q 24.40625 40.59375 21.5 38.140625 
Q 18.59375 35.703125 17.40625 31 
z
" id="ApercuPro-Bold-101"/>
       <path d="M 19.703125 -0.796875 
Q 13 -0.796875 8.703125 3.203125 
Q 4.40625 7.203125 4.40625 14.5 
Q 4.40625 22 10.09375 26.5 
Q 15.796875 31 25.5 31 
L 34.296875 31 
L 34.296875 33.203125 
Q 34.296875 36.90625 31.796875 38.75 
Q 29.296875 40.59375 25.5 40.59375 
Q 19 40.59375 16.796875 34.796875 
L 6.296875 37.203125 
Q 7.5 43.5 12.75 47.34375 
Q 18 51.203125 25.5 51.203125 
Q 35.59375 51.203125 41.140625 45.84375 
Q 46.703125 40.5 46.703125 30.09375 
L 46.703125 0 
L 36.5 0 
L 35.203125 6.40625 
Q 29.296875 -0.796875 19.703125 -0.796875 
z
M 23 9.796875 
Q 27.5 9.796875 30.890625 12.640625 
Q 34.296875 15.5 34.296875 20.203125 
L 34.296875 21.203125 
L 26 21.203125 
Q 21.90625 21.203125 19.65625 19.59375 
Q 17.40625 18 17.40625 14.703125 
Q 17.40625 12.5 18.953125 11.140625 
Q 20.5 9.796875 23 9.796875 
z
" id="ApercuPro-Bold-97"/>
       <path d="M 19.40625 50.40625 
L 19.40625 42.203125 
Q 22.09375 46.5 26 48.84375 
Q 29.90625 51.203125 34.296875 51.203125 
Q 37.09375 51.203125 40.40625 50.203125 
L 38.09375 38.703125 
Q 35.796875 40.09375 32.90625 40.09375 
Q 27 40.09375 23.203125 34.75 
Q 19.40625 29.40625 19.40625 17.90625 
L 19.40625 0 
L 7 0 
L 7 50.40625 
z
" id="ApercuPro-Bold-114"/>
       <path id="ApercuPro-Bold-32"/>
      </defs>
      <use xlink:href="#ApercuPro-Bold-89"/>
      <use x="55.199997" xlink:href="#ApercuPro-Bold-101"/>
      <use x="111.299988" xlink:href="#ApercuPro-Bold-97"/>
      <use x="163.999985" xlink:href="#ApercuPro-Bold-114"/>
      <use x="205.699982" xlink:href="#ApercuPro-Bold-32"/>
     </g>
     <!--  -->
     <g style="fill:#ffffff;" transform="translate(324.635294 460.623063)scale(0.22 -0.22)"/>
    </g>
   </g>
   <g id="matplotlib.axis_2">
    <g id="ytick_1">
     <g id="line2d_20">
      <defs>
       <path d="M 0 0 
L -3.5 0 
" id="m9c36173363" style="stroke:#ffffff;stroke-width:0.8;"/>
      </defs>
      <g>
       <use style="fill:#ffffff;stroke:#ffffff;stroke-width:0.8;" x="108" xlink:href="#m9c36173363" y="357.221647"/>
      </g>
     </g>
     <g id="text_9">
      <!-- $5,000 -->
      <g style="fill:#ffffff;" transform="translate(40.24125 362.724303)scale(0.14 -0.14)">
       <defs>
        <path d="M 29.90625 82.203125 
L 29.90625 73.703125 
C 19.5 72.90625 9.09375 66.90625 9.09375 54.09375 
C 9.09375 42.90625 18.09375 36.5 26.59375 34.40625 
L 29.90625 33.5 
L 29.90625 6.703125 
C 22 7.90625 17.09375 13.296875 16.40625 23 
L 7 23 
C 7.40625 9.40625 16.59375 0.09375 29.90625 -1.09375 
L 29.90625 -9.703125 
L 35.40625 -9.703125 
L 35.40625 -1.203125 
C 47.59375 -0.296875 57 7 57 20.40625 
C 57 34.90625 45.40625 39.09375 35.90625 41.59375 
L 35.40625 41.703125 
L 35.40625 65.796875 
C 40.703125 64.796875 46.09375 61.59375 46.90625 53.5 
L 56.296875 53.5 
C 55 66.203125 45.59375 72.5 35.40625 73.59375 
L 35.40625 82.203125 
z
M 47.703125 19.5 
C 47.703125 12.90625 43.203125 7.40625 35.40625 6.59375 
L 35.40625 32.09375 
C 42.59375 30.203125 47.703125 26.703125 47.703125 19.5 
z
M 18.5 54.796875 
C 18.5 63 25.09375 65.5 29.90625 66 
L 29.90625 43.09375 
L 28.703125 43.40625 
C 22.90625 44.90625 18.5 48.5 18.5 54.796875 
z
" id="SuisseIntlMono-36"/>
        <path d="M 26.5 0 
L 31.40625 0 
L 26.09375 -13.90625 
L 31.90625 -13.90625 
L 38 -0.796875 
L 38 11.5 
L 26.5 11.5 
z
" id="SuisseIntlMono-44"/>
       </defs>
       <use xlink:href="#SuisseIntlMono-36"/>
       <use x="64.599991" xlink:href="#SuisseIntlMono-53"/>
       <use x="129.199982" xlink:href="#SuisseIntlMono-44"/>
       <use x="193.799973" xlink:href="#SuisseIntlMono-48"/>
       <use x="258.399963" xlink:href="#SuisseIntlMono-48"/>
       <use x="322.999954" xlink:href="#SuisseIntlMono-48"/>
      </g>
     </g>
    </g>
    <g id="ytick_2">
     <g id="line2d_21">
      <g>
       <use style="fill:#ffffff;stroke:#ffffff;stroke-width:0.8;" x="108" xlink:href="#m9c36173363" y="264.489882"/>
      </g>
     </g>
     <g id="text_10">
      <!-- $10,000 -->
      <g style="fill:#ffffff;" transform="translate(31.198125 269.992539)scale(0.14 -0.14)">
       <use xlink:href="#SuisseIntlMono-36"/>
       <use x="64.599991" xlink:href="#SuisseIntlMono-49"/>
       <use x="129.199982" xlink:href="#SuisseIntlMono-48"/>
       <use x="193.799973" xlink:href="#SuisseIntlMono-44"/>
       <use x="258.399963" xlink:href="#SuisseIntlMono-48"/>
       <use x="322.999954" xlink:href="#SuisseIntlMono-48"/>
       <use x="387.599945" xlink:href="#SuisseIntlMono-48"/>
      </g>
     </g>
    </g>
    <g id="ytick_3">
     <g id="line2d_22">
      <g>
       <use style="fill:#ffffff;stroke:#ffffff;stroke-width:0.8;" x="108" xlink:href="#m9c36173363" y="171.758118"/>
      </g>
     </g>
     <g id="text_11">
      <!-- $15,000 -->
      <g style="fill:#ffffff;" transform="translate(31.198125 177.260774)scale(0.14 -0.14)">
       <use xlink:href="#SuisseIntlMono-36"/>
       <use x="64.599991" xlink:href="#SuisseIntlMono-49"/>
       <use x="129.199982" xlink:href="#SuisseIntlMono-53"/>
       <use x="193.799973" xlink:href="#SuisseIntlMono-44"/>
       <use x="258.399963" xlink:href="#SuisseIntlMono-48"/>
       <use x="322.999954" xlink:href="#SuisseIntlMono-48"/>
       <use x="387.599945" xlink:href="#SuisseIntlMono-48"/>
      </g>
     </g>
    </g>
    <g id="ytick_4">
     <g id="line2d_23">
      <g>
       <use style="fill:#ffffff;stroke:#ffffff;stroke-width:0.8;" x="108" xlink:href="#m9c36173363" y="79.026353"/>
      </g>
     </g>
     <g id="text_12">
      <!-- $20,000 -->
      <g style="fill:#ffffff;" transform="translate(31.198125 84.529009)scale(0.14 -0.14)">
       <use xlink:href="#SuisseIntlMono-36"/>
       <use x="64.599991" xlink:href="#SuisseIntlMono-50"/>
       <use x="129.199982" xlink:href="#SuisseIntlMono-48"/>
       <use x="193.799973" xlink:href="#SuisseIntlMono-44"/>
       <use x="258.399963" xlink:href="#SuisseIntlMono-48"/>
       <use x="322.999954" xlink:href="#SuisseIntlMono-48"/>
       <use x="387.599945" xlink:href="#SuisseIntlMono-48"/>
      </g>
     </g>
    </g>
    <g id="text_13">
     <!--   -->
     <g style="fill:#ffffff;" transform="translate(9.1575 219.363844)rotate(-90)scale(0.1 -0.1)">
      <use xlink:href="#ApercuPro-Bold-32"/>
     </g>
    </g>
   </g>
   <g id="patch_3">
    <path d="M 108 375.768 
L 108 60.48 
" style="fill:none;stroke:#ffffff;stroke-linecap:square;stroke-linejoin:miter;stroke-width:2.5;"/>
   </g>
   <g id="patch_4">
    <path d="M 541.270588 375.768 
L 541.270588 60.48 
" style="fill:none;stroke:#ffffff;stroke-linecap:square;stroke-linejoin:miter;stroke-width:2.5;"/>
   </g>
   <g id="patch_5">
    <path d="M 108 375.768 
L 541.270588 375.768 
" style="fill:none;stroke:#ffffff;stroke-linecap:square;stroke-linejoin:miter;stroke-width:2.5;"/>
   </g>
   <g id="patch_6">
    <path d="M 108 60.48 
L 541.270588 60.48 
" style="fill:none;stroke:#ffffff;stroke-linecap:square;stroke-linejoin:miter;stroke-width:2.5;"/>
   </g>
   <g id="patch_7">
    <path d="M 160.836522 285.951482 
Q 168.859007 299.855095 175.20519 310.85354 
" style="fill:none;stroke:#ffd300;stroke-linecap:round;stroke-width:3;"/>
    <path d="M 174.831669 304.603702 
L 175.20519 310.85354 
L 169.981206 307.402454 
" style="fill:none;stroke:#ffd300;stroke-linecap:round;stroke-width:3;"/>
   </g>
   <g id="text_14">
    <!-- $7,050 -->
    <g style="fill:#ffd300;" transform="translate(123.623603 272.836668)scale(0.14 -0.14)">
     <defs>
      <path d="M 7.203125 52.796875 
C 7.203125 40.90625 16.203125 34 25.90625 31.5 
L 28.90625 30.703125 
L 28.90625 10.90625 
C 24.09375 12.90625 21.296875 17.703125 20.5 24 
L 6 24 
C 7.40625 10.296875 15.796875 1 28.90625 -0.90625 
L 28.90625 -11.203125 
L 34.703125 -11.203125 
L 34.703125 -1.296875 
C 46.59375 -1.09375 59 5.59375 59 21.203125 
C 59 35.90625 47.203125 40.59375 37.59375 43 
L 34.703125 43.703125 
L 34.703125 62.09375 
C 39.40625 60.90625 42.296875 56.796875 43.09375 50.90625 
L 57.5 50.90625 
C 56 66 46 72.90625 34.703125 73.703125 
L 34.703125 81.5 
L 28.90625 81.5 
L 28.90625 73.59375 
C 17.703125 72.40625 7.203125 65.796875 7.203125 52.796875 
z
M 44.09375 18.796875 
C 44.09375 13.59375 40 10.296875 34.703125 10 
L 34.703125 29.09375 
C 40.90625 27.203125 44.09375 23.796875 44.09375 18.796875 
z
M 22 54.203125 
C 22 58.203125 24.796875 61.296875 28.90625 62.203125 
L 28.90625 45.296875 
C 24.09375 47.09375 22 50.203125 22 54.203125 
z
" id="SuisseIntlMono-Bold-36"/>
      <path d="M 6.5 60.703125 
L 44.09375 60.703125 
C 28.203125 48.40625 14.703125 26.703125 14.703125 0 
L 30.09375 0 
C 30.5 27.5 38.296875 43.40625 59.09375 60.703125 
L 59.09375 72.5 
L 6.5 72.5 
z
" id="SuisseIntlMono-Bold-55"/>
      <path d="M 23 0 
L 30.203125 0 
L 21.5 -15.796875 
L 31.203125 -15.796875 
L 41.59375 -1 
L 41.59375 17.796875 
L 23 17.796875 
z
" id="SuisseIntlMono-Bold-44"/>
      <path d="M 32.296875 -1.296875 
C 50 -1.296875 58.59375 12.09375 58.59375 36.296875 
C 58.59375 60.5 50 73.796875 32.296875 73.796875 
C 14.59375 73.796875 6 60.5 6 36.296875 
C 6 12.09375 14.59375 -1.296875 32.296875 -1.296875 
z
M 32.296875 9.40625 
C 25.5 9.40625 22.203125 15.296875 21.09375 26.5 
L 43.796875 36.90625 
L 43.796875 36.296875 
C 43.796875 18.796875 40.703125 9.40625 32.296875 9.40625 
z
M 20.703125 36.296875 
C 20.703125 53.796875 23.796875 63.203125 32.296875 63.203125 
C 38.90625 63.203125 42.203125 57.296875 43.296875 46.203125 
L 20.703125 35.703125 
z
" id="SuisseIntlMono-Bold-48"/>
      <path d="M 32.09375 9.40625 
C 25.5 9.40625 20.90625 14.296875 20.09375 22.796875 
L 5.796875 22.796875 
C 7.5 7.203125 17.40625 -1.296875 31.90625 -1.296875 
C 45.90625 -1.296875 58 7.40625 58 24 
C 58 40.296875 47.5 49.5 36.09375 49.5 
C 31.796875 49.5 27.203125 48.59375 23.40625 45.703125 
L 25.703125 60.703125 
L 55.09375 60.703125 
L 55.09375 72.5 
L 14.203125 72.5 
L 8.203125 31.59375 
L 21.296875 30.09375 
C 23.09375 35 27.09375 37.796875 32.09375 37.796875 
C 37.59375 37.796875 43.40625 33.703125 43.40625 24 
C 43.40625 14.5 38.5 9.40625 32.09375 9.40625 
z
" id="SuisseIntlMono-Bold-53"/>
     </defs>
     <use xlink:href="#SuisseIntlMono-Bold-36"/>
     <use x="64.599991" xlink:href="#SuisseIntlMono-Bold-55"/>
     <use x="129.199982" xlink:href="#SuisseIntlMono-Bold-44"/>
     <use x="193.799973" xlink:href="#SuisseIntlMono-Bold-48"/>
     <use x="258.399963" xlink:href="#SuisseIntlMono-Bold-53"/>
     <use x="322.999954" xlink:href="#SuisseIntlMono-Bold-48"/>
    </g>
   </g>
   <g id="patch_8">
    <path d="M 297.51224 203.296967 
Q 307.020485 217.421443 314.655692 228.763524 
" style="fill:none;stroke:#ffd300;stroke-linecap:round;stroke-width:3;"/>
    <path d="M 313.85121 222.554433 
L 314.655692 228.763524 
L 309.20573 225.681654 
" style="fill:none;stroke:#ffd300;stroke-linecap:round;stroke-width:3;"/>
   </g>
   <g id="text_15">
    <!-- $11,487 -->
    <g style="fill:#ffd300;" transform="translate(254.345184 190.550581)scale(0.14 -0.14)">
     <defs>
      <path d="M 7 10.796875 
L 7 0 
L 58 0 
L 58 10.796875 
L 41.296875 10.796875 
L 41.296875 72.5 
L 30.296875 72.5 
C 27.59375 64.59375 23 60.90625 7 60.59375 
L 7 49.796875 
L 26.90625 49.796875 
L 26.90625 10.796875 
z
" id="SuisseIntlMono-Bold-49"/>
      <path d="M 34.796875 53.09375 
L 34.796875 27.703125 
L 16.90625 27.703125 
z
M 59 27.703125 
L 49.203125 27.703125 
L 49.203125 72.5 
L 35.796875 72.5 
L 3 27 
L 3 14.703125 
L 34.796875 14.703125 
L 34.796875 0 
L 49.203125 0 
L 49.203125 14.703125 
L 59 14.703125 
z
" id="SuisseIntlMono-Bold-52"/>
      <path d="M 32.203125 62.703125 
C 37.703125 62.703125 42.59375 59.296875 42.59375 53.40625 
C 42.59375 47.40625 37.703125 43.59375 32.203125 43.59375 
C 26.703125 43.59375 21.796875 47.40625 21.796875 53.40625 
C 21.796875 59.296875 26.703125 62.703125 32.203125 62.703125 
z
M 32.203125 73.796875 
C 17.59375 73.796875 7.59375 65.203125 7.59375 54.296875 
C 7.59375 48.203125 9.796875 42.796875 14.40625 38.90625 
C 7.796875 34.296875 5.90625 28.296875 5.90625 21.5 
C 5.90625 7 17.59375 -1.296875 32.203125 -1.296875 
C 46.796875 -1.296875 58.59375 7 58.59375 21.5 
C 58.59375 28.296875 56.59375 34.296875 50.09375 38.90625 
C 54.59375 42.796875 56.90625 48.203125 56.90625 54.296875 
C 56.90625 65.203125 46.796875 73.796875 32.203125 73.796875 
z
M 32.203125 9.796875 
C 25.59375 9.796875 20.5 14.5 20.5 21.5 
C 20.5 28.59375 25.59375 32.90625 32.203125 32.90625 
C 38.796875 32.90625 43.90625 28.59375 43.90625 21.5 
C 43.90625 14.5 38.796875 9.796875 32.203125 9.796875 
z
" id="SuisseIntlMono-Bold-56"/>
     </defs>
     <use xlink:href="#SuisseIntlMono-Bold-36"/>
     <use x="64.599991" xlink:href="#SuisseIntlMono-Bold-49"/>
     <use x="129.199982" xlink:href="#SuisseIntlMono-Bold-49"/>
     <use x="193.799973" xlink:href="#SuisseIntlMono-Bold-44"/>
     <use x="258.399963" xlink:href="#SuisseIntlMono-Bold-52"/>
     <use x="322.999954" xlink:href="#SuisseIntlMono-Bold-56"/>
     <use x="387.599945" xlink:href="#SuisseIntlMono-Bold-55"/>
    </g>
   </g>
   <g id="patch_9">
    <path d="M 437.276946 116.074952 
Q 446.785191 130.199429 454.420398 141.541509 
" style="fill:none;stroke:#ffd300;stroke-linecap:round;stroke-width:3;"/>
    <path d="M 453.615916 135.332418 
L 454.420398 141.541509 
L 448.970436 138.45964 
" style="fill:none;stroke:#ffd300;stroke-linecap:round;stroke-width:3;"/>
   </g>
   <g id="text_16">
    <!-- $16,190 -->
    <g style="fill:#ffd300;" transform="translate(394.10989 103.328567)scale(0.14 -0.14)">
     <defs>
      <path d="M 21.296875 24.09375 
C 21.296875 33.09375 26.09375 38.203125 32.296875 38.203125 
C 38.40625 38.203125 43.09375 32.703125 43.09375 24.09375 
C 43.09375 15.203125 38.40625 9.40625 32.296875 9.40625 
C 25.90625 9.40625 21.296875 15.203125 21.296875 24.09375 
z
M 33.203125 63.296875 
C 37.703125 63.296875 42.296875 59.90625 42.90625 52.796875 
L 57 52.796875 
C 56.296875 64.296875 48.703125 73.796875 33.90625 73.796875 
C 14.703125 73.796875 6.203125 56.203125 6.203125 34.90625 
C 6.203125 14.5 14.296875 -1.296875 32.296875 -1.296875 
C 46.703125 -1.296875 57.703125 8.796875 57.703125 24.09375 
C 57.703125 39.59375 46.796875 49.40625 35.40625 49.40625 
C 29.203125 49.40625 24.203125 47.40625 21.09375 44.203125 
C 21.203125 56.796875 26.5 63.296875 33.203125 63.296875 
z
" id="SuisseIntlMono-Bold-54"/>
      <path d="M 43.203125 48.703125 
C 43.203125 39.59375 38.5 34.5 32.203125 34.5 
C 26.09375 34.5 21.5 40.09375 21.5 48.703125 
C 21.5 57.5 26.09375 63.203125 32.203125 63.203125 
C 38.59375 63.203125 43.203125 57.5 43.203125 48.703125 
z
M 31.40625 9.296875 
C 26.90625 9.296875 22.203125 12.703125 21.59375 19.796875 
L 7.5 19.796875 
C 8.203125 8.296875 15.90625 -1.296875 30.59375 -1.296875 
C 49.90625 -1.296875 58.40625 16.5 58.40625 37.796875 
C 58.40625 58.796875 50.203125 73.796875 32.203125 73.796875 
C 17.796875 73.796875 6.90625 64 6.90625 48.703125 
C 6.90625 33.203125 17.703125 23.296875 29.09375 23.296875 
C 35.40625 23.296875 40.296875 25.296875 43.40625 28.59375 
C 43.296875 16 38.09375 9.296875 31.40625 9.296875 
z
" id="SuisseIntlMono-Bold-57"/>
     </defs>
     <use xlink:href="#SuisseIntlMono-Bold-36"/>
     <use x="64.599991" xlink:href="#SuisseIntlMono-Bold-49"/>
     <use x="129.199982" xlink:href="#SuisseIntlMono-Bold-54"/>
     <use x="193.799973" xlink:href="#SuisseIntlMono-Bold-44"/>
     <use x="258.399963" xlink:href="#SuisseIntlMono-Bold-49"/>
     <use x="322.999954" xlink:href="#SuisseIntlMono-Bold-57"/>
     <use x="387.599945" xlink:href="#SuisseIntlMono-Bold-48"/>
    </g>
   </g>
   <g id="text_17">
    <!-- R²=0.99 -->
    <g style="fill:#66c4ff;" transform="translate(345.6 320.432588)scale(0.26 -0.26)">
     <defs>
      <path d="M 43 0 
L 59.5 0 
L 43.296875 32.59375 
C 50.90625 35.40625 56.296875 40.59375 56.296875 51 
C 56.296875 69 43.796875 72.5 27.296875 72.5 
L 8 72.5 
L 8 0 
L 23 0 
L 23 29.40625 
L 27.296875 29.40625 
L 28.703125 29.40625 
z
M 27.796875 60.296875 
C 34.90625 60.296875 40.40625 58.5 40.40625 50.703125 
C 40.40625 42.90625 34.90625 41.203125 27.796875 41.203125 
L 23 41.203125 
L 23 60.296875 
z
" id="SuisseIntlMono-Bold-82"/>
      <path d="M 33.296875 85.296875 
C 22.59375 85.296875 16.09375 79.59375 16 69.5 
L 26.5 69.5 
C 26.796875 74.703125 29.296875 77 32.796875 77 
C 35.40625 77 37.5 75.703125 37.5 72.703125 
C 37.5 66.203125 23.296875 57.796875 16 52.59375 
L 16 43.796875 
L 48.59375 43.796875 
L 48.59375 53.296875 
L 31.40625 53.296875 
C 41.90625 60.296875 48.703125 65.5 48.703125 73.59375 
C 48.703125 81.59375 42 85.296875 33.296875 85.296875 
z
" id="SuisseIntlMono-Bold-178"/>
      <path d="M 57.703125 31.40625 
L 57.703125 43.40625 
L 6.90625 43.40625 
L 6.90625 31.40625 
z
M 57.703125 10.40625 
L 57.703125 22.5 
L 6.90625 22.5 
L 6.90625 10.40625 
z
" id="SuisseIntlMono-Bold-61"/>
      <path d="M 41.59375 0 
L 41.59375 17.796875 
L 23 17.796875 
L 23 0 
z
" id="SuisseIntlMono-Bold-46"/>
     </defs>
     <use xlink:href="#SuisseIntlMono-Bold-82"/>
     <use x="64.599991" xlink:href="#SuisseIntlMono-Bold-178"/>
     <use x="129.299988" xlink:href="#SuisseIntlMono-Bold-61"/>
     <use x="193.899979" xlink:href="#SuisseIntlMono-Bold-48"/>
     <use x="258.499969" xlink:href="#SuisseIntlMono-Bold-46"/>
     <use x="323.09996" xlink:href="#SuisseIntlMono-Bold-57"/>
     <use x="387.699951" xlink:href="#SuisseIntlMono-Bold-57"/>
    </g>
   </g>
   <g id="text_18">
    <!--  -->
    <g style="fill:#f5fcff;" transform="translate(324.635294 13.08575)scale(0.26 -0.26)"/>
    <!--  Difference Between Mean and Median -->
    <g style="fill:#f5fcff;" transform="translate(97.078419 40.48)scale(0.26 -0.26)">
     <defs>
      <path d="M 29.90625 70 
Q 38.59375 70 46 66.203125 
Q 53.40625 62.40625 57.953125 54.546875 
Q 62.5 46.703125 62.5 35 
Q 62.5 23.296875 57.953125 15.4375 
Q 53.40625 7.59375 46 3.796875 
Q 38.59375 0 29.90625 0 
L 8 0 
L 8 70 
z
M 25.796875 12 
Q 35.796875 12 42.546875 17.140625 
Q 49.296875 22.296875 49.296875 35 
Q 49.296875 47.703125 42.546875 52.84375 
Q 35.796875 58 25.796875 58 
L 21 58 
L 21 12 
L 25.796875 12 
z
" id="ApercuPro-Bold-68"/>
      <path d="M 7 50.40625 
L 19.40625 50.40625 
L 19.40625 0 
L 7 0 
z
M 13.203125 56.90625 
Q 9.796875 56.90625 7.5 59.203125 
Q 5.203125 61.5 5.203125 64.90625 
Q 5.203125 68.296875 7.5 70.59375 
Q 9.796875 72.90625 13.203125 72.90625 
Q 16.59375 72.90625 18.890625 70.59375 
Q 21.203125 68.296875 21.203125 64.90625 
Q 21.203125 61.5 18.890625 59.203125 
Q 16.59375 56.90625 13.203125 56.90625 
z
" id="ApercuPro-Bold-105"/>
      <path d="M 0.90625 39.796875 
L 0.90625 50.40625 
L 7.296875 50.40625 
L 7.296875 53 
Q 7.296875 61.90625 11.9375 66.34375 
Q 16.59375 70.796875 24.703125 70.796875 
Q 30.40625 70.796875 34.09375 68.796875 
L 31.40625 58.796875 
Q 28.09375 60.203125 25.40625 60.203125 
Q 19.703125 60.203125 19.703125 53.90625 
L 19.703125 50.40625 
L 30.296875 50.40625 
L 30.296875 39.796875 
L 19.703125 39.796875 
L 19.703125 0 
L 7.296875 0 
L 7.296875 39.796875 
z
" id="ApercuPro-Bold-102"/>
      <path d="M 19.40625 50.40625 
L 19.40625 42.296875 
Q 22.296875 46.40625 26.296875 48.796875 
Q 30.296875 51.203125 35 51.203125 
Q 42 51.203125 46.25 47.296875 
Q 50.5 43.40625 50.5 36 
L 50.5 0 
L 38.09375 0 
L 38.09375 32.296875 
Q 38.09375 36.59375 36.140625 38.59375 
Q 34.203125 40.59375 30.90625 40.59375 
Q 27.796875 40.59375 25.1875 38.1875 
Q 22.59375 35.796875 21 31.140625 
Q 19.40625 26.5 19.40625 20.09375 
L 19.40625 0 
L 7 0 
L 7 50.40625 
z
" id="ApercuPro-Bold-110"/>
      <path d="M 28.796875 -0.796875 
Q 20.90625 -0.796875 15.34375 2.640625 
Q 9.796875 6.09375 7 12 
Q 4.203125 17.90625 4.203125 25.203125 
Q 4.203125 32.5 7 38.390625 
Q 9.796875 44.296875 15.34375 47.75 
Q 20.90625 51.203125 28.796875 51.203125 
Q 37.203125 51.203125 43.046875 47.546875 
Q 48.90625 43.90625 51.703125 36.796875 
L 40.59375 32.296875 
Q 38.59375 36.40625 35.75 38.5 
Q 32.90625 40.59375 28.796875 40.59375 
Q 23.09375 40.59375 20.140625 36.34375 
Q 17.203125 32.09375 17.203125 25.203125 
Q 17.203125 18.296875 20.140625 14.046875 
Q 23.09375 9.796875 28.796875 9.796875 
Q 32.90625 9.796875 35.75 11.890625 
Q 38.59375 14 40.59375 18.09375 
L 51.703125 13.59375 
Q 48.90625 6.5 43.046875 2.84375 
Q 37.203125 -0.796875 28.796875 -0.796875 
z
" id="ApercuPro-Bold-99"/>
      <path d="M 33.59375 70 
Q 42.796875 70 48.1875 65.203125 
Q 53.59375 60.40625 53.59375 51.09375 
Q 53.59375 46.796875 51.796875 43.34375 
Q 50 39.90625 46.703125 38.203125 
Q 57.203125 33.90625 57.203125 21.09375 
Q 57.203125 11 51.046875 5.5 
Q 44.90625 0 34.09375 0 
L 8 0 
L 8 70 
z
M 32.90625 42.796875 
Q 37 42.796875 39.046875 44.546875 
Q 41.09375 46.296875 41.09375 50.40625 
Q 41.09375 54.5 39 56.25 
Q 36.90625 58 32.59375 58 
L 21 58 
L 21 42.796875 
L 32.90625 42.796875 
z
M 32.90625 12 
Q 38.796875 12 41.5 14.390625 
Q 44.203125 16.796875 44.203125 21.40625 
Q 44.203125 26 41.5 28.390625 
Q 38.796875 30.796875 32.90625 30.796875 
L 21 30.796875 
L 21 12 
L 32.90625 12 
z
" id="ApercuPro-Bold-66"/>
      <path d="M 27.203125 -0.796875 
Q 18.5 -0.796875 13.59375 3.890625 
Q 8.703125 8.59375 8.703125 17.796875 
L 8.703125 39.796875 
L 0.90625 39.796875 
L 0.90625 50.40625 
L 8.703125 50.40625 
L 8.703125 63 
L 21.09375 70.796875 
L 21.09375 50.40625 
L 34.40625 50.40625 
L 34.40625 39.796875 
L 21.09375 39.796875 
L 21.09375 18 
Q 21.09375 13.5 22.75 11.640625 
Q 24.40625 9.796875 27.703125 9.796875 
Q 30.203125 9.796875 32.5 11 
L 35.40625 1 
Q 31.5 -0.796875 27.203125 -0.796875 
z
" id="ApercuPro-Bold-116"/>
      <path d="M 1.09375 50.40625 
L 13.59375 50.40625 
L 22.59375 15.796875 
L 31.09375 50.40625 
L 42.703125 50.40625 
L 51.203125 15.796875 
L 60.203125 50.40625 
L 72.703125 50.40625 
L 56.59375 0 
L 45.59375 0 
L 36.90625 32.59375 
L 28.203125 0 
L 17.203125 0 
z
" id="ApercuPro-Bold-119"/>
      <path d="M 8 70 
L 22.59375 70 
L 39.09375 26.296875 
L 55.59375 70 
L 70.203125 70 
L 70.203125 0 
L 57.203125 0 
L 57.203125 43.203125 
L 43.796875 6.40625 
L 34.40625 6.40625 
L 21 43.203125 
L 21 0 
L 8 0 
z
" id="ApercuPro-Bold-77"/>
      <path d="M 26.203125 -0.796875 
Q 15.703125 -0.796875 9.953125 6.25 
Q 4.203125 13.296875 4.203125 25.203125 
Q 4.203125 37.09375 9.953125 44.140625 
Q 15.703125 51.203125 26.203125 51.203125 
Q 30.5 51.203125 34.046875 49.640625 
Q 37.59375 48.09375 39.40625 45.796875 
L 39.40625 48.796875 
L 39.40625 70.796875 
L 51.796875 70.796875 
L 51.796875 0 
L 39.40625 0 
L 39.40625 2.203125 
L 39.40625 5.203125 
Q 38.203125 2.90625 34.640625 1.046875 
Q 31.09375 -0.796875 26.203125 -0.796875 
z
M 28.90625 9.796875 
Q 34 9.796875 37.25 13.84375 
Q 40.5 17.90625 40.5 25.203125 
Q 40.5 32.5 37.25 36.546875 
Q 34 40.59375 28.90625 40.59375 
Q 23.796875 40.59375 20.5 36.546875 
Q 17.203125 32.5 17.203125 25.203125 
Q 17.203125 18 20.5 13.890625 
Q 23.796875 9.796875 28.90625 9.796875 
z
" id="ApercuPro-Bold-100"/>
     </defs>
     <use xlink:href="#ApercuPro-Bold-32"/>
     <use x="24.799988" xlink:href="#ApercuPro-Bold-68"/>
     <use x="91.899979" xlink:href="#ApercuPro-Bold-105"/>
     <use x="118.299973" xlink:href="#ApercuPro-Bold-102"/>
     <use x="152.59996" xlink:href="#ApercuPro-Bold-102"/>
     <use x="186.899948" xlink:href="#ApercuPro-Bold-101"/>
     <use x="242.999939" xlink:href="#ApercuPro-Bold-114"/>
     <use x="284.699936" xlink:href="#ApercuPro-Bold-101"/>
     <use x="340.799927" xlink:href="#ApercuPro-Bold-110"/>
     <use x="398.299911" xlink:href="#ApercuPro-Bold-99"/>
     <use x="453.599899" xlink:href="#ApercuPro-Bold-101"/>
     <use x="509.69989" xlink:href="#ApercuPro-Bold-32"/>
     <use x="534.499878" xlink:href="#ApercuPro-Bold-66"/>
     <use x="596.299866" xlink:href="#ApercuPro-Bold-101"/>
     <use x="652.399857" xlink:href="#ApercuPro-Bold-116"/>
     <use x="689.399841" xlink:href="#ApercuPro-Bold-119"/>
     <use x="763.199829" xlink:href="#ApercuPro-Bold-101"/>
     <use x="819.29982" xlink:href="#ApercuPro-Bold-101"/>
     <use x="875.399811" xlink:href="#ApercuPro-Bold-110"/>
     <use x="932.899796" xlink:href="#ApercuPro-Bold-32"/>
     <use x="957.699783" xlink:href="#ApercuPro-Bold-77"/>
     <use x="1035.899765" xlink:href="#ApercuPro-Bold-101"/>
     <use x="1091.999756" xlink:href="#ApercuPro-Bold-97"/>
     <use x="1144.699753" xlink:href="#ApercuPro-Bold-110"/>
     <use x="1202.199738" xlink:href="#ApercuPro-Bold-32"/>
     <use x="1226.999725" xlink:href="#ApercuPro-Bold-97"/>
     <use x="1279.699722" xlink:href="#ApercuPro-Bold-110"/>
     <use x="1337.199707" xlink:href="#ApercuPro-Bold-100"/>
     <use x="1395.999695" xlink:href="#ApercuPro-Bold-32"/>
     <use x="1420.799683" xlink:href="#ApercuPro-Bold-77"/>
     <use x="1498.999664" xlink:href="#ApercuPro-Bold-101"/>
     <use x="1555.099655" xlink:href="#ApercuPro-Bold-100"/>
     <use x="1613.899643" xlink:href="#ApercuPro-Bold-105"/>
     <use x="1640.299637" xlink:href="#ApercuPro-Bold-97"/>
     <use x="1692.999634" xlink:href="#ApercuPro-Bold-110"/>
    </g>
   </g>
  </g>
  <g id="axes_2">
   <g id="text_19">
    <!-- How linear is  -->
    <g style="fill:#ffffff;" transform="translate(560.964706 293.925038)scale(0.18 -0.18)">
     <defs>
      <path d="M 16.703125 70 
L 29.703125 70 
L 24.5 43.40625 
L 52.5 43.40625 
L 57.703125 70 
L 70.703125 70 
L 57.09375 0 
L 44.09375 0 
L 50.203125 31.40625 
L 22.203125 31.40625 
L 16.09375 0 
L 3.09375 0 
z
" id="ApercuPro-BoldItalic-72"/>
      <path d="M 26.5 -0.796875 
Q 16 -0.796875 10.09375 5.203125 
Q 4.203125 11.203125 4.203125 21.703125 
Q 4.203125 29.90625 7.84375 36.65625 
Q 11.5 43.40625 18.09375 47.296875 
Q 24.703125 51.203125 33.09375 51.203125 
Q 43.59375 51.203125 49.5 45.203125 
Q 55.40625 39.203125 55.40625 28.703125 
Q 55.40625 20.5 51.75 13.75 
Q 48.09375 7 41.5 3.09375 
Q 34.90625 -0.796875 26.5 -0.796875 
z
M 27.796875 9.796875 
Q 32 9.796875 35.25 12.140625 
Q 38.5 14.5 40.296875 18.546875 
Q 42.09375 22.59375 42.09375 27.703125 
Q 42.09375 33.796875 39.4375 37.1875 
Q 36.796875 40.59375 31.796875 40.59375 
Q 27.59375 40.59375 24.34375 38.25 
Q 21.09375 35.90625 19.296875 31.84375 
Q 17.5 27.796875 17.5 22.703125 
Q 17.5 16.59375 20.140625 13.1875 
Q 22.796875 9.796875 27.796875 9.796875 
z
" id="ApercuPro-BoldItalic-111"/>
      <path d="M 6.5 50.40625 
L 19.296875 50.40625 
L 21 16.203125 
L 35.703125 50.40625 
L 47.5 50.40625 
L 48.90625 16.203125 
L 64 50.40625 
L 77.09375 50.40625 
L 51.703125 0 
L 40.40625 0 
L 38.59375 32.59375 
L 24 0 
L 12.59375 0 
z
" id="ApercuPro-BoldItalic-119"/>
      <path id="ApercuPro-BoldItalic-32"/>
      <path d="M 16.09375 70.796875 
L 28.59375 70.796875 
L 14.90625 0 
L 2.40625 0 
z
" id="ApercuPro-BoldItalic-108"/>
      <path d="M 12.203125 50.40625 
L 24.703125 50.40625 
L 14.796875 0 
L 2.296875 0 
z
M 21.296875 56.90625 
Q 17.90625 56.90625 15.59375 59.203125 
Q 13.296875 61.5 13.296875 64.90625 
Q 13.296875 68.296875 15.59375 70.59375 
Q 17.90625 72.90625 21.296875 72.90625 
Q 24.703125 72.90625 27 70.59375 
Q 29.296875 68.296875 29.296875 64.90625 
Q 29.296875 61.5 27 59.203125 
Q 24.703125 56.90625 21.296875 56.90625 
z
" id="ApercuPro-BoldItalic-105"/>
      <path d="M 24.59375 50.40625 
L 23 42.296875 
Q 30 51.203125 40.203125 51.203125 
Q 46.40625 51.203125 49.796875 48.140625 
Q 53.203125 45.09375 53.203125 39.90625 
Q 53.203125 37.90625 52.796875 36 
L 45.796875 0 
L 33.296875 0 
L 39.59375 32.296875 
Q 39.90625 34 39.90625 35.203125 
Q 39.90625 37.703125 38.296875 39.140625 
Q 36.703125 40.59375 34.09375 40.59375 
Q 31 40.59375 27.953125 38.1875 
Q 24.90625 35.796875 22.453125 31.140625 
Q 20 26.5 18.703125 20.09375 
L 14.796875 0 
L 2.296875 0 
L 12.09375 50.40625 
z
" id="ApercuPro-BoldItalic-110"/>
      <path d="M 25.703125 -0.796875 
Q 19.5 -0.796875 14.59375 1.84375 
Q 9.703125 4.5 6.890625 9.546875 
Q 4.09375 14.59375 4.09375 21.5 
Q 4.09375 29.296875 7.796875 36.140625 
Q 11.5 43 18.34375 47.09375 
Q 25.203125 51.203125 34 51.203125 
Q 40.40625 51.203125 44.953125 48.546875 
Q 49.5 45.90625 51.84375 41.296875 
Q 54.203125 36.703125 54.203125 31 
Q 54.203125 27.5 52.796875 21.203125 
L 16.59375 21.203125 
L 16.59375 19.59375 
Q 16.59375 15.5 19.34375 12.640625 
Q 22.09375 9.796875 26.796875 9.796875 
Q 31.09375 9.796875 34.390625 11.9375 
Q 37.703125 14.09375 40.59375 18.40625 
L 50.5 13.296875 
Q 45.59375 6 39.796875 2.59375 
Q 34 -0.796875 25.703125 -0.796875 
z
M 41.796875 31 
Q 41.90625 31.5 41.90625 32.5 
Q 41.90625 36.203125 39.34375 38.390625 
Q 36.796875 40.59375 32.59375 40.59375 
Q 27.796875 40.59375 24.25 37.84375 
Q 20.703125 35.09375 19 31 
L 41.796875 31 
z
" id="ApercuPro-BoldItalic-101"/>
      <path d="M 22.703125 -0.796875 
Q 13.703125 -0.796875 8.84375 4.953125 
Q 4 10.703125 4 19.59375 
Q 4 28.796875 7.296875 35.9375 
Q 10.59375 43.09375 16.75 47.140625 
Q 22.90625 51.203125 31.203125 51.203125 
Q 36 51.203125 39.296875 49.75 
Q 42.59375 48.296875 44 46.09375 
L 44.796875 50.40625 
L 57.296875 50.40625 
L 47.59375 0 
L 35.09375 0 
L 36.09375 5.203125 
Q 34.5 3 30.75 1.09375 
Q 27 -0.796875 22.703125 -0.796875 
z
M 26.5 9.796875 
Q 31.296875 9.796875 34.6875 12.546875 
Q 38.09375 15.296875 39.84375 19.796875 
Q 41.59375 24.296875 41.59375 29.5 
Q 41.59375 34.796875 39.09375 37.6875 
Q 36.59375 40.59375 32.40625 40.59375 
Q 27.59375 40.59375 24.140625 37.75 
Q 20.703125 34.90625 19 30.59375 
Q 17.296875 26.296875 17.296875 21.90625 
Q 17.296875 16.203125 19.84375 13 
Q 22.40625 9.796875 26.5 9.796875 
z
" id="ApercuPro-BoldItalic-97"/>
      <path d="M 24.59375 50.40625 
L 23.09375 42.90625 
Q 29.703125 51.203125 38.90625 51.203125 
Q 41 51.203125 42.296875 50.890625 
Q 43.59375 50.59375 45.40625 49.90625 
L 41.203125 38.703125 
Q 39.203125 40.09375 36.09375 40.09375 
Q 32.796875 40.09375 29.25 37.75 
Q 25.703125 35.40625 22.75 30.40625 
Q 19.796875 25.40625 18.296875 17.90625 
L 14.796875 0 
L 2.296875 0 
L 12.09375 50.40625 
z
" id="ApercuPro-BoldItalic-114"/>
      <path d="M 19.296875 -0.796875 
Q 13.703125 -0.796875 9.640625 1.5 
Q 5.59375 3.796875 3.296875 7.140625 
Q 1 10.5 0.296875 14 
L 10.90625 18.40625 
Q 11.90625 14.296875 14.453125 12.046875 
Q 17 9.796875 20.703125 9.796875 
Q 23.40625 9.796875 25.25 11.09375 
Q 27.09375 12.40625 27.09375 15 
Q 27.09375 17 25.140625 18.59375 
Q 23.203125 20.203125 18.5 22.40625 
Q 13.59375 24.703125 10.890625 27.890625 
Q 8.203125 31.09375 8.203125 35.796875 
Q 8.203125 42.90625 12.890625 47.046875 
Q 17.59375 51.203125 25.796875 51.203125 
Q 30.90625 51.203125 35.40625 48.75 
Q 39.90625 46.296875 41.5 42.59375 
L 32.59375 36.203125 
Q 31.40625 38.296875 29.25 39.4375 
Q 27.09375 40.59375 24.90625 40.59375 
Q 22.796875 40.59375 21.390625 39.390625 
Q 20 38.203125 20 36.09375 
Q 20 34.203125 21.703125 33 
Q 23.40625 31.796875 26.796875 30.296875 
L 28.703125 29.5 
Q 33.5 27.296875 36.296875 24.390625 
Q 39.09375 21.5 39.09375 16.703125 
Q 39.09375 7.90625 33.6875 3.546875 
Q 28.296875 -0.796875 19.296875 -0.796875 
z
" id="ApercuPro-BoldItalic-115"/>
     </defs>
     <use xlink:href="#ApercuPro-BoldItalic-72"/>
     <use x="69.999985" xlink:href="#ApercuPro-BoldItalic-111"/>
     <use x="129.599976" xlink:href="#ApercuPro-BoldItalic-119"/>
     <use x="203.399963" xlink:href="#ApercuPro-BoldItalic-32"/>
     <use x="227.999954" xlink:href="#ApercuPro-BoldItalic-108"/>
     <use x="254.999939" xlink:href="#ApercuPro-BoldItalic-105"/>
     <use x="281.999924" xlink:href="#ApercuPro-BoldItalic-110"/>
     <use x="339.899918" xlink:href="#ApercuPro-BoldItalic-101"/>
     <use x="397.699905" xlink:href="#ApercuPro-BoldItalic-97"/>
     <use x="457.399902" xlink:href="#ApercuPro-BoldItalic-114"/>
     <use x="498.999893" xlink:href="#ApercuPro-BoldItalic-32"/>
     <use x="523.599884" xlink:href="#ApercuPro-BoldItalic-105"/>
     <use x="550.599869" xlink:href="#ApercuPro-BoldItalic-115"/>
     <use x="595.19986" xlink:href="#ApercuPro-BoldItalic-32"/>
    </g>
    <!-- this pattern? -->
    <g style="fill:#ffffff;" transform="translate(560.964706 313.345913)scale(0.18 -0.18)">
     <defs>
      <path d="M 20.296875 -0.796875 
Q 14 -0.796875 10.34375 2.84375 
Q 6.703125 6.5 6.703125 13.203125 
Q 6.703125 16 7.09375 17.796875 
L 11.40625 39.796875 
L 3.59375 39.796875 
L 5.59375 50.40625 
L 13.40625 50.40625 
L 15.90625 63.203125 
L 29.796875 70.796875 
L 25.90625 50.40625 
L 38 50.40625 
L 36 39.796875 
L 23.90625 39.796875 
L 19.59375 18 
Q 19.203125 15.59375 19.203125 15.203125 
Q 19.203125 9.796875 24.59375 9.796875 
Q 25.90625 9.796875 26.90625 10.046875 
Q 27.90625 10.296875 29.296875 11 
L 30.09375 1.296875 
Q 27.59375 0.09375 25.34375 -0.34375 
Q 23.09375 -0.796875 20.296875 -0.796875 
z
" id="ApercuPro-BoldItalic-116"/>
      <path d="M 28.59375 70.796875 
L 23.09375 42.296875 
Q 30.90625 51.203125 40.40625 51.203125 
Q 46.5 51.203125 50.09375 47.953125 
Q 53.703125 44.703125 53.703125 39.296875 
Q 53.703125 37.59375 53.296875 35.203125 
L 46.5 0 
L 34 0 
L 40.09375 31.59375 
Q 40.5 33.90625 40.5 34.90625 
Q 40.5 37.703125 38.84375 39.140625 
Q 37.203125 40.59375 34.203125 40.59375 
Q 31.296875 40.59375 28.25 38.5 
Q 25.203125 36.40625 22.703125 32.046875 
Q 20.203125 27.703125 19 21.296875 
L 14.90625 0 
L 2.40625 0 
L 16.09375 70.796875 
z
" id="ApercuPro-BoldItalic-104"/>
      <path d="M 24.59375 50.40625 
L 24.203125 48.5 
L 23.5 45.203125 
Q 25.5 47.796875 28.953125 49.5 
Q 32.40625 51.203125 36.90625 51.203125 
Q 45.59375 51.203125 50.640625 45.59375 
Q 55.703125 40 55.703125 30.40625 
Q 55.703125 21.5 52.34375 14.390625 
Q 49 7.296875 42.703125 3.25 
Q 36.40625 -0.796875 27.796875 -0.796875 
Q 23.59375 -0.796875 20.296875 0.796875 
Q 17 2.40625 15.703125 4.59375 
L 14.90625 0.40625 
L 10.796875 -20.40625 
L -1.703125 -20.40625 
L 12.09375 50.40625 
z
M 27.203125 9.796875 
Q 32 9.796875 35.453125 12.59375 
Q 38.90625 15.40625 40.65625 19.796875 
Q 42.40625 24.203125 42.40625 28.703125 
Q 42.40625 34.5 39.953125 37.546875 
Q 37.5 40.59375 33.09375 40.59375 
Q 28.296875 40.59375 24.890625 37.4375 
Q 21.5 34.296875 19.796875 29.6875 
Q 18.09375 25.09375 18.09375 21 
Q 18.09375 15.40625 20.546875 12.59375 
Q 23 9.796875 27.203125 9.796875 
z
" id="ApercuPro-BoldItalic-112"/>
      <path d="M 22.796875 21.296875 
Q 17.09375 21.296875 13.640625 24.4375 
Q 10.203125 27.59375 10.203125 32.703125 
Q 10.203125 36.5 11.640625 38.953125 
Q 13.09375 41.40625 15.5 42.953125 
Q 17.90625 44.5 21.90625 46.203125 
L 31.296875 50.09375 
Q 36.203125 52.203125 36.203125 55.796875 
Q 36.203125 57.90625 34.796875 59.15625 
Q 33.40625 60.40625 30.796875 60.40625 
Q 27.59375 60.40625 25.046875 58.34375 
Q 22.5 56.296875 20.90625 52.296875 
L 10 54.90625 
Q 12.40625 62.09375 18.203125 66.4375 
Q 24 70.796875 32 70.796875 
Q 39.296875 70.796875 43.640625 67.140625 
Q 48 63.5 48 56.59375 
Q 48 51.59375 45.59375 48.390625 
Q 43.203125 45.203125 38.203125 43.296875 
L 25.796875 38.59375 
Q 23.296875 37.703125 22.09375 36.59375 
Q 20.90625 35.5 20.90625 33.59375 
Q 20.90625 32.203125 21.796875 31.25 
Q 22.703125 30.296875 24.203125 30.296875 
Q 27.703125 30.296875 30.59375 35.296875 
L 39.09375 32.296875 
Q 36.203125 26.40625 32.25 23.84375 
Q 28.296875 21.296875 22.796875 21.296875 
z
M 18.703125 -0.59375 
Q 15.203125 -0.59375 12.796875 1.796875 
Q 10.40625 4.203125 10.40625 7.59375 
Q 10.40625 11.09375 12.84375 13.546875 
Q 15.296875 16 18.703125 16 
Q 22.09375 16 24.546875 13.546875 
Q 27 11.09375 27 7.59375 
Q 27 4.203125 24.59375 1.796875 
Q 22.203125 -0.59375 18.703125 -0.59375 
z
" id="ApercuPro-BoldItalic-63"/>
     </defs>
     <use xlink:href="#ApercuPro-BoldItalic-116"/>
     <use x="36.499985" xlink:href="#ApercuPro-BoldItalic-104"/>
     <use x="95.099976" xlink:href="#ApercuPro-BoldItalic-105"/>
     <use x="122.09996" xlink:href="#ApercuPro-BoldItalic-115"/>
     <use x="166.699951" xlink:href="#ApercuPro-BoldItalic-32"/>
     <use x="191.299942" xlink:href="#ApercuPro-BoldItalic-112"/>
     <use x="250.999939" xlink:href="#ApercuPro-BoldItalic-97"/>
     <use x="310.699936" xlink:href="#ApercuPro-BoldItalic-116"/>
     <use x="347.199921" xlink:href="#ApercuPro-BoldItalic-116"/>
     <use x="383.699905" xlink:href="#ApercuPro-BoldItalic-101"/>
     <use x="441.499893" xlink:href="#ApercuPro-BoldItalic-114"/>
     <use x="483.099884" xlink:href="#ApercuPro-BoldItalic-110"/>
     <use x="540.999878" xlink:href="#ApercuPro-BoldItalic-63"/>
    </g>
   </g>
  </g>
 </g>
 <defs>
  <clipPath id="p103a0f192b">
   <rect height="315.288" width="433.270588" x="108" y="60.48"/>
  </clipPath>
 </defs>
</svg>
