<?xml version="1.0" encoding="UTF-8"?>
<svg width="1214px" height="941px" viewBox="0 0 1214 941" version="1.1" xmlns="http://www.w3.org/2000/svg" xmlns:xlink="http://www.w3.org/1999/xlink">
    <!-- Generator: Sketch 46.2 (44496) - http://www.bohemiancoding.com/sketch -->
    <title>2 panel_example_4 copy</title>
    <desc>Created with Sketch.</desc>
    <defs></defs>
    <g id="Page-1" stroke="none" stroke-width="1" fill="none" fill-rule="evenodd">
        <g id="2-panel_example_4-copy">
            <polygon id="Page-1" points="-1 941 1213 941 1213 0 -1 0"></polygon>
            <path d="M573.40513,800.238281 L574.723489,795.628906 L575.866068,795.628906 L574.987161,800.238281 L573.40513,800.238281 Z M570.387552,800.238281 L571.696146,795.628906 L572.868021,795.628906 L571.950052,800.238281 L570.387552,800.238281 Z M583.560424,801.419922 C582.525263,801.419922 581.732627,801.776364 581.182494,802.489258 C580.632361,803.202152 580.357299,804.248691 580.357299,805.628906 C580.357299,808.454441 581.421741,809.867188 583.550658,809.867188 C584.078005,809.867188 584.541867,809.758139 584.94226,809.540039 C585.342653,809.321939 585.658405,809.015952 585.889526,808.62207 C586.120646,808.228188 586.293171,807.783857 586.407104,807.289062 C586.521036,806.794268 586.578002,806.244144 586.578002,805.638672 C586.578002,804.818355 586.481974,804.102217 586.289916,803.490234 C586.097858,802.878252 585.770713,802.38021 585.308471,801.996094 C584.846229,801.611977 584.263552,801.419922 583.560424,801.419922 Z M583.72644,800.0625 C584.676965,800.0625 585.497269,800.303383 586.187377,800.785156 C586.877485,801.266929 587.395058,801.92122 587.740111,802.748047 C588.085165,803.574874 588.25769,804.52213 588.25769,805.589844 C588.25769,806.69662 588.086793,807.669918 587.744994,808.509766 C587.403196,809.349614 586.885623,810.012042 586.19226,810.49707 C585.498897,810.982099 584.670455,811.224609 583.706908,811.224609 C582.997269,811.224609 582.349489,811.071616 581.763549,810.765625 C581.177609,810.459634 580.689332,810.042971 580.298705,809.515625 L580.13269,811 L578.736205,811 L578.736205,796.126953 L580.367065,796.029297 L580.367065,799.574219 C580.367065,800.446619 580.354044,801.195309 580.328002,801.820312 C580.705608,801.279945 581.195512,800.85189 581.797729,800.536133 C582.399945,800.220376 583.042842,800.0625 583.72644,800.0625 Z M596.899312,802.269531 C596.424049,801.696612 595.769758,801.410156 594.936421,801.410156 C594.103083,801.410156 593.422752,801.70475 592.895405,802.293945 C592.368059,802.883141 592.058817,803.688797 591.967671,804.710938 L597.621968,804.710938 C597.621968,803.649734 597.381085,802.83594 596.899312,802.269531 Z M595.258687,811.224609 C593.702689,811.224609 592.477116,810.729823 591.581929,809.740234 C590.686742,808.750646 590.239155,807.396493 590.239155,805.677734 C590.239155,804.01757 590.672094,802.671555 591.537983,801.639648 C592.403873,800.607742 593.543185,800.082031 594.955952,800.0625 C596.284084,800.0625 597.337133,800.516597 598.115132,801.424805 C598.893131,802.333012 599.282124,803.545565 599.282124,805.0625 C599.282124,805.140625 599.280497,805.283853 599.277241,805.492188 C599.273986,805.700522 599.272358,805.85026 599.272358,805.941406 L591.918843,805.941406 C591.938374,807.15886 592.252499,808.107744 592.861226,808.788086 C593.469953,809.468428 594.288629,809.808594 595.31728,809.808594 C596.450099,809.808594 597.586155,809.509118 598.725483,808.910156 L598.97939,810.228516 C597.892145,810.892581 596.651923,811.224609 595.258687,811.224609 Z M604.915934,811.224609 C604.186763,811.224609 603.51457,811.146485 602.899332,810.990234 C602.284095,810.833984 601.784425,810.632163 601.400309,810.384766 L601.605387,809.007812 C602.692632,809.587242 603.760329,809.876953 604.808512,809.876953 C606.397061,809.876953 607.214111,809.317063 607.259684,808.197266 C607.259684,807.722003 607.090415,807.347658 606.751871,807.074219 C606.413328,806.80078 605.749272,806.494793 604.759684,806.15625 L603.949137,805.873047 C603.011632,805.560545 602.342693,805.173179 601.942301,804.710938 C601.541908,804.248696 601.33846,803.672529 601.331949,802.982422 C601.331949,802.142574 601.66886,801.445966 602.342691,800.892578 C603.016523,800.33919 603.939365,800.0625 605.111246,800.0625 C606.32219,800.0625 607.425694,800.296873 608.421793,800.765625 L607.943277,802.015625 C606.934158,801.598956 605.990157,801.390625 605.111246,801.390625 C604.427649,801.390625 603.892173,801.525715 603.504801,801.795898 C603.117429,802.066082 602.923746,802.44531 602.923746,802.933594 C602.923746,803.350262 603.063719,803.66927 603.343668,803.890625 C603.623617,804.11198 604.183508,804.365884 605.023356,804.652344 C605.2382,804.730469 605.50838,804.821614 605.833902,804.925781 C606.914637,805.277346 607.679603,805.69238 608.128824,806.170898 C608.578045,806.649416 608.802652,807.295569 608.802652,808.109375 C608.789632,809.098963 608.434817,809.865557 607.738199,810.40918 C607.041581,810.952802 606.100835,811.224609 604.915934,811.224609 Z M614.622009,811.195312 C613.567316,811.195312 612.818626,810.938154 612.375915,810.423828 C611.933205,809.909503 611.698832,809.079433 611.67279,807.933594 L611.67279,801.498047 L610.080993,801.498047 L610.149353,800.423828 L611.663024,800.287109 L612.219665,797.835938 L613.293884,797.796875 L613.293884,800.287109 L616.272399,800.287109 L616.272399,801.498047 L613.293884,801.498047 L613.293884,807.640625 C613.293884,808.454431 613.417581,809.027342 613.664978,809.359375 C613.912375,809.691408 614.335548,809.857422 614.934509,809.857422 C615.149354,809.857422 615.614844,809.805339 616.330993,809.701172 L616.399353,810.990234 C615.624609,811.126954 615.032167,811.195312 614.622009,811.195312 Z M618.214803,800.238281 L619.123006,795.628906 L620.67574,795.628906 L619.357381,800.238281 L618.214803,800.238281 Z M621.017537,800.238281 L621.906209,795.628906 L623.498006,795.628906 L622.160115,800.238281 L621.017537,800.238281 Z M636.289062,801.419922 C635.253901,801.419922 634.461266,801.776364 633.911133,802.489258 C633.361,803.202152 633.085938,804.248691 633.085938,805.628906 C633.085938,808.454441 634.15038,809.867188 636.279297,809.867188 C636.806643,809.867188 637.270506,809.758139 637.670898,809.540039 C638.071291,809.321939 638.387043,809.015952 638.618164,808.62207 C638.849285,808.228188 639.021809,807.783857 639.135742,807.289062 C639.249675,806.794268 639.306641,806.244144 639.306641,805.638672 C639.306641,804.818355 639.210613,804.102217 639.018555,803.490234 C638.826496,802.878252 638.499351,802.38021 638.037109,801.996094 C637.574867,801.611977 636.992191,801.419922 636.289062,801.419922 Z M636.455078,800.0625 C637.405604,800.0625 638.225908,800.303383 638.916016,800.785156 C639.606123,801.266929 640.123696,801.92122 640.46875,802.748047 C640.813804,803.574874 640.986328,804.52213 640.986328,805.589844 C640.986328,806.69662 640.815431,807.669918 640.473633,808.509766 C640.131834,809.349614 639.614261,810.012042 638.920898,810.49707 C638.227536,810.982099 637.399093,811.224609 636.435547,811.224609 C635.725908,811.224609 635.078128,811.071616 634.492188,810.765625 C633.906247,810.459634 633.417971,810.042971 633.027344,809.515625 L632.861328,811 L631.464844,811 L631.464844,796.126953 L633.095703,796.029297 L633.095703,799.574219 C633.095703,800.446619 633.082682,801.195309 633.056641,801.820312 C633.434247,801.279945 633.924151,800.85189 634.526367,800.536133 C635.128584,800.220376 635.771481,800.0625 636.455078,800.0625 Z M651.365275,811 L647.214885,800.287109 L648.962932,800.287109 L651.326213,806.654297 L652.302775,809.369141 C652.524131,808.672523 652.830117,807.774094 653.220744,806.673828 C653.715538,805.287102 654.48376,803.158217 655.525432,800.287109 L657.263713,800.287109 L653.142619,811 L651.365275,811 Z M661.823304,809.90625 C662.598047,809.90625 663.280006,809.693036 663.869202,809.266602 C664.458398,808.840167 664.837626,808.265629 665.006897,807.542969 L665.006897,805.736328 C664.974345,805.736328 664.777407,805.752604 664.416077,805.785156 C664.054747,805.817708 663.818747,805.83724 663.708069,805.84375 C662.295302,805.967449 661.310611,806.198566 660.753968,806.537109 C660.197324,806.875653 659.919007,807.419267 659.919007,808.167969 C659.919007,808.740888 660.088276,809.173827 660.426819,809.466797 C660.765363,809.759767 661.230853,809.90625 661.823304,809.90625 Z M665.368226,811 C665.270569,810.583331 665.176169,810.134117 665.085022,809.652344 C664.492572,810.244795 663.935936,810.654947 663.415101,810.882812 C662.894265,811.110678 662.282292,811.224609 661.579163,811.224609 C660.576554,811.224609 659.770898,810.962568 659.162171,810.438477 C658.553444,809.914385 658.249085,809.160812 658.249085,808.177734 C658.249085,807.083979 658.66412,806.27344 659.494202,805.746094 C660.324284,805.218747 661.520561,804.889975 663.083069,804.759766 C663.297914,804.740234 663.621804,804.712565 664.054749,804.676758 C664.487694,804.64095 664.811584,804.613281 665.026429,804.59375 L665.026429,803.646484 C665.026429,802.891272 664.850649,802.331382 664.499085,801.966797 C664.147521,801.602212 663.594141,801.419922 662.838929,801.419922 C661.784236,801.419922 660.719793,801.680336 659.645569,802.201172 C659.613017,802.123046 659.528382,801.896812 659.391663,801.522461 C659.254944,801.14811 659.18333,800.954427 659.176819,800.941406 C659.652082,800.674478 660.216855,800.461264 660.871155,800.301758 C661.525455,800.142252 662.191139,800.0625 662.868226,800.0625 C664.202868,800.0625 665.164772,800.353838 665.753968,800.936523 C666.343163,801.519209 666.637757,802.51041 666.637757,803.910156 L666.637757,811 L665.368226,811 Z M672.505941,811.195312 C671.464269,811.195312 670.726972,810.915367 670.294027,810.355469 C669.861082,809.79557 669.644613,808.822273 669.644613,807.435547 L669.644613,796.126953 L671.265707,796.029297 L671.265707,806.791016 C671.265707,807.233726 671.27059,807.58854 671.280355,807.855469 C671.290121,808.122397 671.314535,808.384439 671.353598,808.641602 C671.39266,808.898764 671.444743,809.092447 671.509848,809.222656 C671.574952,809.352865 671.669352,809.471679 671.793051,809.579102 C671.916749,809.686524 672.06486,809.758138 672.237387,809.793945 C672.409914,809.829753 672.623128,809.847656 672.877035,809.847656 C673.085369,809.847656 673.495522,809.808594 674.107504,809.730469 L674.195394,811.029297 C673.524818,811.139975 672.961673,811.195312 672.505941,811.195312 Z M674.985454,807.425781 L674.985454,800.287109 L676.626079,800.287109 L676.626079,807.445312 C676.626079,807.914065 676.69281,808.311196 676.826274,808.636719 C676.959739,808.962241 677.151794,809.214517 677.402446,809.393555 C677.653098,809.572592 677.936299,809.701171 678.252056,809.779297 C678.567812,809.857422 678.930764,809.896484 679.340923,809.896484 C680.187281,809.896484 680.846454,809.710939 681.318462,809.339844 C681.790469,808.968748 682.02647,808.337244 682.02647,807.445312 L682.02647,800.287109 L683.667095,800.287109 L683.667095,807.425781 C683.667095,807.972659 683.58897,808.464191 683.43272,808.900391 C683.276469,809.336591 683.06651,809.699543 682.802837,809.989258 C682.539164,810.278973 682.221784,810.518228 681.850688,810.707031 C681.479593,810.895834 681.087344,811.032552 680.673931,811.117188 C680.260517,811.201823 679.816186,811.244141 679.340923,811.244141 C678.87217,811.244141 678.429467,811.201823 678.012798,811.117188 C677.596129,811.032552 677.200625,810.894207 676.826274,810.702148 C676.451923,810.51009 676.129661,810.269207 675.859477,809.979492 C675.589294,809.689777 675.37608,809.326825 675.219829,808.890625 C675.063578,808.454425 674.985454,807.966149 674.985454,807.425781 Z M692.445435,802.269531 C691.970173,801.696612 691.315882,801.410156 690.482545,801.410156 C689.649207,801.410156 688.968876,801.70475 688.441529,802.293945 C687.914183,802.883141 687.604941,803.688797 687.513795,804.710938 L693.168092,804.710938 C693.168092,803.649734 692.927209,802.83594 692.445435,802.269531 Z M690.80481,811.224609 C689.248813,811.224609 688.023239,810.729823 687.128053,809.740234 C686.232866,808.750646 685.785279,807.396493 685.785279,805.677734 C685.785279,804.01757 686.218218,802.671555 687.084107,801.639648 C687.949997,800.607742 689.089309,800.082031 690.502076,800.0625 C691.830208,800.0625 692.883257,800.516597 693.661256,801.424805 C694.439254,802.333012 694.828248,803.545565 694.828248,805.0625 C694.828248,805.140625 694.82662,805.283853 694.823365,805.492188 C694.82011,805.700522 694.818482,805.85026 694.818482,805.941406 L687.464967,805.941406 C687.484498,807.15886 687.798622,808.107744 688.407349,808.788086 C689.016076,809.468428 689.834753,809.808594 690.863404,809.808594 C691.996222,809.808594 693.132279,809.509118 694.271607,808.910156 L694.525514,810.228516 C693.438269,810.892581 692.198047,811.224609 690.80481,811.224609 Z" id="“best”-b-value" fill="#50ACD5"></path>
            <path d="M472.479185,122 L472.479185,93.1132812 L475.877622,93.1132812 L475.877622,118.992188 L488.592466,118.992188 L488.475279,122 L472.479185,122 Z M494.547585,111.335938 C494.547585,113.875013 495.110731,115.909498 496.237038,117.439453 C497.363346,118.969409 499.00721,119.734375 501.168679,119.734375 C503.304106,119.734375 504.915418,118.972664 506.002663,117.449219 C507.089908,115.925774 507.633523,113.875013 507.633523,111.296875 C507.633523,108.679674 507.096419,106.619148 506.022195,105.115234 C504.94797,103.611321 503.310617,102.859375 501.110085,102.859375 C498.974658,102.859375 497.34707,103.627596 496.227273,105.164062 C495.107475,106.700529 494.547585,108.7578 494.547585,111.335938 Z M511.012429,111.277344 C511.012429,114.597673 510.127021,117.289703 508.356179,119.353516 C506.585337,121.417328 504.137445,122.449219 501.012429,122.449219 C498.004601,122.449219 495.612047,121.407562 493.834695,119.324219 C492.057342,117.240875 491.168679,114.565121 491.168679,111.296875 C491.168679,107.963525 492.060597,105.268239 493.84446,103.210938 C495.628323,101.153636 498.076215,100.125 501.18821,100.125 C504.248121,100.125 506.650441,101.156891 508.395241,103.220703 C510.140042,105.284516 511.012429,107.970036 511.012429,111.277344 Z M522.358173,122.449219 C520.899832,122.449219 519.555445,122.29297 518.32497,121.980469 C517.094495,121.667967 516.095156,121.264325 515.326923,120.769531 L515.737079,118.015625 C517.911569,119.174485 520.046965,119.753906 522.143329,119.753906 C525.320429,119.753906 526.954527,118.634126 527.045673,116.394531 C527.045673,115.444006 526.707135,114.695315 526.030048,114.148438 C525.352961,113.60156 524.02485,112.989587 522.045673,112.3125 L520.424579,111.746094 C518.54957,111.121091 517.211693,110.346359 516.410907,109.421875 C515.610122,108.497391 515.203225,107.345059 515.190204,105.964844 C515.190204,104.285148 515.864026,102.891933 517.211689,101.785156 C518.559352,100.67838 520.405036,100.125 522.748798,100.125 C525.170685,100.125 527.377694,100.593745 529.369892,101.53125 L528.412861,104.03125 C526.394621,103.197913 524.506619,102.78125 522.748798,102.78125 C521.381604,102.78125 520.310651,103.05143 519.535907,103.591797 C518.761164,104.132164 518.373798,104.89062 518.373798,105.867188 C518.373798,106.700525 518.653743,107.338539 519.213642,107.78125 C519.77354,108.223961 520.893321,108.731768 522.573017,109.304688 C523.002706,109.460938 523.543066,109.643228 524.194111,109.851562 C526.35558,110.554691 527.885512,111.384761 528.783954,112.341797 C529.682396,113.298833 530.131611,114.591138 530.131611,116.21875 C530.105569,118.197927 529.39594,119.731114 528.002704,120.818359 C526.609468,121.905604 524.727977,122.449219 522.358173,122.449219 Z M541.321105,122.449219 C539.862764,122.449219 538.518376,122.29297 537.287902,121.980469 C536.057427,121.667967 535.058088,121.264325 534.289855,120.769531 L534.700011,118.015625 C536.874501,119.174485 539.009896,119.753906 541.106261,119.753906 C544.28336,119.753906 545.917458,118.634126 546.008605,116.394531 C546.008605,115.444006 545.670066,114.695315 544.99298,114.148438 C544.315893,113.60156 542.987781,112.989587 541.008605,112.3125 L539.387511,111.746094 C537.512502,111.121091 536.174624,110.346359 535.373839,109.421875 C534.573054,108.497391 534.166157,107.345059 534.153136,105.964844 C534.153136,104.285148 534.826957,102.891933 536.17462,101.785156 C537.522283,100.67838 539.367968,100.125 541.71173,100.125 C544.133617,100.125 546.340626,100.593745 548.332823,101.53125 L547.375792,104.03125 C545.357553,103.197913 543.469551,102.78125 541.71173,102.78125 C540.344535,102.78125 539.273582,103.05143 538.498839,103.591797 C537.724096,104.132164 537.33673,104.89062 537.33673,105.867188 C537.33673,106.700525 537.616675,107.338539 538.176573,107.78125 C538.736472,108.223961 539.856253,108.731768 541.535948,109.304688 C541.965638,109.460938 542.505997,109.643228 543.157042,109.851562 C545.318511,110.554691 546.848444,111.384761 547.746886,112.341797 C548.645328,113.298833 549.094542,114.591138 549.094542,116.21875 C549.0685,118.197927 548.358872,119.731114 546.965636,120.818359 C545.5724,121.905604 543.690908,122.449219 541.321105,122.449219 Z M569.715718,122 L561.414937,100.574219 L564.91103,100.574219 L569.637593,113.308594 L571.590718,118.738281 C572.033428,117.345045 572.645401,115.548188 573.426655,113.347656 C574.416244,110.574205 575.952687,106.316435 578.03603,100.574219 L581.512593,100.574219 L573.270405,122 L569.715718,122 Z M591.100524,122.449219 C589.642184,122.449219 588.297796,122.29297 587.067321,121.980469 C585.836846,121.667967 584.837507,121.264325 584.069274,120.769531 L584.479431,118.015625 C586.653921,119.174485 588.789316,119.753906 590.885681,119.753906 C594.06278,119.753906 595.696878,118.634126 595.788024,116.394531 C595.788024,115.444006 595.449486,114.695315 594.772399,114.148438 C594.095313,113.60156 592.767201,112.989587 590.788024,112.3125 L589.166931,111.746094 C587.291921,111.121091 585.954044,110.346359 585.153259,109.421875 C584.352474,108.497391 583.945577,107.345059 583.932556,105.964844 C583.932556,104.285148 584.606377,102.891933 585.95404,101.785156 C587.301703,100.67838 589.147388,100.125 591.491149,100.125 C593.913037,100.125 596.120046,100.593745 598.112243,101.53125 L597.155212,104.03125 C595.136973,103.197913 593.248971,102.78125 591.491149,102.78125 C590.123955,102.78125 589.053002,103.05143 588.278259,103.591797 C587.503515,104.132164 587.116149,104.89062 587.116149,105.867188 C587.116149,106.700525 587.396095,107.338539 587.955993,107.78125 C588.515892,108.223961 589.635672,108.731768 591.315368,109.304688 C591.745058,109.460938 592.285417,109.643228 592.936462,109.851562 C595.097931,110.554691 596.627864,111.384761 597.526306,112.341797 C598.424748,113.298833 598.873962,114.591138 598.873962,116.21875 C598.84792,118.197927 598.138292,119.731114 596.745056,120.818359 C595.35182,121.905604 593.470328,122.449219 591.100524,122.449219 Z M623.75295,102.839844 C621.682627,102.839844 620.097357,103.552727 618.997091,104.978516 C617.896825,106.404304 617.3467,108.497382 617.3467,111.257812 C617.3467,116.908882 619.475585,119.734375 623.733419,119.734375 C624.788112,119.734375 625.715837,119.516278 626.516622,119.080078 C627.317407,118.643878 627.948911,118.031905 628.411153,117.244141 C628.873395,116.456376 629.218444,115.567713 629.44631,114.578125 C629.674175,113.588537 629.788106,112.488287 629.788106,111.277344 C629.788106,109.636711 629.596051,108.204433 629.211935,106.980469 C628.827818,105.756504 628.173528,104.760421 627.249044,103.992188 C626.32456,103.223954 625.159207,102.839844 623.75295,102.839844 Z M624.084981,100.125 C625.986033,100.125 627.626641,100.606766 629.006856,101.570312 C630.387072,102.533859 631.422218,103.84244 632.112325,105.496094 C632.802433,107.149748 633.147481,109.04426 633.147481,111.179688 C633.147481,113.39324 632.805688,115.339835 632.122091,117.019531 C631.438494,118.699227 630.403348,120.024084 629.016622,120.994141 C627.629896,121.964198 625.973012,122.449219 624.045919,122.449219 C622.626641,122.449219 621.331081,122.143232 620.1592,121.53125 C618.987319,120.919268 618.010767,120.085943 617.229513,119.03125 L616.897481,122 L614.104513,122 L614.104513,92.2539062 L617.366231,92.0585938 L617.366231,99.1484375 C617.366231,100.893238 617.34019,102.390619 617.288106,103.640625 C618.043319,102.55989 619.023126,101.703779 620.22756,101.072266 C621.431993,100.440752 622.717787,100.125 624.084981,100.125 Z M653.905376,122 L645.604595,100.574219 L649.100688,100.574219 L653.827251,113.308594 L655.780376,118.738281 C656.223086,117.345045 656.835059,115.548188 657.616313,113.347656 C658.605902,110.574205 660.142345,106.316435 662.225688,100.574219 L665.702251,100.574219 L657.460063,122 L653.905376,122 Z M674.821432,119.8125 C676.370919,119.8125 677.734838,119.386072 678.913229,118.533203 C680.091621,117.680334 680.850077,116.531257 681.18862,115.085938 L681.18862,111.472656 C681.123515,111.472656 680.729639,111.505208 680.006979,111.570312 C679.284319,111.635417 678.812319,111.674479 678.590964,111.6875 C675.765429,111.934897 673.796047,112.397132 672.682761,113.074219 C671.569474,113.751305 671.012839,114.838534 671.012839,116.335938 C671.012839,117.481777 671.351377,118.347653 672.028464,118.933594 C672.70555,119.519534 673.636531,119.8125 674.821432,119.8125 Z M681.911276,122 C681.715963,121.166663 681.527163,120.268234 681.34487,119.304688 C680.159968,120.489589 679.046698,121.309894 678.005026,121.765625 C676.963354,122.221356 675.739408,122.449219 674.333151,122.449219 C672.327933,122.449219 670.716621,121.925135 669.499167,120.876953 C668.281713,119.828771 667.672995,118.321624 667.672995,116.355469 C667.672995,114.167958 668.503065,112.54688 670.163229,111.492188 C671.823394,110.437495 674.215948,109.779949 677.340964,109.519531 C677.770653,109.480469 678.418433,109.425131 679.284323,109.353516 C680.150213,109.281901 680.797993,109.226563 681.227682,109.1875 L681.227682,107.292969 C681.227682,105.782545 680.876124,104.662764 680.172995,103.933594 C679.469866,103.204423 678.363107,102.839844 676.852682,102.839844 C674.743297,102.839844 672.614412,103.360672 670.465964,104.402344 C670.400859,104.246093 670.23159,103.793624 669.958151,103.044922 C669.684712,102.29622 669.541485,101.908854 669.528464,101.882812 C670.478989,101.348956 671.608535,100.922528 672.917136,100.603516 C674.225736,100.284504 675.557103,100.125 676.911276,100.125 C679.58056,100.125 681.504369,100.707676 682.682761,101.873047 C683.861152,103.038417 684.450339,105.020819 684.450339,107.820312 L684.450339,122 L681.911276,122 Z M696.186708,122.390625 C694.103364,122.390625 692.628769,121.830735 691.76288,120.710938 C690.89699,119.59114 690.464052,117.644545 690.464052,114.871094 L690.464052,92.2539062 L693.706239,92.0585938 L693.706239,113.582031 C693.706239,114.467452 693.716005,115.177081 693.735536,115.710938 C693.755067,116.244794 693.803895,116.768878 693.88202,117.283203 C693.960146,117.797529 694.064311,118.184895 694.19452,118.445312 C694.324729,118.70573 694.51353,118.943358 694.760927,119.158203 C695.008324,119.373048 695.304545,119.516276 695.649598,119.587891 C695.994652,119.659506 696.42108,119.695312 696.928895,119.695312 C697.345564,119.695312 698.165868,119.617188 699.389833,119.460938 L699.565614,122.058594 C698.224462,122.279949 697.098171,122.390625 696.186708,122.390625 Z M701.145733,114.851562 L701.145733,100.574219 L704.426983,100.574219 L704.426983,114.890625 C704.426983,115.82813 704.560445,116.622393 704.827374,117.273438 C705.094302,117.924482 705.478413,118.429035 705.979718,118.787109 C706.481022,119.145184 707.047423,119.402343 707.678936,119.558594 C708.31045,119.714845 709.036354,119.792969 709.856671,119.792969 C711.549387,119.792969 712.867734,119.421879 713.811749,118.679688 C714.755764,117.937496 715.227764,116.674488 715.227764,114.890625 L715.227764,100.574219 L718.509014,100.574219 L718.509014,114.851562 C718.509014,115.945318 718.352766,116.928381 718.040264,117.800781 C717.727763,118.673181 717.307845,119.399086 716.780499,119.978516 C716.253152,120.557946 715.618393,121.036456 714.876202,121.414062 C714.134011,121.791669 713.349513,122.065103 712.522686,122.234375 C711.695859,122.403647 710.807196,122.488281 709.856671,122.488281 C708.919166,122.488281 708.033758,122.403647 707.200421,122.234375 C706.367083,122.065103 705.576075,121.788413 704.827374,121.404297 C704.078672,121.02018 703.434147,120.538414 702.89378,119.958984 C702.353413,119.379554 701.926985,118.65365 701.614483,117.78125 C701.301982,116.90885 701.145733,115.932297 701.145733,114.851562 Z M736.065696,104.539062 C735.11517,103.393223 733.80659,102.820312 732.139915,102.820312 C730.47324,102.820312 729.112576,103.409499 728.057884,104.587891 C727.003191,105.766282 726.384707,107.377594 726.202415,109.421875 L737.511009,109.421875 C737.511009,107.299469 737.029243,105.671881 736.065696,104.539062 Z M732.784446,122.449219 C729.672451,122.449219 727.221304,121.459645 725.43093,119.480469 C723.640557,117.501292 722.745384,114.792986 722.745384,111.355469 C722.745384,108.03514 723.61126,105.343109 725.34304,103.279297 C727.074819,101.215484 729.353442,100.164063 732.178977,100.125 C734.835241,100.125 736.941339,101.033194 738.497337,102.849609 C740.053334,104.666025 740.831321,107.091131 740.831321,110.125 C740.831321,110.281251 740.828066,110.567706 740.821555,110.984375 C740.815045,111.401044 740.81179,111.70052 740.81179,111.882812 L726.104759,111.882812 C726.143821,114.317721 726.77207,116.215488 727.989524,117.576172 C729.206978,118.936856 730.844332,119.617188 732.901634,119.617188 C735.16727,119.617188 737.439383,119.018235 739.71804,117.820312 L740.225852,120.457031 C738.051362,121.785163 735.570918,122.449219 732.784446,122.449219 Z" id="Loss-vs-b-value" fill="#FFFFFF"></path>
            <path d="M1020.84319,801.419922 C1019.80803,801.419922 1019.01539,801.776364 1018.46526,802.489258 C1017.91513,803.202152 1017.64007,804.248691 1017.64007,805.628906 C1017.64007,808.454441 1018.70451,809.867188 1020.83342,809.867188 C1021.36077,809.867188 1021.82463,809.758139 1022.22503,809.540039 C1022.62542,809.321939 1022.94117,809.015952 1023.17229,808.62207 C1023.40341,808.228188 1023.57594,807.783857 1023.68987,807.289062 C1023.8038,806.794268 1023.86077,806.244144 1023.86077,805.638672 C1023.86077,804.818355 1023.76474,804.102217 1023.57268,803.490234 C1023.38062,802.878252 1023.05348,802.38021 1022.59124,801.996094 C1022.12899,801.611977 1021.54632,801.419922 1020.84319,801.419922 Z M1021.00921,800.0625 C1021.95973,800.0625 1022.78004,800.303383 1023.47014,800.785156 C1024.16025,801.266929 1024.67782,801.92122 1025.02288,802.748047 C1025.36793,803.574874 1025.54046,804.52213 1025.54046,805.589844 C1025.54046,806.69662 1025.36956,807.669918 1025.02776,808.509766 C1024.68596,809.349614 1024.16839,810.012042 1023.47503,810.49707 C1022.78166,810.982099 1021.95322,811.224609 1020.98967,811.224609 C1020.28004,811.224609 1019.63226,811.071616 1019.04632,810.765625 C1018.46037,810.459634 1017.9721,810.042971 1017.58147,809.515625 L1017.41546,811 L1016.01897,811 L1016.01897,796.126953 L1017.64983,796.029297 L1017.64983,799.574219 C1017.64983,800.446619 1017.63681,801.195309 1017.61077,801.820312 C1017.98837,801.279945 1018.47828,800.85189 1019.08049,800.536133 C1019.68271,800.220376 1020.32561,800.0625 1021.00921,800.0625 Z M1035.9194,811 L1031.76901,800.287109 L1033.51706,800.287109 L1035.88034,806.654297 L1036.8569,809.369141 C1037.07826,808.672523 1037.38424,807.774094 1037.77487,806.673828 C1038.26967,805.287102 1039.03789,803.158217 1040.07956,800.287109 L1041.81784,800.287109 L1037.69675,811 L1035.9194,811 Z M1046.37743,809.90625 C1047.15217,809.90625 1047.83413,809.693036 1048.42333,809.266602 C1049.01253,808.840167 1049.39175,808.265629 1049.56102,807.542969 L1049.56102,805.736328 C1049.52847,805.736328 1049.33153,805.752604 1048.9702,805.785156 C1048.60887,805.817708 1048.37287,805.83724 1048.2622,805.84375 C1046.84943,805.967449 1045.86474,806.198566 1045.3081,806.537109 C1044.75145,806.875653 1044.47313,807.419267 1044.47313,808.167969 C1044.47313,808.740888 1044.6424,809.173827 1044.98095,809.466797 C1045.31949,809.759767 1045.78498,809.90625 1046.37743,809.90625 Z M1049.92235,811 C1049.8247,810.583331 1049.7303,810.134117 1049.63915,809.652344 C1049.0467,810.244795 1048.49006,810.654947 1047.96923,810.882812 C1047.44839,811.110678 1046.83642,811.224609 1046.13329,811.224609 C1045.13068,811.224609 1044.32503,810.962568 1043.7163,810.438477 C1043.10757,809.914385 1042.80321,809.160812 1042.80321,808.177734 C1042.80321,807.083979 1043.21825,806.27344 1044.04833,805.746094 C1044.87841,805.218747 1046.07469,804.889975 1047.6372,804.759766 C1047.85204,804.740234 1048.17593,804.712565 1048.60888,804.676758 C1049.04182,804.64095 1049.36571,804.613281 1049.58056,804.59375 L1049.58056,803.646484 C1049.58056,802.891272 1049.40478,802.331382 1049.05321,801.966797 C1048.70165,801.602212 1048.14827,801.419922 1047.39306,801.419922 C1046.33836,801.419922 1045.27392,801.680336 1044.1997,802.201172 C1044.16714,802.123046 1044.08251,801.896812 1043.94579,801.522461 C1043.80907,801.14811 1043.73746,800.954427 1043.73095,800.941406 C1044.20621,800.674478 1044.77098,800.461264 1045.42528,800.301758 C1046.07958,800.142252 1046.74527,800.0625 1047.42235,800.0625 C1048.757,800.0625 1049.7189,800.353838 1050.3081,800.936523 C1050.89729,801.519209 1051.19188,802.51041 1051.19188,803.910156 L1051.19188,811 L1049.92235,811 Z M1057.06007,811.195312 C1056.0184,811.195312 1055.2811,810.915367 1054.84815,810.355469 C1054.41521,809.79557 1054.19874,808.822273 1054.19874,807.435547 L1054.19874,796.126953 L1055.81983,796.029297 L1055.81983,806.791016 C1055.81983,807.233726 1055.82472,807.58854 1055.83448,807.855469 C1055.84425,808.122397 1055.86866,808.384439 1055.90773,808.641602 C1055.94679,808.898764 1055.99887,809.092447 1056.06398,809.222656 C1056.12908,809.352865 1056.22348,809.471679 1056.34718,809.579102 C1056.47088,809.686524 1056.61899,809.758138 1056.79151,809.793945 C1056.96404,809.829753 1057.17726,809.847656 1057.43116,809.847656 C1057.6395,809.847656 1058.04965,809.808594 1058.66163,809.730469 L1058.74952,811.029297 C1058.07895,811.139975 1057.5158,811.195312 1057.06007,811.195312 Z M1059.53958,807.425781 L1059.53958,800.287109 L1061.18021,800.287109 L1061.18021,807.445312 C1061.18021,807.914065 1061.24694,808.311196 1061.3804,808.636719 C1061.51387,808.962241 1061.70592,809.214517 1061.95657,809.393555 C1062.20723,809.572592 1062.49043,809.701171 1062.80618,809.779297 C1063.12194,809.857422 1063.48489,809.896484 1063.89505,809.896484 C1064.74141,809.896484 1065.40058,809.710939 1065.87259,809.339844 C1066.3446,808.968748 1066.5806,808.337244 1066.5806,807.445312 L1066.5806,800.287109 L1068.22122,800.287109 L1068.22122,807.425781 C1068.22122,807.972659 1068.1431,808.464191 1067.98685,808.900391 C1067.8306,809.336591 1067.62064,809.699543 1067.35696,809.989258 C1067.09329,810.278973 1066.77591,810.518228 1066.40482,810.707031 C1066.03372,810.895834 1065.64147,811.032552 1065.22806,811.117188 C1064.81464,811.201823 1064.37031,811.244141 1063.89505,811.244141 C1063.4263,811.244141 1062.98359,811.201823 1062.56693,811.117188 C1062.15026,811.032552 1061.75475,810.894207 1061.3804,810.702148 C1061.00605,810.51009 1060.68379,810.269207 1060.4136,809.979492 C1060.14342,809.689777 1059.93021,809.326825 1059.77396,808.890625 C1059.61771,808.454425 1059.53958,807.966149 1059.53958,807.425781 Z M1076.99956,802.269531 C1076.5243,801.696612 1075.87001,801.410156 1075.03667,801.410156 C1074.20333,801.410156 1073.523,801.70475 1072.99566,802.293945 C1072.46831,802.883141 1072.15907,803.688797 1072.06792,804.710938 L1077.72222,804.710938 C1077.72222,803.649734 1077.48134,802.83594 1076.99956,802.269531 Z M1075.35894,811.224609 C1073.80294,811.224609 1072.57737,810.729823 1071.68218,809.740234 C1070.78699,808.750646 1070.33941,807.396493 1070.33941,805.677734 C1070.33941,804.01757 1070.77235,802.671555 1071.63823,801.639648 C1072.50412,800.607742 1073.64344,800.082031 1075.0562,800.0625 C1076.38434,800.0625 1077.43738,800.516597 1078.21538,801.424805 C1078.99338,802.333012 1079.38238,803.545565 1079.38238,805.0625 C1079.38238,805.140625 1079.38075,805.283853 1079.37749,805.492188 C1079.37424,805.700522 1079.37261,805.85026 1079.37261,805.941406 L1072.01909,805.941406 C1072.03863,807.15886 1072.35275,808.107744 1072.96148,808.788086 C1073.5702,809.468428 1074.38888,809.808594 1075.41753,809.808594 C1076.55035,809.808594 1077.68641,809.509118 1078.82573,808.910156 L1079.07964,810.228516 C1077.9924,810.892581 1076.75217,811.224609 1075.35894,811.224609 Z" id="b-value" fill="#FFFFFF"></path>
            <g id="Group" transform="translate(88.000000, 178.000000)" fill="#FFFFFF">
                <path d="M2.1933184,21 L2.1933184,6.55664062 L3.89253715,6.55664062 L3.89253715,19.4960938 L10.249959,19.4960938 L10.1913653,21 L2.1933184,21 Z M13.2275186,15.6679688 C13.2275186,16.9375063 13.5090913,17.9547488 14.0722451,18.7197266 C14.635399,19.4847043 15.4573309,19.8671875 16.5380654,19.8671875 C17.6057791,19.8671875 18.4114351,19.4863319 18.9550576,18.7246094 C19.4986801,17.9628868 19.7704873,16.9375064 19.7704873,15.6484375 C19.7704873,14.3398372 19.5019353,13.3095741 18.9648233,12.5576172 C18.4277112,11.8056603 17.6090345,11.4296875 16.5087686,11.4296875 C15.4410549,11.4296875 14.627261,11.8137982 14.0673623,12.5820312 C13.5074637,13.3502643 13.2275186,14.3788998 13.2275186,15.6679688 Z M21.4599404,15.6386719 C21.4599404,17.2988364 21.0172365,18.6448516 20.1318154,19.6767578 C19.2463944,20.708664 18.0224483,21.2246094 16.4599404,21.2246094 C14.9560267,21.2246094 13.7597496,20.7037812 12.8710733,19.6621094 C11.9823969,18.6204375 11.5380654,17.2825603 11.5380654,15.6484375 C11.5380654,13.9817625 11.9840245,12.6341197 12.8759561,11.6054688 C13.7678876,10.5768178 14.9918337,10.0625 16.5478311,10.0625 C18.0777866,10.0625 19.2789465,10.5784454 20.1513467,11.6103516 C21.0237469,12.6422578 21.4599404,13.9850178 21.4599404,15.6386719 Z M27.1328125,21.2246094 C26.4036422,21.2246094 25.7314484,21.1464852 25.1162109,20.9902344 C24.5009735,20.8339836 24.001304,20.6321627 23.6171875,20.3847656 L23.8222656,19.0078125 C24.9095106,19.5872425 25.9772083,19.8769531 27.0253906,19.8769531 C28.6139402,19.8769531 29.4309894,19.3170629 29.4765625,18.1972656 C29.4765625,17.7220028 29.3072934,17.3476576 28.96875,17.0742188 C28.6302066,16.8007799 27.9661508,16.4947934 26.9765625,16.15625 L26.1660156,15.8730469 C25.2285109,15.5605453 24.5595723,15.1731794 24.1591797,14.7109375 C23.7587871,14.2486956 23.5553386,13.6725295 23.5488281,12.9824219 C23.5488281,12.1425739 23.8857388,11.4459663 24.5595703,10.8925781 C25.2334018,10.3391899 26.1562441,10.0625 27.328125,10.0625 C28.5390686,10.0625 29.6425731,10.2968727 30.6386719,10.765625 L30.1601562,12.015625 C29.1510366,11.5989563 28.2070356,11.390625 27.328125,11.390625 C26.6445278,11.390625 26.1090514,11.5257148 25.7216797,11.7958984 C25.334308,12.0660821 25.140625,12.4453101 25.140625,12.9335938 C25.140625,13.3502625 25.2805976,13.6692697 25.5605469,13.890625 C25.8404962,14.1119803 26.4003864,14.365884 27.2402344,14.6523438 C27.4550792,14.7304691 27.7252588,14.8216141 28.0507812,14.9257812 C29.1315158,15.2773455 29.8964821,15.6923804 30.3457031,16.1708984 C30.7949241,16.6494165 31.0195312,17.2955688 31.0195312,18.109375 C31.0065104,19.0989633 30.6516962,19.8655572 29.9550781,20.4091797 C29.2584601,20.9528022 28.3177143,21.2246094 27.1328125,21.2246094 Z M36.6142783,21.2246094 C35.885108,21.2246094 35.2129142,21.1464852 34.5976767,20.9902344 C33.9824393,20.8339836 33.4827698,20.6321627 33.0986533,20.3847656 L33.3037314,19.0078125 C34.3909764,19.5872425 35.4586741,19.8769531 36.5068564,19.8769531 C38.095406,19.8769531 38.9124552,19.3170629 38.9580283,18.1972656 C38.9580283,17.7220028 38.7887592,17.3476576 38.4502158,17.0742188 C38.1116724,16.8007799 37.4476166,16.4947934 36.4580283,16.15625 L35.6474814,15.8730469 C34.7099767,15.5605453 34.0410381,15.1731794 33.6406455,14.7109375 C33.2402529,14.2486956 33.0368044,13.6725295 33.0302939,12.9824219 C33.0302939,12.1425739 33.3672046,11.4459663 34.0410361,10.8925781 C34.7148676,10.3391899 35.6377099,10.0625 36.8095908,10.0625 C38.0205344,10.0625 39.1240389,10.2968727 40.1201377,10.765625 L39.6416221,12.015625 C38.6325024,11.5989563 37.6885014,11.390625 36.8095908,11.390625 C36.1259936,11.390625 35.5905172,11.5257148 35.2031455,11.7958984 C34.8157738,12.0660821 34.6220908,12.4453101 34.6220908,12.9335938 C34.6220908,13.3502625 34.7620634,13.6692697 35.0420127,13.890625 C35.321962,14.1119803 35.8818522,14.365884 36.7217002,14.6523438 C36.936545,14.7304691 37.2067246,14.8216141 37.5322471,14.9257812 C38.6129816,15.2773455 39.3779479,15.6923804 39.8271689,16.1708984 C40.2763899,16.6494165 40.5009971,17.2955688 40.5009971,18.109375 C40.4879762,19.0989633 40.133162,19.8655572 39.4365439,20.4091797 C38.7399259,20.9528022 37.7991801,21.2246094 36.6142783,21.2246094 Z" id="Loss"></path>
            </g>
            <path d="M29.4398287,692.195312 C28.3981568,692.195312 27.6608595,691.915367 27.2279147,691.355469 C26.7949698,690.79557 26.5785006,689.822273 26.5785006,688.435547 L26.5785006,677.126953 L28.1995943,677.029297 L28.1995943,687.791016 C28.1995943,688.233726 28.2044771,688.58854 28.2142428,688.855469 C28.2240085,689.122397 28.2484223,689.384439 28.287485,689.641602 C28.3265477,689.898764 28.3786305,690.092447 28.443735,690.222656 C28.5088395,690.352865 28.6032396,690.471679 28.7269381,690.579102 C28.8506366,690.686524 28.9987471,690.758138 29.171274,690.793945 C29.3438009,690.829753 29.5570149,690.847656 29.8109225,690.847656 C30.0192568,690.847656 30.429409,690.808594 31.0413912,690.730469 L31.1292818,692.029297 C30.4587056,692.139975 29.8955602,692.195312 29.4398287,692.195312 Z M33.4818414,686.667969 C33.4818414,687.937506 33.7634141,688.954749 34.326568,689.719727 C34.8897218,690.484704 35.7116537,690.867188 36.7923883,690.867188 C37.8601019,690.867188 38.6657579,690.486332 39.2093805,689.724609 C39.753003,688.962887 40.0248101,687.937506 40.0248101,686.648438 C40.0248101,685.339837 39.7562581,684.309574 39.2191461,683.557617 C38.682034,682.80566 37.8633573,682.429688 36.7630914,682.429688 C35.6953777,682.429688 34.8815838,682.813798 34.3216851,683.582031 C33.7617865,684.350264 33.4818414,685.3789 33.4818414,686.667969 Z M41.7142633,686.638672 C41.7142633,688.298836 41.2715594,689.644852 40.3861383,690.676758 C39.5007172,691.708664 38.2767711,692.224609 36.7142633,692.224609 C35.2103495,692.224609 34.0140724,691.703781 33.1253961,690.662109 C32.2367198,689.620437 31.7923883,688.28256 31.7923883,686.648438 C31.7923883,684.981762 32.2383473,683.63412 33.1302789,682.605469 C34.0222104,681.576818 35.2461565,681.0625 36.8021539,681.0625 C38.3321095,681.0625 39.5332693,681.578445 40.4056695,682.610352 C41.2780697,683.642258 41.7142633,684.985018 41.7142633,686.638672 Z M53.3734634,692 C51.8695497,687.195288 50.9385694,684.203782 50.5804947,683.025391 C50.3786708,683.74154 50.1475533,684.516272 49.8871353,685.349609 C49.6267174,686.182947 49.398855,686.899086 49.2035416,687.498047 C49.0082281,688.097008 48.7543244,688.87174 48.4418228,689.822266 C48.1293213,690.772791 47.8916934,691.498695 47.7289322,692 L45.9711197,692 L42.9144791,681.287109 L44.6039322,681.287109 L46.8988541,690.056641 C47.2178661,689.014969 48.1553567,686.091821 49.7113541,681.287109 L51.5570572,681.287109 C53.1065441,686.195988 54.0179933,689.10937 54.2914322,690.027344 L56.5570572,681.287109 L58.2269791,681.287109 L55.1410416,692 L53.3734634,692 Z M66.0580542,683.269531 C65.5827915,682.696612 64.9285011,682.410156 64.0951636,682.410156 C63.2618261,682.410156 62.5814944,682.70475 62.054148,683.293945 C61.5268016,683.883141 61.2175599,684.688797 61.1264136,685.710938 L66.7807105,685.710938 C66.7807105,684.649734 66.5398275,683.83594 66.0580542,683.269531 Z M64.4174292,692.224609 C62.8614319,692.224609 61.6358582,691.729823 60.7406714,690.740234 C59.8454847,689.750646 59.397898,688.396493 59.397898,686.677734 C59.397898,685.01757 59.8308364,683.671555 60.6967261,682.639648 C61.5626159,681.607742 62.7019274,681.082031 64.1146949,681.0625 C65.4428265,681.0625 66.4958759,681.516597 67.2738746,682.424805 C68.0518732,683.333012 68.4408667,684.545565 68.4408667,686.0625 C68.4408667,686.140625 68.4392392,686.283853 68.4359839,686.492188 C68.4327287,686.700522 68.4311011,686.85026 68.4311011,686.941406 L61.0775855,686.941406 C61.0971168,688.15886 61.4112413,689.107744 62.0199683,689.788086 C62.6286953,690.468428 63.447372,690.808594 64.476023,690.808594 C65.6088412,690.808594 66.7448975,690.509118 67.8842261,689.910156 L68.1381324,691.228516 C67.0508874,691.892581 65.8106654,692.224609 64.4174292,692.224609 Z M74.0746763,692.224609 C73.345506,692.224609 72.6733122,692.146485 72.0580747,691.990234 C71.4428373,691.833984 70.9431678,691.632163 70.5590513,691.384766 L70.7641294,690.007812 C71.8513744,690.587242 72.9190721,690.876953 73.9672544,690.876953 C75.555804,690.876953 76.3728532,690.317063 76.4184263,689.197266 C76.4184263,688.722003 76.2491572,688.347658 75.9106138,688.074219 C75.5720704,687.80078 74.9080146,687.494793 73.9184263,687.15625 L73.1078794,686.873047 C72.1703747,686.560545 71.5014361,686.173179 71.1010435,685.710938 C70.7006509,685.248696 70.4972024,684.672529 70.4906919,683.982422 C70.4906919,683.142574 70.8276026,682.445966 71.5014341,681.892578 C72.1752656,681.33919 73.0981079,681.0625 74.2699888,681.0625 C75.4809324,681.0625 76.5844369,681.296873 77.5805357,681.765625 L77.10202,683.015625 C76.0929004,682.598956 75.1488994,682.390625 74.2699888,682.390625 C73.5863916,682.390625 73.0509152,682.525715 72.6635435,682.795898 C72.2761718,683.066082 72.0824888,683.44531 72.0824888,683.933594 C72.0824888,684.350262 72.2224614,684.66927 72.5024107,684.890625 C72.78236,685.11198 73.3422502,685.365884 74.1820982,685.652344 C74.396943,685.730469 74.6671226,685.821614 74.992645,685.925781 C76.0733796,686.277346 76.8383459,686.69238 77.2875669,687.170898 C77.7367879,687.649416 77.961395,688.295569 77.961395,689.109375 C77.9483741,690.098963 77.59356,690.865557 76.8969419,691.40918 C76.2003239,691.952802 75.2595781,692.224609 74.0746763,692.224609 Z M83.7807515,692.195312 C82.7260587,692.195312 81.9773683,691.938154 81.5346577,691.423828 C81.0919472,690.909503 80.8575745,690.079433 80.8315327,688.933594 L80.8315327,682.498047 L79.2397358,682.498047 L79.3080952,681.423828 L80.8217671,681.287109 L81.3784077,678.835938 L82.4526265,678.796875 L82.4526265,681.287109 L85.4311421,681.287109 L85.4311421,682.498047 L82.4526265,682.498047 L82.4526265,688.640625 C82.4526265,689.454431 82.5763232,690.027342 82.8237202,690.359375 C83.0711173,690.691408 83.4942901,690.857422 84.0932515,690.857422 C84.3080963,690.857422 84.7735864,690.805339 85.4897358,690.701172 L85.5580952,691.990234 C84.7833518,692.126954 84.1909098,692.195312 83.7807515,692.195312 Z M95.5171206,692.195312 C94.4754487,692.195312 93.7381514,691.915367 93.3052065,691.355469 C92.8722616,690.79557 92.6557925,689.822273 92.6557925,688.435547 L92.6557925,677.126953 L94.2768862,677.029297 L94.2768862,687.791016 C94.2768862,688.233726 94.281769,688.58854 94.2915346,688.855469 C94.3013003,689.122397 94.3257141,689.384439 94.3647768,689.641602 C94.4038395,689.898764 94.4559223,690.092447 94.5210268,690.222656 C94.5861313,690.352865 94.6805314,690.471679 94.80423,690.579102 C94.9279285,690.686524 95.076039,690.758138 95.2485659,690.793945 C95.4210928,690.829753 95.6343068,690.847656 95.8882143,690.847656 C96.0965487,690.847656 96.5067009,690.808594 97.1186831,690.730469 L97.2065737,692.029297 C96.5359974,692.139975 95.972852,692.195312 95.5171206,692.195312 Z M99.5591333,686.667969 C99.5591333,687.937506 99.840706,688.954749 100.40386,689.719727 C100.967014,690.484704 101.788946,690.867188 102.86968,690.867188 C103.937394,690.867188 104.74305,690.486332 105.286672,689.724609 C105.830295,688.962887 106.102102,687.937506 106.102102,686.648438 C106.102102,685.339837 105.83355,684.309574 105.296438,683.557617 C104.759326,682.80566 103.940649,682.429688 102.840383,682.429688 C101.77267,682.429688 100.958876,682.813798 100.398977,683.582031 C99.8390784,684.350264 99.5591333,685.3789 99.5591333,686.667969 Z M107.791555,686.638672 C107.791555,688.298836 107.348851,689.644852 106.46343,690.676758 C105.578009,691.708664 104.354063,692.224609 102.791555,692.224609 C101.287641,692.224609 100.091364,691.703781 99.2026879,690.662109 C98.3140116,689.620437 97.8696801,688.28256 97.8696801,686.648438 C97.8696801,684.981762 98.3156392,683.63412 99.2075708,682.605469 C100.099502,681.576818 101.323448,681.0625 102.879446,681.0625 C104.409401,681.0625 105.610561,681.578445 106.482961,682.610352 C107.355362,683.642258 107.791555,684.985018 107.791555,686.638672 Z M113.464427,692.224609 C112.735257,692.224609 112.063063,692.146485 111.447826,691.990234 C110.832588,691.833984 110.332919,691.632163 109.948802,691.384766 L110.15388,690.007812 C111.241125,690.587242 112.308823,690.876953 113.357005,690.876953 C114.945555,690.876953 115.762604,690.317063 115.808177,689.197266 C115.808177,688.722003 115.638908,688.347658 115.300365,688.074219 C114.961821,687.80078 114.297765,687.494793 113.308177,687.15625 L112.49763,686.873047 C111.560126,686.560545 110.891187,686.173179 110.490794,685.710938 C110.090402,685.248696 109.886953,684.672529 109.880443,683.982422 C109.880443,683.142574 110.217353,682.445966 110.891185,681.892578 C111.565016,681.33919 112.487859,681.0625 113.65974,681.0625 C114.870683,681.0625 115.974188,681.296873 116.970287,681.765625 L116.491771,683.015625 C115.482651,682.598956 114.53865,682.390625 113.65974,682.390625 C112.976143,682.390625 112.440666,682.525715 112.053294,682.795898 C111.665923,683.066082 111.47224,683.44531 111.47224,683.933594 C111.47224,684.350262 111.612212,684.66927 111.892162,684.890625 C112.172111,685.11198 112.732001,685.365884 113.571849,685.652344 C113.786694,685.730469 114.056873,685.821614 114.382396,685.925781 C115.463131,686.277346 116.228097,686.69238 116.677318,687.170898 C117.126539,687.649416 117.351146,688.295569 117.351146,689.109375 C117.338125,690.098963 116.983311,690.865557 116.286693,691.40918 C115.590075,691.952802 114.649329,692.224609 113.464427,692.224609 Z M122.945893,692.224609 C122.216723,692.224609 121.544529,692.146485 120.929291,691.990234 C120.314054,691.833984 119.814384,691.632163 119.430268,691.384766 L119.635346,690.007812 C120.722591,690.587242 121.790289,690.876953 122.838471,690.876953 C124.427021,690.876953 125.24407,690.317063 125.289643,689.197266 C125.289643,688.722003 125.120374,688.347658 124.78183,688.074219 C124.443287,687.80078 123.779231,687.494793 122.789643,687.15625 L121.979096,686.873047 C121.041591,686.560545 120.372653,686.173179 119.97226,685.710938 C119.571868,685.248696 119.368419,684.672529 119.361909,683.982422 C119.361909,683.142574 119.698819,682.445966 120.372651,681.892578 C121.046482,681.33919 121.969325,681.0625 123.141205,681.0625 C124.352149,681.0625 125.455654,681.296873 126.451752,681.765625 L125.973237,683.015625 C124.964117,682.598956 124.020116,682.390625 123.141205,682.390625 C122.457608,682.390625 121.922132,682.525715 121.53476,682.795898 C121.147388,683.066082 120.953705,683.44531 120.953705,683.933594 C120.953705,684.350262 121.093678,684.66927 121.373627,684.890625 C121.653577,685.11198 122.213467,685.365884 123.053315,685.652344 C123.26816,685.730469 123.538339,685.821614 123.863862,685.925781 C124.944596,686.277346 125.709563,686.69238 126.158784,687.170898 C126.608005,687.649416 126.832612,688.295569 126.832612,689.109375 C126.819591,690.098963 126.464777,690.865557 125.768159,691.40918 C125.071541,691.952802 124.130795,692.224609 122.945893,692.224609 Z" id="lowest-loss" fill="#50ACD5"></path>
            <g id="Group-2" transform="translate(133.000000, 160.000000)">
                <path d="M22.5,529.5 L500.5,529.5" id="Line-2" stroke="#4E768D" stroke-width="3" stroke-linecap="square" stroke-dasharray="6,3,3"></path>
                <path d="M18.75,4.5 L18.75,602.5" id="Line" stroke="#FFFFFF" stroke-width="1.5" stroke-linecap="square"></path>
                <path d="M21,602.75 L942.500136,602.75" id="Line" stroke="#D3DDE2" stroke-width="1.5" stroke-linecap="square"></path>
                <path d="M5.90150193,26.8026976 C5.45362673,26.7519277 5.05551544,27.0819323 5.00575153,27.5388617 C4.95243306,27.9957912 5.27589848,28.4019507 5.72377367,28.4527206 L28.604509,30.994844 C29.0523842,31.045614 29.45405,30.7156094 29.5038139,30.2623063 L31.995564,6.91901373 C32.0417734,6.46571071 31.7218625,6.05229835 31.2739873,6.00515483 C30.8261121,5.95438489 30.4244463,6.2843895 30.3782369,6.74131895 L27.9717964,29.2686661 L5.90150193,26.8026976 Z" id="Stroke-27" stroke="#D3DDE2" stroke-width="0.2" fill="#D3DDE2" transform="translate(18.500000, 18.500000) rotate(-138.000000) translate(-18.500000, -18.500000) "></path>
                <path d="M916.786278,610.687474 C916.338403,610.636704 915.940292,610.966709 915.890528,611.423638 C915.837209,611.880568 916.160675,612.286727 916.60855,612.337497 L939.489285,614.87962 C939.93716,614.93039 940.338826,614.600386 940.38859,614.147083 L942.88034,590.80379 C942.92655,590.350487 942.606639,589.937075 942.158764,589.889931 C941.710888,589.839161 941.309223,590.169166 941.263013,590.626095 L938.856573,613.153442 L916.786278,610.687474 Z" id="Stroke-27" stroke="#D3DDE2" stroke-width="0.2" fill="#D3DDE2" transform="translate(929.384776, 602.384776) rotate(-45.000000) translate(-929.384776, -602.384776) "></path>
                <path d="M499.5,530.5 L499.5,601.886273" id="Line-3" stroke="#4E768D" stroke-width="3" stroke-linecap="square" stroke-dasharray="7,3,3"></path>
                <path d="M78,35 C345.232066,675.245043 612.232066,689.348973 879,77.31179" id="Path-2" stroke="#52B1DB" stroke-width="3"></path>
            </g>
        </g>
    </g>
</svg>