<?xml version="1.0" encoding="utf-8" standalone="no"?>
<!DOCTYPE svg PUBLIC "-//W3C//DTD SVG 1.1//EN"
  "http://www.w3.org/Graphics/SVG/1.1/DTD/svg11.dtd">
<!-- Created with matplotlib (https://matplotlib.org/) -->
<svg height="288pt" version="1.1" viewBox="0 0 432 288" width="432pt" xmlns="http://www.w3.org/2000/svg" xmlns:xlink="http://www.w3.org/1999/xlink">
 <defs>
  <style type="text/css">
*{stroke-linecap:butt;stroke-linejoin:round;}
  </style>
 </defs>
 <g id="figure_1">
  <g id="patch_1">
   <path d="M 0 288 
L 432 288 
L 432 0 
L 0 0 
z
" style="fill:#ffffff;"/>
  </g>
  <g id="axes_1">
   <g id="patch_2">
    <path d="M 54 252 
L 388.8 252 
L 388.8 34.56 
L 54 34.56 
z
" style="fill:#ffffff;"/>
   </g>
   <g id="PathCollection_1">
    <defs>
     <path d="M 0 3 
C 0.795609 3 1.55874 2.683901 2.12132 2.12132 
C 2.683901 1.55874 3 0.795609 3 0 
C 3 -0.795609 2.683901 -1.55874 2.12132 -2.12132 
C 1.55874 -2.683901 0.795609 -3 0 -3 
C -0.795609 -3 -1.55874 -2.683901 -2.12132 -2.12132 
C -2.683901 -1.55874 -3 -0.795609 -3 0 
C -3 0.795609 -2.683901 1.55874 -2.12132 2.12132 
C -1.55874 2.683901 -0.795609 3 0 3 
z
" id="m66f62ef772" style="stroke:#1f77b4;"/>
    </defs>
    <g clip-path="url(#pcf14339558)">
     <use style="fill:#1f77b4;stroke:#1f77b4;" x="211.665029" xlink:href="#m66f62ef772" y="144.392032"/>
     <use style="fill:#1f77b4;stroke:#1f77b4;" x="296.124342" xlink:href="#m66f62ef772" y="196.519206"/>
     <use style="fill:#1f77b4;stroke:#1f77b4;" x="203.860684" xlink:href="#m66f62ef772" y="118.065618"/>
     <use style="fill:#1f77b4;stroke:#1f77b4;" x="150.661746" xlink:href="#m66f62ef772" y="120.600865"/>
     <use style="fill:#1f77b4;stroke:#1f77b4;" x="135.706783" xlink:href="#m66f62ef772" y="102.425066"/>
     <use style="fill:#1f77b4;stroke:#1f77b4;" x="165.832687" xlink:href="#m66f62ef772" y="77.655675"/>
     <use style="fill:#1f77b4;stroke:#1f77b4;" x="123.845387" xlink:href="#m66f62ef772" y="122.561947"/>
     <use style="fill:#1f77b4;stroke:#1f77b4;" x="154.380742" xlink:href="#m66f62ef772" y="181.763581"/>
     <use style="fill:#1f77b4;stroke:#1f77b4;" x="193.954488" xlink:href="#m66f62ef772" y="69.845994"/>
     <use style="fill:#1f77b4;stroke:#1f77b4;" x="294.052786" xlink:href="#m66f62ef772" y="171.126272"/>
     <use style="fill:#1f77b4;stroke:#1f77b4;" x="185.332277" xlink:href="#m66f62ef772" y="177.739308"/>
     <use style="fill:#1f77b4;stroke:#1f77b4;" x="172.473343" xlink:href="#m66f62ef772" y="221.384113"/>
     <use style="fill:#1f77b4;stroke:#1f77b4;" x="205.68339" xlink:href="#m66f62ef772" y="171.183923"/>
     <use style="fill:#1f77b4;stroke:#1f77b4;" x="285.54657" xlink:href="#m66f62ef772" y="178.092378"/>
     <use style="fill:#1f77b4;stroke:#1f77b4;" x="107.07745" xlink:href="#m66f62ef772" y="172.211651"/>
     <use style="fill:#1f77b4;stroke:#1f77b4;" x="183.654837" xlink:href="#m66f62ef772" y="149.077073"/>
     <use style="fill:#1f77b4;stroke:#1f77b4;" x="151.405518" xlink:href="#m66f62ef772" y="130.879979"/>
     <use style="fill:#1f77b4;stroke:#1f77b4;" x="175.34015" xlink:href="#m66f62ef772" y="178.324743"/>
     <use style="fill:#1f77b4;stroke:#1f77b4;" x="194.634981" xlink:href="#m66f62ef772" y="179.617994"/>
     <use style="fill:#1f77b4;stroke:#1f77b4;" x="175.664607" xlink:href="#m66f62ef772" y="181.861573"/>
     <use style="fill:#1f77b4;stroke:#1f77b4;" x="138.645818" xlink:href="#m66f62ef772" y="83.211862"/>
     <use style="fill:#1f77b4;stroke:#1f77b4;" x="123.064272" xlink:href="#m66f62ef772" y="114.394359"/>
     <use style="fill:#1f77b4;stroke:#1f77b4;" x="192.122485" xlink:href="#m66f62ef772" y="147.834159"/>
     <use style="fill:#1f77b4;stroke:#1f77b4;" x="238.964586" xlink:href="#m66f62ef772" y="135.816822"/>
     <use style="fill:#1f77b4;stroke:#1f77b4;" x="248.760753" xlink:href="#m66f62ef772" y="133.333112"/>
     <use style="fill:#1f77b4;stroke:#1f77b4;" x="200.633709" xlink:href="#m66f62ef772" y="152.239368"/>
     <use style="fill:#1f77b4;stroke:#1f77b4;" x="226.724985" xlink:href="#m66f62ef772" y="162.869218"/>
     <use style="fill:#1f77b4;stroke:#1f77b4;" x="223.345135" xlink:href="#m66f62ef772" y="147.351641"/>
     <use style="fill:#1f77b4;stroke:#1f77b4;" x="150.378208" xlink:href="#m66f62ef772" y="123.258339"/>
     <use style="fill:#1f77b4;stroke:#1f77b4;" x="225.506476" xlink:href="#m66f62ef772" y="164.753663"/>
     <use style="fill:#1f77b4;stroke:#1f77b4;" x="142.222865" xlink:href="#m66f62ef772" y="146.721934"/>
     <use style="fill:#1f77b4;stroke:#1f77b4;" x="182.00706" xlink:href="#m66f62ef772" y="109.553493"/>
     <use style="fill:#1f77b4;stroke:#1f77b4;" x="83.713956" xlink:href="#m66f62ef772" y="115.362285"/>
     <use style="fill:#1f77b4;stroke:#1f77b4;" x="159.120104" xlink:href="#m66f62ef772" y="152.519199"/>
     <use style="fill:#1f77b4;stroke:#1f77b4;" x="280.122155" xlink:href="#m66f62ef772" y="103.886914"/>
     <use style="fill:#1f77b4;stroke:#1f77b4;" x="184.276031" xlink:href="#m66f62ef772" y="174.377529"/>
     <use style="fill:#1f77b4;stroke:#1f77b4;" x="176.764756" xlink:href="#m66f62ef772" y="142.683453"/>
     <use style="fill:#1f77b4;stroke:#1f77b4;" x="193.709113" xlink:href="#m66f62ef772" y="155.625273"/>
     <use style="fill:#1f77b4;stroke:#1f77b4;" x="222.730018" xlink:href="#m66f62ef772" y="182.425426"/>
     <use style="fill:#1f77b4;stroke:#1f77b4;" x="261.25378" xlink:href="#m66f62ef772" y="92.624038"/>
     <use style="fill:#1f77b4;stroke:#1f77b4;" x="246.540477" xlink:href="#m66f62ef772" y="177.310362"/>
     <use style="fill:#1f77b4;stroke:#1f77b4;" x="194.337087" xlink:href="#m66f62ef772" y="179.976785"/>
     <use style="fill:#1f77b4;stroke:#1f77b4;" x="207.356498" xlink:href="#m66f62ef772" y="129.608025"/>
     <use style="fill:#1f77b4;stroke:#1f77b4;" x="111.278283" xlink:href="#m66f62ef772" y="121.05695"/>
     <use style="fill:#1f77b4;stroke:#1f77b4;" x="180.799275" xlink:href="#m66f62ef772" y="103.136614"/>
     <use style="fill:#1f77b4;stroke:#1f77b4;" x="213.994584" xlink:href="#m66f62ef772" y="149.038483"/>
     <use style="fill:#1f77b4;stroke:#1f77b4;" x="217.058044" xlink:href="#m66f62ef772" y="104.191245"/>
     <use style="fill:#1f77b4;stroke:#1f77b4;" x="121.034765" xlink:href="#m66f62ef772" y="77.503288"/>
     <use style="fill:#1f77b4;stroke:#1f77b4;" x="213.221839" xlink:href="#m66f62ef772" y="184.411116"/>
     <use style="fill:#1f77b4;stroke:#1f77b4;" x="188.37301" xlink:href="#m66f62ef772" y="99.964948"/>
     <use style="fill:#1f77b4;stroke:#1f77b4;" x="209.604928" xlink:href="#m66f62ef772" y="88.569322"/>
     <use style="fill:#1f77b4;stroke:#1f77b4;" x="308.413174" xlink:href="#m66f62ef772" y="125.616401"/>
     <use style="fill:#1f77b4;stroke:#1f77b4;" x="263.15769" xlink:href="#m66f62ef772" y="161.529699"/>
     <use style="fill:#1f77b4;stroke:#1f77b4;" x="112.947887" xlink:href="#m66f62ef772" y="158.993669"/>
     <use style="fill:#1f77b4;stroke:#1f77b4;" x="206.003907" xlink:href="#m66f62ef772" y="111.580441"/>
     <use style="fill:#1f77b4;stroke:#1f77b4;" x="276.285114" xlink:href="#m66f62ef772" y="159.016582"/>
     <use style="fill:#1f77b4;stroke:#1f77b4;" x="257.51089" xlink:href="#m66f62ef772" y="154.144112"/>
     <use style="fill:#1f77b4;stroke:#1f77b4;" x="226.065083" xlink:href="#m66f62ef772" y="159.257804"/>
     <use style="fill:#1f77b4;stroke:#1f77b4;" x="305.378829" xlink:href="#m66f62ef772" y="113.151666"/>
     <use style="fill:#1f77b4;stroke:#1f77b4;" x="191.339388" xlink:href="#m66f62ef772" y="121.629214"/>
     <use style="fill:#1f77b4;stroke:#1f77b4;" x="258.423249" xlink:href="#m66f62ef772" y="109.458242"/>
     <use style="fill:#1f77b4;stroke:#1f77b4;" x="244.217664" xlink:href="#m66f62ef772" y="109.58798"/>
     <use style="fill:#1f77b4;stroke:#1f77b4;" x="151.363474" xlink:href="#m66f62ef772" y="160.029317"/>
     <use style="fill:#1f77b4;stroke:#1f77b4;" x="220.340597" xlink:href="#m66f62ef772" y="166.904876"/>
     <use style="fill:#1f77b4;stroke:#1f77b4;" x="69.51685" xlink:href="#m66f62ef772" y="161.490689"/>
     <use style="fill:#1f77b4;stroke:#1f77b4;" x="276.41748" xlink:href="#m66f62ef772" y="127.463138"/>
     <use style="fill:#1f77b4;stroke:#1f77b4;" x="225.758596" xlink:href="#m66f62ef772" y="155.465473"/>
     <use style="fill:#1f77b4;stroke:#1f77b4;" x="231.743068" xlink:href="#m66f62ef772" y="165.088342"/>
     <use style="fill:#1f77b4;stroke:#1f77b4;" x="231.147568" xlink:href="#m66f62ef772" y="87.819414"/>
     <use style="fill:#1f77b4;stroke:#1f77b4;" x="180.876326" xlink:href="#m66f62ef772" y="136.185526"/>
     <use style="fill:#1f77b4;stroke:#1f77b4;" x="125.570909" xlink:href="#m66f62ef772" y="101.859559"/>
     <use style="fill:#1f77b4;stroke:#1f77b4;" x="188.062912" xlink:href="#m66f62ef772" y="144.340231"/>
     <use style="fill:#1f77b4;stroke:#1f77b4;" x="241.379098" xlink:href="#m66f62ef772" y="77.805704"/>
     <use style="fill:#1f77b4;stroke:#1f77b4;" x="207.474754" xlink:href="#m66f62ef772" y="184.261753"/>
     <use style="fill:#1f77b4;stroke:#1f77b4;" x="254.007334" xlink:href="#m66f62ef772" y="108.13287"/>
     <use style="fill:#1f77b4;stroke:#1f77b4;" x="133.050535" xlink:href="#m66f62ef772" y="201.594901"/>
     <use style="fill:#1f77b4;stroke:#1f77b4;" x="217.302987" xlink:href="#m66f62ef772" y="186.810198"/>
     <use style="fill:#1f77b4;stroke:#1f77b4;" x="194.61175" xlink:href="#m66f62ef772" y="93.952813"/>
     <use style="fill:#1f77b4;stroke:#1f77b4;" x="263.219471" xlink:href="#m66f62ef772" y="108.987655"/>
     <use style="fill:#1f77b4;stroke:#1f77b4;" x="253.12717" xlink:href="#m66f62ef772" y="162.582064"/>
     <use style="fill:#1f77b4;stroke:#1f77b4;" x="185.153273" xlink:href="#m66f62ef772" y="134.348994"/>
     <use style="fill:#1f77b4;stroke:#1f77b4;" x="200.473343" xlink:href="#m66f62ef772" y="140.132561"/>
     <use style="fill:#1f77b4;stroke:#1f77b4;" x="254.779153" xlink:href="#m66f62ef772" y="115.035755"/>
     <use style="fill:#1f77b4;stroke:#1f77b4;" x="160.938134" xlink:href="#m66f62ef772" y="120.989829"/>
     <use style="fill:#1f77b4;stroke:#1f77b4;" x="152.73683" xlink:href="#m66f62ef772" y="83.249283"/>
     <use style="fill:#1f77b4;stroke:#1f77b4;" x="139.675432" xlink:href="#m66f62ef772" y="44.752619"/>
     <use style="fill:#1f77b4;stroke:#1f77b4;" x="204.477571" xlink:href="#m66f62ef772" y="97.23984"/>
     <use style="fill:#1f77b4;stroke:#1f77b4;" x="175.223806" xlink:href="#m66f62ef772" y="89.855148"/>
     <use style="fill:#1f77b4;stroke:#1f77b4;" x="155.344083" xlink:href="#m66f62ef772" y="241.807381"/>
     <use style="fill:#1f77b4;stroke:#1f77b4;" x="168.3394" xlink:href="#m66f62ef772" y="140.484822"/>
     <use style="fill:#1f77b4;stroke:#1f77b4;" x="247.284218" xlink:href="#m66f62ef772" y="160.939887"/>
     <use style="fill:#1f77b4;stroke:#1f77b4;" x="129.554769" xlink:href="#m66f62ef772" y="182.545507"/>
     <use style="fill:#1f77b4;stroke:#1f77b4;" x="243.414173" xlink:href="#m66f62ef772" y="158.098441"/>
     <use style="fill:#1f77b4;stroke:#1f77b4;" x="201.161306" xlink:href="#m66f62ef772" y="184.526828"/>
     <use style="fill:#1f77b4;stroke:#1f77b4;" x="373.28315" xlink:href="#m66f62ef772" y="119.352998"/>
     <use style="fill:#1f77b4;stroke:#1f77b4;" x="194.650292" xlink:href="#m66f62ef772" y="117.361524"/>
     <use style="fill:#1f77b4;stroke:#1f77b4;" x="274.736445" xlink:href="#m66f62ef772" y="203.539066"/>
     <use style="fill:#1f77b4;stroke:#1f77b4;" x="202.131194" xlink:href="#m66f62ef772" y="89.556178"/>
     <use style="fill:#1f77b4;stroke:#1f77b4;" x="97.966504" xlink:href="#m66f62ef772" y="156.94289"/>
     <use style="fill:#1f77b4;stroke:#1f77b4;" x="170.688342" xlink:href="#m66f62ef772" y="122.361623"/>
    </g>
   </g>
   <g id="matplotlib.axis_1">
    <g id="xtick_1">
     <g id="line2d_1">
      <defs>
       <path d="M 0 0 
L 0 3.5 
" id="m9b87d4eff6" style="stroke:#000000;stroke-width:0.8;"/>
      </defs>
      <g>
       <use style="stroke:#000000;stroke-width:0.8;" x="101.710991" xlink:href="#m9b87d4eff6" y="252"/>
      </g>
     </g>
     <g id="text_1">
      <!-- 2 -->
      <defs>
       <path d="M 19.1875 8.296875 
L 53.609375 8.296875 
L 53.609375 0 
L 7.328125 0 
L 7.328125 8.296875 
Q 12.9375 14.109375 22.625 23.890625 
Q 32.328125 33.6875 34.8125 36.53125 
Q 39.546875 41.84375 41.421875 45.53125 
Q 43.3125 49.21875 43.3125 52.78125 
Q 43.3125 58.59375 39.234375 62.25 
Q 35.15625 65.921875 28.609375 65.921875 
Q 23.96875 65.921875 18.8125 64.3125 
Q 13.671875 62.703125 7.8125 59.421875 
L 7.8125 69.390625 
Q 13.765625 71.78125 18.9375 73 
Q 24.125 74.21875 28.421875 74.21875 
Q 39.75 74.21875 46.484375 68.546875 
Q 53.21875 62.890625 53.21875 53.421875 
Q 53.21875 48.921875 51.53125 44.890625 
Q 49.859375 40.875 45.40625 35.40625 
Q 44.1875 33.984375 37.640625 27.21875 
Q 31.109375 20.453125 19.1875 8.296875 
z
" id="DejaVuSans-50"/>
      </defs>
      <g transform="translate(98.529741 266.598437)scale(0.1 -0.1)">
       <use xlink:href="#DejaVuSans-50"/>
      </g>
     </g>
    </g>
    <g id="xtick_2">
     <g id="line2d_2">
      <g>
       <use style="stroke:#000000;stroke-width:0.8;" x="168.373791" xlink:href="#m9b87d4eff6" y="252"/>
      </g>
     </g>
     <g id="text_2">
      <!-- 4 -->
      <defs>
       <path d="M 37.796875 64.3125 
L 12.890625 25.390625 
L 37.796875 25.390625 
z
M 35.203125 72.90625 
L 47.609375 72.90625 
L 47.609375 25.390625 
L 58.015625 25.390625 
L 58.015625 17.1875 
L 47.609375 17.1875 
L 47.609375 0 
L 37.796875 0 
L 37.796875 17.1875 
L 4.890625 17.1875 
L 4.890625 26.703125 
z
" id="DejaVuSans-52"/>
      </defs>
      <g transform="translate(165.192541 266.598437)scale(0.1 -0.1)">
       <use xlink:href="#DejaVuSans-52"/>
      </g>
     </g>
    </g>
    <g id="xtick_3">
     <g id="line2d_3">
      <g>
       <use style="stroke:#000000;stroke-width:0.8;" x="235.036591" xlink:href="#m9b87d4eff6" y="252"/>
      </g>
     </g>
     <g id="text_3">
      <!-- 6 -->
      <defs>
       <path d="M 33.015625 40.375 
Q 26.375 40.375 22.484375 35.828125 
Q 18.609375 31.296875 18.609375 23.390625 
Q 18.609375 15.53125 22.484375 10.953125 
Q 26.375 6.390625 33.015625 6.390625 
Q 39.65625 6.390625 43.53125 10.953125 
Q 47.40625 15.53125 47.40625 23.390625 
Q 47.40625 31.296875 43.53125 35.828125 
Q 39.65625 40.375 33.015625 40.375 
z
M 52.59375 71.296875 
L 52.59375 62.3125 
Q 48.875 64.0625 45.09375 64.984375 
Q 41.3125 65.921875 37.59375 65.921875 
Q 27.828125 65.921875 22.671875 59.328125 
Q 17.53125 52.734375 16.796875 39.40625 
Q 19.671875 43.65625 24.015625 45.921875 
Q 28.375 48.1875 33.59375 48.1875 
Q 44.578125 48.1875 50.953125 41.515625 
Q 57.328125 34.859375 57.328125 23.390625 
Q 57.328125 12.15625 50.6875 5.359375 
Q 44.046875 -1.421875 33.015625 -1.421875 
Q 20.359375 -1.421875 13.671875 8.265625 
Q 6.984375 17.96875 6.984375 36.375 
Q 6.984375 53.65625 15.1875 63.9375 
Q 23.390625 74.21875 37.203125 74.21875 
Q 40.921875 74.21875 44.703125 73.484375 
Q 48.484375 72.75 52.59375 71.296875 
z
" id="DejaVuSans-54"/>
      </defs>
      <g transform="translate(231.855341 266.598437)scale(0.1 -0.1)">
       <use xlink:href="#DejaVuSans-54"/>
      </g>
     </g>
    </g>
    <g id="xtick_4">
     <g id="line2d_4">
      <g>
       <use style="stroke:#000000;stroke-width:0.8;" x="301.699391" xlink:href="#m9b87d4eff6" y="252"/>
      </g>
     </g>
     <g id="text_4">
      <!-- 8 -->
      <defs>
       <path d="M 31.78125 34.625 
Q 24.75 34.625 20.71875 30.859375 
Q 16.703125 27.09375 16.703125 20.515625 
Q 16.703125 13.921875 20.71875 10.15625 
Q 24.75 6.390625 31.78125 6.390625 
Q 38.8125 6.390625 42.859375 10.171875 
Q 46.921875 13.96875 46.921875 20.515625 
Q 46.921875 27.09375 42.890625 30.859375 
Q 38.875 34.625 31.78125 34.625 
z
M 21.921875 38.8125 
Q 15.578125 40.375 12.03125 44.71875 
Q 8.5 49.078125 8.5 55.328125 
Q 8.5 64.0625 14.71875 69.140625 
Q 20.953125 74.21875 31.78125 74.21875 
Q 42.671875 74.21875 48.875 69.140625 
Q 55.078125 64.0625 55.078125 55.328125 
Q 55.078125 49.078125 51.53125 44.71875 
Q 48 40.375 41.703125 38.8125 
Q 48.828125 37.15625 52.796875 32.3125 
Q 56.78125 27.484375 56.78125 20.515625 
Q 56.78125 9.90625 50.3125 4.234375 
Q 43.84375 -1.421875 31.78125 -1.421875 
Q 19.734375 -1.421875 13.25 4.234375 
Q 6.78125 9.90625 6.78125 20.515625 
Q 6.78125 27.484375 10.78125 32.3125 
Q 14.796875 37.15625 21.921875 38.8125 
z
M 18.3125 54.390625 
Q 18.3125 48.734375 21.84375 45.5625 
Q 25.390625 42.390625 31.78125 42.390625 
Q 38.140625 42.390625 41.71875 45.5625 
Q 45.3125 48.734375 45.3125 54.390625 
Q 45.3125 60.0625 41.71875 63.234375 
Q 38.140625 66.40625 31.78125 66.40625 
Q 25.390625 66.40625 21.84375 63.234375 
Q 18.3125 60.0625 18.3125 54.390625 
z
" id="DejaVuSans-56"/>
      </defs>
      <g transform="translate(298.518141 266.598437)scale(0.1 -0.1)">
       <use xlink:href="#DejaVuSans-56"/>
      </g>
     </g>
    </g>
    <g id="xtick_5">
     <g id="line2d_5">
      <g>
       <use style="stroke:#000000;stroke-width:0.8;" x="368.362191" xlink:href="#m9b87d4eff6" y="252"/>
      </g>
     </g>
     <g id="text_5">
      <!-- 10 -->
      <defs>
       <path d="M 12.40625 8.296875 
L 28.515625 8.296875 
L 28.515625 63.921875 
L 10.984375 60.40625 
L 10.984375 69.390625 
L 28.421875 72.90625 
L 38.28125 72.90625 
L 38.28125 8.296875 
L 54.390625 8.296875 
L 54.390625 0 
L 12.40625 0 
z
" id="DejaVuSans-49"/>
       <path d="M 31.78125 66.40625 
Q 24.171875 66.40625 20.328125 58.90625 
Q 16.5 51.421875 16.5 36.375 
Q 16.5 21.390625 20.328125 13.890625 
Q 24.171875 6.390625 31.78125 6.390625 
Q 39.453125 6.390625 43.28125 13.890625 
Q 47.125 21.390625 47.125 36.375 
Q 47.125 51.421875 43.28125 58.90625 
Q 39.453125 66.40625 31.78125 66.40625 
z
M 31.78125 74.21875 
Q 44.046875 74.21875 50.515625 64.515625 
Q 56.984375 54.828125 56.984375 36.375 
Q 56.984375 17.96875 50.515625 8.265625 
Q 44.046875 -1.421875 31.78125 -1.421875 
Q 19.53125 -1.421875 13.0625 8.265625 
Q 6.59375 17.96875 6.59375 36.375 
Q 6.59375 54.828125 13.0625 64.515625 
Q 19.53125 74.21875 31.78125 74.21875 
z
" id="DejaVuSans-48"/>
      </defs>
      <g transform="translate(361.999691 266.598437)scale(0.1 -0.1)">
       <use xlink:href="#DejaVuSans-49"/>
       <use x="63.623047" xlink:href="#DejaVuSans-48"/>
      </g>
     </g>
    </g>
   </g>
   <g id="matplotlib.axis_2">
    <g id="ytick_1">
     <g id="line2d_6">
      <defs>
       <path d="M 0 0 
L -3.5 0 
" id="m3d0f681bb1" style="stroke:#000000;stroke-width:0.8;"/>
      </defs>
      <g>
       <use style="stroke:#000000;stroke-width:0.8;" x="54" xlink:href="#m3d0f681bb1" y="251.004544"/>
      </g>
     </g>
     <g id="text_6">
      <!-- 0 -->
      <g transform="translate(40.6375 254.803763)scale(0.1 -0.1)">
       <use xlink:href="#DejaVuSans-48"/>
      </g>
     </g>
    </g>
    <g id="ytick_2">
     <g id="line2d_7">
      <g>
       <use style="stroke:#000000;stroke-width:0.8;" x="54" xlink:href="#m3d0f681bb1" y="206.21435"/>
      </g>
     </g>
     <g id="text_7">
      <!-- 2 -->
      <g transform="translate(40.6375 210.013568)scale(0.1 -0.1)">
       <use xlink:href="#DejaVuSans-50"/>
      </g>
     </g>
    </g>
    <g id="ytick_3">
     <g id="line2d_8">
      <g>
       <use style="stroke:#000000;stroke-width:0.8;" x="54" xlink:href="#m3d0f681bb1" y="161.424155"/>
      </g>
     </g>
     <g id="text_8">
      <!-- 4 -->
      <g transform="translate(40.6375 165.223374)scale(0.1 -0.1)">
       <use xlink:href="#DejaVuSans-52"/>
      </g>
     </g>
    </g>
    <g id="ytick_4">
     <g id="line2d_9">
      <g>
       <use style="stroke:#000000;stroke-width:0.8;" x="54" xlink:href="#m3d0f681bb1" y="116.633961"/>
      </g>
     </g>
     <g id="text_9">
      <!-- 6 -->
      <g transform="translate(40.6375 120.43318)scale(0.1 -0.1)">
       <use xlink:href="#DejaVuSans-54"/>
      </g>
     </g>
    </g>
    <g id="ytick_5">
     <g id="line2d_10">
      <g>
       <use style="stroke:#000000;stroke-width:0.8;" x="54" xlink:href="#m3d0f681bb1" y="71.843767"/>
      </g>
     </g>
     <g id="text_10">
      <!-- 8 -->
      <g transform="translate(40.6375 75.642986)scale(0.1 -0.1)">
       <use xlink:href="#DejaVuSans-56"/>
      </g>
     </g>
    </g>
   </g>
   <g id="patch_3">
    <path d="M 54 252 
L 54 34.56 
" style="fill:none;stroke:#000000;stroke-linecap:square;stroke-linejoin:miter;stroke-width:0.8;"/>
   </g>
   <g id="patch_4">
    <path d="M 388.8 252 
L 388.8 34.56 
" style="fill:none;stroke:#000000;stroke-linecap:square;stroke-linejoin:miter;stroke-width:0.8;"/>
   </g>
   <g id="patch_5">
    <path d="M 54 252 
L 388.8 252 
" style="fill:none;stroke:#000000;stroke-linecap:square;stroke-linejoin:miter;stroke-width:0.8;"/>
   </g>
   <g id="patch_6">
    <path d="M 54 34.56 
L 388.8 34.56 
" style="fill:none;stroke:#000000;stroke-linecap:square;stroke-linejoin:miter;stroke-width:0.8;"/>
   </g>
  </g>
 </g>
 <defs>
  <clipPath id="pcf14339558">
   <rect height="217.44" width="334.8" x="54" y="34.56"/>
  </clipPath>
 </defs>
</svg>
