<svg viewBox="0 0 603.56 369.77" xmlns="http://www.w3.org/2000/svg"><path d="m159.19.5h276.41v148.49h-276.41z" fill="#10172f" stroke="#fff" stroke-linecap="round" stroke-linejoin="round"/><path d="m240.75 66.13v-18.87h2.68l6 9.54a54.49 54.49 0 0 1 3.37 6.14h.06c-.22-2.52-.26-4.82-.26-7.74v-7.94h2.29v18.87h-2.47l-6-9.56a62.07 62.07 0 0 1 -3.42-6.32h-.08c.14 2.39.17 4.66.17 7.78v8.07z" fill="#fff"/><path d="m270.4 62.43c0 1.42 0 2.63.11 3.7h-2.18l-.13-2.21h-.07a5 5 0 0 1 -4.48 2.52c-2.12 0-4.66-1.19-4.66-5.93v-7.92h2.45v7.48c0 2.58.8 4.34 3 4.34a3.59 3.59 0 0 0 3.26-2.26 3.77 3.77 0 0 0 .23-1.26v-8.3h2.45z" fill="#fff"/><path d="m274.5 56.25c0-1.41 0-2.54-.11-3.66h2.14l.13 2.18h.07a4.66 4.66 0 0 1 4.27-2.49 4 4 0 0 1 3.82 2.72h.06a5.49 5.49 0 0 1 1.52-1.77 4.66 4.66 0 0 1 3-.95c1.81 0 4.47 1.17 4.47 5.88v8h-2.4v-7.69c0-2.62-1-4.17-2.94-4.17a3.23 3.23 0 0 0 -2.93 2.21 4 4 0 0 0 -.2 1.24v8.38h-2.4v-8.13c0-2.16-1-3.71-2.82-3.71a3.4 3.4 0 0 0 -3.07 2.46 3.93 3.93 0 0 0 -.18 1.21v8.16h-2.43z" fill="#fff"/><path d="m299.23 59.81c0 3.33 2.16 4.7 4.64 4.7a9.06 9.06 0 0 0 3.75-.7l.43 1.75a10.8 10.8 0 0 1 -4.52.87c-4.16 0-6.66-2.78-6.66-6.84s2.41-7.31 6.37-7.31c4.42 0 5.57 3.88 5.57 6.37a6.56 6.56 0 0 1 -.08 1.16zm7.21-1.81c0-1.55-.64-4-3.4-4-2.51 0-3.58 2.27-3.78 4z" fill="#fff"/><path d="m311.88 56.81c0-1.6 0-3-.12-4.22h2.16l.1 2.66h.08a4.13 4.13 0 0 1 3.78-3 2.9 2.9 0 0 1 .68.07v2.32a4.12 4.12 0 0 0 -.84-.07 3.44 3.44 0 0 0 -3.29 3.15 5.93 5.93 0 0 0 -.1 1.15v7.23h-2.45z" fill="#fff"/><path d="m323.9 48.76a1.49 1.49 0 0 1 -1.57 1.53 1.46 1.46 0 0 1 -1.48-1.53 1.5 1.5 0 0 1 1.53-1.53 1.47 1.47 0 0 1 1.52 1.53zm-2.75 17.37v-13.54h2.45v13.54z" fill="#fff"/><path d="m337.36 65.64a9.32 9.32 0 0 1 -3.89.79c-4.08 0-6.76-2.78-6.76-6.92a6.9 6.9 0 0 1 7.29-7.22 8 8 0 0 1 3.42.72l-.55 1.89a6 6 0 0 0 -2.88-.65c-3.08 0-4.78 2.31-4.77 5.13 0 3.13 2 5.06 4.72 5.06a7.17 7.17 0 0 0 3-.65z" fill="#fff"/><path d="m347.78 66.13-.22-1.71h-.07a5 5 0 0 1 -4.14 2 3.86 3.86 0 0 1 -4.14-3.89c0-3.28 2.91-5.08 8.14-5v-.29a2.79 2.79 0 0 0 -3.09-3.12 6.53 6.53 0 0 0 -3.52 1l-.56-1.64a8.54 8.54 0 0 1 4.47-1.19c4.14 0 5.15 2.83 5.15 5.55v5.06a21.41 21.41 0 0 0 .2 3.24zm-.38-6.91c-2.67-.06-5.72.42-5.72 3a2.17 2.17 0 0 0 2.3 2.36 3.4 3.4 0 0 0 3.3-2.27 2.43 2.43 0 0 0 .12-.78z" fill="#fff"/><path d="m353.77 46.25h2.45v19.88h-2.45z" fill="#fff"/><path d="m255.14 99.73-6.14-18.87h2.65l2.94 9.3c.81 2.55 1.51 4.85 2 7h.07c.53-2.18 1.3-4.56 2.15-7l3.19-9.3h2.61l-6.75 18.87z" fill="#fff"/><path d="m273.12 99.73-.22-1.73h-.07a5 5 0 0 1 -4.14 2 3.86 3.86 0 0 1 -4.14-3.89c0-3.28 2.91-5.08 8.14-5v-.29a2.79 2.79 0 0 0 -3.09-3.12 6.59 6.59 0 0 0 -3.52 1l-.56-1.64a8.54 8.54 0 0 1 4.48-1.18c4.14 0 5.15 2.83 5.15 5.55v5.06a21.41 21.41 0 0 0 .2 3.24zm-.38-6.91c-2.67-.06-5.72.42-5.72 3a2.17 2.17 0 0 0 2.3 2.36 3.4 3.4 0 0 0 3.3-2.27 2.74 2.74 0 0 0 .12-.78z" fill="#fff"/><path d="m279.1 90.41c0-1.6 0-3-.11-4.22h2.16l.09 2.66h.09a4.11 4.11 0 0 1 3.77-3 3 3 0 0 1 .69.07v2.32a4.12 4.12 0 0 0 -.84-.07 3.45 3.45 0 0 0 -3.3 3.15 6.84 6.84 0 0 0 -.1 1.15v7.23h-2.45z" fill="#fff"/><path d="m291.13 82.36a1.53 1.53 0 1 1 -3.06 0 1.5 1.5 0 0 1 1.54-1.53 1.48 1.48 0 0 1 1.52 1.53zm-2.75 17.37v-13.54h2.45v13.54z" fill="#fff"/><path d="m302.43 99.73-.21-1.73h-.08a5 5 0 0 1 -4.14 2 3.86 3.86 0 0 1 -4.13-3.89c0-3.28 2.9-5.08 8.13-5v-.29a2.78 2.78 0 0 0 -3.08-3.12 6.63 6.63 0 0 0 -3.53 1l-.56-1.64a8.57 8.57 0 0 1 4.47-1.19c4.14 0 5.15 2.83 5.15 5.55v5.06a20.11 20.11 0 0 0 .21 3.24zm-.38-6.91c-2.66-.06-5.71.42-5.71 3a2.17 2.17 0 0 0 2.3 2.36 3.38 3.38 0 0 0 3.29-2.18 2.43 2.43 0 0 0 .12-.78z" fill="#fff"/><path d="m308.31 99.73c.06-.93.11-2.29.11-3.49v-16.39h2.45v8.51h.05a5 5 0 0 1 4.62-2.48c3.36 0 5.73 2.8 5.72 6.9 0 4.86-3.08 7.26-6.1 7.26a4.89 4.89 0 0 1 -4.54-2.53h-.06l-.13 2.22zm2.56-5.43a3.74 3.74 0 0 0 3.79 3.78c2.59 0 4.11-2.1 4.11-5.21 0-2.72-1.4-5.05-4-5.05a3.92 3.92 0 0 0 -3.72 3 3.87 3.87 0 0 0 -.14 1z" fill="#fff"/><path d="m324.35 79.85h2.46v19.88h-2.46z" fill="#fff"/><path d="m332.34 93.41c.05 3.33 2.16 4.7 4.63 4.7a9 9 0 0 0 3.75-.7l.44 1.75a10.84 10.84 0 0 1 -4.52.87c-4.16 0-6.67-2.78-6.67-6.84s2.42-7.31 6.38-7.31c4.41 0 5.57 3.88 5.57 6.37a6.56 6.56 0 0 1 -.08 1.16zm7.21-1.77c0-1.56-.64-4-3.4-4-2.51 0-3.58 2.27-3.78 4z" fill="#fff"/><path d="m344.64 97.22a6.65 6.65 0 0 0 3.27 1c1.79 0 2.63-.88 2.63-2s-.72-1.8-2.52-2.48c-2.45-.88-3.6-2.21-3.6-3.84 0-2.18 1.77-4 4.69-4a6.54 6.54 0 0 1 3.31.84l-.61 1.79a5.28 5.28 0 0 0 -2.78-.8c-1.45 0-2.24.84-2.24 1.86s.8 1.62 2.57 2.31c2.34.87 3.55 2 3.55 4.07 0 2.4-1.86 4.08-5.06 4.08a7.77 7.77 0 0 1 -3.81-1z" fill="#fff"/><path d="m.5 220.78h276.41v148.49h-276.41z" fill="#10172f" stroke="#fff" stroke-linecap="round" stroke-linejoin="round"/><g fill="#fff"><path d="m86 301.1a12.21 12.21 0 0 1 -5 .9c-5.32 0-9.31-3.36-9.31-9.56 0-5.92 4-9.9 9.86-9.9a10.11 10.11 0 0 1 4.47.83l-.6 2a9 9 0 0 0 -3.79-.77c-4.43 0-7.36 2.83-7.36 7.78 0 4.62 2.66 7.57 7.23 7.57a10 10 0 0 0 4-.77z"/><path d="m100.87 294.8c0 5-3.48 7.21-6.73 7.21-3.68 0-6.51-2.67-6.51-7 0-4.53 3-7.18 6.72-7.18 3.9.03 6.52 2.85 6.52 6.97zm-10.74.2c0 3 1.71 5.21 4.11 5.21s4.13-2.21 4.13-5.28c0-2.29-1.16-5.19-4.09-5.19s-4.15 2.65-4.15 5.26z"/><path d="m104 291.82c0-1.41 0-2.53-.12-3.66h2.18l.14 2.23h.06a5 5 0 0 1 4.48-2.53c1.86 0 4.77 1.11 4.77 5.77v8.07h-2.45v-7.8c0-2.19-.82-4-3.13-4a3.54 3.54 0 0 0 -3.31 2.53 3.6 3.6 0 0 0 -.17 1.14v8.16h-2.45z"/><path d="m122.37 284.27v3.89h3.54v1.84h-3.54v7.3c0 1.68.49 2.64 1.86 2.64a4.88 4.88 0 0 0 1.43-.18l.11 1.87a6.24 6.24 0 0 1 -2.2.34 3.45 3.45 0 0 1 -2.66-1 5.26 5.26 0 0 1 -1-3.54v-7.43h-2.1v-1.87h2.19v-3.23z"/><path d="m131.43 284.34a1.53 1.53 0 1 1 -3.05 0 1.5 1.5 0 0 1 1.53-1.54 1.48 1.48 0 0 1 1.52 1.54zm-2.75 17.36v-13.54h2.45v13.54z"/><path d="m135.23 291.82c0-1.41 0-2.53-.11-3.66h2.18l.13 2.23h.07a5 5 0 0 1 4.48-2.53c1.86 0 4.77 1.11 4.77 5.77v8.07h-2.45v-7.8c0-2.19-.82-4-3.13-4a3.55 3.55 0 0 0 -3.32 2.53 3.91 3.91 0 0 0 -.17 1.14v8.16h-2.45z"/><path d="m162.1 298c0 1.42 0 2.63.11 3.7h-2.21l-.13-2.21h-.07a5 5 0 0 1 -4.48 2.52c-2.12 0-4.66-1.19-4.66-5.93v-7.92h2.45v7.49c0 2.57.8 4.33 3 4.33a3.57 3.57 0 0 0 3.26-2.26 3.68 3.68 0 0 0 .23-1.26v-8.3h2.45z"/><path d="m178.46 294.8c0 5-3.48 7.21-6.74 7.21-3.67 0-6.51-2.67-6.51-7 0-4.53 3-7.18 6.73-7.18s6.52 2.85 6.52 6.97zm-10.74.16c0 3 1.7 5.21 4.11 5.21s4.17-2.17 4.17-5.28c0-2.29-1.15-5.19-4.08-5.19s-4.2 2.69-4.2 5.3z"/><path d="m192.9 298c0 1.42 0 2.63.11 3.7h-2.18l-.13-2.21h-.07a5 5 0 0 1 -4.48 2.52c-2.12 0-4.66-1.19-4.66-5.93v-7.92h2.45v7.49c0 2.57.8 4.33 3 4.33a3.57 3.57 0 0 0 3.26-2.26 3.68 3.68 0 0 0 .23-1.26v-8.3h2.45z"/><path d="m196.65 299.2a6.75 6.75 0 0 0 3.27 1c1.79 0 2.63-.88 2.63-2s-.72-1.81-2.52-2.48c-2.45-.89-3.6-2.22-3.6-3.84 0-2.18 1.78-4 4.69-4a6.51 6.51 0 0 1 3.31.83l-.61 1.79a5.28 5.28 0 0 0 -2.78-.8c-1.45 0-2.24.84-2.24 1.86s.8 1.62 2.57 2.31c2.34.87 3.55 2 3.56 4.07 0 2.4-1.87 4.08-5.07 4.08a7.7 7.7 0 0 1 -3.8-.94z"/><path d="m76 311.81a13.29 13.29 0 0 0 -2.51 8.2 13.51 13.51 0 0 0 2.51 8.11h-1.38a12.87 12.87 0 0 1 -2.62-8.12 13.11 13.11 0 0 1 2.62-8.19z"/><path d="m77.85 318.64c0-1 0-1.81-.08-2.61h1.53l.09 1.56a3.35 3.35 0 0 1 3.06-1.78 2.84 2.84 0 0 1 2.72 1.94 3.91 3.91 0 0 1 1.09-1.26 3.31 3.31 0 0 1 2.13-.68c1.29 0 3.2.83 3.2 4.2v5.69h-1.59v-5.47c0-1.87-.69-3-2.1-3a2.29 2.29 0 0 0 -2.09 1.58 2.77 2.77 0 0 0 -.15.89v6h-1.75v-5.8c0-1.54-.69-2.65-2-2.65a2.43 2.43 0 0 0 -2.21 1.75 2.93 2.93 0 0 0 -.13.86v5.83h-1.72z"/><path d="m95.52 321.19a3.08 3.08 0 0 0 3.31 3.35 6.51 6.51 0 0 0 2.68-.49l.3 1.25a7.81 7.81 0 0 1 -3.22.61 4.51 4.51 0 0 1 -4.76-4.91c0-2.93 1.72-5.22 4.55-5.22 3.15 0 4 2.77 4 4.55a4.34 4.34 0 0 1 -.06.83zm5.14-1.27c0-1.11-.45-2.85-2.42-2.85a2.89 2.89 0 0 0 -2.7 2.85z"/><path d="m109.91 325.7-.15-1.22h-.05a3.59 3.59 0 0 1 -3 1.44 2.76 2.76 0 0 1 -3-2.77c0-2.34 2.08-3.63 5.82-3.61v-.2a2 2 0 0 0 -2.21-2.23 4.73 4.73 0 0 0 -2.52.72l-.4-1.17a6.11 6.11 0 0 1 3.2-.85c2.95 0 3.68 2 3.68 4v3.62a14.85 14.85 0 0 0 .14 2.31zm-.27-4.94c-1.9 0-4.08.31-4.08 2.18a1.55 1.55 0 0 0 1.64 1.68 2.43 2.43 0 0 0 2.36-1.62 1.83 1.83 0 0 0 .08-.55z"/><path d="m113.94 323.91a4.82 4.82 0 0 0 2.33.69c1.29 0 1.88-.63 1.88-1.44s-.51-1.29-1.79-1.77c-1.75-.63-2.58-1.58-2.57-2.74 0-1.56 1.26-2.84 3.34-2.84a4.66 4.66 0 0 1 2.37.6l-.44 1.27a3.83 3.83 0 0 0 -2-.56c-1 0-1.6.59-1.6 1.32s.57 1.16 1.83 1.65c1.67.62 2.54 1.46 2.54 2.91 0 1.71-1.33 2.91-3.62 2.91a5.55 5.55 0 0 1 -2.72-.67z"/><path d="m130.2 323.06c0 1 0 1.88.08 2.64h-1.55l-.1-1.58a3.6 3.6 0 0 1 -3.2 1.8c-1.51 0-3.33-.84-3.33-4.24v-5.68h1.75v5.35c0 1.84.57 3.09 2.16 3.09a2.56 2.56 0 0 0 2.33-1.61 2.73 2.73 0 0 0 .16-.9v-5.93h1.75z"/><path d="m133.13 319c0-1.14 0-2.11-.08-3h1.54l.07 1.9h.06a2.94 2.94 0 0 1 2.69-2.12 1.89 1.89 0 0 1 .49.05v1.65a3.37 3.37 0 0 0 -.6-.05 2.46 2.46 0 0 0 -2.35 2.25 4.35 4.35 0 0 0 -.07.83v5.16h-1.75z"/><path d="m140.45 321.19a3.09 3.09 0 0 0 3.32 3.35 6.59 6.59 0 0 0 2.68-.49l.3 1.25a7.81 7.81 0 0 1 -3.22.61 4.51 4.51 0 0 1 -4.76-4.88c0-2.93 1.72-5.22 4.55-5.22 3.15 0 4 2.77 4 4.55a4.34 4.34 0 0 1 -.06.83zm5.15-1.27c0-1.11-.45-2.85-2.42-2.85a2.89 2.89 0 0 0 -2.7 2.85z"/><path d="m149.49 318.64c0-1 0-1.81-.08-2.61h1.53l.09 1.56h.05a3.35 3.35 0 0 1 3.06-1.78 2.84 2.84 0 0 1 2.72 1.94 3.91 3.91 0 0 1 1.09-1.26 3.31 3.31 0 0 1 2.13-.68c1.29 0 3.2.83 3.2 4.2v5.69h-1.68v-5.47c0-1.87-.69-3-2.1-3a2.29 2.29 0 0 0 -2.09 1.58 2.77 2.77 0 0 0 -.15.89v6h-1.72v-5.8c0-1.54-.68-2.65-2-2.65a2.43 2.43 0 0 0 -2.19 1.76 2.63 2.63 0 0 0 -.13.86v5.83h-1.72z"/><path d="m167.16 321.19a3.08 3.08 0 0 0 3.31 3.35 6.59 6.59 0 0 0 2.68-.49l.3 1.25a7.81 7.81 0 0 1 -3.22.61 4.51 4.51 0 0 1 -4.76-4.88c0-2.93 1.72-5.22 4.55-5.22 3.15 0 4 2.77 4 4.55a4.34 4.34 0 0 1 -.06.83zm5.14-1.27c0-1.11-.45-2.85-2.42-2.85a2.89 2.89 0 0 0 -2.7 2.85z"/><path d="m176.19 318.64c0-1 0-1.81-.08-2.61h1.56l.09 1.59h.05a3.57 3.57 0 0 1 3.2-1.81c1.33 0 3.41.8 3.41 4.12v5.77h-1.75v-5.57c0-1.57-.59-2.88-2.24-2.88a2.54 2.54 0 0 0 -2.37 1.81 2.76 2.76 0 0 0 -.12.81v5.83h-1.75z"/><path d="m189.32 313.24v2.76h2.53v1.33h-2.53v5.22c0 1.2.35 1.88 1.33 1.88a3.57 3.57 0 0 0 1-.12l.08 1.33a4.37 4.37 0 0 1 -1.57.24 2.45 2.45 0 0 1 -1.9-.74 3.72 3.72 0 0 1 -.68-2.52v-5.29h-1.5v-1.33h1.5v-2.3z"/><path d="m193.58 323.91a4.82 4.82 0 0 0 2.33.69c1.29 0 1.88-.63 1.88-1.44s-.51-1.29-1.8-1.77c-1.74-.63-2.57-1.58-2.57-2.74 0-1.56 1.27-2.84 3.35-2.84a4.66 4.66 0 0 1 2.37.6l-.44 1.27a3.83 3.83 0 0 0 -2-.56c-1 0-1.6.59-1.6 1.32s.57 1.16 1.83 1.65c1.67.62 2.54 1.46 2.54 2.91 0 1.71-1.33 2.91-3.62 2.91a5.52 5.52 0 0 1 -2.72-.67z"/><path d="m200.69 328.12a13.57 13.57 0 0 0 2.51-8.12 13.32 13.32 0 0 0 -2.51-8.14h1.37a12.91 12.91 0 0 1 2.61 8.15 13.11 13.11 0 0 1 -2.61 8.16z"/></g><path d="m326.66 220.78h276.41v148.49h-276.41z" fill="#10172f" stroke="#fff" stroke-linecap="round" stroke-linejoin="round"/><path d="m427.39 283.4a32.88 32.88 0 0 1 5.18-.41c3.49 0 6 .83 7.65 2.37a8.66 8.66 0 0 1 2.67 6.76 10.06 10.06 0 0 1 -2.72 7.34c-1.78 1.75-4.7 2.72-8.35 2.72a39.72 39.72 0 0 1 -4.43-.21zm2.44 16.69a17.3 17.3 0 0 0 2.45.12c5.23 0 8-2.9 8-8 0-4.46-2.49-7.27-7.63-7.27a14.71 14.71 0 0 0 -2.86.25z" fill="#fff"/><path d="m448.77 284.64a1.49 1.49 0 0 1 -1.57 1.53 1.46 1.46 0 0 1 -1.48-1.53 1.49 1.49 0 0 1 1.53-1.53 1.47 1.47 0 0 1 1.52 1.53zm-2.77 17.36v-13.53h2.45v13.53z" fill="#fff"/><path d="m452.22 299.5a6.64 6.64 0 0 0 3.26 1c1.8 0 2.64-.88 2.64-2s-.72-1.8-2.52-2.48c-2.45-.88-3.61-2.21-3.6-3.84 0-2.18 1.77-4 4.68-4a6.55 6.55 0 0 1 3.32.82l-.61 1.79a5.28 5.28 0 0 0 -2.78-.8c-1.45 0-2.24.84-2.24 1.86s.8 1.62 2.57 2.31c2.33.87 3.55 2 3.55 4.07 0 2.4-1.86 4.08-5.06 4.08a7.77 7.77 0 0 1 -3.81-.95z" fill="#fff"/><path d="m473.31 301.52a9.26 9.26 0 0 1 -3.88.79c-4.09 0-6.76-2.78-6.76-6.92a6.9 6.9 0 0 1 7.28-7.22 8 8 0 0 1 3.42.72l-.55 1.89a6 6 0 0 0 -2.88-.65c-3.09 0-4.78 2.32-4.78 5.13 0 3.13 2 5.06 4.72 5.06a7.22 7.22 0 0 0 3-.65z" fill="#fff"/><path d="m476.2 292.69c0-1.6 0-3-.12-4.22h2.16l.1 2.66h.08a4.12 4.12 0 0 1 3.77-3 3 3 0 0 1 .69.07v2.32a4.12 4.12 0 0 0 -.84-.07 3.44 3.44 0 0 0 -3.29 3.15 5.93 5.93 0 0 0 -.1 1.15v7.25h-2.45z" fill="#fff"/><path d="m486.45 295.69c.05 3.33 2.17 4.7 4.64 4.7a9.06 9.06 0 0 0 3.75-.7l.43 1.75a10.8 10.8 0 0 1 -4.52.87c-4.16 0-6.66-2.78-6.66-6.84s2.42-7.31 6.37-7.31c4.42 0 5.57 3.88 5.57 6.37a5.72 5.72 0 0 1 -.08 1.16zm7.21-1.78c0-1.55-.63-4-3.39-4-2.52 0-3.59 2.27-3.79 4z" fill="#fff"/><path d="m502.06 284.57v3.9h3.54v1.87h-3.54v7.29c0 1.69.49 2.64 1.86 2.64a4.94 4.94 0 0 0 1.43-.17l.11 1.87a6.24 6.24 0 0 1 -2.2.34 3.46 3.46 0 0 1 -2.66-1.05 5.21 5.21 0 0 1 -1-3.53v-7.39h-2.1v-1.87h2.1v-3.26z" fill="#fff"/><path d="m509.58 295.69c.05 3.33 2.16 4.7 4.64 4.7a9.06 9.06 0 0 0 3.75-.7l.43 1.75a10.8 10.8 0 0 1 -4.52.87c-4.16 0-6.66-2.78-6.66-6.84s2.42-7.31 6.37-7.31c4.42 0 5.57 3.88 5.57 6.37a6.56 6.56 0 0 1 -.08 1.16zm7.21-1.78c0-1.55-.64-4-3.4-4-2.51 0-3.58 2.27-3.78 4z" fill="#fff"/><path d="m444.14 312.12a13.23 13.23 0 0 0 -2.51 8.2 13.41 13.41 0 0 0 2.51 8.1h-1.37a12.9 12.9 0 0 1 -2.62-8.12 13.16 13.16 0 0 1 2.62-8.18z" fill="#fff"/><path d="m452.87 325.66a6.68 6.68 0 0 1 -2.78.56 4.61 4.61 0 0 1 -4.83-4.94 4.93 4.93 0 0 1 5.2-5.16 5.59 5.59 0 0 1 2.45.52l-.4 1.35a4.22 4.22 0 0 0 -2.05-.47 3.36 3.36 0 0 0 -3.41 3.67 3.32 3.32 0 0 0 3.37 3.62 5 5 0 0 0 2.15-.47z" fill="#fff"/><path d="m463.56 321.08c0 3.58-2.48 5.15-4.81 5.15-2.62 0-4.65-1.91-4.65-5 0-3.24 2.13-5.13 4.81-5.13s4.65 2.04 4.65 4.98zm-7.67.11c0 2.13 1.22 3.72 2.94 3.72s2.94-1.57 2.94-3.77c0-1.63-.82-3.7-2.91-3.7s-2.97 1.92-2.97 3.75z" fill="#fff"/><path d="m473.88 323.36c0 1 0 1.89.08 2.65h-1.56l-.09-1.58h-.05a3.62 3.62 0 0 1 -3.2 1.8c-1.52 0-3.33-.85-3.33-4.24v-5.65h1.75v5.34c0 1.85.57 3.1 2.16 3.1a2.56 2.56 0 0 0 2.33-1.61 2.79 2.79 0 0 0 .16-.91v-5.92h1.75z" fill="#fff"/><path d="m476.81 319c0-1 0-1.81-.08-2.61h1.55l.1 1.59h.05a3.56 3.56 0 0 1 3.2-1.81c1.33 0 3.41.8 3.41 4.12v5.71h-1.75v-5.58c0-1.56-.59-2.87-2.24-2.87a2.54 2.54 0 0 0 -2.37 1.81 2.76 2.76 0 0 0 -.12.81v5.83h-1.75z" fill="#fff"/><path d="m489.94 313.55v2.79h2.53v1.33h-2.53v5.21c0 1.21.35 1.89 1.33 1.89a3.51 3.51 0 0 0 1-.13l.08 1.34a4.37 4.37 0 0 1 -1.57.24 2.45 2.45 0 0 1 -1.9-.74 3.7 3.7 0 0 1 -.68-2.53v-5.28h-1.5v-1.33h1.5v-2.34z" fill="#fff"/><path d="m494.2 324.22a4.79 4.79 0 0 0 2.33.69c1.29 0 1.88-.63 1.88-1.44s-.51-1.29-1.8-1.77c-1.75-.63-2.57-1.59-2.57-2.75 0-1.55 1.27-2.83 3.35-2.83a4.69 4.69 0 0 1 2.37.59l-.44 1.28a3.82 3.82 0 0 0 -2-.57c-1 0-1.61.6-1.61 1.33s.57 1.16 1.84 1.65c1.67.62 2.53 1.46 2.54 2.91 0 1.71-1.33 2.91-3.62 2.91a5.52 5.52 0 0 1 -2.72-.67z" fill="#fff"/><path d="m501.31 328.42a14.49 14.49 0 0 0 0-16.3h1.36a12.83 12.83 0 0 1 2.62 8.15 13 13 0 0 1 -2.62 8.15z" fill="#fff"/><path d="m269.96 156.41-60.97 54.61" fill="none" stroke="#10172f" stroke-miterlimit="10" stroke-width="2"/><path d="m208.47 200.51 1.99.18-.9 9.82 9.86.18-.04 2-12.01-.22z" fill="#10172f"/><path d="m350.72 155.37 69.1 57.7" fill="none" stroke="#10172f" stroke-miterlimit="10" stroke-width="2"/><path d="m409.49 215.1-.11-2 9.85-.52-1.24-9.78 1.99-.25 1.51 11.91z" fill="#10172f"/></svg>