<svg xmlns="http://www.w3.org/2000/svg" viewBox="0 0 603.56 369.77"><defs><style>.cls-1,.cls-4{fill:#10172f;}.cls-1{stroke:#fff;stroke-linecap:round;stroke-linejoin:round;}.cls-2{fill:#fff;}.cls-3{fill:none;stroke:#10172f;stroke-miterlimit:10;stroke-width:2px;}</style></defs><g id="Layer_2" data-name="Layer 2"><g id="Layer_1-2" data-name="Layer 1"><rect class="cls-1" x="159.19" y="0.5" width="276.41" height="148.49"/><path class="cls-2" d="M253,86l-6.18-18.87h2.65l2.93,9.3c.81,2.55,1.51,4.85,2,7h.06c.53-2.19,1.3-4.56,2.15-7l3.19-9.33h2.61L255.65,86Z"/><path class="cls-2" d="M270.93,86l-.22-1.71h-.07a5,5,0,0,1-4.14,2,3.86,3.86,0,0,1-4.14-3.89c0-3.28,2.91-5.08,8.14-5V77.1A2.78,2.78,0,0,0,267.42,74a6.54,6.54,0,0,0-3.53,1l-.56-1.64a8.54,8.54,0,0,1,4.47-1.19c4.14,0,5.15,2.83,5.15,5.54v5.07a21.41,21.41,0,0,0,.2,3.24Zm-.38-6.91c-2.67-.06-5.72.42-5.72,3a2.18,2.18,0,0,0,2.3,2.36,3.4,3.4,0,0,0,3.3-2.27,2.43,2.43,0,0,0,.12-.78Z"/><path class="cls-2" d="M276.91,76.69c0-1.6,0-3-.11-4.22H279l.1,2.66h.08a4.11,4.11,0,0,1,3.77-3,3,3,0,0,1,.69.07v2.32a4.12,4.12,0,0,0-.84-.07,3.44,3.44,0,0,0-3.3,3.15,6.84,6.84,0,0,0-.1,1.15V86h-2.45Z"/><path class="cls-2" d="M288.94,68.64a1.49,1.49,0,0,1-1.57,1.53,1.46,1.46,0,0,1-1.48-1.53,1.53,1.53,0,1,1,3.05,0ZM286.19,86V72.47h2.45V86Z"/><path class="cls-2" d="M300.25,86,300,84.3H300a5.05,5.05,0,0,1-4.15,2,3.86,3.86,0,0,1-4.13-3.89c0-3.28,2.9-5.08,8.14-5V77.1A2.79,2.79,0,0,0,296.73,74a6.54,6.54,0,0,0-3.53,1l-.55-1.64a8.54,8.54,0,0,1,4.47-1.19c4.13,0,5.14,2.83,5.14,5.54v5.07a21.33,21.33,0,0,0,.21,3.24Zm-.39-6.91c-2.66-.06-5.71.42-5.71,3a2.17,2.17,0,0,0,2.3,2.36,3.41,3.41,0,0,0,3.3-2.27,2.72,2.72,0,0,0,.11-.78Z"/><path class="cls-2" d="M306.12,86c.06-.93.11-2.29.11-3.49V66.13h2.45v8.51h.05a5,5,0,0,1,4.62-2.48c3.37,0,5.73,2.8,5.72,6.9,0,4.86-3.08,7.26-6.1,7.26a4.9,4.9,0,0,1-4.54-2.53h-.06L308.24,86Zm2.56-5.43a3.74,3.74,0,0,0,3.79,3.78c2.59,0,4.12-2.1,4.12-5.21,0-2.72-1.41-5.05-4-5.05a3.92,3.92,0,0,0-3.73,3,3.87,3.87,0,0,0-.14,1Z"/><path class="cls-2" d="M322.17,66.13h2.45V86h-2.45Z"/><path class="cls-2" d="M330.15,79.69c.05,3.32,2.16,4.7,4.64,4.7a9.06,9.06,0,0,0,3.75-.7l.43,1.75a10.8,10.8,0,0,1-4.52.87c-4.16,0-6.66-2.78-6.66-6.84s2.42-7.31,6.37-7.31c4.42,0,5.57,3.88,5.57,6.37a6.56,6.56,0,0,1-.08,1.16Zm7.21-1.78c0-1.55-.64-4-3.4-4-2.51,0-3.58,2.27-3.78,4Z"/><path class="cls-2" d="M342.45,83.5a6.65,6.65,0,0,0,3.27,1c1.79,0,2.63-.89,2.63-2s-.72-1.8-2.52-2.48c-2.44-.88-3.6-2.21-3.6-3.84,0-2.18,1.78-4,4.69-4a6.51,6.51,0,0,1,3.31.84l-.61,1.79a5.27,5.27,0,0,0-2.77-.8c-1.46,0-2.25.84-2.25,1.86s.8,1.62,2.57,2.31c2.34.87,3.55,2,3.56,4.07,0,2.4-1.87,4.08-5.07,4.08a7.7,7.7,0,0,1-3.8-1Z"/><rect class="cls-1" x="0.5" y="220.78" width="276.41" height="148.49"/><path class="cls-2" d="M87.06,294.42a12,12,0,0,1-5,.9c-5.31,0-9.3-3.36-9.3-9.56,0-5.92,4-9.9,9.85-9.9a10.32,10.32,0,0,1,4.48.83l-.6,2a8.94,8.94,0,0,0-3.8-.78c-4.43,0-7.36,2.83-7.36,7.79,0,4.61,2.66,7.56,7.23,7.56a10,10,0,0,0,4-.77Z"/><path class="cls-2" d="M97.35,295l-.22-1.71h-.07a5,5,0,0,1-4.14,2,3.87,3.87,0,0,1-4.14-3.89c0-3.28,2.91-5.08,8.14-5v-.29A2.79,2.79,0,0,0,93.84,283a6.63,6.63,0,0,0-3.53,1l-.56-1.63a8.45,8.45,0,0,1,4.47-1.19c4.14,0,5.15,2.83,5.15,5.54v5.07a21.49,21.49,0,0,0,.2,3.24ZM97,288.11c-2.67-.05-5.72.43-5.72,3a2.17,2.17,0,0,0,2.3,2.36,3.39,3.39,0,0,0,3.3-2.27,2.41,2.41,0,0,0,.12-.77Z"/><path class="cls-2" d="M106.18,277.59v3.9h3.54v1.86h-3.54v7.3c0,1.69.49,2.64,1.86,2.64a4.88,4.88,0,0,0,1.43-.18l.11,1.87a6.24,6.24,0,0,1-2.2.34,3.45,3.45,0,0,1-2.66-1,5.23,5.23,0,0,1-1-3.53v-7.4h-2.1v-1.86h2.1v-3.27Z"/><path class="cls-2" d="M113.7,288.7c0,3.33,2.16,4.7,4.64,4.7a9.08,9.08,0,0,0,3.75-.69l.43,1.75a11,11,0,0,1-4.52.86c-4.16,0-6.66-2.77-6.66-6.83s2.42-7.31,6.37-7.31c4.42,0,5.57,3.87,5.57,6.37a6.51,6.51,0,0,1-.08,1.15Zm7.21-1.77c0-1.55-.63-4-3.4-4-2.51,0-3.58,2.28-3.78,4Z"/><path class="cls-2" d="M138,281.49c-.07.95-.12,2.05-.12,3.7v7.87c0,3.13-.64,5-1.93,6.2a7.27,7.27,0,0,1-4.93,1.62,8.75,8.75,0,0,1-4.52-1.11l.61-1.9a7.61,7.61,0,0,0,4,1.08c2.51,0,4.36-1.31,4.36-4.74V292.7h-.05a4.81,4.81,0,0,1-4.31,2.28c-3.37,0-5.77-2.87-5.77-6.62,0-4.59,3-7.18,6.11-7.18a4.53,4.53,0,0,1,4.23,2.33h0l.11-2Zm-2.56,5.32a3.81,3.81,0,0,0-.14-1.1,3.56,3.56,0,0,0-3.46-2.62c-2.35,0-4,2-4,5.14,0,2.64,1.37,4.87,4,4.87a3.58,3.58,0,0,0,3.42-2.54,4.38,4.38,0,0,0,.2-1.31Z"/><path class="cls-2" d="M154.26,288.13c0,5-3.48,7.21-6.73,7.21-3.67,0-6.51-2.68-6.51-7,0-4.53,3-7.18,6.72-7.18C151.64,281.18,154.26,284,154.26,288.13Zm-10.73.15c0,3,1.7,5.21,4.1,5.21s4.13-2.21,4.13-5.28c0-2.29-1.16-5.19-4.08-5.19S143.53,285.72,143.53,288.28Z"/><path class="cls-2" d="M157.37,285.7c0-1.59,0-3-.11-4.21h2.16l.09,2.65h.09a4.12,4.12,0,0,1,3.77-3,3,3,0,0,1,.69.07v2.31a4.12,4.12,0,0,0-.84-.07,3.45,3.45,0,0,0-3.3,3.15,6.93,6.93,0,0,0-.1,1.15V295h-2.45Z"/><path class="cls-2" d="M169.4,277.66a1.53,1.53,0,1,1-1.52-1.53A1.49,1.49,0,0,1,169.4,277.66ZM166.64,295V281.49h2.46V295Z"/><path class="cls-2" d="M182.85,294.54a9.3,9.3,0,0,1-3.88.78c-4.09,0-6.76-2.78-6.76-6.92a6.9,6.9,0,0,1,7.28-7.22,8,8,0,0,1,3.42.72l-.55,1.9a5.85,5.85,0,0,0-2.88-.66c-3.09,0-4.78,2.32-4.78,5.13,0,3.14,2,5.07,4.72,5.07a7.22,7.22,0,0,0,3-.65Z"/><path class="cls-2" d="M193.28,295l-.22-1.71H193a5.08,5.08,0,0,1-4.15,2,3.87,3.87,0,0,1-4.13-3.89c0-3.28,2.9-5.08,8.14-5v-.29a2.8,2.8,0,0,0-3.09-3.13,6.63,6.63,0,0,0-3.53,1l-.55-1.63a8.44,8.44,0,0,1,4.46-1.19c4.14,0,5.15,2.83,5.15,5.54v5.07a21.42,21.42,0,0,0,.21,3.24Zm-.39-6.92c-2.66-.05-5.71.43-5.71,3a2.17,2.17,0,0,0,2.3,2.36,3.4,3.4,0,0,0,3.3-2.27,2.7,2.7,0,0,0,.11-.77Z"/><path class="cls-2" d="M199.26,275.15h2.45V295h-2.45Z"/><rect class="cls-1" x="326.66" y="220.78" width="276.41" height="148.49"/><path class="cls-2" d="M408.5,295.34V276.46h2.68l6,9.54a54.57,54.57,0,0,1,3.37,6.15l.06,0c-.22-2.52-.27-4.82-.27-7.75v-7.91h2.3v18.88H420.2l-6-9.57a63.09,63.09,0,0,1-3.52-6.32l-.08,0c.15,2.39.18,4.67.18,7.79v8.07Z"/><path class="cls-2" d="M438.14,291.63c0,1.42.05,2.63.12,3.71h-2.18l-.13-2.22h-.07a5.06,5.06,0,0,1-4.48,2.52c-2.12,0-4.67-1.18-4.67-5.93v-7.92h2.45v7.49c0,2.58.81,4.33,3,4.33a3.58,3.58,0,0,0,3.26-2.26,3.68,3.68,0,0,0,.22-1.26v-8.3h2.45Z"/><path class="cls-2" d="M442.25,285.45c0-1.41-.05-2.53-.11-3.66h2.14l.13,2.18h.06a4.7,4.7,0,0,1,4.28-2.48,4,4,0,0,1,3.82,2.71h.05a5.59,5.59,0,0,1,1.53-1.76,4.59,4.59,0,0,1,3-.95c1.81,0,4.47,1.16,4.47,5.87v8h-2.4v-7.66c0-2.63-1-4.18-2.94-4.18a3.21,3.21,0,0,0-2.93,2.22,3.91,3.91,0,0,0-.2,1.23v8.39h-2.41v-8.13c0-2.16-1-3.71-2.81-3.71a3.41,3.41,0,0,0-3.07,2.46,3.93,3.93,0,0,0-.19,1.21v8.17h-2.4Z"/><path class="cls-2" d="M467,289c0,3.33,2.16,4.7,4.63,4.7a9.08,9.08,0,0,0,3.75-.69l.43,1.75a11,11,0,0,1-4.51.86c-4.17,0-6.67-2.77-6.67-6.83s2.42-7.31,6.37-7.31c4.42,0,5.58,3.87,5.58,6.37a5.53,5.53,0,0,1-.09,1.15Zm7.2-1.77c0-1.55-.63-4-3.39-4-2.52,0-3.59,2.27-3.78,4Z"/><path class="cls-2" d="M479.62,286c0-1.6,0-3-.11-4.22h2.16l.09,2.66h.09a4.1,4.1,0,0,1,3.77-3,2.52,2.52,0,0,1,.69.07v2.31a4.12,4.12,0,0,0-.84-.07,3.45,3.45,0,0,0-3.3,3.15,6.93,6.93,0,0,0-.1,1.15v7.24h-2.45Z"/><path class="cls-2" d="M491.65,278a1.53,1.53,0,1,1-1.52-1.54A1.49,1.49,0,0,1,491.65,278Zm-2.76,17.37V281.79h2.46v13.55Z"/><path class="cls-2" d="M505.1,294.85a9.46,9.46,0,0,1-3.88.78c-4.09,0-6.76-2.78-6.76-6.92a6.9,6.9,0,0,1,7.28-7.22,8,8,0,0,1,3.42.72l-.55,1.89a6,6,0,0,0-2.88-.65c-3.09,0-4.78,2.32-4.78,5.13,0,3.14,2,5.07,4.72,5.07a7.22,7.22,0,0,0,3-.65Z"/><path class="cls-2" d="M515.53,295.34l-.22-1.71h-.07a5.07,5.07,0,0,1-4.15,2,3.86,3.86,0,0,1-4.13-3.88c0-3.28,2.9-5.08,8.14-5.05v-.28A2.8,2.8,0,0,0,512,283.3a6.63,6.63,0,0,0-3.53,1l-.55-1.64a8.53,8.53,0,0,1,4.46-1.18c4.14,0,5.15,2.83,5.15,5.54v5.07a21.42,21.42,0,0,0,.21,3.24Zm-.39-6.92c-2.66-.06-5.71.42-5.71,3a2.17,2.17,0,0,0,2.3,2.36,3.39,3.39,0,0,0,3.3-2.27,2.7,2.7,0,0,0,.11-.77Z"/><path class="cls-2" d="M521.51,275.46H524v19.88h-2.46Z"/><line class="cls-3" x1="269.96" y1="156.41" x2="208.99" y2="211.02"/><polygon class="cls-4" points="208.47 200.51 210.46 200.69 209.56 210.51 219.42 210.69 219.38 212.69 207.37 212.47 208.47 200.51"/><line class="cls-3" x1="350.72" y1="155.37" x2="419.82" y2="213.07"/><polygon class="cls-4" points="409.49 215.1 409.38 213.1 419.23 212.58 417.99 202.8 419.98 202.55 421.49 214.46 409.49 215.1"/></g></g></svg>