<?xml version="1.0" encoding="utf-8" standalone="no"?>
<!DOCTYPE svg PUBLIC "-//W3C//DTD SVG 1.1//EN"
  "http://www.w3.org/Graphics/SVG/1.1/DTD/svg11.dtd">
<!-- Created with matplotlib (https://matplotlib.org/) -->
<svg height="288pt" version="1.1" viewBox="0 0 432 288" width="432pt" xmlns="http://www.w3.org/2000/svg" xmlns:xlink="http://www.w3.org/1999/xlink">
 <defs>
  <style type="text/css">
*{stroke-linecap:butt;stroke-linejoin:round;}
  </style>
 </defs>
 <g id="figure_1">
  <g id="patch_1">
   <path d="M 0 288 
L 432 288 
L 432 0 
L 0 0 
z
" style="fill:#ffffff;"/>
  </g>
  <g id="axes_1">
   <g id="patch_2">
    <path d="M 54 252 
L 388.8 252 
L 388.8 34.56 
L 54 34.56 
z
" style="fill:#ffffff;"/>
   </g>
   <g id="PathCollection_1">
    <defs>
     <path d="M 0 3 
C 0.795609 3 1.55874 2.683901 2.12132 2.12132 
C 2.683901 1.55874 3 0.795609 3 0 
C 3 -0.795609 2.683901 -1.55874 2.12132 -2.12132 
C 1.55874 -2.683901 0.795609 -3 0 -3 
C -0.795609 -3 -1.55874 -2.683901 -2.12132 -2.12132 
C -2.683901 -1.55874 -3 -0.795609 -3 0 
C -3 0.795609 -2.683901 1.55874 -2.12132 2.12132 
C -1.55874 2.683901 -0.795609 3 0 3 
z
" id="m5d67000d51" style="stroke:#1f77b4;"/>
    </defs>
    <g clip-path="url(#pf9b10f130d)">
     <use style="fill:#1f77b4;stroke:#1f77b4;" x="305.380752" xlink:href="#m5d67000d51" y="58.126345"/>
     <use style="fill:#1f77b4;stroke:#1f77b4;" x="104.815383" xlink:href="#m5d67000d51" y="193.676245"/>
     <use style="fill:#1f77b4;stroke:#1f77b4;" x="310.102894" xlink:href="#m5d67000d51" y="120.98815"/>
     <use style="fill:#1f77b4;stroke:#1f77b4;" x="90.013147" xlink:href="#m5d67000d51" y="224.947792"/>
     <use style="fill:#1f77b4;stroke:#1f77b4;" x="223.014474" xlink:href="#m5d67000d51" y="101.745504"/>
     <use style="fill:#1f77b4;stroke:#1f77b4;" x="184.88472" xlink:href="#m5d67000d51" y="141.431094"/>
     <use style="fill:#1f77b4;stroke:#1f77b4;" x="137.2231" xlink:href="#m5d67000d51" y="176.127362"/>
     <use style="fill:#1f77b4;stroke:#1f77b4;" x="213.737517" xlink:href="#m5d67000d51" y="129.276928"/>
     <use style="fill:#1f77b4;stroke:#1f77b4;" x="282.253182" xlink:href="#m5d67000d51" y="57.226228"/>
     <use style="fill:#1f77b4;stroke:#1f77b4;" x="315.976328" xlink:href="#m5d67000d51" y="87.830195"/>
     <use style="fill:#1f77b4;stroke:#1f77b4;" x="349.050446" xlink:href="#m5d67000d51" y="75.777185"/>
     <use style="fill:#1f77b4;stroke:#1f77b4;" x="145.715021" xlink:href="#m5d67000d51" y="141.696332"/>
     <use style="fill:#1f77b4;stroke:#1f77b4;" x="237.576603" xlink:href="#m5d67000d51" y="93.225414"/>
     <use style="fill:#1f77b4;stroke:#1f77b4;" x="325.069197" xlink:href="#m5d67000d51" y="71.338816"/>
     <use style="fill:#1f77b4;stroke:#1f77b4;" x="101.969633" xlink:href="#m5d67000d51" y="201.711337"/>
     <use style="fill:#1f77b4;stroke:#1f77b4;" x="289.275495" xlink:href="#m5d67000d51" y="104.74489"/>
     <use style="fill:#1f77b4;stroke:#1f77b4;" x="245.946913" xlink:href="#m5d67000d51" y="128.299795"/>
     <use style="fill:#1f77b4;stroke:#1f77b4;" x="282.475954" xlink:href="#m5d67000d51" y="116.87017"/>
     <use style="fill:#1f77b4;stroke:#1f77b4;" x="179.615352" xlink:href="#m5d67000d51" y="115.394362"/>
     <use style="fill:#1f77b4;stroke:#1f77b4;" x="194.748853" xlink:href="#m5d67000d51" y="143.121674"/>
     <use style="fill:#1f77b4;stroke:#1f77b4;" x="188.537364" xlink:href="#m5d67000d51" y="137.039938"/>
     <use style="fill:#1f77b4;stroke:#1f77b4;" x="291.831442" xlink:href="#m5d67000d51" y="114.377813"/>
     <use style="fill:#1f77b4;stroke:#1f77b4;" x="285.99856" xlink:href="#m5d67000d51" y="113.541407"/>
     <use style="fill:#1f77b4;stroke:#1f77b4;" x="295.612773" xlink:href="#m5d67000d51" y="82.012391"/>
     <use style="fill:#1f77b4;stroke:#1f77b4;" x="272.742299" xlink:href="#m5d67000d51" y="113.630566"/>
     <use style="fill:#1f77b4;stroke:#1f77b4;" x="329.442467" xlink:href="#m5d67000d51" y="103.721049"/>
     <use style="fill:#1f77b4;stroke:#1f77b4;" x="322.811391" xlink:href="#m5d67000d51" y="83.738073"/>
     <use style="fill:#1f77b4;stroke:#1f77b4;" x="76.002051" xlink:href="#m5d67000d51" y="195.030337"/>
     <use style="fill:#1f77b4;stroke:#1f77b4;" x="77.147129" xlink:href="#m5d67000d51" y="187.924734"/>
     <use style="fill:#1f77b4;stroke:#1f77b4;" x="315.761946" xlink:href="#m5d67000d51" y="91.618529"/>
     <use style="fill:#1f77b4;stroke:#1f77b4;" x="366.497903" xlink:href="#m5d67000d51" y="128.33998"/>
     <use style="fill:#1f77b4;stroke:#1f77b4;" x="310.771799" xlink:href="#m5d67000d51" y="82.603938"/>
     <use style="fill:#1f77b4;stroke:#1f77b4;" x="157.647641" xlink:href="#m5d67000d51" y="140.775859"/>
     <use style="fill:#1f77b4;stroke:#1f77b4;" x="133.016419" xlink:href="#m5d67000d51" y="144.257987"/>
     <use style="fill:#1f77b4;stroke:#1f77b4;" x="366.922527" xlink:href="#m5d67000d51" y="108.986453"/>
     <use style="fill:#1f77b4;stroke:#1f77b4;" x="195.421265" xlink:href="#m5d67000d51" y="78.361293"/>
     <use style="fill:#1f77b4;stroke:#1f77b4;" x="373.504866" xlink:href="#m5d67000d51" y="117.150599"/>
     <use style="fill:#1f77b4;stroke:#1f77b4;" x="214.648115" xlink:href="#m5d67000d51" y="108.209603"/>
     <use style="fill:#1f77b4;stroke:#1f77b4;" x="176.212325" xlink:href="#m5d67000d51" y="140.4802"/>
     <use style="fill:#1f77b4;stroke:#1f77b4;" x="69.295134" xlink:href="#m5d67000d51" y="221.315868"/>
     <use style="fill:#1f77b4;stroke:#1f77b4;" x="293.90948" xlink:href="#m5d67000d51" y="81.76668"/>
     <use style="fill:#1f77b4;stroke:#1f77b4;" x="125.911169" xlink:href="#m5d67000d51" y="176.461604"/>
     <use style="fill:#1f77b4;stroke:#1f77b4;" x="104.892432" xlink:href="#m5d67000d51" y="234.318949"/>
     <use style="fill:#1f77b4;stroke:#1f77b4;" x="88.733618" xlink:href="#m5d67000d51" y="220.989742"/>
     <use style="fill:#1f77b4;stroke:#1f77b4;" x="373.328013" xlink:href="#m5d67000d51" y="81.114539"/>
     <use style="fill:#1f77b4;stroke:#1f77b4;" x="228.864686" xlink:href="#m5d67000d51" y="70.39326"/>
     <use style="fill:#1f77b4;stroke:#1f77b4;" x="70.579907" xlink:href="#m5d67000d51" y="241.503099"/>
     <use style="fill:#1f77b4;stroke:#1f77b4;" x="250.674064" xlink:href="#m5d67000d51" y="110.903033"/>
     <use style="fill:#1f77b4;stroke:#1f77b4;" x="122.437553" xlink:href="#m5d67000d51" y="141.771368"/>
     <use style="fill:#1f77b4;stroke:#1f77b4;" x="205.06908" xlink:href="#m5d67000d51" y="114.836346"/>
     <use style="fill:#1f77b4;stroke:#1f77b4;" x="135.693914" xlink:href="#m5d67000d51" y="172.317344"/>
     <use style="fill:#1f77b4;stroke:#1f77b4;" x="224.090392" xlink:href="#m5d67000d51" y="150.253544"/>
     <use style="fill:#1f77b4;stroke:#1f77b4;" x="365.01238" xlink:href="#m5d67000d51" y="128.956166"/>
     <use style="fill:#1f77b4;stroke:#1f77b4;" x="347.262125" xlink:href="#m5d67000d51" y="107.745066"/>
     <use style="fill:#1f77b4;stroke:#1f77b4;" x="339.5553" xlink:href="#m5d67000d51" y="100.263094"/>
     <use style="fill:#1f77b4;stroke:#1f77b4;" x="296.337169" xlink:href="#m5d67000d51" y="146.630889"/>
     <use style="fill:#1f77b4;stroke:#1f77b4;" x="75.6976" xlink:href="#m5d67000d51" y="242.050581"/>
     <use style="fill:#1f77b4;stroke:#1f77b4;" x="178.694624" xlink:href="#m5d67000d51" y="133.723746"/>
     <use style="fill:#1f77b4;stroke:#1f77b4;" x="121.532413" xlink:href="#m5d67000d51" y="182.015685"/>
     <use style="fill:#1f77b4;stroke:#1f77b4;" x="199.001626" xlink:href="#m5d67000d51" y="146.569859"/>
     <use style="fill:#1f77b4;stroke:#1f77b4;" x="177.584685" xlink:href="#m5d67000d51" y="149.449976"/>
     <use style="fill:#1f77b4;stroke:#1f77b4;" x="123.003346" xlink:href="#m5d67000d51" y="189.664647"/>
     <use style="fill:#1f77b4;stroke:#1f77b4;" x="87.517684" xlink:href="#m5d67000d51" y="177.221957"/>
     <use style="fill:#1f77b4;stroke:#1f77b4;" x="91.863216" xlink:href="#m5d67000d51" y="158.83582"/>
     <use style="fill:#1f77b4;stroke:#1f77b4;" x="119.012584" xlink:href="#m5d67000d51" y="130.733153"/>
     <use style="fill:#1f77b4;stroke:#1f77b4;" x="344.888676" xlink:href="#m5d67000d51" y="76.834332"/>
     <use style="fill:#1f77b4;stroke:#1f77b4;" x="262.390179" xlink:href="#m5d67000d51" y="91.051045"/>
     <use style="fill:#1f77b4;stroke:#1f77b4;" x="363.034527" xlink:href="#m5d67000d51" y="59.831102"/>
     <use style="fill:#1f77b4;stroke:#1f77b4;" x="205.099424" xlink:href="#m5d67000d51" y="90.694763"/>
     <use style="fill:#1f77b4;stroke:#1f77b4;" x="127.875634" xlink:href="#m5d67000d51" y="137.963231"/>
     <use style="fill:#1f77b4;stroke:#1f77b4;" x="358.201162" xlink:href="#m5d67000d51" y="65.346516"/>
     <use style="fill:#1f77b4;stroke:#1f77b4;" x="315.683704" xlink:href="#m5d67000d51" y="108.804"/>
     <use style="fill:#1f77b4;stroke:#1f77b4;" x="261.020793" xlink:href="#m5d67000d51" y="141.489984"/>
     <use style="fill:#1f77b4;stroke:#1f77b4;" x="298.487155" xlink:href="#m5d67000d51" y="79.54442"/>
     <use style="fill:#1f77b4;stroke:#1f77b4;" x="128.201877" xlink:href="#m5d67000d51" y="170.998627"/>
     <use style="fill:#1f77b4;stroke:#1f77b4;" x="265.158254" xlink:href="#m5d67000d51" y="107.380327"/>
     <use style="fill:#1f77b4;stroke:#1f77b4;" x="176.495979" xlink:href="#m5d67000d51" y="160.279971"/>
     <use style="fill:#1f77b4;stroke:#1f77b4;" x="221.46747" xlink:href="#m5d67000d51" y="148.699849"/>
     <use style="fill:#1f77b4;stroke:#1f77b4;" x="193.616723" xlink:href="#m5d67000d51" y="103.051358"/>
     <use style="fill:#1f77b4;stroke:#1f77b4;" x="83.617071" xlink:href="#m5d67000d51" y="189.991397"/>
     <use style="fill:#1f77b4;stroke:#1f77b4;" x="82.305999" xlink:href="#m5d67000d51" y="223.604773"/>
     <use style="fill:#1f77b4;stroke:#1f77b4;" x="339.48153" xlink:href="#m5d67000d51" y="84.089354"/>
     <use style="fill:#1f77b4;stroke:#1f77b4;" x="113.217579" xlink:href="#m5d67000d51" y="172.296796"/>
     <use style="fill:#1f77b4;stroke:#1f77b4;" x="267.033872" xlink:href="#m5d67000d51" y="94.542597"/>
     <use style="fill:#1f77b4;stroke:#1f77b4;" x="342.840621" xlink:href="#m5d67000d51" y="44.509419"/>
     <use style="fill:#1f77b4;stroke:#1f77b4;" x="255.47712" xlink:href="#m5d67000d51" y="109.77956"/>
     <use style="fill:#1f77b4;stroke:#1f77b4;" x="216.230348" xlink:href="#m5d67000d51" y="150.346448"/>
     <use style="fill:#1f77b4;stroke:#1f77b4;" x="76.87619" xlink:href="#m5d67000d51" y="204.250238"/>
     <use style="fill:#1f77b4;stroke:#1f77b4;" x="259.155049" xlink:href="#m5d67000d51" y="121.7118"/>
     <use style="fill:#1f77b4;stroke:#1f77b4;" x="370.188414" xlink:href="#m5d67000d51" y="79.194398"/>
     <use style="fill:#1f77b4;stroke:#1f77b4;" x="108.224021" xlink:href="#m5d67000d51" y="177.7236"/>
     <use style="fill:#1f77b4;stroke:#1f77b4;" x="339.661362" xlink:href="#m5d67000d51" y="85.009807"/>
     <use style="fill:#1f77b4;stroke:#1f77b4;" x="226.128396" xlink:href="#m5d67000d51" y="131.240574"/>
     <use style="fill:#1f77b4;stroke:#1f77b4;" x="111.231193" xlink:href="#m5d67000d51" y="171.336994"/>
     <use style="fill:#1f77b4;stroke:#1f77b4;" x="214.875239" xlink:href="#m5d67000d51" y="134.496733"/>
     <use style="fill:#1f77b4;stroke:#1f77b4;" x="235.938477" xlink:href="#m5d67000d51" y="104.492973"/>
     <use style="fill:#1f77b4;stroke:#1f77b4;" x="126.53582" xlink:href="#m5d67000d51" y="176.478738"/>
     <use style="fill:#1f77b4;stroke:#1f77b4;" x="367.708328" xlink:href="#m5d67000d51" y="114.771297"/>
     <use style="fill:#1f77b4;stroke:#1f77b4;" x="196.980742" xlink:href="#m5d67000d51" y="120.764814"/>
     <use style="fill:#1f77b4;stroke:#1f77b4;" x="246.828458" xlink:href="#m5d67000d51" y="126.84322"/>
    </g>
   </g>
   <g id="matplotlib.axis_1">
    <g id="xtick_1">
     <g id="line2d_1">
      <defs>
       <path d="M 0 0 
L 0 3.5 
" id="mf5c4019632" style="stroke:#000000;stroke-width:0.8;"/>
      </defs>
      <g>
       <use style="stroke:#000000;stroke-width:0.8;" x="64.850748" xlink:href="#mf5c4019632" y="252"/>
      </g>
     </g>
     <g id="text_1">
      <!-- 0 -->
      <defs>
       <path d="M 31.78125 66.40625 
Q 24.171875 66.40625 20.328125 58.90625 
Q 16.5 51.421875 16.5 36.375 
Q 16.5 21.390625 20.328125 13.890625 
Q 24.171875 6.390625 31.78125 6.390625 
Q 39.453125 6.390625 43.28125 13.890625 
Q 47.125 21.390625 47.125 36.375 
Q 47.125 51.421875 43.28125 58.90625 
Q 39.453125 66.40625 31.78125 66.40625 
z
M 31.78125 74.21875 
Q 44.046875 74.21875 50.515625 64.515625 
Q 56.984375 54.828125 56.984375 36.375 
Q 56.984375 17.96875 50.515625 8.265625 
Q 44.046875 -1.421875 31.78125 -1.421875 
Q 19.53125 -1.421875 13.0625 8.265625 
Q 6.59375 17.96875 6.59375 36.375 
Q 6.59375 54.828125 13.0625 64.515625 
Q 19.53125 74.21875 31.78125 74.21875 
z
" id="DejaVuSans-48"/>
      </defs>
      <g transform="translate(61.669498 266.598437)scale(0.1 -0.1)">
       <use xlink:href="#DejaVuSans-48"/>
      </g>
     </g>
    </g>
    <g id="xtick_2">
     <g id="line2d_2">
      <g>
       <use style="stroke:#000000;stroke-width:0.8;" x="107.789889" xlink:href="#mf5c4019632" y="252"/>
      </g>
     </g>
     <g id="text_2">
      <!-- 5 -->
      <defs>
       <path d="M 10.796875 72.90625 
L 49.515625 72.90625 
L 49.515625 64.59375 
L 19.828125 64.59375 
L 19.828125 46.734375 
Q 21.96875 47.46875 24.109375 47.828125 
Q 26.265625 48.1875 28.421875 48.1875 
Q 40.625 48.1875 47.75 41.5 
Q 54.890625 34.8125 54.890625 23.390625 
Q 54.890625 11.625 47.5625 5.09375 
Q 40.234375 -1.421875 26.90625 -1.421875 
Q 22.3125 -1.421875 17.546875 -0.640625 
Q 12.796875 0.140625 7.71875 1.703125 
L 7.71875 11.625 
Q 12.109375 9.234375 16.796875 8.0625 
Q 21.484375 6.890625 26.703125 6.890625 
Q 35.15625 6.890625 40.078125 11.328125 
Q 45.015625 15.765625 45.015625 23.390625 
Q 45.015625 31 40.078125 35.4375 
Q 35.15625 39.890625 26.703125 39.890625 
Q 22.75 39.890625 18.8125 39.015625 
Q 14.890625 38.140625 10.796875 36.28125 
z
" id="DejaVuSans-53"/>
      </defs>
      <g transform="translate(104.608639 266.598437)scale(0.1 -0.1)">
       <use xlink:href="#DejaVuSans-53"/>
      </g>
     </g>
    </g>
    <g id="xtick_3">
     <g id="line2d_3">
      <g>
       <use style="stroke:#000000;stroke-width:0.8;" x="150.72903" xlink:href="#mf5c4019632" y="252"/>
      </g>
     </g>
     <g id="text_3">
      <!-- 10 -->
      <defs>
       <path d="M 12.40625 8.296875 
L 28.515625 8.296875 
L 28.515625 63.921875 
L 10.984375 60.40625 
L 10.984375 69.390625 
L 28.421875 72.90625 
L 38.28125 72.90625 
L 38.28125 8.296875 
L 54.390625 8.296875 
L 54.390625 0 
L 12.40625 0 
z
" id="DejaVuSans-49"/>
      </defs>
      <g transform="translate(144.36653 266.598437)scale(0.1 -0.1)">
       <use xlink:href="#DejaVuSans-49"/>
       <use x="63.623047" xlink:href="#DejaVuSans-48"/>
      </g>
     </g>
    </g>
    <g id="xtick_4">
     <g id="line2d_4">
      <g>
       <use style="stroke:#000000;stroke-width:0.8;" x="193.668171" xlink:href="#mf5c4019632" y="252"/>
      </g>
     </g>
     <g id="text_4">
      <!-- 15 -->
      <g transform="translate(187.305671 266.598437)scale(0.1 -0.1)">
       <use xlink:href="#DejaVuSans-49"/>
       <use x="63.623047" xlink:href="#DejaVuSans-53"/>
      </g>
     </g>
    </g>
    <g id="xtick_5">
     <g id="line2d_5">
      <g>
       <use style="stroke:#000000;stroke-width:0.8;" x="236.607312" xlink:href="#mf5c4019632" y="252"/>
      </g>
     </g>
     <g id="text_5">
      <!-- 20 -->
      <defs>
       <path d="M 19.1875 8.296875 
L 53.609375 8.296875 
L 53.609375 0 
L 7.328125 0 
L 7.328125 8.296875 
Q 12.9375 14.109375 22.625 23.890625 
Q 32.328125 33.6875 34.8125 36.53125 
Q 39.546875 41.84375 41.421875 45.53125 
Q 43.3125 49.21875 43.3125 52.78125 
Q 43.3125 58.59375 39.234375 62.25 
Q 35.15625 65.921875 28.609375 65.921875 
Q 23.96875 65.921875 18.8125 64.3125 
Q 13.671875 62.703125 7.8125 59.421875 
L 7.8125 69.390625 
Q 13.765625 71.78125 18.9375 73 
Q 24.125 74.21875 28.421875 74.21875 
Q 39.75 74.21875 46.484375 68.546875 
Q 53.21875 62.890625 53.21875 53.421875 
Q 53.21875 48.921875 51.53125 44.890625 
Q 49.859375 40.875 45.40625 35.40625 
Q 44.1875 33.984375 37.640625 27.21875 
Q 31.109375 20.453125 19.1875 8.296875 
z
" id="DejaVuSans-50"/>
      </defs>
      <g transform="translate(230.244812 266.598437)scale(0.1 -0.1)">
       <use xlink:href="#DejaVuSans-50"/>
       <use x="63.623047" xlink:href="#DejaVuSans-48"/>
      </g>
     </g>
    </g>
    <g id="xtick_6">
     <g id="line2d_6">
      <g>
       <use style="stroke:#000000;stroke-width:0.8;" x="279.546453" xlink:href="#mf5c4019632" y="252"/>
      </g>
     </g>
     <g id="text_6">
      <!-- 25 -->
      <g transform="translate(273.183953 266.598437)scale(0.1 -0.1)">
       <use xlink:href="#DejaVuSans-50"/>
       <use x="63.623047" xlink:href="#DejaVuSans-53"/>
      </g>
     </g>
    </g>
    <g id="xtick_7">
     <g id="line2d_7">
      <g>
       <use style="stroke:#000000;stroke-width:0.8;" x="322.485594" xlink:href="#mf5c4019632" y="252"/>
      </g>
     </g>
     <g id="text_7">
      <!-- 30 -->
      <defs>
       <path d="M 40.578125 39.3125 
Q 47.65625 37.796875 51.625 33 
Q 55.609375 28.21875 55.609375 21.1875 
Q 55.609375 10.40625 48.1875 4.484375 
Q 40.765625 -1.421875 27.09375 -1.421875 
Q 22.515625 -1.421875 17.65625 -0.515625 
Q 12.796875 0.390625 7.625 2.203125 
L 7.625 11.71875 
Q 11.71875 9.328125 16.59375 8.109375 
Q 21.484375 6.890625 26.8125 6.890625 
Q 36.078125 6.890625 40.9375 10.546875 
Q 45.796875 14.203125 45.796875 21.1875 
Q 45.796875 27.640625 41.28125 31.265625 
Q 36.765625 34.90625 28.71875 34.90625 
L 20.21875 34.90625 
L 20.21875 43.015625 
L 29.109375 43.015625 
Q 36.375 43.015625 40.234375 45.921875 
Q 44.09375 48.828125 44.09375 54.296875 
Q 44.09375 59.90625 40.109375 62.90625 
Q 36.140625 65.921875 28.71875 65.921875 
Q 24.65625 65.921875 20.015625 65.03125 
Q 15.375 64.15625 9.8125 62.3125 
L 9.8125 71.09375 
Q 15.4375 72.65625 20.34375 73.4375 
Q 25.25 74.21875 29.59375 74.21875 
Q 40.828125 74.21875 47.359375 69.109375 
Q 53.90625 64.015625 53.90625 55.328125 
Q 53.90625 49.265625 50.4375 45.09375 
Q 46.96875 40.921875 40.578125 39.3125 
z
" id="DejaVuSans-51"/>
      </defs>
      <g transform="translate(316.123094 266.598437)scale(0.1 -0.1)">
       <use xlink:href="#DejaVuSans-51"/>
       <use x="63.623047" xlink:href="#DejaVuSans-48"/>
      </g>
     </g>
    </g>
    <g id="xtick_8">
     <g id="line2d_8">
      <g>
       <use style="stroke:#000000;stroke-width:0.8;" x="365.424735" xlink:href="#mf5c4019632" y="252"/>
      </g>
     </g>
     <g id="text_8">
      <!-- 35 -->
      <g transform="translate(359.062235 266.598437)scale(0.1 -0.1)">
       <use xlink:href="#DejaVuSans-51"/>
       <use x="63.623047" xlink:href="#DejaVuSans-53"/>
      </g>
     </g>
    </g>
    <g id="text_9">
     <!-- age (months) -->
     <defs>
      <path d="M 34.28125 27.484375 
Q 23.390625 27.484375 19.1875 25 
Q 14.984375 22.515625 14.984375 16.5 
Q 14.984375 11.71875 18.140625 8.90625 
Q 21.296875 6.109375 26.703125 6.109375 
Q 34.1875 6.109375 38.703125 11.40625 
Q 43.21875 16.703125 43.21875 25.484375 
L 43.21875 27.484375 
z
M 52.203125 31.203125 
L 52.203125 0 
L 43.21875 0 
L 43.21875 8.296875 
Q 40.140625 3.328125 35.546875 0.953125 
Q 30.953125 -1.421875 24.3125 -1.421875 
Q 15.921875 -1.421875 10.953125 3.296875 
Q 6 8.015625 6 15.921875 
Q 6 25.140625 12.171875 29.828125 
Q 18.359375 34.515625 30.609375 34.515625 
L 43.21875 34.515625 
L 43.21875 35.40625 
Q 43.21875 41.609375 39.140625 45 
Q 35.0625 48.390625 27.6875 48.390625 
Q 23 48.390625 18.546875 47.265625 
Q 14.109375 46.140625 10.015625 43.890625 
L 10.015625 52.203125 
Q 14.9375 54.109375 19.578125 55.046875 
Q 24.21875 56 28.609375 56 
Q 40.484375 56 46.34375 49.84375 
Q 52.203125 43.703125 52.203125 31.203125 
z
" id="DejaVuSans-97"/>
      <path d="M 45.40625 27.984375 
Q 45.40625 37.75 41.375 43.109375 
Q 37.359375 48.484375 30.078125 48.484375 
Q 22.859375 48.484375 18.828125 43.109375 
Q 14.796875 37.75 14.796875 27.984375 
Q 14.796875 18.265625 18.828125 12.890625 
Q 22.859375 7.515625 30.078125 7.515625 
Q 37.359375 7.515625 41.375 12.890625 
Q 45.40625 18.265625 45.40625 27.984375 
z
M 54.390625 6.78125 
Q 54.390625 -7.171875 48.1875 -13.984375 
Q 42 -20.796875 29.203125 -20.796875 
Q 24.46875 -20.796875 20.265625 -20.09375 
Q 16.0625 -19.390625 12.109375 -17.921875 
L 12.109375 -9.1875 
Q 16.0625 -11.328125 19.921875 -12.34375 
Q 23.78125 -13.375 27.78125 -13.375 
Q 36.625 -13.375 41.015625 -8.765625 
Q 45.40625 -4.15625 45.40625 5.171875 
L 45.40625 9.625 
Q 42.625 4.78125 38.28125 2.390625 
Q 33.9375 0 27.875 0 
Q 17.828125 0 11.671875 7.65625 
Q 5.515625 15.328125 5.515625 27.984375 
Q 5.515625 40.671875 11.671875 48.328125 
Q 17.828125 56 27.875 56 
Q 33.9375 56 38.28125 53.609375 
Q 42.625 51.21875 45.40625 46.390625 
L 45.40625 54.6875 
L 54.390625 54.6875 
z
" id="DejaVuSans-103"/>
      <path d="M 56.203125 29.59375 
L 56.203125 25.203125 
L 14.890625 25.203125 
Q 15.484375 15.921875 20.484375 11.0625 
Q 25.484375 6.203125 34.421875 6.203125 
Q 39.59375 6.203125 44.453125 7.46875 
Q 49.3125 8.734375 54.109375 11.28125 
L 54.109375 2.78125 
Q 49.265625 0.734375 44.1875 -0.34375 
Q 39.109375 -1.421875 33.890625 -1.421875 
Q 20.796875 -1.421875 13.15625 6.1875 
Q 5.515625 13.8125 5.515625 26.8125 
Q 5.515625 40.234375 12.765625 48.109375 
Q 20.015625 56 32.328125 56 
Q 43.359375 56 49.78125 48.890625 
Q 56.203125 41.796875 56.203125 29.59375 
z
M 47.21875 32.234375 
Q 47.125 39.59375 43.09375 43.984375 
Q 39.0625 48.390625 32.421875 48.390625 
Q 24.90625 48.390625 20.390625 44.140625 
Q 15.875 39.890625 15.1875 32.171875 
z
" id="DejaVuSans-101"/>
      <path id="DejaVuSans-32"/>
      <path d="M 31 75.875 
Q 24.46875 64.65625 21.28125 53.65625 
Q 18.109375 42.671875 18.109375 31.390625 
Q 18.109375 20.125 21.3125 9.0625 
Q 24.515625 -2 31 -13.1875 
L 23.1875 -13.1875 
Q 15.875 -1.703125 12.234375 9.375 
Q 8.59375 20.453125 8.59375 31.390625 
Q 8.59375 42.28125 12.203125 53.3125 
Q 15.828125 64.359375 23.1875 75.875 
z
" id="DejaVuSans-40"/>
      <path d="M 52 44.1875 
Q 55.375 50.25 60.0625 53.125 
Q 64.75 56 71.09375 56 
Q 79.640625 56 84.28125 50.015625 
Q 88.921875 44.046875 88.921875 33.015625 
L 88.921875 0 
L 79.890625 0 
L 79.890625 32.71875 
Q 79.890625 40.578125 77.09375 44.375 
Q 74.3125 48.1875 68.609375 48.1875 
Q 61.625 48.1875 57.5625 43.546875 
Q 53.515625 38.921875 53.515625 30.90625 
L 53.515625 0 
L 44.484375 0 
L 44.484375 32.71875 
Q 44.484375 40.625 41.703125 44.40625 
Q 38.921875 48.1875 33.109375 48.1875 
Q 26.21875 48.1875 22.15625 43.53125 
Q 18.109375 38.875 18.109375 30.90625 
L 18.109375 0 
L 9.078125 0 
L 9.078125 54.6875 
L 18.109375 54.6875 
L 18.109375 46.1875 
Q 21.1875 51.21875 25.484375 53.609375 
Q 29.78125 56 35.6875 56 
Q 41.65625 56 45.828125 52.96875 
Q 50 49.953125 52 44.1875 
z
" id="DejaVuSans-109"/>
      <path d="M 30.609375 48.390625 
Q 23.390625 48.390625 19.1875 42.75 
Q 14.984375 37.109375 14.984375 27.296875 
Q 14.984375 17.484375 19.15625 11.84375 
Q 23.34375 6.203125 30.609375 6.203125 
Q 37.796875 6.203125 41.984375 11.859375 
Q 46.1875 17.53125 46.1875 27.296875 
Q 46.1875 37.015625 41.984375 42.703125 
Q 37.796875 48.390625 30.609375 48.390625 
z
M 30.609375 56 
Q 42.328125 56 49.015625 48.375 
Q 55.71875 40.765625 55.71875 27.296875 
Q 55.71875 13.875 49.015625 6.21875 
Q 42.328125 -1.421875 30.609375 -1.421875 
Q 18.84375 -1.421875 12.171875 6.21875 
Q 5.515625 13.875 5.515625 27.296875 
Q 5.515625 40.765625 12.171875 48.375 
Q 18.84375 56 30.609375 56 
z
" id="DejaVuSans-111"/>
      <path d="M 54.890625 33.015625 
L 54.890625 0 
L 45.90625 0 
L 45.90625 32.71875 
Q 45.90625 40.484375 42.875 44.328125 
Q 39.84375 48.1875 33.796875 48.1875 
Q 26.515625 48.1875 22.3125 43.546875 
Q 18.109375 38.921875 18.109375 30.90625 
L 18.109375 0 
L 9.078125 0 
L 9.078125 54.6875 
L 18.109375 54.6875 
L 18.109375 46.1875 
Q 21.34375 51.125 25.703125 53.5625 
Q 30.078125 56 35.796875 56 
Q 45.21875 56 50.046875 50.171875 
Q 54.890625 44.34375 54.890625 33.015625 
z
" id="DejaVuSans-110"/>
      <path d="M 18.3125 70.21875 
L 18.3125 54.6875 
L 36.8125 54.6875 
L 36.8125 47.703125 
L 18.3125 47.703125 
L 18.3125 18.015625 
Q 18.3125 11.328125 20.140625 9.421875 
Q 21.96875 7.515625 27.59375 7.515625 
L 36.8125 7.515625 
L 36.8125 0 
L 27.59375 0 
Q 17.1875 0 13.234375 3.875 
Q 9.28125 7.765625 9.28125 18.015625 
L 9.28125 47.703125 
L 2.6875 47.703125 
L 2.6875 54.6875 
L 9.28125 54.6875 
L 9.28125 70.21875 
z
" id="DejaVuSans-116"/>
      <path d="M 54.890625 33.015625 
L 54.890625 0 
L 45.90625 0 
L 45.90625 32.71875 
Q 45.90625 40.484375 42.875 44.328125 
Q 39.84375 48.1875 33.796875 48.1875 
Q 26.515625 48.1875 22.3125 43.546875 
Q 18.109375 38.921875 18.109375 30.90625 
L 18.109375 0 
L 9.078125 0 
L 9.078125 75.984375 
L 18.109375 75.984375 
L 18.109375 46.1875 
Q 21.34375 51.125 25.703125 53.5625 
Q 30.078125 56 35.796875 56 
Q 45.21875 56 50.046875 50.171875 
Q 54.890625 44.34375 54.890625 33.015625 
z
" id="DejaVuSans-104"/>
      <path d="M 44.28125 53.078125 
L 44.28125 44.578125 
Q 40.484375 46.53125 36.375 47.5 
Q 32.28125 48.484375 27.875 48.484375 
Q 21.1875 48.484375 17.84375 46.4375 
Q 14.5 44.390625 14.5 40.28125 
Q 14.5 37.15625 16.890625 35.375 
Q 19.28125 33.59375 26.515625 31.984375 
L 29.59375 31.296875 
Q 39.15625 29.25 43.1875 25.515625 
Q 47.21875 21.78125 47.21875 15.09375 
Q 47.21875 7.46875 41.1875 3.015625 
Q 35.15625 -1.421875 24.609375 -1.421875 
Q 20.21875 -1.421875 15.453125 -0.5625 
Q 10.6875 0.296875 5.421875 2 
L 5.421875 11.28125 
Q 10.40625 8.6875 15.234375 7.390625 
Q 20.0625 6.109375 24.8125 6.109375 
Q 31.15625 6.109375 34.5625 8.28125 
Q 37.984375 10.453125 37.984375 14.40625 
Q 37.984375 18.0625 35.515625 20.015625 
Q 33.0625 21.96875 24.703125 23.78125 
L 21.578125 24.515625 
Q 13.234375 26.265625 9.515625 29.90625 
Q 5.8125 33.546875 5.8125 39.890625 
Q 5.8125 47.609375 11.28125 51.796875 
Q 16.75 56 26.8125 56 
Q 31.78125 56 36.171875 55.265625 
Q 40.578125 54.546875 44.28125 53.078125 
z
" id="DejaVuSans-115"/>
      <path d="M 8.015625 75.875 
L 15.828125 75.875 
Q 23.140625 64.359375 26.78125 53.3125 
Q 30.421875 42.28125 30.421875 31.390625 
Q 30.421875 20.453125 26.78125 9.375 
Q 23.140625 -1.703125 15.828125 -13.1875 
L 8.015625 -13.1875 
Q 14.5 -2 17.703125 9.0625 
Q 20.90625 20.125 20.90625 31.390625 
Q 20.90625 42.671875 17.703125 53.65625 
Q 14.5 64.65625 8.015625 75.875 
z
" id="DejaVuSans-41"/>
     </defs>
     <g transform="translate(187.7625 280.276563)scale(0.1 -0.1)">
      <use xlink:href="#DejaVuSans-97"/>
      <use x="61.279297" xlink:href="#DejaVuSans-103"/>
      <use x="124.755859" xlink:href="#DejaVuSans-101"/>
      <use x="186.279297" xlink:href="#DejaVuSans-32"/>
      <use x="218.066406" xlink:href="#DejaVuSans-40"/>
      <use x="257.080078" xlink:href="#DejaVuSans-109"/>
      <use x="354.492188" xlink:href="#DejaVuSans-111"/>
      <use x="415.673828" xlink:href="#DejaVuSans-110"/>
      <use x="479.052734" xlink:href="#DejaVuSans-116"/>
      <use x="518.261719" xlink:href="#DejaVuSans-104"/>
      <use x="581.640625" xlink:href="#DejaVuSans-115"/>
      <use x="633.740234" xlink:href="#DejaVuSans-41"/>
     </g>
    </g>
   </g>
   <g id="matplotlib.axis_2">
    <g id="ytick_1">
     <g id="line2d_9">
      <defs>
       <path d="M 0 0 
L -3.5 0 
" id="m556fbc358c" style="stroke:#000000;stroke-width:0.8;"/>
      </defs>
      <g>
       <use style="stroke:#000000;stroke-width:0.8;" x="54" xlink:href="#m556fbc358c" y="243.445386"/>
      </g>
     </g>
     <g id="text_10">
      <!-- 0 -->
      <g transform="translate(40.6375 247.244604)scale(0.1 -0.1)">
       <use xlink:href="#DejaVuSans-48"/>
      </g>
     </g>
    </g>
    <g id="ytick_2">
     <g id="line2d_10">
      <g>
       <use style="stroke:#000000;stroke-width:0.8;" x="54" xlink:href="#m556fbc358c" y="195.766342"/>
      </g>
     </g>
     <g id="text_11">
      <!-- 10 -->
      <g transform="translate(34.275 199.565561)scale(0.1 -0.1)">
       <use xlink:href="#DejaVuSans-49"/>
       <use x="63.623047" xlink:href="#DejaVuSans-48"/>
      </g>
     </g>
    </g>
    <g id="ytick_3">
     <g id="line2d_11">
      <g>
       <use style="stroke:#000000;stroke-width:0.8;" x="54" xlink:href="#m556fbc358c" y="148.087298"/>
      </g>
     </g>
     <g id="text_12">
      <!-- 20 -->
      <g transform="translate(34.275 151.886517)scale(0.1 -0.1)">
       <use xlink:href="#DejaVuSans-50"/>
       <use x="63.623047" xlink:href="#DejaVuSans-48"/>
      </g>
     </g>
    </g>
    <g id="ytick_4">
     <g id="line2d_12">
      <g>
       <use style="stroke:#000000;stroke-width:0.8;" x="54" xlink:href="#m556fbc358c" y="100.408255"/>
      </g>
     </g>
     <g id="text_13">
      <!-- 30 -->
      <g transform="translate(34.275 104.207474)scale(0.1 -0.1)">
       <use xlink:href="#DejaVuSans-51"/>
       <use x="63.623047" xlink:href="#DejaVuSans-48"/>
      </g>
     </g>
    </g>
    <g id="ytick_5">
     <g id="line2d_13">
      <g>
       <use style="stroke:#000000;stroke-width:0.8;" x="54" xlink:href="#m556fbc358c" y="52.729211"/>
      </g>
     </g>
     <g id="text_14">
      <!-- 40 -->
      <defs>
       <path d="M 37.796875 64.3125 
L 12.890625 25.390625 
L 37.796875 25.390625 
z
M 35.203125 72.90625 
L 47.609375 72.90625 
L 47.609375 25.390625 
L 58.015625 25.390625 
L 58.015625 17.1875 
L 47.609375 17.1875 
L 47.609375 0 
L 37.796875 0 
L 37.796875 17.1875 
L 4.890625 17.1875 
L 4.890625 26.703125 
z
" id="DejaVuSans-52"/>
      </defs>
      <g transform="translate(34.275 56.52843)scale(0.1 -0.1)">
       <use xlink:href="#DejaVuSans-52"/>
       <use x="63.623047" xlink:href="#DejaVuSans-48"/>
      </g>
     </g>
    </g>
    <g id="text_15">
     <!-- weight (lbs) -->
     <defs>
      <path d="M 4.203125 54.6875 
L 13.1875 54.6875 
L 24.421875 12.015625 
L 35.59375 54.6875 
L 46.1875 54.6875 
L 57.421875 12.015625 
L 68.609375 54.6875 
L 77.59375 54.6875 
L 63.28125 0 
L 52.6875 0 
L 40.921875 44.828125 
L 29.109375 0 
L 18.5 0 
z
" id="DejaVuSans-119"/>
      <path d="M 9.421875 54.6875 
L 18.40625 54.6875 
L 18.40625 0 
L 9.421875 0 
z
M 9.421875 75.984375 
L 18.40625 75.984375 
L 18.40625 64.59375 
L 9.421875 64.59375 
z
" id="DejaVuSans-105"/>
      <path d="M 9.421875 75.984375 
L 18.40625 75.984375 
L 18.40625 0 
L 9.421875 0 
z
" id="DejaVuSans-108"/>
      <path d="M 48.6875 27.296875 
Q 48.6875 37.203125 44.609375 42.84375 
Q 40.53125 48.484375 33.40625 48.484375 
Q 26.265625 48.484375 22.1875 42.84375 
Q 18.109375 37.203125 18.109375 27.296875 
Q 18.109375 17.390625 22.1875 11.75 
Q 26.265625 6.109375 33.40625 6.109375 
Q 40.53125 6.109375 44.609375 11.75 
Q 48.6875 17.390625 48.6875 27.296875 
z
M 18.109375 46.390625 
Q 20.953125 51.265625 25.265625 53.625 
Q 29.59375 56 35.59375 56 
Q 45.5625 56 51.78125 48.09375 
Q 58.015625 40.1875 58.015625 27.296875 
Q 58.015625 14.40625 51.78125 6.484375 
Q 45.5625 -1.421875 35.59375 -1.421875 
Q 29.59375 -1.421875 25.265625 0.953125 
Q 20.953125 3.328125 18.109375 8.203125 
L 18.109375 0 
L 9.078125 0 
L 9.078125 75.984375 
L 18.109375 75.984375 
z
" id="DejaVuSans-98"/>
     </defs>
     <g transform="translate(28.195312 172.796406)rotate(-90)scale(0.1 -0.1)">
      <use xlink:href="#DejaVuSans-119"/>
      <use x="81.787109" xlink:href="#DejaVuSans-101"/>
      <use x="143.310547" xlink:href="#DejaVuSans-105"/>
      <use x="171.09375" xlink:href="#DejaVuSans-103"/>
      <use x="234.570312" xlink:href="#DejaVuSans-104"/>
      <use x="297.949219" xlink:href="#DejaVuSans-116"/>
      <use x="337.158203" xlink:href="#DejaVuSans-32"/>
      <use x="368.945312" xlink:href="#DejaVuSans-40"/>
      <use x="407.958984" xlink:href="#DejaVuSans-108"/>
      <use x="435.742188" xlink:href="#DejaVuSans-98"/>
      <use x="499.21875" xlink:href="#DejaVuSans-115"/>
      <use x="551.318359" xlink:href="#DejaVuSans-41"/>
     </g>
    </g>
   </g>
   <g id="patch_3">
    <path d="M 54 252 
L 54 34.56 
" style="fill:none;stroke:#000000;stroke-linecap:square;stroke-linejoin:miter;stroke-width:0.8;"/>
   </g>
   <g id="patch_4">
    <path d="M 388.8 252 
L 388.8 34.56 
" style="fill:none;stroke:#000000;stroke-linecap:square;stroke-linejoin:miter;stroke-width:0.8;"/>
   </g>
   <g id="patch_5">
    <path d="M 54 252 
L 388.8 252 
" style="fill:none;stroke:#000000;stroke-linecap:square;stroke-linejoin:miter;stroke-width:0.8;"/>
   </g>
   <g id="patch_6">
    <path d="M 54 34.56 
L 388.8 34.56 
" style="fill:none;stroke:#000000;stroke-linecap:square;stroke-linejoin:miter;stroke-width:0.8;"/>
   </g>
  </g>
 </g>
 <defs>
  <clipPath id="pf9b10f130d">
   <rect height="217.44" width="334.8" x="54" y="34.56"/>
  </clipPath>
 </defs>
</svg>
