<?xml version="1.0" encoding="utf-8" standalone="no"?>
<!DOCTYPE svg PUBLIC "-//W3C//DTD SVG 1.1//EN"
  "http://www.w3.org/Graphics/SVG/1.1/DTD/svg11.dtd">
<!-- Created with matplotlib (https://matplotlib.org/) -->
<svg height="288pt" version="1.1" viewBox="0 0 432 288" width="432pt" xmlns="http://www.w3.org/2000/svg" xmlns:xlink="http://www.w3.org/1999/xlink">
 <metadata>
  <rdf:RDF xmlns:cc="http://creativecommons.org/ns#" xmlns:dc="http://purl.org/dc/elements/1.1/" xmlns:rdf="http://www.w3.org/1999/02/22-rdf-syntax-ns#">
   <cc:Work>
    <dc:type rdf:resource="http://purl.org/dc/dcmitype/StillImage"/>
    <dc:date>2021-07-10T20:36:49.398585</dc:date>
    <dc:format>image/svg+xml</dc:format>
    <dc:creator>
     <cc:Agent>
      <dc:title>Matplotlib v3.3.2, https://matplotlib.org/</dc:title>
     </cc:Agent>
    </dc:creator>
   </cc:Work>
  </rdf:RDF>
 </metadata>
 <defs>
  <style type="text/css">*{stroke-linecap:butt;stroke-linejoin:round;}</style>
 </defs>
 <g id="figure_1">
  <g id="patch_1">
   <path d="M 0 288 
L 432 288 
L 432 0 
L 0 0 
z
" style="fill:none;"/>
  </g>
  <g id="axes_1">
   <g id="patch_2">
    <path d="M 54 252 
L 388.8 252 
L 388.8 34.56 
L 54 34.56 
z
" style="fill:#ffffff;"/>
   </g>
   <g id="PathCollection_1">
    <defs>
     <path d="M 0 3 
C 0.795609 3 1.55874 2.683901 2.12132 2.12132 
C 2.683901 1.55874 3 0.795609 3 -0 
C 3 -0.795609 2.683901 -1.55874 2.12132 -2.12132 
C 1.55874 -2.683901 0.795609 -3 0 -3 
C -0.795609 -3 -1.55874 -2.683901 -2.12132 -2.12132 
C -2.683901 -1.55874 -3 -0.795609 -3 0 
C -3 0.795609 -2.683901 1.55874 -2.12132 2.12132 
C -1.55874 2.683901 -0.795609 3 0 3 
z
" id="C0_0_fb6c77893e"/>
    </defs>
    <g clip-path="url(#p1d9cee4e5b)">
     <use style="fill:#fde725;stroke:#fde725;" x="243.874108" xlink:href="#C0_0_fb6c77893e" y="168.57941"/>
    </g>
    <g clip-path="url(#p1d9cee4e5b)">
     <use style="fill:#fde725;stroke:#fde725;" x="224.610587" xlink:href="#C0_0_fb6c77893e" y="189.830915"/>
    </g>
    <g clip-path="url(#p1d9cee4e5b)">
     <use style="fill:#fde725;stroke:#fde725;" x="255.432221" xlink:href="#C0_0_fb6c77893e" y="167.90476"/>
    </g>
    <g clip-path="url(#p1d9cee4e5b)">
     <use style="fill:#fde725;stroke:#fde725;" x="271.485155" xlink:href="#C0_0_fb6c77893e" y="132.148259"/>
    </g>
    <g clip-path="url(#p1d9cee4e5b)">
     <use style="fill:#fde725;stroke:#fde725;" x="220.115765" xlink:href="#C0_0_fb6c77893e" y="190.842892"/>
    </g>
    <g clip-path="url(#p1d9cee4e5b)">
     <use style="fill:#fde725;stroke:#fde725;" x="265.063982" xlink:href="#C0_0_fb6c77893e" y="149.857847"/>
    </g>
    <g clip-path="url(#p1d9cee4e5b)">
     <use style="fill:#fde725;stroke:#fde725;" x="209.19977" xlink:href="#C0_0_fb6c77893e" y="175.157257"/>
    </g>
    <g clip-path="url(#p1d9cee4e5b)">
     <use style="fill:#fde725;stroke:#fde725;" x="208.557652" xlink:href="#C0_0_fb6c77893e" y="178.530512"/>
    </g>
    <g clip-path="url(#p1d9cee4e5b)">
     <use style="fill:#fde725;stroke:#fde725;" x="238.737169" xlink:href="#C0_0_fb6c77893e" y="176.000571"/>
    </g>
    <g clip-path="url(#p1d9cee4e5b)">
     <use style="fill:#fde725;stroke:#fde725;" x="249.653165" xlink:href="#C0_0_fb6c77893e" y="141.930698"/>
    </g>
    <g clip-path="url(#p1d9cee4e5b)">
     <use style="fill:#fde725;stroke:#fde725;" x="260.56916" xlink:href="#C0_0_fb6c77893e" y="166.72412"/>
    </g>
    <g clip-path="url(#p1d9cee4e5b)">
     <use style="fill:#fde725;stroke:#fde725;" x="203.420713" xlink:href="#C0_0_fb6c77893e" y="179.373826"/>
    </g>
    <g clip-path="url(#p1d9cee4e5b)">
     <use style="fill:#fde725;stroke:#fde725;" x="224.610587" xlink:href="#C0_0_fb6c77893e" y="169.254061"/>
    </g>
    <g clip-path="url(#p1d9cee4e5b)">
     <use style="fill:#fde725;stroke:#fde725;" x="284.327503" xlink:href="#C0_0_fb6c77893e" y="172.627316"/>
    </g>
    <g clip-path="url(#p1d9cee4e5b)">
     <use style="fill:#fde725;stroke:#fde725;" x="281.116916" xlink:href="#C0_0_fb6c77893e" y="137.208141"/>
    </g>
    <g clip-path="url(#p1d9cee4e5b)">
     <use style="fill:#fde725;stroke:#fde725;" x="234.242348" xlink:href="#C0_0_fb6c77893e" y="140.581396"/>
    </g>
    <g clip-path="url(#p1d9cee4e5b)">
     <use style="fill:#fde725;stroke:#fde725;" x="249.011047" xlink:href="#C0_0_fb6c77893e" y="159.134297"/>
    </g>
    <g clip-path="url(#p1d9cee4e5b)">
     <use style="fill:#fde725;stroke:#fde725;" x="265.706099" xlink:href="#C0_0_fb6c77893e" y="152.387788"/>
    </g>
    <g clip-path="url(#p1d9cee4e5b)">
     <use style="fill:#fde725;stroke:#fde725;" x="299.73832" xlink:href="#C0_0_fb6c77893e" y="116.968613"/>
    </g>
    <g clip-path="url(#p1d9cee4e5b)">
     <use style="fill:#fde725;stroke:#fde725;" x="241.947756" xlink:href="#C0_0_fb6c77893e" y="177.687198"/>
    </g>
    <g clip-path="url(#p1d9cee4e5b)">
     <use style="fill:#fde725;stroke:#fde725;" x="250.937399" xlink:href="#C0_0_fb6c77893e" y="168.410748"/>
    </g>
    <g clip-path="url(#p1d9cee4e5b)">
     <use style="fill:#fde725;stroke:#fde725;" x="202.136479" xlink:href="#C0_0_fb6c77893e" y="187.806962"/>
    </g>
    <g clip-path="url(#p1d9cee4e5b)">
     <use style="fill:#fde725;stroke:#fde725;" x="232.315995" xlink:href="#C0_0_fb6c77893e" y="199.613354"/>
    </g>
    <g clip-path="url(#p1d9cee4e5b)">
     <use style="fill:#fde725;stroke:#fde725;" x="199.568009" xlink:href="#C0_0_fb6c77893e" y="197.420738"/>
    </g>
    <g clip-path="url(#p1d9cee4e5b)">
     <use style="fill:#fde725;stroke:#fde725;" x="214.978826" xlink:href="#C0_0_fb6c77893e" y="204.335911"/>
    </g>
    <g clip-path="url(#p1d9cee4e5b)">
     <use style="fill:#fde725;stroke:#fde725;" x="219.473648" xlink:href="#C0_0_fb6c77893e" y="203.323934"/>
    </g>
    <g clip-path="url(#p1d9cee4e5b)">
     <use style="fill:#fde725;stroke:#fde725;" x="236.1687" xlink:href="#C0_0_fb6c77893e" y="182.74708"/>
    </g>
    <g clip-path="url(#p1d9cee4e5b)">
     <use style="fill:#fde725;stroke:#fde725;" x="188.009896" xlink:href="#C0_0_fb6c77893e" y="197.083413"/>
    </g>
    <g clip-path="url(#p1d9cee4e5b)">
     <use style="fill:#fde725;stroke:#fde725;" x="238.095052" xlink:href="#C0_0_fb6c77893e" y="187.806962"/>
    </g>
    <g clip-path="url(#p1d9cee4e5b)">
     <use style="fill:#fde725;stroke:#fde725;" x="196.99954" xlink:href="#C0_0_fb6c77893e" y="184.433708"/>
    </g>
    <g clip-path="url(#p1d9cee4e5b)">
     <use style="fill:#fde725;stroke:#fde725;" x="256.074338" xlink:href="#C0_0_fb6c77893e" y="167.567434"/>
    </g>
    <g clip-path="url(#p1d9cee4e5b)">
     <use style="fill:#fde725;stroke:#fde725;" x="252.221634" xlink:href="#C0_0_fb6c77893e" y="147.327906"/>
    </g>
    <g clip-path="url(#p1d9cee4e5b)">
     <use style="fill:#fde725;stroke:#fde725;" x="220.115765" xlink:href="#C0_0_fb6c77893e" y="198.938703"/>
    </g>
    <g clip-path="url(#p1d9cee4e5b)">
     <use style="fill:#fde725;stroke:#fde725;" x="223.326352" xlink:href="#C0_0_fb6c77893e" y="172.627316"/>
    </g>
    <g clip-path="url(#p1d9cee4e5b)">
     <use style="fill:#fde725;stroke:#fde725;" x="209.841887" xlink:href="#C0_0_fb6c77893e" y="192.866845"/>
    </g>
    <g clip-path="url(#p1d9cee4e5b)">
     <use style="fill:#fde725;stroke:#fde725;" x="238.737169" xlink:href="#C0_0_fb6c77893e" y="177.687198"/>
    </g>
    <g clip-path="url(#p1d9cee4e5b)">
     <use style="fill:#fde725;stroke:#fde725;" x="219.473648" xlink:href="#C0_0_fb6c77893e" y="186.120335"/>
    </g>
    <g clip-path="url(#p1d9cee4e5b)">
     <use style="fill:#fde725;stroke:#fde725;" x="203.420713" xlink:href="#C0_0_fb6c77893e" y="192.023531"/>
    </g>
    <g clip-path="url(#p1d9cee4e5b)">
     <use style="fill:#fde725;stroke:#fde725;" x="216.905178" xlink:href="#C0_0_fb6c77893e" y="201.299981"/>
    </g>
    <g clip-path="url(#p1d9cee4e5b)">
     <use style="fill:#fde725;stroke:#fde725;" x="242.589873" xlink:href="#C0_0_fb6c77893e" y="177.687198"/>
    </g>
    <g clip-path="url(#p1d9cee4e5b)">
     <use style="fill:#fde725;stroke:#fde725;" x="258.642808" xlink:href="#C0_0_fb6c77893e" y="160.314936"/>
    </g>
    <g clip-path="url(#p1d9cee4e5b)">
     <use style="fill:#fde725;stroke:#fde725;" x="219.473648" xlink:href="#C0_0_fb6c77893e" y="191.517543"/>
    </g>
    <g clip-path="url(#p1d9cee4e5b)">
     <use style="fill:#fde725;stroke:#fde725;" x="275.979977" xlink:href="#C0_0_fb6c77893e" y="172.121328"/>
    </g>
    <g clip-path="url(#p1d9cee4e5b)">
     <use style="fill:#fde725;stroke:#fde725;" x="216.263061" xlink:href="#C0_0_fb6c77893e" y="190.168241"/>
    </g>
    <g clip-path="url(#p1d9cee4e5b)">
     <use style="fill:#fde725;stroke:#fde725;" x="240.021404" xlink:href="#C0_0_fb6c77893e" y="178.699175"/>
    </g>
    <g clip-path="url(#p1d9cee4e5b)">
     <use style="fill:#fde725;stroke:#fde725;" x="217.547296" xlink:href="#C0_0_fb6c77893e" y="175.32592"/>
    </g>
    <g clip-path="url(#p1d9cee4e5b)">
     <use style="fill:#fde725;stroke:#fde725;" x="250.937399" xlink:href="#C0_0_fb6c77893e" y="181.060453"/>
    </g>
    <g clip-path="url(#p1d9cee4e5b)">
     <use style="fill:#fde725;stroke:#fde725;" x="265.063982" xlink:href="#C0_0_fb6c77893e" y="160.820925"/>
    </g>
    <g clip-path="url(#p1d9cee4e5b)">
     <use style="fill:#fde725;stroke:#fde725;" x="234.884465" xlink:href="#C0_0_fb6c77893e" y="159.134297"/>
    </g>
    <g clip-path="url(#p1d9cee4e5b)">
     <use style="fill:#fde725;stroke:#fde725;" x="274.695742" xlink:href="#C0_0_fb6c77893e" y="113.595358"/>
    </g>
    <g clip-path="url(#p1d9cee4e5b)">
     <use style="fill:#fde725;stroke:#fde725;" x="257.358573" xlink:href="#C0_0_fb6c77893e" y="142.268024"/>
    </g>
    <g clip-path="url(#p1d9cee4e5b)">
     <use style="fill:#fde725;stroke:#fde725;" x="239.379287" xlink:href="#C0_0_fb6c77893e" y="169.254061"/>
    </g>
    <g clip-path="url(#p1d9cee4e5b)">
     <use style="fill:#fde725;stroke:#fde725;" x="287.53809" xlink:href="#C0_0_fb6c77893e" y="144.797965"/>
    </g>
    <g clip-path="url(#p1d9cee4e5b)">
     <use style="fill:#fde725;stroke:#fde725;" x="226.536939" xlink:href="#C0_0_fb6c77893e" y="157.44767"/>
    </g>
    <g clip-path="url(#p1d9cee4e5b)">
     <use style="fill:#fde725;stroke:#fde725;" x="233.60023" xlink:href="#C0_0_fb6c77893e" y="165.037493"/>
    </g>
    <g clip-path="url(#p1d9cee4e5b)">
     <use style="fill:#fde725;stroke:#fde725;" x="225.894822" xlink:href="#C0_0_fb6c77893e" y="158.290984"/>
    </g>
    <g clip-path="url(#p1d9cee4e5b)">
     <use style="fill:#fde725;stroke:#fde725;" x="240.021404" xlink:href="#C0_0_fb6c77893e" y="156.098368"/>
    </g>
    <g clip-path="url(#p1d9cee4e5b)">
     <use style="fill:#fde725;stroke:#fde725;" x="254.790104" xlink:href="#C0_0_fb6c77893e" y="162.507552"/>
    </g>
    <g clip-path="url(#p1d9cee4e5b)">
     <use style="fill:#fde725;stroke:#fde725;" x="283.043268" xlink:href="#C0_0_fb6c77893e" y="149.014533"/>
    </g>
    <g clip-path="url(#p1d9cee4e5b)">
     <use style="fill:#21918c;stroke:#21918c;" x="83.986881" xlink:href="#C0_0_fb6c77893e" y="230.81596"/>
    </g>
    <g clip-path="url(#p1d9cee4e5b)">
     <use style="fill:#21918c;stroke:#21918c;" x="117.376985" xlink:href="#C0_0_fb6c77893e" y="208.552479"/>
    </g>
    <g clip-path="url(#p1d9cee4e5b)">
     <use style="fill:#440154;stroke:#440154;" x="137.924741" xlink:href="#C0_0_fb6c77893e" y="166.72412"/>
    </g>
    <g clip-path="url(#p1d9cee4e5b)">
     <use style="fill:#21918c;stroke:#21918c;" x="162.325201" xlink:href="#C0_0_fb6c77893e" y="199.613354"/>
    </g>
    <g clip-path="url(#p1d9cee4e5b)">
     <use style="fill:#21918c;stroke:#21918c;" x="246.442578" xlink:href="#C0_0_fb6c77893e" y="188.650276"/>
    </g>
    <g clip-path="url(#p1d9cee4e5b)">
     <use style="fill:#21918c;stroke:#21918c;" x="159.756732" xlink:href="#C0_0_fb6c77893e" y="213.949687"/>
    </g>
    <g clip-path="url(#p1d9cee4e5b)">
     <use style="fill:#21918c;stroke:#21918c;" x="217.547296" xlink:href="#C0_0_fb6c77893e" y="186.120335"/>
    </g>
    <g clip-path="url(#p1d9cee4e5b)">
     <use style="fill:#21918c;stroke:#21918c;" x="251.579517" xlink:href="#C0_0_fb6c77893e" y="174.313944"/>
    </g>
    <g clip-path="url(#p1d9cee4e5b)">
     <use style="fill:#21918c;stroke:#21918c;" x="175.809666" xlink:href="#C0_0_fb6c77893e" y="184.771033"/>
    </g>
    <g clip-path="url(#p1d9cee4e5b)">
     <use style="fill:#21918c;stroke:#21918c;" x="130.86145" xlink:href="#C0_0_fb6c77893e" y="210.239106"/>
    </g>
    <g clip-path="url(#p1d9cee4e5b)">
     <use style="fill:#21918c;stroke:#21918c;" x="129.577215" xlink:href="#C0_0_fb6c77893e" y="215.636314"/>
    </g>
    <g clip-path="url(#p1d9cee4e5b)">
     <use style="fill:#21918c;stroke:#21918c;" x="112.882163" xlink:href="#C0_0_fb6c77893e" y="212.263059"/>
    </g>
    <g clip-path="url(#p1d9cee4e5b)">
     <use style="fill:#21918c;stroke:#21918c;" x="231.031761" xlink:href="#C0_0_fb6c77893e" y="206.697189"/>
    </g>
    <g clip-path="url(#p1d9cee4e5b)">
     <use style="fill:#21918c;stroke:#21918c;" x="165.535788" xlink:href="#C0_0_fb6c77893e" y="200.62533"/>
    </g>
    <g clip-path="url(#p1d9cee4e5b)">
     <use style="fill:#fde725;stroke:#fde725;" x="232.958113" xlink:href="#C0_0_fb6c77893e" y="207.203177"/>
    </g>
    <g clip-path="url(#p1d9cee4e5b)">
     <use style="fill:#21918c;stroke:#21918c;" x="184.79931" xlink:href="#C0_0_fb6c77893e" y="209.564455"/>
    </g>
    <g clip-path="url(#p1d9cee4e5b)">
     <use style="fill:#21918c;stroke:#21918c;" x="148.198619" xlink:href="#C0_0_fb6c77893e" y="199.613354"/>
    </g>
    <g clip-path="url(#p1d9cee4e5b)">
     <use style="fill:#21918c;stroke:#21918c;" x="177.736018" xlink:href="#C0_0_fb6c77893e" y="186.120335"/>
    </g>
    <g clip-path="url(#p1d9cee4e5b)">
     <use style="fill:#21918c;stroke:#21918c;" x="132.145685" xlink:href="#C0_0_fb6c77893e" y="219.009569"/>
    </g>
    <g clip-path="url(#p1d9cee4e5b)">
     <use style="fill:#21918c;stroke:#21918c;" x="166.177906" xlink:href="#C0_0_fb6c77893e" y="206.359863"/>
    </g>
    <g clip-path="url(#p1d9cee4e5b)">
     <use style="fill:#21918c;stroke:#21918c;" x="211.126122" xlink:href="#C0_0_fb6c77893e" y="220.358871"/>
    </g>
    <g clip-path="url(#p1d9cee4e5b)">
     <use style="fill:#21918c;stroke:#21918c;" x="192.504718" xlink:href="#C0_0_fb6c77893e" y="221.53951"/>
    </g>
    <g clip-path="url(#p1d9cee4e5b)">
     <use style="fill:#21918c;stroke:#21918c;" x="209.841887" xlink:href="#C0_0_fb6c77893e" y="197.926727"/>
    </g>
    <g clip-path="url(#p1d9cee4e5b)">
     <use style="fill:#21918c;stroke:#21918c;" x="148.840736" xlink:href="#C0_0_fb6c77893e" y="226.599392"/>
    </g>
    <g clip-path="url(#p1d9cee4e5b)">
     <use style="fill:#440154;stroke:#440154;" x="149.482854" xlink:href="#C0_0_fb6c77893e" y="182.74708"/>
    </g>
    <g clip-path="url(#p1d9cee4e5b)">
     <use style="fill:#21918c;stroke:#21918c;" x="189.294131" xlink:href="#C0_0_fb6c77893e" y="212.263059"/>
    </g>
    <g clip-path="url(#p1d9cee4e5b)">
     <use style="fill:#21918c;stroke:#21918c;" x="171.956962" xlink:href="#C0_0_fb6c77893e" y="219.515557"/>
    </g>
    <g clip-path="url(#p1d9cee4e5b)">
     <use style="fill:#21918c;stroke:#21918c;" x="155.904028" xlink:href="#C0_0_fb6c77893e" y="222.382823"/>
    </g>
    <g clip-path="url(#p1d9cee4e5b)">
     <use style="fill:#21918c;stroke:#21918c;" x="150.767089" xlink:href="#C0_0_fb6c77893e" y="219.852882"/>
    </g>
    <g clip-path="url(#p1d9cee4e5b)">
     <use style="fill:#21918c;stroke:#21918c;" x="155.904028" xlink:href="#C0_0_fb6c77893e" y="216.479628"/>
    </g>
    <g clip-path="url(#p1d9cee4e5b)">
     <use style="fill:#21918c;stroke:#21918c;" x="149.482854" xlink:href="#C0_0_fb6c77893e" y="234.357878"/>
    </g>
    <g clip-path="url(#p1d9cee4e5b)">
     <use style="fill:#21918c;stroke:#21918c;" x="143.703797" xlink:href="#C0_0_fb6c77893e" y="223.226137"/>
    </g>
    <g clip-path="url(#p1d9cee4e5b)">
     <use style="fill:#21918c;stroke:#21918c;" x="127.650863" xlink:href="#C0_0_fb6c77893e" y="202.986609"/>
    </g>
    <g clip-path="url(#p1d9cee4e5b)">
     <use style="fill:#21918c;stroke:#21918c;" x="141.135328" xlink:href="#C0_0_fb6c77893e" y="212.263059"/>
    </g>
    <g clip-path="url(#p1d9cee4e5b)">
     <use style="fill:#21918c;stroke:#21918c;" x="191.862601" xlink:href="#C0_0_fb6c77893e" y="227.442706"/>
    </g>
    <g clip-path="url(#p1d9cee4e5b)">
     <use style="fill:#21918c;stroke:#21918c;" x="192.504718" xlink:href="#C0_0_fb6c77893e" y="208.889805"/>
    </g>
    <g clip-path="url(#p1d9cee4e5b)">
     <use style="fill:#fde725;stroke:#fde725;" x="193.146835" xlink:href="#C0_0_fb6c77893e" y="219.852882"/>
    </g>
    <g clip-path="url(#p1d9cee4e5b)">
     <use style="fill:#21918c;stroke:#21918c;" x="110.955811" xlink:href="#C0_0_fb6c77893e" y="221.53951"/>
    </g>
    <g clip-path="url(#p1d9cee4e5b)">
     <use style="fill:#21918c;stroke:#21918c;" x="207.915535" xlink:href="#C0_0_fb6c77893e" y="214.793"/>
    </g>
    <g clip-path="url(#p1d9cee4e5b)">
     <use style="fill:#21918c;stroke:#21918c;" x="288.180207" xlink:href="#C0_0_fb6c77893e" y="187.806962"/>
    </g>
    <g clip-path="url(#p1d9cee4e5b)">
     <use style="fill:#21918c;stroke:#21918c;" x="239.379287" xlink:href="#C0_0_fb6c77893e" y="224.912765"/>
    </g>
    <g clip-path="url(#p1d9cee4e5b)">
     <use style="fill:#21918c;stroke:#21918c;" x="186.725662" xlink:href="#C0_0_fb6c77893e" y="208.046491"/>
    </g>
    <g clip-path="url(#p1d9cee4e5b)">
     <use style="fill:#21918c;stroke:#21918c;" x="134.714154" xlink:href="#C0_0_fb6c77893e" y="222.382823"/>
    </g>
    <g clip-path="url(#p1d9cee4e5b)">
     <use style="fill:#21918c;stroke:#21918c;" x="182.872957" xlink:href="#C0_0_fb6c77893e" y="216.479628"/>
    </g>
    <g clip-path="url(#p1d9cee4e5b)">
     <use style="fill:#21918c;stroke:#21918c;" x="152.693441" xlink:href="#C0_0_fb6c77893e" y="228.96067"/>
    </g>
    <g clip-path="url(#p1d9cee4e5b)">
     <use style="fill:#21918c;stroke:#21918c;" x="170.672727" xlink:href="#C0_0_fb6c77893e" y="214.118349"/>
    </g>
    <g clip-path="url(#p1d9cee4e5b)">
     <use style="fill:#21918c;stroke:#21918c;" x="165.535788" xlink:href="#C0_0_fb6c77893e" y="218.166255"/>
    </g>
    <g clip-path="url(#p1d9cee4e5b)">
     <use style="fill:#21918c;stroke:#21918c;" x="177.736018" xlink:href="#C0_0_fb6c77893e" y="206.359863"/>
    </g>
    <g clip-path="url(#p1d9cee4e5b)">
     <use style="fill:#21918c;stroke:#21918c;" x="160.398849" xlink:href="#C0_0_fb6c77893e" y="208.046491"/>
    </g>
    <g clip-path="url(#p1d9cee4e5b)">
     <use style="fill:#21918c;stroke:#21918c;" x="178.378136" xlink:href="#C0_0_fb6c77893e" y="218.166255"/>
    </g>
    <g clip-path="url(#p1d9cee4e5b)">
     <use style="fill:#21918c;stroke:#21918c;" x="234.884465" xlink:href="#C0_0_fb6c77893e" y="219.009569"/>
    </g>
    <g clip-path="url(#p1d9cee4e5b)">
     <use style="fill:#21918c;stroke:#21918c;" x="213.052474" xlink:href="#C0_0_fb6c77893e" y="214.793"/>
    </g>
    <g clip-path="url(#p1d9cee4e5b)">
     <use style="fill:#21918c;stroke:#21918c;" x="193.146835" xlink:href="#C0_0_fb6c77893e" y="229.972647"/>
    </g>
    <g clip-path="url(#p1d9cee4e5b)">
     <use style="fill:#21918c;stroke:#21918c;" x="177.736018" xlink:href="#C0_0_fb6c77893e" y="199.613354"/>
    </g>
    <g clip-path="url(#p1d9cee4e5b)">
     <use style="fill:#21918c;stroke:#21918c;" x="176.451784" xlink:href="#C0_0_fb6c77893e" y="211.757071"/>
    </g>
    <g clip-path="url(#p1d9cee4e5b)">
     <use style="fill:#21918c;stroke:#21918c;" x="194.43107" xlink:href="#C0_0_fb6c77893e" y="214.793"/>
    </g>
    <g clip-path="url(#p1d9cee4e5b)">
     <use style="fill:#21918c;stroke:#21918c;" x="186.725662" xlink:href="#C0_0_fb6c77893e" y="231.659274"/>
    </g>
    <g clip-path="url(#p1d9cee4e5b)">
     <use style="fill:#21918c;stroke:#21918c;" x="150.124971" xlink:href="#C0_0_fb6c77893e" y="230.81596"/>
    </g>
    <g clip-path="url(#p1d9cee4e5b)">
     <use style="fill:#21918c;stroke:#21918c;" x="181.588723" xlink:href="#C0_0_fb6c77893e" y="228.96067"/>
    </g>
    <g clip-path="url(#p1d9cee4e5b)">
     <use style="fill:#440154;stroke:#440154;" x="127.650863" xlink:href="#C0_0_fb6c77893e" y="206.359863"/>
    </g>
    <g clip-path="url(#p1d9cee4e5b)">
     <use style="fill:#21918c;stroke:#21918c;" x="152.693441" xlink:href="#C0_0_fb6c77893e" y="242.116364"/>
    </g>
    <g clip-path="url(#p1d9cee4e5b)">
     <use style="fill:#21918c;stroke:#21918c;" x="226.536939" xlink:href="#C0_0_fb6c77893e" y="208.889805"/>
    </g>
    <g clip-path="url(#p1d9cee4e5b)">
     <use style="fill:#21918c;stroke:#21918c;" x="373.581818" xlink:href="#C0_0_fb6c77893e" y="162.507552"/>
    </g>
    <g clip-path="url(#p1d9cee4e5b)">
     <use style="fill:#21918c;stroke:#21918c;" x="184.157192" xlink:href="#C0_0_fb6c77893e" y="228.623345"/>
    </g>
    <g clip-path="url(#p1d9cee4e5b)">
     <use style="fill:#21918c;stroke:#21918c;" x="217.547296" xlink:href="#C0_0_fb6c77893e" y="219.852882"/>
    </g>
    <g clip-path="url(#p1d9cee4e5b)">
     <use style="fill:#21918c;stroke:#21918c;" x="241.947756" xlink:href="#C0_0_fb6c77893e" y="216.479628"/>
    </g>
    <g clip-path="url(#p1d9cee4e5b)">
     <use style="fill:#21918c;stroke:#21918c;" x="217.547296" xlink:href="#C0_0_fb6c77893e" y="217.154279"/>
    </g>
    <g clip-path="url(#p1d9cee4e5b)">
     <use style="fill:#21918c;stroke:#21918c;" x="249.653165" xlink:href="#C0_0_fb6c77893e" y="197.252076"/>
    </g>
    <g clip-path="url(#p1d9cee4e5b)">
     <use style="fill:#21918c;stroke:#21918c;" x="191.220483" xlink:href="#C0_0_fb6c77893e" y="213.106373"/>
    </g>
    <g clip-path="url(#p1d9cee4e5b)">
     <use style="fill:#21918c;stroke:#21918c;" x="204.704948" xlink:href="#C0_0_fb6c77893e" y="227.948694"/>
    </g>
    <g clip-path="url(#p1d9cee4e5b)">
     <use style="fill:#21918c;stroke:#21918c;" x="159.756732" xlink:href="#C0_0_fb6c77893e" y="219.852882"/>
    </g>
    <g clip-path="url(#p1d9cee4e5b)">
     <use style="fill:#440154;stroke:#440154;" x="127.650863" xlink:href="#C0_0_fb6c77893e" y="194.553472"/>
    </g>
    <g clip-path="url(#p1d9cee4e5b)">
     <use style="fill:#440154;stroke:#440154;" x="125.724511" xlink:href="#C0_0_fb6c77893e" y="172.627316"/>
    </g>
    <g clip-path="url(#p1d9cee4e5b)">
     <use style="fill:#440154;stroke:#440154;" x="117.376985" xlink:href="#C0_0_fb6c77893e" y="167.567434"/>
    </g>
    <g clip-path="url(#p1d9cee4e5b)">
     <use style="fill:#440154;stroke:#440154;" x="124.440276" xlink:href="#C0_0_fb6c77893e" y="179.373826"/>
    </g>
    <g clip-path="url(#p1d9cee4e5b)">
     <use style="fill:#440154;stroke:#440154;" x="84.628999" xlink:href="#C0_0_fb6c77893e" y="171.784002"/>
    </g>
    <g clip-path="url(#p1d9cee4e5b)">
     <use style="fill:#440154;stroke:#440154;" x="89.765938" xlink:href="#C0_0_fb6c77893e" y="143.954651"/>
    </g>
    <g clip-path="url(#p1d9cee4e5b)">
     <use style="fill:#440154;stroke:#440154;" x="77.565708" xlink:href="#C0_0_fb6c77893e" y="198.77004"/>
    </g>
    <g clip-path="url(#p1d9cee4e5b)">
     <use style="fill:#440154;stroke:#440154;" x="85.913234" xlink:href="#C0_0_fb6c77893e" y="179.373826"/>
    </g>
    <g clip-path="url(#p1d9cee4e5b)">
     <use style="fill:#440154;stroke:#440154;" x="78.207825" xlink:href="#C0_0_fb6c77893e" y="167.567434"/>
    </g>
    <g clip-path="url(#p1d9cee4e5b)">
     <use style="fill:#440154;stroke:#440154;" x="85.913234" xlink:href="#C0_0_fb6c77893e" y="180.723128"/>
    </g>
    <g clip-path="url(#p1d9cee4e5b)">
     <use style="fill:#440154;stroke:#440154;" x="79.49206" xlink:href="#C0_0_fb6c77893e" y="186.120335"/>
    </g>
    <g clip-path="url(#p1d9cee4e5b)">
     <use style="fill:#440154;stroke:#440154;" x="79.49206" xlink:href="#C0_0_fb6c77893e" y="169.254061"/>
    </g>
    <g clip-path="url(#p1d9cee4e5b)">
     <use style="fill:#440154;stroke:#440154;" x="80.776295" xlink:href="#C0_0_fb6c77893e" y="190.336904"/>
    </g>
    <g clip-path="url(#p1d9cee4e5b)">
     <use style="fill:#440154;stroke:#440154;" x="98.755581" xlink:href="#C0_0_fb6c77893e" y="189.49359"/>
    </g>
    <g clip-path="url(#p1d9cee4e5b)">
     <use style="fill:#440154;stroke:#440154;" x="97.471346" xlink:href="#C0_0_fb6c77893e" y="125.233087"/>
    </g>
    <g clip-path="url(#p1d9cee4e5b)">
     <use style="fill:#440154;stroke:#440154;" x="82.702647" xlink:href="#C0_0_fb6c77893e" y="196.240099"/>
    </g>
    <g clip-path="url(#p1d9cee4e5b)">
     <use style="fill:#440154;stroke:#440154;" x="69.218182" xlink:href="#C0_0_fb6c77893e" y="181.060453"/>
    </g>
    <g clip-path="url(#p1d9cee4e5b)">
     <use style="fill:#440154;stroke:#440154;" x="89.12382" xlink:href="#C0_0_fb6c77893e" y="134.6782"/>
    </g>
    <g clip-path="url(#p1d9cee4e5b)">
     <use style="fill:#440154;stroke:#440154;" x="96.187112" xlink:href="#C0_0_fb6c77893e" y="121.69117"/>
    </g>
    <g clip-path="url(#p1d9cee4e5b)">
     <use style="fill:#440154;stroke:#440154;" x="136.640506" xlink:href="#C0_0_fb6c77893e" y="105.162222"/>
    </g>
    <g clip-path="url(#p1d9cee4e5b)">
     <use style="fill:#440154;stroke:#440154;" x="148.198619" xlink:href="#C0_0_fb6c77893e" y="118.65524"/>
    </g>
    <g clip-path="url(#p1d9cee4e5b)">
     <use style="fill:#440154;stroke:#440154;" x="134.714154" xlink:href="#C0_0_fb6c77893e" y="81.549438"/>
    </g>
    <g clip-path="url(#p1d9cee4e5b)">
     <use style="fill:#440154;stroke:#440154;" x="129.577215" xlink:href="#C0_0_fb6c77893e" y="143.954651"/>
    </g>
    <g clip-path="url(#p1d9cee4e5b)">
     <use style="fill:#440154;stroke:#440154;" x="100.681933" xlink:href="#C0_0_fb6c77893e" y="86.271995"/>
    </g>
    <g clip-path="url(#p1d9cee4e5b)">
     <use style="fill:#440154;stroke:#440154;" x="84.628999" xlink:href="#C0_0_fb6c77893e" y="135.521514"/>
    </g>
    <g clip-path="url(#p1d9cee4e5b)">
     <use style="fill:#440154;stroke:#440154;" x="87.839586" xlink:href="#C0_0_fb6c77893e" y="130.461632"/>
    </g>
    <g clip-path="url(#p1d9cee4e5b)">
     <use style="fill:#440154;stroke:#440154;" x="100.681933" xlink:href="#C0_0_fb6c77893e" y="111.740068"/>
    </g>
    <g clip-path="url(#p1d9cee4e5b)">
     <use style="fill:#440154;stroke:#440154;" x="84.628999" xlink:href="#C0_0_fb6c77893e" y="137.208141"/>
    </g>
    <g clip-path="url(#p1d9cee4e5b)">
     <use style="fill:#440154;stroke:#440154;" x="131.503567" xlink:href="#C0_0_fb6c77893e" y="44.443636"/>
    </g>
    <g clip-path="url(#p1d9cee4e5b)">
     <use style="fill:#440154;stroke:#440154;" x="118.019102" xlink:href="#C0_0_fb6c77893e" y="65.526478"/>
    </g>
    <g clip-path="url(#p1d9cee4e5b)">
     <use style="fill:#440154;stroke:#440154;" x="106.46099" xlink:href="#C0_0_fb6c77893e" y="134.6782"/>
    </g>
    <g clip-path="url(#p1d9cee4e5b)">
     <use style="fill:#440154;stroke:#440154;" x="83.344764" xlink:href="#C0_0_fb6c77893e" y="164.531505"/>
    </g>
    <g clip-path="url(#p1d9cee4e5b)">
     <use style="fill:#440154;stroke:#440154;" x="85.913234" xlink:href="#C0_0_fb6c77893e" y="169.591387"/>
    </g>
    <g clip-path="url(#p1d9cee4e5b)">
     <use style="fill:#440154;stroke:#440154;" x="92.334407" xlink:href="#C0_0_fb6c77893e" y="174.651269"/>
    </g>
    <g clip-path="url(#p1d9cee4e5b)">
     <use style="fill:#440154;stroke:#440154;" x="91.050173" xlink:href="#C0_0_fb6c77893e" y="102.126292"/>
    </g>
    <g clip-path="url(#p1d9cee4e5b)">
     <use style="fill:#440154;stroke:#440154;" x="77.565708" xlink:href="#C0_0_fb6c77893e" y="152.050462"/>
    </g>
    <g clip-path="url(#p1d9cee4e5b)">
     <use style="fill:#440154;stroke:#440154;" x="106.46099" xlink:href="#C0_0_fb6c77893e" y="83.573391"/>
    </g>
    <g clip-path="url(#p1d9cee4e5b)">
     <use style="fill:#440154;stroke:#440154;" x="89.765938" xlink:href="#C0_0_fb6c77893e" y="90.657226"/>
    </g>
    <g clip-path="url(#p1d9cee4e5b)">
     <use style="fill:#440154;stroke:#440154;" x="101.324051" xlink:href="#C0_0_fb6c77893e" y="117.643264"/>
    </g>
    <g clip-path="url(#p1d9cee4e5b)">
     <use style="fill:#440154;stroke:#440154;" x="109.029459" xlink:href="#C0_0_fb6c77893e" y="120.341868"/>
    </g>
    <g clip-path="url(#p1d9cee4e5b)">
     <use style="fill:#440154;stroke:#440154;" x="78.849942" xlink:href="#C0_0_fb6c77893e" y="170.940689"/>
    </g>
    <g clip-path="url(#p1d9cee4e5b)">
     <use style="fill:#440154;stroke:#440154;" x="80.134177" xlink:href="#C0_0_fb6c77893e" y="96.729102"/>
    </g>
    <g clip-path="url(#p1d9cee4e5b)">
     <use style="fill:#440154;stroke:#440154;" x="92.334407" xlink:href="#C0_0_fb6c77893e" y="100.102339"/>
    </g>
    <g clip-path="url(#p1d9cee4e5b)">
     <use style="fill:#440154;stroke:#440154;" x="86.555351" xlink:href="#C0_0_fb6c77893e" y="133.834887"/>
    </g>
    <g clip-path="url(#p1d9cee4e5b)">
     <use style="fill:#440154;stroke:#440154;" x="95.544994" xlink:href="#C0_0_fb6c77893e" y="140.581396"/>
    </g>
    <g clip-path="url(#p1d9cee4e5b)">
     <use style="fill:#440154;stroke:#440154;" x="91.69229" xlink:href="#C0_0_fb6c77893e" y="91.669203"/>
    </g>
    <g clip-path="url(#p1d9cee4e5b)">
     <use style="fill:#440154;stroke:#440154;" x="91.050173" xlink:href="#C0_0_fb6c77893e" y="106.848849"/>
    </g>
    <g clip-path="url(#p1d9cee4e5b)">
     <use style="fill:#440154;stroke:#440154;" x="96.187112" xlink:href="#C0_0_fb6c77893e" y="108.535476"/>
    </g>
   </g>
   <g id="matplotlib.axis_1">
    <g id="xtick_1">
     <g id="line2d_1">
      <defs>
       <path d="M 0 0 
L 0 3.5 
" id="m2ccb77ed67" style="stroke:#000000;stroke-width:0.8;"/>
      </defs>
      <g>
       <use style="stroke:#000000;stroke-width:0.8;" x="113.731088" xlink:href="#m2ccb77ed67" y="252"/>
      </g>
     </g>
     <g id="text_1">
      <!-- −1 -->
      <g transform="translate(106.359995 266.598437)scale(0.1 -0.1)">
       <defs>
        <path d="M 10.59375 35.5 
L 73.1875 35.5 
L 73.1875 27.203125 
L 10.59375 27.203125 
z
" id="DejaVuSans-8722"/>
        <path d="M 12.40625 8.296875 
L 28.515625 8.296875 
L 28.515625 63.921875 
L 10.984375 60.40625 
L 10.984375 69.390625 
L 28.421875 72.90625 
L 38.28125 72.90625 
L 38.28125 8.296875 
L 54.390625 8.296875 
L 54.390625 0 
L 12.40625 0 
z
" id="DejaVuSans-49"/>
       </defs>
       <use xlink:href="#DejaVuSans-8722"/>
       <use x="83.789062" xlink:href="#DejaVuSans-49"/>
      </g>
     </g>
    </g>
    <g id="xtick_2">
     <g id="line2d_2">
      <g>
       <use style="stroke:#000000;stroke-width:0.8;" x="177.689122" xlink:href="#m2ccb77ed67" y="252"/>
      </g>
     </g>
     <g id="text_2">
      <!-- 0 -->
      <g transform="translate(174.507872 266.598437)scale(0.1 -0.1)">
       <defs>
        <path d="M 31.78125 66.40625 
Q 24.171875 66.40625 20.328125 58.90625 
Q 16.5 51.421875 16.5 36.375 
Q 16.5 21.390625 20.328125 13.890625 
Q 24.171875 6.390625 31.78125 6.390625 
Q 39.453125 6.390625 43.28125 13.890625 
Q 47.125 21.390625 47.125 36.375 
Q 47.125 51.421875 43.28125 58.90625 
Q 39.453125 66.40625 31.78125 66.40625 
z
M 31.78125 74.21875 
Q 44.046875 74.21875 50.515625 64.515625 
Q 56.984375 54.828125 56.984375 36.375 
Q 56.984375 17.96875 50.515625 8.265625 
Q 44.046875 -1.421875 31.78125 -1.421875 
Q 19.53125 -1.421875 13.0625 8.265625 
Q 6.59375 17.96875 6.59375 36.375 
Q 6.59375 54.828125 13.0625 64.515625 
Q 19.53125 74.21875 31.78125 74.21875 
z
" id="DejaVuSans-48"/>
       </defs>
       <use xlink:href="#DejaVuSans-48"/>
      </g>
     </g>
    </g>
    <g id="xtick_3">
     <g id="line2d_3">
      <g>
       <use style="stroke:#000000;stroke-width:0.8;" x="241.647156" xlink:href="#m2ccb77ed67" y="252"/>
      </g>
     </g>
     <g id="text_3">
      <!-- 1 -->
      <g transform="translate(238.465906 266.598437)scale(0.1 -0.1)">
       <use xlink:href="#DejaVuSans-49"/>
      </g>
     </g>
    </g>
    <g id="xtick_4">
     <g id="line2d_4">
      <g>
       <use style="stroke:#000000;stroke-width:0.8;" x="305.60519" xlink:href="#m2ccb77ed67" y="252"/>
      </g>
     </g>
     <g id="text_4">
      <!-- 2 -->
      <g transform="translate(302.42394 266.598437)scale(0.1 -0.1)">
       <defs>
        <path d="M 19.1875 8.296875 
L 53.609375 8.296875 
L 53.609375 0 
L 7.328125 0 
L 7.328125 8.296875 
Q 12.9375 14.109375 22.625 23.890625 
Q 32.328125 33.6875 34.8125 36.53125 
Q 39.546875 41.84375 41.421875 45.53125 
Q 43.3125 49.21875 43.3125 52.78125 
Q 43.3125 58.59375 39.234375 62.25 
Q 35.15625 65.921875 28.609375 65.921875 
Q 23.96875 65.921875 18.8125 64.3125 
Q 13.671875 62.703125 7.8125 59.421875 
L 7.8125 69.390625 
Q 13.765625 71.78125 18.9375 73 
Q 24.125 74.21875 28.421875 74.21875 
Q 39.75 74.21875 46.484375 68.546875 
Q 53.21875 62.890625 53.21875 53.421875 
Q 53.21875 48.921875 51.53125 44.890625 
Q 49.859375 40.875 45.40625 35.40625 
Q 44.1875 33.984375 37.640625 27.21875 
Q 31.109375 20.453125 19.1875 8.296875 
z
" id="DejaVuSans-50"/>
       </defs>
       <use xlink:href="#DejaVuSans-50"/>
      </g>
     </g>
    </g>
    <g id="xtick_5">
     <g id="line2d_5">
      <g>
       <use style="stroke:#000000;stroke-width:0.8;" x="369.563224" xlink:href="#m2ccb77ed67" y="252"/>
      </g>
     </g>
     <g id="text_5">
      <!-- 3 -->
      <g transform="translate(366.381974 266.598437)scale(0.1 -0.1)">
       <defs>
        <path d="M 40.578125 39.3125 
Q 47.65625 37.796875 51.625 33 
Q 55.609375 28.21875 55.609375 21.1875 
Q 55.609375 10.40625 48.1875 4.484375 
Q 40.765625 -1.421875 27.09375 -1.421875 
Q 22.515625 -1.421875 17.65625 -0.515625 
Q 12.796875 0.390625 7.625 2.203125 
L 7.625 11.71875 
Q 11.71875 9.328125 16.59375 8.109375 
Q 21.484375 6.890625 26.8125 6.890625 
Q 36.078125 6.890625 40.9375 10.546875 
Q 45.796875 14.203125 45.796875 21.1875 
Q 45.796875 27.640625 41.28125 31.265625 
Q 36.765625 34.90625 28.71875 34.90625 
L 20.21875 34.90625 
L 20.21875 43.015625 
L 29.109375 43.015625 
Q 36.375 43.015625 40.234375 45.921875 
Q 44.09375 48.828125 44.09375 54.296875 
Q 44.09375 59.90625 40.109375 62.90625 
Q 36.140625 65.921875 28.71875 65.921875 
Q 24.65625 65.921875 20.015625 65.03125 
Q 15.375 64.15625 9.8125 62.3125 
L 9.8125 71.09375 
Q 15.4375 72.65625 20.34375 73.4375 
Q 25.25 74.21875 29.59375 74.21875 
Q 40.828125 74.21875 47.359375 69.109375 
Q 53.90625 64.015625 53.90625 55.328125 
Q 53.90625 49.265625 50.4375 45.09375 
Q 46.96875 40.921875 40.578125 39.3125 
z
" id="DejaVuSans-51"/>
       </defs>
       <use xlink:href="#DejaVuSans-51"/>
      </g>
     </g>
    </g>
    <g id="text_6">
     <!-- Flavanoids -->
     <g transform="translate(194.651563 280.276563)scale(0.1 -0.1)">
      <defs>
       <path d="M 9.8125 72.90625 
L 51.703125 72.90625 
L 51.703125 64.59375 
L 19.671875 64.59375 
L 19.671875 43.109375 
L 48.578125 43.109375 
L 48.578125 34.8125 
L 19.671875 34.8125 
L 19.671875 0 
L 9.8125 0 
z
" id="DejaVuSans-70"/>
       <path d="M 9.421875 75.984375 
L 18.40625 75.984375 
L 18.40625 0 
L 9.421875 0 
z
" id="DejaVuSans-108"/>
       <path d="M 34.28125 27.484375 
Q 23.390625 27.484375 19.1875 25 
Q 14.984375 22.515625 14.984375 16.5 
Q 14.984375 11.71875 18.140625 8.90625 
Q 21.296875 6.109375 26.703125 6.109375 
Q 34.1875 6.109375 38.703125 11.40625 
Q 43.21875 16.703125 43.21875 25.484375 
L 43.21875 27.484375 
z
M 52.203125 31.203125 
L 52.203125 0 
L 43.21875 0 
L 43.21875 8.296875 
Q 40.140625 3.328125 35.546875 0.953125 
Q 30.953125 -1.421875 24.3125 -1.421875 
Q 15.921875 -1.421875 10.953125 3.296875 
Q 6 8.015625 6 15.921875 
Q 6 25.140625 12.171875 29.828125 
Q 18.359375 34.515625 30.609375 34.515625 
L 43.21875 34.515625 
L 43.21875 35.40625 
Q 43.21875 41.609375 39.140625 45 
Q 35.0625 48.390625 27.6875 48.390625 
Q 23 48.390625 18.546875 47.265625 
Q 14.109375 46.140625 10.015625 43.890625 
L 10.015625 52.203125 
Q 14.9375 54.109375 19.578125 55.046875 
Q 24.21875 56 28.609375 56 
Q 40.484375 56 46.34375 49.84375 
Q 52.203125 43.703125 52.203125 31.203125 
z
" id="DejaVuSans-97"/>
       <path d="M 2.984375 54.6875 
L 12.5 54.6875 
L 29.59375 8.796875 
L 46.6875 54.6875 
L 56.203125 54.6875 
L 35.6875 0 
L 23.484375 0 
z
" id="DejaVuSans-118"/>
       <path d="M 54.890625 33.015625 
L 54.890625 0 
L 45.90625 0 
L 45.90625 32.71875 
Q 45.90625 40.484375 42.875 44.328125 
Q 39.84375 48.1875 33.796875 48.1875 
Q 26.515625 48.1875 22.3125 43.546875 
Q 18.109375 38.921875 18.109375 30.90625 
L 18.109375 0 
L 9.078125 0 
L 9.078125 54.6875 
L 18.109375 54.6875 
L 18.109375 46.1875 
Q 21.34375 51.125 25.703125 53.5625 
Q 30.078125 56 35.796875 56 
Q 45.21875 56 50.046875 50.171875 
Q 54.890625 44.34375 54.890625 33.015625 
z
" id="DejaVuSans-110"/>
       <path d="M 30.609375 48.390625 
Q 23.390625 48.390625 19.1875 42.75 
Q 14.984375 37.109375 14.984375 27.296875 
Q 14.984375 17.484375 19.15625 11.84375 
Q 23.34375 6.203125 30.609375 6.203125 
Q 37.796875 6.203125 41.984375 11.859375 
Q 46.1875 17.53125 46.1875 27.296875 
Q 46.1875 37.015625 41.984375 42.703125 
Q 37.796875 48.390625 30.609375 48.390625 
z
M 30.609375 56 
Q 42.328125 56 49.015625 48.375 
Q 55.71875 40.765625 55.71875 27.296875 
Q 55.71875 13.875 49.015625 6.21875 
Q 42.328125 -1.421875 30.609375 -1.421875 
Q 18.84375 -1.421875 12.171875 6.21875 
Q 5.515625 13.875 5.515625 27.296875 
Q 5.515625 40.765625 12.171875 48.375 
Q 18.84375 56 30.609375 56 
z
" id="DejaVuSans-111"/>
       <path d="M 9.421875 54.6875 
L 18.40625 54.6875 
L 18.40625 0 
L 9.421875 0 
z
M 9.421875 75.984375 
L 18.40625 75.984375 
L 18.40625 64.59375 
L 9.421875 64.59375 
z
" id="DejaVuSans-105"/>
       <path d="M 45.40625 46.390625 
L 45.40625 75.984375 
L 54.390625 75.984375 
L 54.390625 0 
L 45.40625 0 
L 45.40625 8.203125 
Q 42.578125 3.328125 38.25 0.953125 
Q 33.9375 -1.421875 27.875 -1.421875 
Q 17.96875 -1.421875 11.734375 6.484375 
Q 5.515625 14.40625 5.515625 27.296875 
Q 5.515625 40.1875 11.734375 48.09375 
Q 17.96875 56 27.875 56 
Q 33.9375 56 38.25 53.625 
Q 42.578125 51.265625 45.40625 46.390625 
z
M 14.796875 27.296875 
Q 14.796875 17.390625 18.875 11.75 
Q 22.953125 6.109375 30.078125 6.109375 
Q 37.203125 6.109375 41.296875 11.75 
Q 45.40625 17.390625 45.40625 27.296875 
Q 45.40625 37.203125 41.296875 42.84375 
Q 37.203125 48.484375 30.078125 48.484375 
Q 22.953125 48.484375 18.875 42.84375 
Q 14.796875 37.203125 14.796875 27.296875 
z
" id="DejaVuSans-100"/>
       <path d="M 44.28125 53.078125 
L 44.28125 44.578125 
Q 40.484375 46.53125 36.375 47.5 
Q 32.28125 48.484375 27.875 48.484375 
Q 21.1875 48.484375 17.84375 46.4375 
Q 14.5 44.390625 14.5 40.28125 
Q 14.5 37.15625 16.890625 35.375 
Q 19.28125 33.59375 26.515625 31.984375 
L 29.59375 31.296875 
Q 39.15625 29.25 43.1875 25.515625 
Q 47.21875 21.78125 47.21875 15.09375 
Q 47.21875 7.46875 41.1875 3.015625 
Q 35.15625 -1.421875 24.609375 -1.421875 
Q 20.21875 -1.421875 15.453125 -0.5625 
Q 10.6875 0.296875 5.421875 2 
L 5.421875 11.28125 
Q 10.40625 8.6875 15.234375 7.390625 
Q 20.0625 6.109375 24.8125 6.109375 
Q 31.15625 6.109375 34.5625 8.28125 
Q 37.984375 10.453125 37.984375 14.40625 
Q 37.984375 18.0625 35.515625 20.015625 
Q 33.0625 21.96875 24.703125 23.78125 
L 21.578125 24.515625 
Q 13.234375 26.265625 9.515625 29.90625 
Q 5.8125 33.546875 5.8125 39.890625 
Q 5.8125 47.609375 11.28125 51.796875 
Q 16.75 56 26.8125 56 
Q 31.78125 56 36.171875 55.265625 
Q 40.578125 54.546875 44.28125 53.078125 
z
" id="DejaVuSans-115"/>
      </defs>
      <use xlink:href="#DejaVuSans-70"/>
      <use x="57.519531" xlink:href="#DejaVuSans-108"/>
      <use x="85.302734" xlink:href="#DejaVuSans-97"/>
      <use x="146.582031" xlink:href="#DejaVuSans-118"/>
      <use x="205.761719" xlink:href="#DejaVuSans-97"/>
      <use x="267.041016" xlink:href="#DejaVuSans-110"/>
      <use x="330.419922" xlink:href="#DejaVuSans-111"/>
      <use x="391.601562" xlink:href="#DejaVuSans-105"/>
      <use x="419.384766" xlink:href="#DejaVuSans-100"/>
      <use x="482.861328" xlink:href="#DejaVuSans-115"/>
     </g>
    </g>
   </g>
   <g id="matplotlib.axis_2">
    <g id="ytick_1">
     <g id="line2d_6">
      <defs>
       <path d="M 0 0 
L -3.5 0 
" id="m8c813c7cc2" style="stroke:#000000;stroke-width:0.8;"/>
      </defs>
      <g>
       <use style="stroke:#000000;stroke-width:0.8;" x="54" xlink:href="#m8c813c7cc2" y="217.384921"/>
      </g>
     </g>
     <g id="text_7">
      <!-- −1 -->
      <g transform="translate(32.257812 221.18414)scale(0.1 -0.1)">
       <use xlink:href="#DejaVuSans-8722"/>
       <use x="83.789062" xlink:href="#DejaVuSans-49"/>
      </g>
     </g>
    </g>
    <g id="ytick_2">
     <g id="line2d_7">
      <g>
       <use style="stroke:#000000;stroke-width:0.8;" x="54" xlink:href="#m8c813c7cc2" y="178.394066"/>
      </g>
     </g>
     <g id="text_8">
      <!-- 0 -->
      <g transform="translate(40.6375 182.193285)scale(0.1 -0.1)">
       <use xlink:href="#DejaVuSans-48"/>
      </g>
     </g>
    </g>
    <g id="ytick_3">
     <g id="line2d_8">
      <g>
       <use style="stroke:#000000;stroke-width:0.8;" x="54" xlink:href="#m8c813c7cc2" y="139.40321"/>
      </g>
     </g>
     <g id="text_9">
      <!-- 1 -->
      <g transform="translate(40.6375 143.202429)scale(0.1 -0.1)">
       <use xlink:href="#DejaVuSans-49"/>
      </g>
     </g>
    </g>
    <g id="ytick_4">
     <g id="line2d_9">
      <g>
       <use style="stroke:#000000;stroke-width:0.8;" x="54" xlink:href="#m8c813c7cc2" y="100.412355"/>
      </g>
     </g>
     <g id="text_10">
      <!-- 2 -->
      <g transform="translate(40.6375 104.211574)scale(0.1 -0.1)">
       <use xlink:href="#DejaVuSans-50"/>
      </g>
     </g>
    </g>
    <g id="ytick_5">
     <g id="line2d_10">
      <g>
       <use style="stroke:#000000;stroke-width:0.8;" x="54" xlink:href="#m8c813c7cc2" y="61.4215"/>
      </g>
     </g>
     <g id="text_11">
      <!-- 3 -->
      <g transform="translate(40.6375 65.220718)scale(0.1 -0.1)">
       <use xlink:href="#DejaVuSans-51"/>
      </g>
     </g>
    </g>
    <g id="text_12">
     <!-- Color_Intensity -->
     <g transform="translate(25.9 180.597188)rotate(-90)scale(0.1 -0.1)">
      <defs>
       <path d="M 64.40625 67.28125 
L 64.40625 56.890625 
Q 59.421875 61.53125 53.78125 63.8125 
Q 48.140625 66.109375 41.796875 66.109375 
Q 29.296875 66.109375 22.65625 58.46875 
Q 16.015625 50.828125 16.015625 36.375 
Q 16.015625 21.96875 22.65625 14.328125 
Q 29.296875 6.6875 41.796875 6.6875 
Q 48.140625 6.6875 53.78125 8.984375 
Q 59.421875 11.28125 64.40625 15.921875 
L 64.40625 5.609375 
Q 59.234375 2.09375 53.4375 0.328125 
Q 47.65625 -1.421875 41.21875 -1.421875 
Q 24.65625 -1.421875 15.125 8.703125 
Q 5.609375 18.84375 5.609375 36.375 
Q 5.609375 53.953125 15.125 64.078125 
Q 24.65625 74.21875 41.21875 74.21875 
Q 47.75 74.21875 53.53125 72.484375 
Q 59.328125 70.75 64.40625 67.28125 
z
" id="DejaVuSans-67"/>
       <path d="M 41.109375 46.296875 
Q 39.59375 47.171875 37.8125 47.578125 
Q 36.03125 48 33.890625 48 
Q 26.265625 48 22.1875 43.046875 
Q 18.109375 38.09375 18.109375 28.8125 
L 18.109375 0 
L 9.078125 0 
L 9.078125 54.6875 
L 18.109375 54.6875 
L 18.109375 46.1875 
Q 20.953125 51.171875 25.484375 53.578125 
Q 30.03125 56 36.53125 56 
Q 37.453125 56 38.578125 55.875 
Q 39.703125 55.765625 41.0625 55.515625 
z
" id="DejaVuSans-114"/>
       <path d="M 50.984375 -16.609375 
L 50.984375 -23.578125 
L -0.984375 -23.578125 
L -0.984375 -16.609375 
z
" id="DejaVuSans-95"/>
       <path d="M 9.8125 72.90625 
L 19.671875 72.90625 
L 19.671875 0 
L 9.8125 0 
z
" id="DejaVuSans-73"/>
       <path d="M 18.3125 70.21875 
L 18.3125 54.6875 
L 36.8125 54.6875 
L 36.8125 47.703125 
L 18.3125 47.703125 
L 18.3125 18.015625 
Q 18.3125 11.328125 20.140625 9.421875 
Q 21.96875 7.515625 27.59375 7.515625 
L 36.8125 7.515625 
L 36.8125 0 
L 27.59375 0 
Q 17.1875 0 13.234375 3.875 
Q 9.28125 7.765625 9.28125 18.015625 
L 9.28125 47.703125 
L 2.6875 47.703125 
L 2.6875 54.6875 
L 9.28125 54.6875 
L 9.28125 70.21875 
z
" id="DejaVuSans-116"/>
       <path d="M 56.203125 29.59375 
L 56.203125 25.203125 
L 14.890625 25.203125 
Q 15.484375 15.921875 20.484375 11.0625 
Q 25.484375 6.203125 34.421875 6.203125 
Q 39.59375 6.203125 44.453125 7.46875 
Q 49.3125 8.734375 54.109375 11.28125 
L 54.109375 2.78125 
Q 49.265625 0.734375 44.1875 -0.34375 
Q 39.109375 -1.421875 33.890625 -1.421875 
Q 20.796875 -1.421875 13.15625 6.1875 
Q 5.515625 13.8125 5.515625 26.8125 
Q 5.515625 40.234375 12.765625 48.109375 
Q 20.015625 56 32.328125 56 
Q 43.359375 56 49.78125 48.890625 
Q 56.203125 41.796875 56.203125 29.59375 
z
M 47.21875 32.234375 
Q 47.125 39.59375 43.09375 43.984375 
Q 39.0625 48.390625 32.421875 48.390625 
Q 24.90625 48.390625 20.390625 44.140625 
Q 15.875 39.890625 15.1875 32.171875 
z
" id="DejaVuSans-101"/>
       <path d="M 32.171875 -5.078125 
Q 28.375 -14.84375 24.75 -17.8125 
Q 21.140625 -20.796875 15.09375 -20.796875 
L 7.90625 -20.796875 
L 7.90625 -13.28125 
L 13.1875 -13.28125 
Q 16.890625 -13.28125 18.9375 -11.515625 
Q 21 -9.765625 23.484375 -3.21875 
L 25.09375 0.875 
L 2.984375 54.6875 
L 12.5 54.6875 
L 29.59375 11.921875 
L 46.6875 54.6875 
L 56.203125 54.6875 
z
" id="DejaVuSans-121"/>
      </defs>
      <use xlink:href="#DejaVuSans-67"/>
      <use x="69.824219" xlink:href="#DejaVuSans-111"/>
      <use x="131.005859" xlink:href="#DejaVuSans-108"/>
      <use x="158.789062" xlink:href="#DejaVuSans-111"/>
      <use x="219.970703" xlink:href="#DejaVuSans-114"/>
      <use x="261.083984" xlink:href="#DejaVuSans-95"/>
      <use x="311.083984" xlink:href="#DejaVuSans-73"/>
      <use x="340.576172" xlink:href="#DejaVuSans-110"/>
      <use x="403.955078" xlink:href="#DejaVuSans-116"/>
      <use x="443.164062" xlink:href="#DejaVuSans-101"/>
      <use x="504.6875" xlink:href="#DejaVuSans-110"/>
      <use x="568.066406" xlink:href="#DejaVuSans-115"/>
      <use x="620.166016" xlink:href="#DejaVuSans-105"/>
      <use x="647.949219" xlink:href="#DejaVuSans-116"/>
      <use x="687.158203" xlink:href="#DejaVuSans-121"/>
     </g>
    </g>
   </g>
   <g id="patch_3">
    <path d="M 54 252 
L 54 34.56 
" style="fill:none;stroke:#000000;stroke-linecap:square;stroke-linejoin:miter;stroke-width:0.8;"/>
   </g>
   <g id="patch_4">
    <path d="M 388.8 252 
L 388.8 34.56 
" style="fill:none;stroke:#000000;stroke-linecap:square;stroke-linejoin:miter;stroke-width:0.8;"/>
   </g>
   <g id="patch_5">
    <path d="M 54 252 
L 388.8 252 
" style="fill:none;stroke:#000000;stroke-linecap:square;stroke-linejoin:miter;stroke-width:0.8;"/>
   </g>
   <g id="patch_6">
    <path d="M 54 34.56 
L 388.8 34.56 
" style="fill:none;stroke:#000000;stroke-linecap:square;stroke-linejoin:miter;stroke-width:0.8;"/>
   </g>
  </g>
 </g>
 <defs>
  <clipPath id="p1d9cee4e5b">
   <rect height="217.44" width="334.8" x="54" y="34.56"/>
  </clipPath>
 </defs>
</svg>
