<?xml version="1.0" encoding="utf-8" standalone="no"?>
<!DOCTYPE svg PUBLIC "-//W3C//DTD SVG 1.1//EN"
  "http://www.w3.org/Graphics/SVG/1.1/DTD/svg11.dtd">
<!-- Created with matplotlib (https://matplotlib.org/) -->
<svg height="288pt" version="1.1" viewBox="0 0 432 288" width="432pt" xmlns="http://www.w3.org/2000/svg" xmlns:xlink="http://www.w3.org/1999/xlink">
 <metadata>
  <rdf:RDF xmlns:cc="http://creativecommons.org/ns#" xmlns:dc="http://purl.org/dc/elements/1.1/" xmlns:rdf="http://www.w3.org/1999/02/22-rdf-syntax-ns#">
   <cc:Work>
    <dc:type rdf:resource="http://purl.org/dc/dcmitype/StillImage"/>
    <dc:date>2021-07-10T20:36:52.152160</dc:date>
    <dc:format>image/svg+xml</dc:format>
    <dc:creator>
     <cc:Agent>
      <dc:title>Matplotlib v3.3.2, https://matplotlib.org/</dc:title>
     </cc:Agent>
    </dc:creator>
   </cc:Work>
  </rdf:RDF>
 </metadata>
 <defs>
  <style type="text/css">*{stroke-linecap:butt;stroke-linejoin:round;}</style>
 </defs>
 <g id="figure_1">
  <g id="patch_1">
   <path d="M 0 288 
L 432 288 
L 432 0 
L 0 0 
z
" style="fill:none;"/>
  </g>
  <g id="axes_1">
   <g id="patch_2">
    <path d="M 54 252 
L 388.8 252 
L 388.8 34.56 
L 54 34.56 
z
" style="fill:#ffffff;"/>
   </g>
   <g id="PathCollection_1">
    <defs>
     <path d="M 0 3 
C 0.795609 3 1.55874 2.683901 2.12132 2.12132 
C 2.683901 1.55874 3 0.795609 3 -0 
C 3 -0.795609 2.683901 -1.55874 2.12132 -2.12132 
C 1.55874 -2.683901 0.795609 -3 0 -3 
C -0.795609 -3 -1.55874 -2.683901 -2.12132 -2.12132 
C -2.683901 -1.55874 -3 -0.795609 -3 0 
C -3 0.795609 -2.683901 1.55874 -2.12132 2.12132 
C -1.55874 2.683901 -0.795609 3 0 3 
z
" id="C0_0_73c8a9409b"/>
    </defs>
    <g clip-path="url(#pb549ddbb71)">
     <use style="fill:#fde725;stroke:#fde725;" x="240.069952" xlink:href="#C0_0_73c8a9409b" y="168.57941"/>
    </g>
    <g clip-path="url(#pb549ddbb71)">
     <use style="fill:#fde725;stroke:#fde725;" x="236.813565" xlink:href="#C0_0_73c8a9409b" y="189.830915"/>
    </g>
    <g clip-path="url(#pb549ddbb71)">
     <use style="fill:#fde725;stroke:#fde725;" x="266.121048" xlink:href="#C0_0_73c8a9409b" y="167.90476"/>
    </g>
    <g clip-path="url(#pb549ddbb71)">
     <use style="fill:#fde725;stroke:#fde725;" x="330.163325" xlink:href="#C0_0_73c8a9409b" y="132.148259"/>
    </g>
    <g clip-path="url(#pb549ddbb71)">
     <use style="fill:#fde725;stroke:#fde725;" x="168.429438" xlink:href="#C0_0_73c8a9409b" y="190.842892"/>
    </g>
    <g clip-path="url(#pb549ddbb71)">
     <use style="fill:#fde725;stroke:#fde725;" x="323.650551" xlink:href="#C0_0_73c8a9409b" y="149.857847"/>
    </g>
    <g clip-path="url(#pb549ddbb71)">
     <use style="fill:#fde725;stroke:#fde725;" x="288.915757" xlink:href="#C0_0_73c8a9409b" y="175.157257"/>
    </g>
    <g clip-path="url(#pb549ddbb71)">
     <use style="fill:#fde725;stroke:#fde725;" x="290.001219" xlink:href="#C0_0_73c8a9409b" y="178.530512"/>
    </g>
    <g clip-path="url(#pb549ddbb71)">
     <use style="fill:#fde725;stroke:#fde725;" x="235.728103" xlink:href="#C0_0_73c8a9409b" y="176.000571"/>
    </g>
    <g clip-path="url(#pb549ddbb71)">
     <use style="fill:#fde725;stroke:#fde725;" x="235.728103" xlink:href="#C0_0_73c8a9409b" y="141.930698"/>
    </g>
    <g clip-path="url(#pb549ddbb71)">
     <use style="fill:#fde725;stroke:#fde725;" x="336.676099" xlink:href="#C0_0_73c8a9409b" y="166.72412"/>
    </g>
    <g clip-path="url(#pb549ddbb71)">
     <use style="fill:#fde725;stroke:#fde725;" x="286.744832" xlink:href="#C0_0_73c8a9409b" y="179.373826"/>
    </g>
    <g clip-path="url(#pb549ddbb71)">
     <use style="fill:#fde725;stroke:#fde725;" x="295.428531" xlink:href="#C0_0_73c8a9409b" y="169.254061"/>
    </g>
    <g clip-path="url(#pb549ddbb71)">
     <use style="fill:#fde725;stroke:#fde725;" x="258.522812" xlink:href="#C0_0_73c8a9409b" y="172.627316"/>
    </g>
    <g clip-path="url(#pb549ddbb71)">
     <use style="fill:#fde725;stroke:#fde725;" x="344.70852" xlink:href="#C0_0_73c8a9409b" y="137.208141"/>
    </g>
    <g clip-path="url(#pb549ddbb71)">
     <use style="fill:#fde725;stroke:#fde725;" x="293.257606" xlink:href="#C0_0_73c8a9409b" y="140.581396"/>
    </g>
    <g clip-path="url(#pb549ddbb71)">
     <use style="fill:#fde725;stroke:#fde725;" x="286.744832" xlink:href="#C0_0_73c8a9409b" y="159.134297"/>
    </g>
    <g clip-path="url(#pb549ddbb71)">
     <use style="fill:#fde725;stroke:#fde725;" x="254.180962" xlink:href="#C0_0_73c8a9409b" y="152.387788"/>
    </g>
    <g clip-path="url(#pb549ddbb71)">
     <use style="fill:#fde725;stroke:#fde725;" x="373.581818" xlink:href="#C0_0_73c8a9409b" y="116.968613"/>
    </g>
    <g clip-path="url(#pb549ddbb71)">
     <use style="fill:#fde725;stroke:#fde725;" x="192.30961" xlink:href="#C0_0_73c8a9409b" y="177.687198"/>
    </g>
    <g clip-path="url(#pb549ddbb71)">
     <use style="fill:#fde725;stroke:#fde725;" x="178.198599" xlink:href="#C0_0_73c8a9409b" y="168.410748"/>
    </g>
    <g clip-path="url(#pb549ddbb71)">
     <use style="fill:#fde725;stroke:#fde725;" x="176.027675" xlink:href="#C0_0_73c8a9409b" y="187.806962"/>
    </g>
    <g clip-path="url(#pb549ddbb71)">
     <use style="fill:#fde725;stroke:#fde725;" x="233.557178" xlink:href="#C0_0_73c8a9409b" y="199.613354"/>
    </g>
    <g clip-path="url(#pb549ddbb71)">
     <use style="fill:#fde725;stroke:#fde725;" x="229.215329" xlink:href="#C0_0_73c8a9409b" y="197.420738"/>
    </g>
    <g clip-path="url(#pb549ddbb71)">
     <use style="fill:#fde725;stroke:#fde725;" x="192.30961" xlink:href="#C0_0_73c8a9409b" y="204.335911"/>
    </g>
    <g clip-path="url(#pb549ddbb71)">
     <use style="fill:#fde725;stroke:#fde725;" x="189.053223" xlink:href="#C0_0_73c8a9409b" y="203.323934"/>
    </g>
    <g clip-path="url(#pb549ddbb71)">
     <use style="fill:#fde725;stroke:#fde725;" x="268.291973" xlink:href="#C0_0_73c8a9409b" y="182.74708"/>
    </g>
    <g clip-path="url(#pb549ddbb71)">
     <use style="fill:#fde725;stroke:#fde725;" x="287.830294" xlink:href="#C0_0_73c8a9409b" y="197.083413"/>
    </g>
    <g clip-path="url(#pb549ddbb71)">
     <use style="fill:#fde725;stroke:#fde725;" x="207.506082" xlink:href="#C0_0_73c8a9409b" y="187.806962"/>
    </g>
    <g clip-path="url(#pb549ddbb71)">
     <use style="fill:#fde725;stroke:#fde725;" x="233.557178" xlink:href="#C0_0_73c8a9409b" y="184.433708"/>
    </g>
    <g clip-path="url(#pb549ddbb71)">
     <use style="fill:#fde725;stroke:#fde725;" x="287.830294" xlink:href="#C0_0_73c8a9409b" y="167.567434"/>
    </g>
    <g clip-path="url(#pb549ddbb71)">
     <use style="fill:#fde725;stroke:#fde725;" x="337.761561" xlink:href="#C0_0_73c8a9409b" y="147.327906"/>
    </g>
    <g clip-path="url(#pb549ddbb71)">
     <use style="fill:#fde725;stroke:#fde725;" x="223.788017" xlink:href="#C0_0_73c8a9409b" y="198.938703"/>
    </g>
    <g clip-path="url(#pb549ddbb71)">
     <use style="fill:#fde725;stroke:#fde725;" x="276.975671" xlink:href="#C0_0_73c8a9409b" y="172.627316"/>
    </g>
    <g clip-path="url(#pb549ddbb71)">
     <use style="fill:#fde725;stroke:#fde725;" x="246.582726" xlink:href="#C0_0_73c8a9409b" y="192.866845"/>
    </g>
    <g clip-path="url(#pb549ddbb71)">
     <use style="fill:#fde725;stroke:#fde725;" x="208.591545" xlink:href="#C0_0_73c8a9409b" y="177.687198"/>
    </g>
    <g clip-path="url(#pb549ddbb71)">
     <use style="fill:#fde725;stroke:#fde725;" x="199.907846" xlink:href="#C0_0_73c8a9409b" y="186.120335"/>
    </g>
    <g clip-path="url(#pb549ddbb71)">
     <use style="fill:#fde725;stroke:#fde725;" x="248.753651" xlink:href="#C0_0_73c8a9409b" y="192.023531"/>
    </g>
    <g clip-path="url(#pb549ddbb71)">
     <use style="fill:#fde725;stroke:#fde725;" x="230.300791" xlink:href="#C0_0_73c8a9409b" y="201.299981"/>
    </g>
    <g clip-path="url(#pb549ddbb71)">
     <use style="fill:#fde725;stroke:#fde725;" x="173.85675" xlink:href="#C0_0_73c8a9409b" y="177.687198"/>
    </g>
    <g clip-path="url(#pb549ddbb71)">
     <use style="fill:#fde725;stroke:#fde725;" x="181.454986" xlink:href="#C0_0_73c8a9409b" y="160.314936"/>
    </g>
    <g clip-path="url(#pb549ddbb71)">
     <use style="fill:#fde725;stroke:#fde725;" x="233.557178" xlink:href="#C0_0_73c8a9409b" y="191.517543"/>
    </g>
    <g clip-path="url(#pb549ddbb71)">
     <use style="fill:#fde725;stroke:#fde725;" x="246.582726" xlink:href="#C0_0_73c8a9409b" y="172.121328"/>
    </g>
    <g clip-path="url(#pb549ddbb71)">
     <use style="fill:#fde725;stroke:#fde725;" x="156.489353" xlink:href="#C0_0_73c8a9409b" y="190.168241"/>
    </g>
    <g clip-path="url(#pb549ddbb71)">
     <use style="fill:#fde725;stroke:#fde725;" x="200.993308" xlink:href="#C0_0_73c8a9409b" y="178.699175"/>
    </g>
    <g clip-path="url(#pb549ddbb71)">
     <use style="fill:#fde725;stroke:#fde725;" x="243.326339" xlink:href="#C0_0_73c8a9409b" y="175.32592"/>
    </g>
    <g clip-path="url(#pb549ddbb71)">
     <use style="fill:#fde725;stroke:#fde725;" x="240.069952" xlink:href="#C0_0_73c8a9409b" y="181.060453"/>
    </g>
    <g clip-path="url(#pb549ddbb71)">
     <use style="fill:#fde725;stroke:#fde725;" x="222.702555" xlink:href="#C0_0_73c8a9409b" y="160.820925"/>
    </g>
    <g clip-path="url(#pb549ddbb71)">
     <use style="fill:#fde725;stroke:#fde725;" x="238.98449" xlink:href="#C0_0_73c8a9409b" y="159.134297"/>
    </g>
    <g clip-path="url(#pb549ddbb71)">
     <use style="fill:#fde725;stroke:#fde725;" x="282.402983" xlink:href="#C0_0_73c8a9409b" y="113.595358"/>
    </g>
    <g clip-path="url(#pb549ddbb71)">
     <use style="fill:#fde725;stroke:#fde725;" x="258.522812" xlink:href="#C0_0_73c8a9409b" y="142.268024"/>
    </g>
    <g clip-path="url(#pb549ddbb71)">
     <use style="fill:#fde725;stroke:#fde725;" x="283.488445" xlink:href="#C0_0_73c8a9409b" y="169.254061"/>
    </g>
    <g clip-path="url(#pb549ddbb71)">
     <use style="fill:#fde725;stroke:#fde725;" x="267.20651" xlink:href="#C0_0_73c8a9409b" y="144.797965"/>
    </g>
    <g clip-path="url(#pb549ddbb71)">
     <use style="fill:#fde725;stroke:#fde725;" x="307.368616" xlink:href="#C0_0_73c8a9409b" y="157.44767"/>
    </g>
    <g clip-path="url(#pb549ddbb71)">
     <use style="fill:#fde725;stroke:#fde725;" x="238.98449" xlink:href="#C0_0_73c8a9409b" y="165.037493"/>
    </g>
    <g clip-path="url(#pb549ddbb71)">
     <use style="fill:#fde725;stroke:#fde725;" x="252.010038" xlink:href="#C0_0_73c8a9409b" y="158.290984"/>
    </g>
    <g clip-path="url(#pb549ddbb71)">
     <use style="fill:#fde725;stroke:#fde725;" x="219.446168" xlink:href="#C0_0_73c8a9409b" y="156.098368"/>
    </g>
    <g clip-path="url(#pb549ddbb71)">
     <use style="fill:#fde725;stroke:#fde725;" x="284.573907" xlink:href="#C0_0_73c8a9409b" y="162.507552"/>
    </g>
    <g clip-path="url(#pb549ddbb71)">
     <use style="fill:#fde725;stroke:#fde725;" x="287.830294" xlink:href="#C0_0_73c8a9409b" y="149.014533"/>
    </g>
    <g clip-path="url(#pb549ddbb71)">
     <use style="fill:#21918c;stroke:#21918c;" x="121.754558" xlink:href="#C0_0_73c8a9409b" y="230.81596"/>
    </g>
    <g clip-path="url(#pb549ddbb71)">
     <use style="fill:#21918c;stroke:#21918c;" x="156.489353" xlink:href="#C0_0_73c8a9409b" y="208.552479"/>
    </g>
    <g clip-path="url(#pb549ddbb71)">
     <use style="fill:#440154;stroke:#440154;" x="106.558086" xlink:href="#C0_0_73c8a9409b" y="166.72412"/>
    </g>
    <g clip-path="url(#pb549ddbb71)">
     <use style="fill:#21918c;stroke:#21918c;" x="145.63473" xlink:href="#C0_0_73c8a9409b" y="199.613354"/>
    </g>
    <g clip-path="url(#pb549ddbb71)">
     <use style="fill:#21918c;stroke:#21918c;" x="100.045312" xlink:href="#C0_0_73c8a9409b" y="188.650276"/>
    </g>
    <g clip-path="url(#pb549ddbb71)">
     <use style="fill:#21918c;stroke:#21918c;" x="85.934302" xlink:href="#C0_0_73c8a9409b" y="213.949687"/>
    </g>
    <g clip-path="url(#pb549ddbb71)">
     <use style="fill:#21918c;stroke:#21918c;" x="156.055168" xlink:href="#C0_0_73c8a9409b" y="186.120335"/>
    </g>
    <g clip-path="url(#pb549ddbb71)">
     <use style="fill:#21918c;stroke:#21918c;" x="117.846894" xlink:href="#C0_0_73c8a9409b" y="174.313944"/>
    </g>
    <g clip-path="url(#pb549ddbb71)">
     <use style="fill:#21918c;stroke:#21918c;" x="119.583634" xlink:href="#C0_0_73c8a9409b" y="184.771033"/>
    </g>
    <g clip-path="url(#pb549ddbb71)">
     <use style="fill:#21918c;stroke:#21918c;" x="171.685825" xlink:href="#C0_0_73c8a9409b" y="210.239106"/>
    </g>
    <g clip-path="url(#pb549ddbb71)">
     <use style="fill:#21918c;stroke:#21918c;" x="164.738867" xlink:href="#C0_0_73c8a9409b" y="215.636314"/>
    </g>
    <g clip-path="url(#pb549ddbb71)">
     <use style="fill:#21918c;stroke:#21918c;" x="197.736921" xlink:href="#C0_0_73c8a9409b" y="212.263059"/>
    </g>
    <g clip-path="url(#pb549ddbb71)">
     <use style="fill:#21918c;stroke:#21918c;" x="97.874387" xlink:href="#C0_0_73c8a9409b" y="206.697189"/>
    </g>
    <g clip-path="url(#pb549ddbb71)">
     <use style="fill:#21918c;stroke:#21918c;" x="111.33412" xlink:href="#C0_0_73c8a9409b" y="200.62533"/>
    </g>
    <g clip-path="url(#pb549ddbb71)">
     <use style="fill:#fde725;stroke:#fde725;" x="222.702555" xlink:href="#C0_0_73c8a9409b" y="207.203177"/>
    </g>
    <g clip-path="url(#pb549ddbb71)">
     <use style="fill:#21918c;stroke:#21918c;" x="201.210401" xlink:href="#C0_0_73c8a9409b" y="209.564455"/>
    </g>
    <g clip-path="url(#pb549ddbb71)">
     <use style="fill:#21918c;stroke:#21918c;" x="101.782052" xlink:href="#C0_0_73c8a9409b" y="199.613354"/>
    </g>
    <g clip-path="url(#pb549ddbb71)">
     <use style="fill:#21918c;stroke:#21918c;" x="93.966723" xlink:href="#C0_0_73c8a9409b" y="186.120335"/>
    </g>
    <g clip-path="url(#pb549ddbb71)">
     <use style="fill:#21918c;stroke:#21918c;" x="117.412709" xlink:href="#C0_0_73c8a9409b" y="219.009569"/>
    </g>
    <g clip-path="url(#pb549ddbb71)">
     <use style="fill:#21918c;stroke:#21918c;" x="171.685825" xlink:href="#C0_0_73c8a9409b" y="206.359863"/>
    </g>
    <g clip-path="url(#pb549ddbb71)">
     <use style="fill:#21918c;stroke:#21918c;" x="109.380288" xlink:href="#C0_0_73c8a9409b" y="220.358871"/>
    </g>
    <g clip-path="url(#pb549ddbb71)">
     <use style="fill:#21918c;stroke:#21918c;" x="69.218182" xlink:href="#C0_0_73c8a9409b" y="221.53951"/>
    </g>
    <g clip-path="url(#pb549ddbb71)">
     <use style="fill:#21918c;stroke:#21918c;" x="163.870497" xlink:href="#C0_0_73c8a9409b" y="197.926727"/>
    </g>
    <g clip-path="url(#pb549ddbb71)">
     <use style="fill:#21918c;stroke:#21918c;" x="145.63473" xlink:href="#C0_0_73c8a9409b" y="226.599392"/>
    </g>
    <g clip-path="url(#pb549ddbb71)">
     <use style="fill:#440154;stroke:#440154;" x="120.669096" xlink:href="#C0_0_73c8a9409b" y="182.74708"/>
    </g>
    <g clip-path="url(#pb549ddbb71)">
     <use style="fill:#21918c;stroke:#21918c;" x="121.754558" xlink:href="#C0_0_73c8a9409b" y="212.263059"/>
    </g>
    <g clip-path="url(#pb549ddbb71)">
     <use style="fill:#21918c;stroke:#21918c;" x="106.558086" xlink:href="#C0_0_73c8a9409b" y="219.515557"/>
    </g>
    <g clip-path="url(#pb549ddbb71)">
     <use style="fill:#21918c;stroke:#21918c;" x="116.327247" xlink:href="#C0_0_73c8a9409b" y="222.382823"/>
    </g>
    <g clip-path="url(#pb549ddbb71)">
     <use style="fill:#21918c;stroke:#21918c;" x="130.872442" xlink:href="#C0_0_73c8a9409b" y="219.852882"/>
    </g>
    <g clip-path="url(#pb549ddbb71)">
     <use style="fill:#21918c;stroke:#21918c;" x="156.489353" xlink:href="#C0_0_73c8a9409b" y="216.479628"/>
    </g>
    <g clip-path="url(#pb549ddbb71)">
     <use style="fill:#21918c;stroke:#21918c;" x="144.549267" xlink:href="#C0_0_73c8a9409b" y="234.357878"/>
    </g>
    <g clip-path="url(#pb549ddbb71)">
     <use style="fill:#21918c;stroke:#21918c;" x="113.07086" xlink:href="#C0_0_73c8a9409b" y="223.226137"/>
    </g>
    <g clip-path="url(#pb549ddbb71)">
     <use style="fill:#21918c;stroke:#21918c;" x="106.558086" xlink:href="#C0_0_73c8a9409b" y="202.986609"/>
    </g>
    <g clip-path="url(#pb549ddbb71)">
     <use style="fill:#21918c;stroke:#21918c;" x="116.327247" xlink:href="#C0_0_73c8a9409b" y="212.263059"/>
    </g>
    <g clip-path="url(#pb549ddbb71)">
     <use style="fill:#21918c;stroke:#21918c;" x="71.823291" xlink:href="#C0_0_73c8a9409b" y="227.442706"/>
    </g>
    <g clip-path="url(#pb549ddbb71)">
     <use style="fill:#21918c;stroke:#21918c;" x="83.763377" xlink:href="#C0_0_73c8a9409b" y="208.889805"/>
    </g>
    <g clip-path="url(#pb549ddbb71)">
     <use style="fill:#fde725;stroke:#fde725;" x="212.282116" xlink:href="#C0_0_73c8a9409b" y="219.852882"/>
    </g>
    <g clip-path="url(#pb549ddbb71)">
     <use style="fill:#21918c;stroke:#21918c;" x="144.549267" xlink:href="#C0_0_73c8a9409b" y="221.53951"/>
    </g>
    <g clip-path="url(#pb549ddbb71)">
     <use style="fill:#21918c;stroke:#21918c;" x="101.782052" xlink:href="#C0_0_73c8a9409b" y="214.793"/>
    </g>
    <g clip-path="url(#pb549ddbb71)">
     <use style="fill:#21918c;stroke:#21918c;" x="152.147504" xlink:href="#C0_0_73c8a9409b" y="187.806962"/>
    </g>
    <g clip-path="url(#pb549ddbb71)">
     <use style="fill:#21918c;stroke:#21918c;" x="97.006017" xlink:href="#C0_0_73c8a9409b" y="224.912765"/>
    </g>
    <g clip-path="url(#pb549ddbb71)">
     <use style="fill:#21918c;stroke:#21918c;" x="163.002127" xlink:href="#C0_0_73c8a9409b" y="208.046491"/>
    </g>
    <g clip-path="url(#pb549ddbb71)">
     <use style="fill:#21918c;stroke:#21918c;" x="130.872442" xlink:href="#C0_0_73c8a9409b" y="222.382823"/>
    </g>
    <g clip-path="url(#pb549ddbb71)">
     <use style="fill:#21918c;stroke:#21918c;" x="103.952976" xlink:href="#C0_0_73c8a9409b" y="216.479628"/>
    </g>
    <g clip-path="url(#pb549ddbb71)">
     <use style="fill:#21918c;stroke:#21918c;" x="98.95985" xlink:href="#C0_0_73c8a9409b" y="228.96067"/>
    </g>
    <g clip-path="url(#pb549ddbb71)">
     <use style="fill:#21918c;stroke:#21918c;" x="154.752613" xlink:href="#C0_0_73c8a9409b" y="214.118349"/>
    </g>
    <g clip-path="url(#pb549ddbb71)">
     <use style="fill:#21918c;stroke:#21918c;" x="77.250603" xlink:href="#C0_0_73c8a9409b" y="218.166255"/>
    </g>
    <g clip-path="url(#pb549ddbb71)">
     <use style="fill:#21918c;stroke:#21918c;" x="119.583634" xlink:href="#C0_0_73c8a9409b" y="206.359863"/>
    </g>
    <g clip-path="url(#pb549ddbb71)">
     <use style="fill:#21918c;stroke:#21918c;" x="114.8076" xlink:href="#C0_0_73c8a9409b" y="208.046491"/>
    </g>
    <g clip-path="url(#pb549ddbb71)">
     <use style="fill:#21918c;stroke:#21918c;" x="76.599326" xlink:href="#C0_0_73c8a9409b" y="218.166255"/>
    </g>
    <g clip-path="url(#pb549ddbb71)">
     <use style="fill:#21918c;stroke:#21918c;" x="156.489353" xlink:href="#C0_0_73c8a9409b" y="219.009569"/>
    </g>
    <g clip-path="url(#pb549ddbb71)">
     <use style="fill:#21918c;stroke:#21918c;" x="130.872442" xlink:href="#C0_0_73c8a9409b" y="214.793"/>
    </g>
    <g clip-path="url(#pb549ddbb71)">
     <use style="fill:#21918c;stroke:#21918c;" x="79.421528" xlink:href="#C0_0_73c8a9409b" y="229.972647"/>
    </g>
    <g clip-path="url(#pb549ddbb71)">
     <use style="fill:#21918c;stroke:#21918c;" x="140.641603" xlink:href="#C0_0_73c8a9409b" y="199.613354"/>
    </g>
    <g clip-path="url(#pb549ddbb71)">
     <use style="fill:#21918c;stroke:#21918c;" x="103.084606" xlink:href="#C0_0_73c8a9409b" y="211.757071"/>
    </g>
    <g clip-path="url(#pb549ddbb71)">
     <use style="fill:#21918c;stroke:#21918c;" x="92.447076" xlink:href="#C0_0_73c8a9409b" y="214.793"/>
    </g>
    <g clip-path="url(#pb549ddbb71)">
     <use style="fill:#21918c;stroke:#21918c;" x="97.22311" xlink:href="#C0_0_73c8a9409b" y="231.659274"/>
    </g>
    <g clip-path="url(#pb549ddbb71)">
     <use style="fill:#21918c;stroke:#21918c;" x="116.327247" xlink:href="#C0_0_73c8a9409b" y="230.81596"/>
    </g>
    <g clip-path="url(#pb549ddbb71)">
     <use style="fill:#21918c;stroke:#21918c;" x="83.763377" xlink:href="#C0_0_73c8a9409b" y="228.96067"/>
    </g>
    <g clip-path="url(#pb549ddbb71)">
     <use style="fill:#440154;stroke:#440154;" x="89.624874" xlink:href="#C0_0_73c8a9409b" y="206.359863"/>
    </g>
    <g clip-path="url(#pb549ddbb71)">
     <use style="fill:#21918c;stroke:#21918c;" x="131.306627" xlink:href="#C0_0_73c8a9409b" y="242.116364"/>
    </g>
    <g clip-path="url(#pb549ddbb71)">
     <use style="fill:#21918c;stroke:#21918c;" x="144.549267" xlink:href="#C0_0_73c8a9409b" y="208.889805"/>
    </g>
    <g clip-path="url(#pb549ddbb71)">
     <use style="fill:#21918c;stroke:#21918c;" x="109.814473" xlink:href="#C0_0_73c8a9409b" y="162.507552"/>
    </g>
    <g clip-path="url(#pb549ddbb71)">
     <use style="fill:#21918c;stroke:#21918c;" x="88.105226" xlink:href="#C0_0_73c8a9409b" y="228.623345"/>
    </g>
    <g clip-path="url(#pb549ddbb71)">
     <use style="fill:#21918c;stroke:#21918c;" x="91.361613" xlink:href="#C0_0_73c8a9409b" y="219.852882"/>
    </g>
    <g clip-path="url(#pb549ddbb71)">
     <use style="fill:#21918c;stroke:#21918c;" x="91.361613" xlink:href="#C0_0_73c8a9409b" y="216.479628"/>
    </g>
    <g clip-path="url(#pb549ddbb71)">
     <use style="fill:#21918c;stroke:#21918c;" x="90.927428" xlink:href="#C0_0_73c8a9409b" y="217.154279"/>
    </g>
    <g clip-path="url(#pb549ddbb71)">
     <use style="fill:#21918c;stroke:#21918c;" x="85.283024" xlink:href="#C0_0_73c8a9409b" y="197.252076"/>
    </g>
    <g clip-path="url(#pb549ddbb71)">
     <use style="fill:#21918c;stroke:#21918c;" x="110.031565" xlink:href="#C0_0_73c8a9409b" y="213.106373"/>
    </g>
    <g clip-path="url(#pb549ddbb71)">
     <use style="fill:#21918c;stroke:#21918c;" x="83.1121" xlink:href="#C0_0_73c8a9409b" y="227.948694"/>
    </g>
    <g clip-path="url(#pb549ddbb71)">
     <use style="fill:#21918c;stroke:#21918c;" x="134.780106" xlink:href="#C0_0_73c8a9409b" y="219.852882"/>
    </g>
    <g clip-path="url(#pb549ddbb71)">
     <use style="fill:#440154;stroke:#440154;" x="145.63473" xlink:href="#C0_0_73c8a9409b" y="194.553472"/>
    </g>
    <g clip-path="url(#pb549ddbb71)">
     <use style="fill:#440154;stroke:#440154;" x="123.925483" xlink:href="#C0_0_73c8a9409b" y="172.627316"/>
    </g>
    <g clip-path="url(#pb549ddbb71)">
     <use style="fill:#440154;stroke:#440154;" x="130.438257" xlink:href="#C0_0_73c8a9409b" y="167.567434"/>
    </g>
    <g clip-path="url(#pb549ddbb71)">
     <use style="fill:#440154;stroke:#440154;" x="139.121956" xlink:href="#C0_0_73c8a9409b" y="179.373826"/>
    </g>
    <g clip-path="url(#pb549ddbb71)">
     <use style="fill:#440154;stroke:#440154;" x="149.976579" xlink:href="#C0_0_73c8a9409b" y="171.784002"/>
    </g>
    <g clip-path="url(#pb549ddbb71)">
     <use style="fill:#440154;stroke:#440154;" x="159.74574" xlink:href="#C0_0_73c8a9409b" y="143.954651"/>
    </g>
    <g clip-path="url(#pb549ddbb71)">
     <use style="fill:#440154;stroke:#440154;" x="165.173051" xlink:href="#C0_0_73c8a9409b" y="198.77004"/>
    </g>
    <g clip-path="url(#pb549ddbb71)">
     <use style="fill:#440154;stroke:#440154;" x="120.669096" xlink:href="#C0_0_73c8a9409b" y="179.373826"/>
    </g>
    <g clip-path="url(#pb549ddbb71)">
     <use style="fill:#440154;stroke:#440154;" x="134.780106" xlink:href="#C0_0_73c8a9409b" y="167.567434"/>
    </g>
    <g clip-path="url(#pb549ddbb71)">
     <use style="fill:#440154;stroke:#440154;" x="136.951031" xlink:href="#C0_0_73c8a9409b" y="180.723128"/>
    </g>
    <g clip-path="url(#pb549ddbb71)">
     <use style="fill:#440154;stroke:#440154;" x="139.121956" xlink:href="#C0_0_73c8a9409b" y="186.120335"/>
    </g>
    <g clip-path="url(#pb549ddbb71)">
     <use style="fill:#440154;stroke:#440154;" x="178.198599" xlink:href="#C0_0_73c8a9409b" y="169.254061"/>
    </g>
    <g clip-path="url(#pb549ddbb71)">
     <use style="fill:#440154;stroke:#440154;" x="121.754558" xlink:href="#C0_0_73c8a9409b" y="190.336904"/>
    </g>
    <g clip-path="url(#pb549ddbb71)">
     <use style="fill:#440154;stroke:#440154;" x="128.267332" xlink:href="#C0_0_73c8a9409b" y="189.49359"/>
    </g>
    <g clip-path="url(#pb549ddbb71)">
     <use style="fill:#440154;stroke:#440154;" x="194.480534" xlink:href="#C0_0_73c8a9409b" y="125.233087"/>
    </g>
    <g clip-path="url(#pb549ddbb71)">
     <use style="fill:#440154;stroke:#440154;" x="189.053223" xlink:href="#C0_0_73c8a9409b" y="196.240099"/>
    </g>
    <g clip-path="url(#pb549ddbb71)">
     <use style="fill:#440154;stroke:#440154;" x="98.95985" xlink:href="#C0_0_73c8a9409b" y="181.060453"/>
    </g>
    <g clip-path="url(#pb549ddbb71)">
     <use style="fill:#440154;stroke:#440154;" x="144.549267" xlink:href="#C0_0_73c8a9409b" y="134.6782"/>
    </g>
    <g clip-path="url(#pb549ddbb71)">
     <use style="fill:#440154;stroke:#440154;" x="149.976579" xlink:href="#C0_0_73c8a9409b" y="121.69117"/>
    </g>
    <g clip-path="url(#pb549ddbb71)">
     <use style="fill:#440154;stroke:#440154;" x="128.267332" xlink:href="#C0_0_73c8a9409b" y="105.162222"/>
    </g>
    <g clip-path="url(#pb549ddbb71)">
     <use style="fill:#440154;stroke:#440154;" x="117.412709" xlink:href="#C0_0_73c8a9409b" y="118.65524"/>
    </g>
    <g clip-path="url(#pb549ddbb71)">
     <use style="fill:#440154;stroke:#440154;" x="113.07086" xlink:href="#C0_0_73c8a9409b" y="81.549438"/>
    </g>
    <g clip-path="url(#pb549ddbb71)">
     <use style="fill:#440154;stroke:#440154;" x="101.130774" xlink:href="#C0_0_73c8a9409b" y="143.954651"/>
    </g>
    <g clip-path="url(#pb549ddbb71)">
     <use style="fill:#440154;stroke:#440154;" x="155.403891" xlink:href="#C0_0_73c8a9409b" y="86.271995"/>
    </g>
    <g clip-path="url(#pb549ddbb71)">
     <use style="fill:#440154;stroke:#440154;" x="147.805654" xlink:href="#C0_0_73c8a9409b" y="135.521514"/>
    </g>
    <g clip-path="url(#pb549ddbb71)">
     <use style="fill:#440154;stroke:#440154;" x="166.258514" xlink:href="#C0_0_73c8a9409b" y="130.461632"/>
    </g>
    <g clip-path="url(#pb549ddbb71)">
     <use style="fill:#440154;stroke:#440154;" x="113.07086" xlink:href="#C0_0_73c8a9409b" y="111.740068"/>
    </g>
    <g clip-path="url(#pb549ddbb71)">
     <use style="fill:#440154;stroke:#440154;" x="199.907846" xlink:href="#C0_0_73c8a9409b" y="137.208141"/>
    </g>
    <g clip-path="url(#pb549ddbb71)">
     <use style="fill:#440154;stroke:#440154;" x="152.147504" xlink:href="#C0_0_73c8a9409b" y="44.443636"/>
    </g>
    <g clip-path="url(#pb549ddbb71)">
     <use style="fill:#440154;stroke:#440154;" x="143.463805" xlink:href="#C0_0_73c8a9409b" y="65.526478"/>
    </g>
    <g clip-path="url(#pb549ddbb71)">
     <use style="fill:#440154;stroke:#440154;" x="121.754558" xlink:href="#C0_0_73c8a9409b" y="134.6782"/>
    </g>
    <g clip-path="url(#pb549ddbb71)">
     <use style="fill:#440154;stroke:#440154;" x="156.489353" xlink:href="#C0_0_73c8a9409b" y="164.531505"/>
    </g>
    <g clip-path="url(#pb549ddbb71)">
     <use style="fill:#440154;stroke:#440154;" x="132.609182" xlink:href="#C0_0_73c8a9409b" y="169.591387"/>
    </g>
    <g clip-path="url(#pb549ddbb71)">
     <use style="fill:#440154;stroke:#440154;" x="155.403891" xlink:href="#C0_0_73c8a9409b" y="174.651269"/>
    </g>
    <g clip-path="url(#pb549ddbb71)">
     <use style="fill:#440154;stroke:#440154;" x="142.378343" xlink:href="#C0_0_73c8a9409b" y="102.126292"/>
    </g>
    <g clip-path="url(#pb549ddbb71)">
     <use style="fill:#440154;stroke:#440154;" x="121.754558" xlink:href="#C0_0_73c8a9409b" y="152.050462"/>
    </g>
    <g clip-path="url(#pb549ddbb71)">
     <use style="fill:#440154;stroke:#440154;" x="159.74574" xlink:href="#C0_0_73c8a9409b" y="83.573391"/>
    </g>
    <g clip-path="url(#pb549ddbb71)">
     <use style="fill:#440154;stroke:#440154;" x="157.574815" xlink:href="#C0_0_73c8a9409b" y="90.657226"/>
    </g>
    <g clip-path="url(#pb549ddbb71)">
     <use style="fill:#440154;stroke:#440154;" x="171.685825" xlink:href="#C0_0_73c8a9409b" y="117.643264"/>
    </g>
    <g clip-path="url(#pb549ddbb71)">
     <use style="fill:#440154;stroke:#440154;" x="145.63473" xlink:href="#C0_0_73c8a9409b" y="120.341868"/>
    </g>
    <g clip-path="url(#pb549ddbb71)">
     <use style="fill:#440154;stroke:#440154;" x="119.583634" xlink:href="#C0_0_73c8a9409b" y="170.940689"/>
    </g>
    <g clip-path="url(#pb549ddbb71)">
     <use style="fill:#440154;stroke:#440154;" x="110.899935" xlink:href="#C0_0_73c8a9409b" y="96.729102"/>
    </g>
    <g clip-path="url(#pb549ddbb71)">
     <use style="fill:#440154;stroke:#440154;" x="152.147504" xlink:href="#C0_0_73c8a9409b" y="100.102339"/>
    </g>
    <g clip-path="url(#pb549ddbb71)">
     <use style="fill:#440154;stroke:#440154;" x="169.514901" xlink:href="#C0_0_73c8a9409b" y="133.834887"/>
    </g>
    <g clip-path="url(#pb549ddbb71)">
     <use style="fill:#440154;stroke:#440154;" x="171.685825" xlink:href="#C0_0_73c8a9409b" y="140.581396"/>
    </g>
    <g clip-path="url(#pb549ddbb71)">
     <use style="fill:#440154;stroke:#440154;" x="190.138685" xlink:href="#C0_0_73c8a9409b" y="91.669203"/>
    </g>
    <g clip-path="url(#pb549ddbb71)">
     <use style="fill:#440154;stroke:#440154;" x="191.224147" xlink:href="#C0_0_73c8a9409b" y="106.848849"/>
    </g>
    <g clip-path="url(#pb549ddbb71)">
     <use style="fill:#440154;stroke:#440154;" x="130.438257" xlink:href="#C0_0_73c8a9409b" y="108.535476"/>
    </g>
   </g>
   <g id="matplotlib.axis_1">
    <g id="xtick_1">
     <g id="line2d_1">
      <defs>
       <path d="M 0 0 
L 0 3.5 
" id="mdb9e5710e4" style="stroke:#000000;stroke-width:0.8;"/>
      </defs>
      <g>
       <use style="stroke:#000000;stroke-width:0.8;" x="102.83964" xlink:href="#mdb9e5710e4" y="252"/>
      </g>
     </g>
     <g id="text_1">
      <!-- −1 -->
      <g transform="translate(95.468546 266.598437)scale(0.1 -0.1)">
       <defs>
        <path d="M 10.59375 35.5 
L 73.1875 35.5 
L 73.1875 27.203125 
L 10.59375 27.203125 
z
" id="DejaVuSans-8722"/>
        <path d="M 12.40625 8.296875 
L 28.515625 8.296875 
L 28.515625 63.921875 
L 10.984375 60.40625 
L 10.984375 69.390625 
L 28.421875 72.90625 
L 38.28125 72.90625 
L 38.28125 8.296875 
L 54.390625 8.296875 
L 54.390625 0 
L 12.40625 0 
z
" id="DejaVuSans-49"/>
       </defs>
       <use xlink:href="#DejaVuSans-8722"/>
       <use x="83.789062" xlink:href="#DejaVuSans-49"/>
      </g>
     </g>
    </g>
    <g id="xtick_2">
     <g id="line2d_2">
      <g>
       <use style="stroke:#000000;stroke-width:0.8;" x="171.011375" xlink:href="#mdb9e5710e4" y="252"/>
      </g>
     </g>
     <g id="text_2">
      <!-- 0 -->
      <g transform="translate(167.830125 266.598437)scale(0.1 -0.1)">
       <defs>
        <path d="M 31.78125 66.40625 
Q 24.171875 66.40625 20.328125 58.90625 
Q 16.5 51.421875 16.5 36.375 
Q 16.5 21.390625 20.328125 13.890625 
Q 24.171875 6.390625 31.78125 6.390625 
Q 39.453125 6.390625 43.28125 13.890625 
Q 47.125 21.390625 47.125 36.375 
Q 47.125 51.421875 43.28125 58.90625 
Q 39.453125 66.40625 31.78125 66.40625 
z
M 31.78125 74.21875 
Q 44.046875 74.21875 50.515625 64.515625 
Q 56.984375 54.828125 56.984375 36.375 
Q 56.984375 17.96875 50.515625 8.265625 
Q 44.046875 -1.421875 31.78125 -1.421875 
Q 19.53125 -1.421875 13.0625 8.265625 
Q 6.59375 17.96875 6.59375 36.375 
Q 6.59375 54.828125 13.0625 64.515625 
Q 19.53125 74.21875 31.78125 74.21875 
z
" id="DejaVuSans-48"/>
       </defs>
       <use xlink:href="#DejaVuSans-48"/>
      </g>
     </g>
    </g>
    <g id="xtick_3">
     <g id="line2d_3">
      <g>
       <use style="stroke:#000000;stroke-width:0.8;" x="239.183111" xlink:href="#mdb9e5710e4" y="252"/>
      </g>
     </g>
     <g id="text_3">
      <!-- 1 -->
      <g transform="translate(236.001861 266.598437)scale(0.1 -0.1)">
       <use xlink:href="#DejaVuSans-49"/>
      </g>
     </g>
    </g>
    <g id="xtick_4">
     <g id="line2d_4">
      <g>
       <use style="stroke:#000000;stroke-width:0.8;" x="307.354847" xlink:href="#mdb9e5710e4" y="252"/>
      </g>
     </g>
     <g id="text_4">
      <!-- 2 -->
      <g transform="translate(304.173597 266.598437)scale(0.1 -0.1)">
       <defs>
        <path d="M 19.1875 8.296875 
L 53.609375 8.296875 
L 53.609375 0 
L 7.328125 0 
L 7.328125 8.296875 
Q 12.9375 14.109375 22.625 23.890625 
Q 32.328125 33.6875 34.8125 36.53125 
Q 39.546875 41.84375 41.421875 45.53125 
Q 43.3125 49.21875 43.3125 52.78125 
Q 43.3125 58.59375 39.234375 62.25 
Q 35.15625 65.921875 28.609375 65.921875 
Q 23.96875 65.921875 18.8125 64.3125 
Q 13.671875 62.703125 7.8125 59.421875 
L 7.8125 69.390625 
Q 13.765625 71.78125 18.9375 73 
Q 24.125 74.21875 28.421875 74.21875 
Q 39.75 74.21875 46.484375 68.546875 
Q 53.21875 62.890625 53.21875 53.421875 
Q 53.21875 48.921875 51.53125 44.890625 
Q 49.859375 40.875 45.40625 35.40625 
Q 44.1875 33.984375 37.640625 27.21875 
Q 31.109375 20.453125 19.1875 8.296875 
z
" id="DejaVuSans-50"/>
       </defs>
       <use xlink:href="#DejaVuSans-50"/>
      </g>
     </g>
    </g>
    <g id="xtick_5">
     <g id="line2d_5">
      <g>
       <use style="stroke:#000000;stroke-width:0.8;" x="375.526582" xlink:href="#mdb9e5710e4" y="252"/>
      </g>
     </g>
     <g id="text_5">
      <!-- 3 -->
      <g transform="translate(372.345332 266.598437)scale(0.1 -0.1)">
       <defs>
        <path d="M 40.578125 39.3125 
Q 47.65625 37.796875 51.625 33 
Q 55.609375 28.21875 55.609375 21.1875 
Q 55.609375 10.40625 48.1875 4.484375 
Q 40.765625 -1.421875 27.09375 -1.421875 
Q 22.515625 -1.421875 17.65625 -0.515625 
Q 12.796875 0.390625 7.625 2.203125 
L 7.625 11.71875 
Q 11.71875 9.328125 16.59375 8.109375 
Q 21.484375 6.890625 26.8125 6.890625 
Q 36.078125 6.890625 40.9375 10.546875 
Q 45.796875 14.203125 45.796875 21.1875 
Q 45.796875 27.640625 41.28125 31.265625 
Q 36.765625 34.90625 28.71875 34.90625 
L 20.21875 34.90625 
L 20.21875 43.015625 
L 29.109375 43.015625 
Q 36.375 43.015625 40.234375 45.921875 
Q 44.09375 48.828125 44.09375 54.296875 
Q 44.09375 59.90625 40.109375 62.90625 
Q 36.140625 65.921875 28.71875 65.921875 
Q 24.65625 65.921875 20.015625 65.03125 
Q 15.375 64.15625 9.8125 62.3125 
L 9.8125 71.09375 
Q 15.4375 72.65625 20.34375 73.4375 
Q 25.25 74.21875 29.59375 74.21875 
Q 40.828125 74.21875 47.359375 69.109375 
Q 53.90625 64.015625 53.90625 55.328125 
Q 53.90625 49.265625 50.4375 45.09375 
Q 46.96875 40.921875 40.578125 39.3125 
z
" id="DejaVuSans-51"/>
       </defs>
       <use xlink:href="#DejaVuSans-51"/>
      </g>
     </g>
    </g>
    <g id="text_6">
     <!-- Proline -->
     <g transform="translate(204.446875 280.276563)scale(0.1 -0.1)">
      <defs>
       <path d="M 19.671875 64.796875 
L 19.671875 37.40625 
L 32.078125 37.40625 
Q 38.96875 37.40625 42.71875 40.96875 
Q 46.484375 44.53125 46.484375 51.125 
Q 46.484375 57.671875 42.71875 61.234375 
Q 38.96875 64.796875 32.078125 64.796875 
z
M 9.8125 72.90625 
L 32.078125 72.90625 
Q 44.34375 72.90625 50.609375 67.359375 
Q 56.890625 61.8125 56.890625 51.125 
Q 56.890625 40.328125 50.609375 34.8125 
Q 44.34375 29.296875 32.078125 29.296875 
L 19.671875 29.296875 
L 19.671875 0 
L 9.8125 0 
z
" id="DejaVuSans-80"/>
       <path d="M 41.109375 46.296875 
Q 39.59375 47.171875 37.8125 47.578125 
Q 36.03125 48 33.890625 48 
Q 26.265625 48 22.1875 43.046875 
Q 18.109375 38.09375 18.109375 28.8125 
L 18.109375 0 
L 9.078125 0 
L 9.078125 54.6875 
L 18.109375 54.6875 
L 18.109375 46.1875 
Q 20.953125 51.171875 25.484375 53.578125 
Q 30.03125 56 36.53125 56 
Q 37.453125 56 38.578125 55.875 
Q 39.703125 55.765625 41.0625 55.515625 
z
" id="DejaVuSans-114"/>
       <path d="M 30.609375 48.390625 
Q 23.390625 48.390625 19.1875 42.75 
Q 14.984375 37.109375 14.984375 27.296875 
Q 14.984375 17.484375 19.15625 11.84375 
Q 23.34375 6.203125 30.609375 6.203125 
Q 37.796875 6.203125 41.984375 11.859375 
Q 46.1875 17.53125 46.1875 27.296875 
Q 46.1875 37.015625 41.984375 42.703125 
Q 37.796875 48.390625 30.609375 48.390625 
z
M 30.609375 56 
Q 42.328125 56 49.015625 48.375 
Q 55.71875 40.765625 55.71875 27.296875 
Q 55.71875 13.875 49.015625 6.21875 
Q 42.328125 -1.421875 30.609375 -1.421875 
Q 18.84375 -1.421875 12.171875 6.21875 
Q 5.515625 13.875 5.515625 27.296875 
Q 5.515625 40.765625 12.171875 48.375 
Q 18.84375 56 30.609375 56 
z
" id="DejaVuSans-111"/>
       <path d="M 9.421875 75.984375 
L 18.40625 75.984375 
L 18.40625 0 
L 9.421875 0 
z
" id="DejaVuSans-108"/>
       <path d="M 9.421875 54.6875 
L 18.40625 54.6875 
L 18.40625 0 
L 9.421875 0 
z
M 9.421875 75.984375 
L 18.40625 75.984375 
L 18.40625 64.59375 
L 9.421875 64.59375 
z
" id="DejaVuSans-105"/>
       <path d="M 54.890625 33.015625 
L 54.890625 0 
L 45.90625 0 
L 45.90625 32.71875 
Q 45.90625 40.484375 42.875 44.328125 
Q 39.84375 48.1875 33.796875 48.1875 
Q 26.515625 48.1875 22.3125 43.546875 
Q 18.109375 38.921875 18.109375 30.90625 
L 18.109375 0 
L 9.078125 0 
L 9.078125 54.6875 
L 18.109375 54.6875 
L 18.109375 46.1875 
Q 21.34375 51.125 25.703125 53.5625 
Q 30.078125 56 35.796875 56 
Q 45.21875 56 50.046875 50.171875 
Q 54.890625 44.34375 54.890625 33.015625 
z
" id="DejaVuSans-110"/>
       <path d="M 56.203125 29.59375 
L 56.203125 25.203125 
L 14.890625 25.203125 
Q 15.484375 15.921875 20.484375 11.0625 
Q 25.484375 6.203125 34.421875 6.203125 
Q 39.59375 6.203125 44.453125 7.46875 
Q 49.3125 8.734375 54.109375 11.28125 
L 54.109375 2.78125 
Q 49.265625 0.734375 44.1875 -0.34375 
Q 39.109375 -1.421875 33.890625 -1.421875 
Q 20.796875 -1.421875 13.15625 6.1875 
Q 5.515625 13.8125 5.515625 26.8125 
Q 5.515625 40.234375 12.765625 48.109375 
Q 20.015625 56 32.328125 56 
Q 43.359375 56 49.78125 48.890625 
Q 56.203125 41.796875 56.203125 29.59375 
z
M 47.21875 32.234375 
Q 47.125 39.59375 43.09375 43.984375 
Q 39.0625 48.390625 32.421875 48.390625 
Q 24.90625 48.390625 20.390625 44.140625 
Q 15.875 39.890625 15.1875 32.171875 
z
" id="DejaVuSans-101"/>
      </defs>
      <use xlink:href="#DejaVuSans-80"/>
      <use x="58.552734" xlink:href="#DejaVuSans-114"/>
      <use x="97.416016" xlink:href="#DejaVuSans-111"/>
      <use x="158.597656" xlink:href="#DejaVuSans-108"/>
      <use x="186.380859" xlink:href="#DejaVuSans-105"/>
      <use x="214.164062" xlink:href="#DejaVuSans-110"/>
      <use x="277.542969" xlink:href="#DejaVuSans-101"/>
     </g>
    </g>
   </g>
   <g id="matplotlib.axis_2">
    <g id="ytick_1">
     <g id="line2d_6">
      <defs>
       <path d="M 0 0 
L -3.5 0 
" id="maf5bd52302" style="stroke:#000000;stroke-width:0.8;"/>
      </defs>
      <g>
       <use style="stroke:#000000;stroke-width:0.8;" x="54" xlink:href="#maf5bd52302" y="217.384921"/>
      </g>
     </g>
     <g id="text_7">
      <!-- −1 -->
      <g transform="translate(32.257812 221.18414)scale(0.1 -0.1)">
       <use xlink:href="#DejaVuSans-8722"/>
       <use x="83.789062" xlink:href="#DejaVuSans-49"/>
      </g>
     </g>
    </g>
    <g id="ytick_2">
     <g id="line2d_7">
      <g>
       <use style="stroke:#000000;stroke-width:0.8;" x="54" xlink:href="#maf5bd52302" y="178.394066"/>
      </g>
     </g>
     <g id="text_8">
      <!-- 0 -->
      <g transform="translate(40.6375 182.193285)scale(0.1 -0.1)">
       <use xlink:href="#DejaVuSans-48"/>
      </g>
     </g>
    </g>
    <g id="ytick_3">
     <g id="line2d_8">
      <g>
       <use style="stroke:#000000;stroke-width:0.8;" x="54" xlink:href="#maf5bd52302" y="139.40321"/>
      </g>
     </g>
     <g id="text_9">
      <!-- 1 -->
      <g transform="translate(40.6375 143.202429)scale(0.1 -0.1)">
       <use xlink:href="#DejaVuSans-49"/>
      </g>
     </g>
    </g>
    <g id="ytick_4">
     <g id="line2d_9">
      <g>
       <use style="stroke:#000000;stroke-width:0.8;" x="54" xlink:href="#maf5bd52302" y="100.412355"/>
      </g>
     </g>
     <g id="text_10">
      <!-- 2 -->
      <g transform="translate(40.6375 104.211574)scale(0.1 -0.1)">
       <use xlink:href="#DejaVuSans-50"/>
      </g>
     </g>
    </g>
    <g id="ytick_5">
     <g id="line2d_10">
      <g>
       <use style="stroke:#000000;stroke-width:0.8;" x="54" xlink:href="#maf5bd52302" y="61.4215"/>
      </g>
     </g>
     <g id="text_11">
      <!-- 3 -->
      <g transform="translate(40.6375 65.220718)scale(0.1 -0.1)">
       <use xlink:href="#DejaVuSans-51"/>
      </g>
     </g>
    </g>
    <g id="text_12">
     <!-- Color_Intensity -->
     <g transform="translate(25.9 180.597188)rotate(-90)scale(0.1 -0.1)">
      <defs>
       <path d="M 64.40625 67.28125 
L 64.40625 56.890625 
Q 59.421875 61.53125 53.78125 63.8125 
Q 48.140625 66.109375 41.796875 66.109375 
Q 29.296875 66.109375 22.65625 58.46875 
Q 16.015625 50.828125 16.015625 36.375 
Q 16.015625 21.96875 22.65625 14.328125 
Q 29.296875 6.6875 41.796875 6.6875 
Q 48.140625 6.6875 53.78125 8.984375 
Q 59.421875 11.28125 64.40625 15.921875 
L 64.40625 5.609375 
Q 59.234375 2.09375 53.4375 0.328125 
Q 47.65625 -1.421875 41.21875 -1.421875 
Q 24.65625 -1.421875 15.125 8.703125 
Q 5.609375 18.84375 5.609375 36.375 
Q 5.609375 53.953125 15.125 64.078125 
Q 24.65625 74.21875 41.21875 74.21875 
Q 47.75 74.21875 53.53125 72.484375 
Q 59.328125 70.75 64.40625 67.28125 
z
" id="DejaVuSans-67"/>
       <path d="M 50.984375 -16.609375 
L 50.984375 -23.578125 
L -0.984375 -23.578125 
L -0.984375 -16.609375 
z
" id="DejaVuSans-95"/>
       <path d="M 9.8125 72.90625 
L 19.671875 72.90625 
L 19.671875 0 
L 9.8125 0 
z
" id="DejaVuSans-73"/>
       <path d="M 18.3125 70.21875 
L 18.3125 54.6875 
L 36.8125 54.6875 
L 36.8125 47.703125 
L 18.3125 47.703125 
L 18.3125 18.015625 
Q 18.3125 11.328125 20.140625 9.421875 
Q 21.96875 7.515625 27.59375 7.515625 
L 36.8125 7.515625 
L 36.8125 0 
L 27.59375 0 
Q 17.1875 0 13.234375 3.875 
Q 9.28125 7.765625 9.28125 18.015625 
L 9.28125 47.703125 
L 2.6875 47.703125 
L 2.6875 54.6875 
L 9.28125 54.6875 
L 9.28125 70.21875 
z
" id="DejaVuSans-116"/>
       <path d="M 44.28125 53.078125 
L 44.28125 44.578125 
Q 40.484375 46.53125 36.375 47.5 
Q 32.28125 48.484375 27.875 48.484375 
Q 21.1875 48.484375 17.84375 46.4375 
Q 14.5 44.390625 14.5 40.28125 
Q 14.5 37.15625 16.890625 35.375 
Q 19.28125 33.59375 26.515625 31.984375 
L 29.59375 31.296875 
Q 39.15625 29.25 43.1875 25.515625 
Q 47.21875 21.78125 47.21875 15.09375 
Q 47.21875 7.46875 41.1875 3.015625 
Q 35.15625 -1.421875 24.609375 -1.421875 
Q 20.21875 -1.421875 15.453125 -0.5625 
Q 10.6875 0.296875 5.421875 2 
L 5.421875 11.28125 
Q 10.40625 8.6875 15.234375 7.390625 
Q 20.0625 6.109375 24.8125 6.109375 
Q 31.15625 6.109375 34.5625 8.28125 
Q 37.984375 10.453125 37.984375 14.40625 
Q 37.984375 18.0625 35.515625 20.015625 
Q 33.0625 21.96875 24.703125 23.78125 
L 21.578125 24.515625 
Q 13.234375 26.265625 9.515625 29.90625 
Q 5.8125 33.546875 5.8125 39.890625 
Q 5.8125 47.609375 11.28125 51.796875 
Q 16.75 56 26.8125 56 
Q 31.78125 56 36.171875 55.265625 
Q 40.578125 54.546875 44.28125 53.078125 
z
" id="DejaVuSans-115"/>
       <path d="M 32.171875 -5.078125 
Q 28.375 -14.84375 24.75 -17.8125 
Q 21.140625 -20.796875 15.09375 -20.796875 
L 7.90625 -20.796875 
L 7.90625 -13.28125 
L 13.1875 -13.28125 
Q 16.890625 -13.28125 18.9375 -11.515625 
Q 21 -9.765625 23.484375 -3.21875 
L 25.09375 0.875 
L 2.984375 54.6875 
L 12.5 54.6875 
L 29.59375 11.921875 
L 46.6875 54.6875 
L 56.203125 54.6875 
z
" id="DejaVuSans-121"/>
      </defs>
      <use xlink:href="#DejaVuSans-67"/>
      <use x="69.824219" xlink:href="#DejaVuSans-111"/>
      <use x="131.005859" xlink:href="#DejaVuSans-108"/>
      <use x="158.789062" xlink:href="#DejaVuSans-111"/>
      <use x="219.970703" xlink:href="#DejaVuSans-114"/>
      <use x="261.083984" xlink:href="#DejaVuSans-95"/>
      <use x="311.083984" xlink:href="#DejaVuSans-73"/>
      <use x="340.576172" xlink:href="#DejaVuSans-110"/>
      <use x="403.955078" xlink:href="#DejaVuSans-116"/>
      <use x="443.164062" xlink:href="#DejaVuSans-101"/>
      <use x="504.6875" xlink:href="#DejaVuSans-110"/>
      <use x="568.066406" xlink:href="#DejaVuSans-115"/>
      <use x="620.166016" xlink:href="#DejaVuSans-105"/>
      <use x="647.949219" xlink:href="#DejaVuSans-116"/>
      <use x="687.158203" xlink:href="#DejaVuSans-121"/>
     </g>
    </g>
   </g>
   <g id="patch_3">
    <path d="M 54 252 
L 54 34.56 
" style="fill:none;stroke:#000000;stroke-linecap:square;stroke-linejoin:miter;stroke-width:0.8;"/>
   </g>
   <g id="patch_4">
    <path d="M 388.8 252 
L 388.8 34.56 
" style="fill:none;stroke:#000000;stroke-linecap:square;stroke-linejoin:miter;stroke-width:0.8;"/>
   </g>
   <g id="patch_5">
    <path d="M 54 252 
L 388.8 252 
" style="fill:none;stroke:#000000;stroke-linecap:square;stroke-linejoin:miter;stroke-width:0.8;"/>
   </g>
   <g id="patch_6">
    <path d="M 54 34.56 
L 388.8 34.56 
" style="fill:none;stroke:#000000;stroke-linecap:square;stroke-linejoin:miter;stroke-width:0.8;"/>
   </g>
  </g>
 </g>
 <defs>
  <clipPath id="pb549ddbb71">
   <rect height="217.44" width="334.8" x="54" y="34.56"/>
  </clipPath>
 </defs>
</svg>
