<?xml version="1.0" encoding="utf-8" standalone="no"?>
<!DOCTYPE svg PUBLIC "-//W3C//DTD SVG 1.1//EN"
  "http://www.w3.org/Graphics/SVG/1.1/DTD/svg11.dtd">
<!-- Created with matplotlib (https://matplotlib.org/) -->
<svg height="288pt" version="1.1" viewBox="0 0 432 288" width="432pt" xmlns="http://www.w3.org/2000/svg" xmlns:xlink="http://www.w3.org/1999/xlink">
 <metadata>
  <rdf:RDF xmlns:cc="http://creativecommons.org/ns#" xmlns:dc="http://purl.org/dc/elements/1.1/" xmlns:rdf="http://www.w3.org/1999/02/22-rdf-syntax-ns#">
   <cc:Work>
    <dc:type rdf:resource="http://purl.org/dc/dcmitype/StillImage"/>
    <dc:date>2021-06-25T00:57:31.668438</dc:date>
    <dc:format>image/svg+xml</dc:format>
    <dc:creator>
     <cc:Agent>
      <dc:title>Matplotlib v3.3.2, https://matplotlib.org/</dc:title>
     </cc:Agent>
    </dc:creator>
   </cc:Work>
  </rdf:RDF>
 </metadata>
 <defs>
  <style type="text/css">*{stroke-linecap:butt;stroke-linejoin:round;}</style>
 </defs>
 <g id="figure_1">
  <g id="patch_1">
   <path d="M 0 288 
L 432 288 
L 432 0 
L 0 0 
z
" style="fill:none;"/>
  </g>
  <g id="axes_1">
   <g id="patch_2">
    <path d="M 54 252 
L 388.8 252 
L 388.8 34.56 
L 54 34.56 
z
" style="fill:#ffffff;"/>
   </g>
   <g id="PathCollection_1">
    <defs>
     <path d="M 0 3 
C 0.795609 3 1.55874 2.683901 2.12132 2.12132 
C 2.683901 1.55874 3 0.795609 3 -0 
C 3 -0.795609 2.683901 -1.55874 2.12132 -2.12132 
C 1.55874 -2.683901 0.795609 -3 0 -3 
C -0.795609 -3 -1.55874 -2.683901 -2.12132 -2.12132 
C -2.683901 -1.55874 -3 -0.795609 -3 0 
C -3 0.795609 -2.683901 1.55874 -2.12132 2.12132 
C -1.55874 2.683901 -0.795609 3 0 3 
z
" id="C0_0_ef25b5255f"/>
    </defs>
    <g clip-path="url(#p24eaf908ff)">
     <use style="fill:#ffa500;stroke:#ffa500;" x="94.616941" xlink:href="#C0_0_ef25b5255f" y="68.221767"/>
    </g>
    <g clip-path="url(#p24eaf908ff)">
     <use style="fill:#ffa500;stroke:#ffa500;" x="127.730653" xlink:href="#C0_0_ef25b5255f" y="81.086222"/>
    </g>
    <g clip-path="url(#p24eaf908ff)">
     <use style="fill:#ffa500;stroke:#ffa500;" x="145.732169" xlink:href="#C0_0_ef25b5255f" y="73.26387"/>
    </g>
    <g clip-path="url(#p24eaf908ff)">
     <use style="fill:#ffa500;stroke:#ffa500;" x="69.218182" xlink:href="#C0_0_ef25b5255f" y="81.48781"/>
    </g>
    <g clip-path="url(#p24eaf908ff)">
     <use style="fill:#ffa500;stroke:#ffa500;" x="131.114429" xlink:href="#C0_0_ef25b5255f" y="86.168109"/>
    </g>
    <g clip-path="url(#p24eaf908ff)">
     <use style="fill:#ffa500;stroke:#ffa500;" x="132.830486" xlink:href="#C0_0_ef25b5255f" y="71.802787"/>
    </g>
    <g clip-path="url(#p24eaf908ff)">
     <use style="fill:#ffa500;stroke:#ffa500;" x="108.721841" xlink:href="#C0_0_ef25b5255f" y="87.184632"/>
    </g>
    <g clip-path="url(#p24eaf908ff)">
     <use style="fill:#ffa500;stroke:#ffa500;" x="109.348831" xlink:href="#C0_0_ef25b5255f" y="71.785483"/>
    </g>
    <g clip-path="url(#p24eaf908ff)">
     <use style="fill:#ffa500;stroke:#ffa500;" x="108.951328" xlink:href="#C0_0_ef25b5255f" y="69.08334"/>
    </g>
    <g clip-path="url(#p24eaf908ff)">
     <use style="fill:#ffa500;stroke:#ffa500;" x="101.688687" xlink:href="#C0_0_ef25b5255f" y="74.972374"/>
    </g>
    <g clip-path="url(#p24eaf908ff)">
     <use style="fill:#ffa500;stroke:#ffa500;" x="110.897768" xlink:href="#C0_0_ef25b5255f" y="77.053122"/>
    </g>
    <g clip-path="url(#p24eaf908ff)">
     <use style="fill:#ffa500;stroke:#ffa500;" x="99.271821" xlink:href="#C0_0_ef25b5255f" y="83.608521"/>
    </g>
    <g clip-path="url(#p24eaf908ff)">
     <use style="fill:#ffa500;stroke:#ffa500;" x="104.226795" xlink:href="#C0_0_ef25b5255f" y="90.273324"/>
    </g>
    <g clip-path="url(#p24eaf908ff)">
     <use style="fill:#ffa500;stroke:#ffa500;" x="122.980053" xlink:href="#C0_0_ef25b5255f" y="61.932332"/>
    </g>
    <g clip-path="url(#p24eaf908ff)">
     <use style="fill:#ffa500;stroke:#ffa500;" x="142.945051" xlink:href="#C0_0_ef25b5255f" y="73.895069"/>
    </g>
    <g clip-path="url(#p24eaf908ff)">
     <use style="fill:#ffa500;stroke:#ffa500;" x="119.08214" xlink:href="#C0_0_ef25b5255f" y="62.194666"/>
    </g>
    <g clip-path="url(#p24eaf908ff)">
     <use style="fill:#ffa500;stroke:#ffa500;" x="110.143437" xlink:href="#C0_0_ef25b5255f" y="92.219402"/>
    </g>
    <g clip-path="url(#p24eaf908ff)">
     <use style="fill:#ffa500;stroke:#ffa500;" x="101.216737" xlink:href="#C0_0_ef25b5255f" y="71.773317"/>
    </g>
    <g clip-path="url(#p24eaf908ff)">
     <use style="fill:#ffa500;stroke:#ffa500;" x="102.867939" xlink:href="#C0_0_ef25b5255f" y="64.480043"/>
    </g>
    <g clip-path="url(#p24eaf908ff)">
     <use style="fill:#ffa500;stroke:#ffa500;" x="175.430752" xlink:href="#C0_0_ef25b5255f" y="74.598716"/>
    </g>
    <g clip-path="url(#p24eaf908ff)">
     <use style="fill:#ffa500;stroke:#ffa500;" x="124.533233" xlink:href="#C0_0_ef25b5255f" y="76.987407"/>
    </g>
    <g clip-path="url(#p24eaf908ff)">
     <use style="fill:#ffa500;stroke:#ffa500;" x="110.596783" xlink:href="#C0_0_ef25b5255f" y="85.530242"/>
    </g>
    <g clip-path="url(#p24eaf908ff)">
     <use style="fill:#ffa500;stroke:#ffa500;" x="111.715181" xlink:href="#C0_0_ef25b5255f" y="44.443636"/>
    </g>
    <g clip-path="url(#p24eaf908ff)">
     <use style="fill:#ffa500;stroke:#ffa500;" x="131.793988" xlink:href="#C0_0_ef25b5255f" y="63.361254"/>
    </g>
    <g clip-path="url(#p24eaf908ff)">
     <use style="fill:#ffa500;stroke:#ffa500;" x="106.067822" xlink:href="#C0_0_ef25b5255f" y="47.828189"/>
    </g>
    <g clip-path="url(#p24eaf908ff)">
     <use style="fill:#ffa500;stroke:#ffa500;" x="89.237999" xlink:href="#C0_0_ef25b5255f" y="73.060378"/>
    </g>
    <g clip-path="url(#p24eaf908ff)">
     <use style="fill:#ffa500;stroke:#ffa500;" x="134.362931" xlink:href="#C0_0_ef25b5255f" y="83.353032"/>
    </g>
    <g clip-path="url(#p24eaf908ff)">
     <use style="fill:#ffa500;stroke:#ffa500;" x="98.708155" xlink:href="#C0_0_ef25b5255f" y="96.110965"/>
    </g>
    <g clip-path="url(#p24eaf908ff)">
     <use style="fill:#ffa500;stroke:#ffa500;" x="121.204529" xlink:href="#C0_0_ef25b5255f" y="83.420889"/>
    </g>
    <g clip-path="url(#p24eaf908ff)">
     <use style="fill:#ffa500;stroke:#ffa500;" x="100.664583" xlink:href="#C0_0_ef25b5255f" y="70.944731"/>
    </g>
    <g clip-path="url(#p24eaf908ff)">
     <use style="fill:#ffa500;stroke:#ffa500;" x="146.13048" xlink:href="#C0_0_ef25b5255f" y="59.553762"/>
    </g>
    <g clip-path="url(#p24eaf908ff)">
     <use style="fill:#ffa500;stroke:#ffa500;" x="110.933449" xlink:href="#C0_0_ef25b5255f" y="70.562105"/>
    </g>
    <g clip-path="url(#p24eaf908ff)">
     <use style="fill:#ffa500;stroke:#ffa500;" x="105.71717" xlink:href="#C0_0_ef25b5255f" y="91.172883"/>
    </g>
    <g clip-path="url(#p24eaf908ff)">
     <use style="fill:#ffa500;stroke:#ffa500;" x="110.360957" xlink:href="#C0_0_ef25b5255f" y="64.544449"/>
    </g>
    <g clip-path="url(#p24eaf908ff)">
     <use style="fill:#ffa500;stroke:#ffa500;" x="85.203029" xlink:href="#C0_0_ef25b5255f" y="98.090204"/>
    </g>
    <g clip-path="url(#p24eaf908ff)">
     <use style="fill:#ffa500;stroke:#ffa500;" x="95.496849" xlink:href="#C0_0_ef25b5255f" y="79.51128"/>
    </g>
    <g clip-path="url(#p24eaf908ff)">
     <use style="fill:#ffa500;stroke:#ffa500;" x="72.913414" xlink:href="#C0_0_ef25b5255f" y="78.791791"/>
    </g>
    <g clip-path="url(#p24eaf908ff)">
     <use style="fill:#ffa500;stroke:#ffa500;" x="91.629504" xlink:href="#C0_0_ef25b5255f" y="102.403399"/>
    </g>
    <g clip-path="url(#p24eaf908ff)">
     <use style="fill:#ffa500;stroke:#ffa500;" x="114.977579" xlink:href="#C0_0_ef25b5255f" y="60.908326"/>
    </g>
    <g clip-path="url(#p24eaf908ff)">
     <use style="fill:#ffa500;stroke:#ffa500;" x="111.149722" xlink:href="#C0_0_ef25b5255f" y="83.229519"/>
    </g>
    <g clip-path="url(#p24eaf908ff)">
     <use style="fill:#ffa500;stroke:#ffa500;" x="153.875227" xlink:href="#C0_0_ef25b5255f" y="79.051012"/>
    </g>
    <g clip-path="url(#p24eaf908ff)">
     <use style="fill:#ffa500;stroke:#ffa500;" x="97.704658" xlink:href="#C0_0_ef25b5255f" y="54.035305"/>
    </g>
    <g clip-path="url(#p24eaf908ff)">
     <use style="fill:#ffa500;stroke:#ffa500;" x="102.46212" xlink:href="#C0_0_ef25b5255f" y="65.007963"/>
    </g>
    <g clip-path="url(#p24eaf908ff)">
     <use style="fill:#ffa500;stroke:#ffa500;" x="115.282526" xlink:href="#C0_0_ef25b5255f" y="75.787238"/>
    </g>
    <g clip-path="url(#p24eaf908ff)">
     <use style="fill:#ffa500;stroke:#ffa500;" x="99.362081" xlink:href="#C0_0_ef25b5255f" y="66.786097"/>
    </g>
    <g clip-path="url(#p24eaf908ff)">
     <use style="fill:#ffa500;stroke:#ffa500;" x="99.93816" xlink:href="#C0_0_ef25b5255f" y="68.442411"/>
    </g>
    <g clip-path="url(#p24eaf908ff)">
     <use style="fill:#ffa500;stroke:#ffa500;" x="96.841948" xlink:href="#C0_0_ef25b5255f" y="50.162429"/>
    </g>
    <g clip-path="url(#p24eaf908ff)">
     <use style="fill:#ffa500;stroke:#ffa500;" x="93.614935" xlink:href="#C0_0_ef25b5255f" y="70.227297"/>
    </g>
    <g clip-path="url(#p24eaf908ff)">
     <use style="fill:#ffa500;stroke:#ffa500;" x="109.8575" xlink:href="#C0_0_ef25b5255f" y="66.894455"/>
    </g>
    <g clip-path="url(#p24eaf908ff)">
     <use style="fill:#ffa500;stroke:#ffa500;" x="110.459285" xlink:href="#C0_0_ef25b5255f" y="69.190629"/>
    </g>
    <g clip-path="url(#p24eaf908ff)">
     <use style="fill:#0000ff;stroke:#0000ff;" x="276.437028" xlink:href="#C0_0_ef25b5255f" y="206.260183"/>
    </g>
    <g clip-path="url(#p24eaf908ff)">
     <use style="fill:#0000ff;stroke:#0000ff;" x="303.739043" xlink:href="#C0_0_ef25b5255f" y="199.390537"/>
    </g>
    <g clip-path="url(#p24eaf908ff)">
     <use style="fill:#0000ff;stroke:#0000ff;" x="291.987735" xlink:href="#C0_0_ef25b5255f" y="177.095441"/>
    </g>
    <g clip-path="url(#p24eaf908ff)">
     <use style="fill:#0000ff;stroke:#0000ff;" x="294.08292" xlink:href="#C0_0_ef25b5255f" y="213.469765"/>
    </g>
    <g clip-path="url(#p24eaf908ff)">
     <use style="fill:#0000ff;stroke:#0000ff;" x="313.102512" xlink:href="#C0_0_ef25b5255f" y="199.041301"/>
    </g>
    <g clip-path="url(#p24eaf908ff)">
     <use style="fill:#0000ff;stroke:#0000ff;" x="329.282788" xlink:href="#C0_0_ef25b5255f" y="181.097151"/>
    </g>
    <g clip-path="url(#p24eaf908ff)">
     <use style="fill:#0000ff;stroke:#0000ff;" x="353.479896" xlink:href="#C0_0_ef25b5255f" y="204.196983"/>
    </g>
    <g clip-path="url(#p24eaf908ff)">
     <use style="fill:#0000ff;stroke:#0000ff;" x="299.472334" xlink:href="#C0_0_ef25b5255f" y="216.041816"/>
    </g>
    <g clip-path="url(#p24eaf908ff)">
     <use style="fill:#0000ff;stroke:#0000ff;" x="352.545084" xlink:href="#C0_0_ef25b5255f" y="213.38573"/>
    </g>
    <g clip-path="url(#p24eaf908ff)">
     <use style="fill:#0000ff;stroke:#0000ff;" x="290.896531" xlink:href="#C0_0_ef25b5255f" y="206.446651"/>
    </g>
    <g clip-path="url(#p24eaf908ff)">
     <use style="fill:#0000ff;stroke:#0000ff;" x="331.369163" xlink:href="#C0_0_ef25b5255f" y="213.061189"/>
    </g>
    <g clip-path="url(#p24eaf908ff)">
     <use style="fill:#0000ff;stroke:#0000ff;" x="373.581818" xlink:href="#C0_0_ef25b5255f" y="204.573383"/>
    </g>
    <g clip-path="url(#p24eaf908ff)">
     <use style="fill:#0000ff;stroke:#0000ff;" x="315.947672" xlink:href="#C0_0_ef25b5255f" y="206.798087"/>
    </g>
    <g clip-path="url(#p24eaf908ff)">
     <use style="fill:#0000ff;stroke:#0000ff;" x="301.785948" xlink:href="#C0_0_ef25b5255f" y="203.450927"/>
    </g>
    <g clip-path="url(#p24eaf908ff)">
     <use style="fill:#0000ff;stroke:#0000ff;" x="316.553416" xlink:href="#C0_0_ef25b5255f" y="194.91399"/>
    </g>
    <g clip-path="url(#p24eaf908ff)">
     <use style="fill:#0000ff;stroke:#0000ff;" x="356.363374" xlink:href="#C0_0_ef25b5255f" y="191.766354"/>
    </g>
    <g clip-path="url(#p24eaf908ff)">
     <use style="fill:#0000ff;stroke:#0000ff;" x="291.324832" xlink:href="#C0_0_ef25b5255f" y="176.524567"/>
    </g>
    <g clip-path="url(#p24eaf908ff)">
     <use style="fill:#0000ff;stroke:#0000ff;" x="347.234326" xlink:href="#C0_0_ef25b5255f" y="201.79655"/>
    </g>
    <g clip-path="url(#p24eaf908ff)">
     <use style="fill:#0000ff;stroke:#0000ff;" x="346.38083" xlink:href="#C0_0_ef25b5255f" y="205.44429"/>
    </g>
    <g clip-path="url(#p24eaf908ff)">
     <use style="fill:#0000ff;stroke:#0000ff;" x="324.228541" xlink:href="#C0_0_ef25b5255f" y="179.522081"/>
    </g>
    <g clip-path="url(#p24eaf908ff)">
     <use style="fill:#0000ff;stroke:#0000ff;" x="316.876805" xlink:href="#C0_0_ef25b5255f" y="176.146642"/>
    </g>
    <g clip-path="url(#p24eaf908ff)">
     <use style="fill:#0000ff;stroke:#0000ff;" x="306.563191" xlink:href="#C0_0_ef25b5255f" y="200.177173"/>
    </g>
    <g clip-path="url(#p24eaf908ff)">
     <use style="fill:#0000ff;stroke:#0000ff;" x="308.547228" xlink:href="#C0_0_ef25b5255f" y="205.61525"/>
    </g>
    <g clip-path="url(#p24eaf908ff)">
     <use style="fill:#0000ff;stroke:#0000ff;" x="331.183978" xlink:href="#C0_0_ef25b5255f" y="227.164626"/>
    </g>
    <g clip-path="url(#p24eaf908ff)">
     <use style="fill:#0000ff;stroke:#0000ff;" x="362.903302" xlink:href="#C0_0_ef25b5255f" y="180.386373"/>
    </g>
    <g clip-path="url(#p24eaf908ff)">
     <use style="fill:#0000ff;stroke:#0000ff;" x="313.301287" xlink:href="#C0_0_ef25b5255f" y="212.919883"/>
    </g>
    <g clip-path="url(#p24eaf908ff)">
     <use style="fill:#0000ff;stroke:#0000ff;" x="285.701544" xlink:href="#C0_0_ef25b5255f" y="217.059987"/>
    </g>
    <g clip-path="url(#p24eaf908ff)">
     <use style="fill:#0000ff;stroke:#0000ff;" x="300.582559" xlink:href="#C0_0_ef25b5255f" y="156.769329"/>
    </g>
    <g clip-path="url(#p24eaf908ff)">
     <use style="fill:#0000ff;stroke:#0000ff;" x="322.483936" xlink:href="#C0_0_ef25b5255f" y="197.402777"/>
    </g>
    <g clip-path="url(#p24eaf908ff)">
     <use style="fill:#0000ff;stroke:#0000ff;" x="309.650609" xlink:href="#C0_0_ef25b5255f" y="201.283919"/>
    </g>
    <g clip-path="url(#p24eaf908ff)">
     <use style="fill:#0000ff;stroke:#0000ff;" x="312.7572" xlink:href="#C0_0_ef25b5255f" y="240.329152"/>
    </g>
    <g clip-path="url(#p24eaf908ff)">
     <use style="fill:#0000ff;stroke:#0000ff;" x="312.931098" xlink:href="#C0_0_ef25b5255f" y="202.246422"/>
    </g>
    <g clip-path="url(#p24eaf908ff)">
     <use style="fill:#0000ff;stroke:#0000ff;" x="286.111961" xlink:href="#C0_0_ef25b5255f" y="186.682753"/>
    </g>
    <g clip-path="url(#p24eaf908ff)">
     <use style="fill:#0000ff;stroke:#0000ff;" x="312.846487" xlink:href="#C0_0_ef25b5255f" y="194.81543"/>
    </g>
    <g clip-path="url(#p24eaf908ff)">
     <use style="fill:#0000ff;stroke:#0000ff;" x="335.688656" xlink:href="#C0_0_ef25b5255f" y="187.604424"/>
    </g>
    <g clip-path="url(#p24eaf908ff)">
     <use style="fill:#0000ff;stroke:#0000ff;" x="332.284177" xlink:href="#C0_0_ef25b5255f" y="172.104587"/>
    </g>
    <g clip-path="url(#p24eaf908ff)">
     <use style="fill:#0000ff;stroke:#0000ff;" x="328.991501" xlink:href="#C0_0_ef25b5255f" y="183.889557"/>
    </g>
    <g clip-path="url(#p24eaf908ff)">
     <use style="fill:#0000ff;stroke:#0000ff;" x="307.739557" xlink:href="#C0_0_ef25b5255f" y="208.162553"/>
    </g>
    <g clip-path="url(#p24eaf908ff)">
     <use style="fill:#0000ff;stroke:#0000ff;" x="312.449287" xlink:href="#C0_0_ef25b5255f" y="190.615566"/>
    </g>
    <g clip-path="url(#p24eaf908ff)">
     <use style="fill:#0000ff;stroke:#0000ff;" x="290.077455" xlink:href="#C0_0_ef25b5255f" y="203.673216"/>
    </g>
    <g clip-path="url(#p24eaf908ff)">
     <use style="fill:#0000ff;stroke:#0000ff;" x="315.537269" xlink:href="#C0_0_ef25b5255f" y="208.586918"/>
    </g>
    <g clip-path="url(#p24eaf908ff)">
     <use style="fill:#0000ff;stroke:#0000ff;" x="322.41555" xlink:href="#C0_0_ef25b5255f" y="242.116364"/>
    </g>
    <g clip-path="url(#p24eaf908ff)">
     <use style="fill:#0000ff;stroke:#0000ff;" x="354.776935" xlink:href="#C0_0_ef25b5255f" y="212.22641"/>
    </g>
    <g clip-path="url(#p24eaf908ff)">
     <use style="fill:#0000ff;stroke:#0000ff;" x="339.063187" xlink:href="#C0_0_ef25b5255f" y="193.745675"/>
    </g>
    <g clip-path="url(#p24eaf908ff)">
     <use style="fill:#0000ff;stroke:#0000ff;" x="305.668377" xlink:href="#C0_0_ef25b5255f" y="169.438358"/>
    </g>
    <g clip-path="url(#p24eaf908ff)">
     <use style="fill:#0000ff;stroke:#0000ff;" x="324.654091" xlink:href="#C0_0_ef25b5255f" y="193.559343"/>
    </g>
    <g clip-path="url(#p24eaf908ff)">
     <use style="fill:#0000ff;stroke:#0000ff;" x="291.41405" xlink:href="#C0_0_ef25b5255f" y="191.830339"/>
    </g>
    <g clip-path="url(#p24eaf908ff)">
     <use style="fill:#0000ff;stroke:#0000ff;" x="336.312596" xlink:href="#C0_0_ef25b5255f" y="214.776269"/>
    </g>
    <g clip-path="url(#p24eaf908ff)">
     <use style="fill:#0000ff;stroke:#0000ff;" x="338.425303" xlink:href="#C0_0_ef25b5255f" y="198.449687"/>
    </g>
    <g clip-path="url(#p24eaf908ff)">
     <use style="fill:#0000ff;stroke:#0000ff;" x="364.037498" xlink:href="#C0_0_ef25b5255f" y="230.868149"/>
    </g>
   </g>
   <g id="matplotlib.axis_1">
    <g id="xtick_1">
     <g id="line2d_1">
      <defs>
       <path d="M 0 0 
L 0 3.5 
" id="m78cc71694c" style="stroke:#000000;stroke-width:0.8;"/>
      </defs>
      <g>
       <use style="stroke:#000000;stroke-width:0.8;" x="65.776256" xlink:href="#m78cc71694c" y="252"/>
      </g>
     </g>
     <g id="text_1">
      <!-- 0.8 -->
      <g transform="translate(57.824693 266.598437)scale(0.1 -0.1)">
       <defs>
        <path d="M 31.78125 66.40625 
Q 24.171875 66.40625 20.328125 58.90625 
Q 16.5 51.421875 16.5 36.375 
Q 16.5 21.390625 20.328125 13.890625 
Q 24.171875 6.390625 31.78125 6.390625 
Q 39.453125 6.390625 43.28125 13.890625 
Q 47.125 21.390625 47.125 36.375 
Q 47.125 51.421875 43.28125 58.90625 
Q 39.453125 66.40625 31.78125 66.40625 
z
M 31.78125 74.21875 
Q 44.046875 74.21875 50.515625 64.515625 
Q 56.984375 54.828125 56.984375 36.375 
Q 56.984375 17.96875 50.515625 8.265625 
Q 44.046875 -1.421875 31.78125 -1.421875 
Q 19.53125 -1.421875 13.0625 8.265625 
Q 6.59375 17.96875 6.59375 36.375 
Q 6.59375 54.828125 13.0625 64.515625 
Q 19.53125 74.21875 31.78125 74.21875 
z
" id="DejaVuSans-48"/>
        <path d="M 10.6875 12.40625 
L 21 12.40625 
L 21 0 
L 10.6875 0 
z
" id="DejaVuSans-46"/>
        <path d="M 31.78125 34.625 
Q 24.75 34.625 20.71875 30.859375 
Q 16.703125 27.09375 16.703125 20.515625 
Q 16.703125 13.921875 20.71875 10.15625 
Q 24.75 6.390625 31.78125 6.390625 
Q 38.8125 6.390625 42.859375 10.171875 
Q 46.921875 13.96875 46.921875 20.515625 
Q 46.921875 27.09375 42.890625 30.859375 
Q 38.875 34.625 31.78125 34.625 
z
M 21.921875 38.8125 
Q 15.578125 40.375 12.03125 44.71875 
Q 8.5 49.078125 8.5 55.328125 
Q 8.5 64.0625 14.71875 69.140625 
Q 20.953125 74.21875 31.78125 74.21875 
Q 42.671875 74.21875 48.875 69.140625 
Q 55.078125 64.0625 55.078125 55.328125 
Q 55.078125 49.078125 51.53125 44.71875 
Q 48 40.375 41.703125 38.8125 
Q 48.828125 37.15625 52.796875 32.3125 
Q 56.78125 27.484375 56.78125 20.515625 
Q 56.78125 9.90625 50.3125 4.234375 
Q 43.84375 -1.421875 31.78125 -1.421875 
Q 19.734375 -1.421875 13.25 4.234375 
Q 6.78125 9.90625 6.78125 20.515625 
Q 6.78125 27.484375 10.78125 32.3125 
Q 14.796875 37.15625 21.921875 38.8125 
z
M 18.3125 54.390625 
Q 18.3125 48.734375 21.84375 45.5625 
Q 25.390625 42.390625 31.78125 42.390625 
Q 38.140625 42.390625 41.71875 45.5625 
Q 45.3125 48.734375 45.3125 54.390625 
Q 45.3125 60.0625 41.71875 63.234375 
Q 38.140625 66.40625 31.78125 66.40625 
Q 25.390625 66.40625 21.84375 63.234375 
Q 18.3125 60.0625 18.3125 54.390625 
z
" id="DejaVuSans-56"/>
       </defs>
       <use xlink:href="#DejaVuSans-48"/>
       <use x="63.623047" xlink:href="#DejaVuSans-46"/>
       <use x="95.410156" xlink:href="#DejaVuSans-56"/>
      </g>
     </g>
    </g>
    <g id="xtick_2">
     <g id="line2d_2">
      <g>
       <use style="stroke:#000000;stroke-width:0.8;" x="121.54221" xlink:href="#m78cc71694c" y="252"/>
      </g>
     </g>
     <g id="text_2">
      <!-- 1.0 -->
      <g transform="translate(113.590648 266.598437)scale(0.1 -0.1)">
       <defs>
        <path d="M 12.40625 8.296875 
L 28.515625 8.296875 
L 28.515625 63.921875 
L 10.984375 60.40625 
L 10.984375 69.390625 
L 28.421875 72.90625 
L 38.28125 72.90625 
L 38.28125 8.296875 
L 54.390625 8.296875 
L 54.390625 0 
L 12.40625 0 
z
" id="DejaVuSans-49"/>
       </defs>
       <use xlink:href="#DejaVuSans-49"/>
       <use x="63.623047" xlink:href="#DejaVuSans-46"/>
       <use x="95.410156" xlink:href="#DejaVuSans-48"/>
      </g>
     </g>
    </g>
    <g id="xtick_3">
     <g id="line2d_3">
      <g>
       <use style="stroke:#000000;stroke-width:0.8;" x="177.308165" xlink:href="#m78cc71694c" y="252"/>
      </g>
     </g>
     <g id="text_3">
      <!-- 1.2 -->
      <g transform="translate(169.356602 266.598437)scale(0.1 -0.1)">
       <defs>
        <path d="M 19.1875 8.296875 
L 53.609375 8.296875 
L 53.609375 0 
L 7.328125 0 
L 7.328125 8.296875 
Q 12.9375 14.109375 22.625 23.890625 
Q 32.328125 33.6875 34.8125 36.53125 
Q 39.546875 41.84375 41.421875 45.53125 
Q 43.3125 49.21875 43.3125 52.78125 
Q 43.3125 58.59375 39.234375 62.25 
Q 35.15625 65.921875 28.609375 65.921875 
Q 23.96875 65.921875 18.8125 64.3125 
Q 13.671875 62.703125 7.8125 59.421875 
L 7.8125 69.390625 
Q 13.765625 71.78125 18.9375 73 
Q 24.125 74.21875 28.421875 74.21875 
Q 39.75 74.21875 46.484375 68.546875 
Q 53.21875 62.890625 53.21875 53.421875 
Q 53.21875 48.921875 51.53125 44.890625 
Q 49.859375 40.875 45.40625 35.40625 
Q 44.1875 33.984375 37.640625 27.21875 
Q 31.109375 20.453125 19.1875 8.296875 
z
" id="DejaVuSans-50"/>
       </defs>
       <use xlink:href="#DejaVuSans-49"/>
       <use x="63.623047" xlink:href="#DejaVuSans-46"/>
       <use x="95.410156" xlink:href="#DejaVuSans-50"/>
      </g>
     </g>
    </g>
    <g id="xtick_4">
     <g id="line2d_4">
      <g>
       <use style="stroke:#000000;stroke-width:0.8;" x="233.074119" xlink:href="#m78cc71694c" y="252"/>
      </g>
     </g>
     <g id="text_4">
      <!-- 1.4 -->
      <g transform="translate(225.122556 266.598437)scale(0.1 -0.1)">
       <defs>
        <path d="M 37.796875 64.3125 
L 12.890625 25.390625 
L 37.796875 25.390625 
z
M 35.203125 72.90625 
L 47.609375 72.90625 
L 47.609375 25.390625 
L 58.015625 25.390625 
L 58.015625 17.1875 
L 47.609375 17.1875 
L 47.609375 0 
L 37.796875 0 
L 37.796875 17.1875 
L 4.890625 17.1875 
L 4.890625 26.703125 
z
" id="DejaVuSans-52"/>
       </defs>
       <use xlink:href="#DejaVuSans-49"/>
       <use x="63.623047" xlink:href="#DejaVuSans-46"/>
       <use x="95.410156" xlink:href="#DejaVuSans-52"/>
      </g>
     </g>
    </g>
    <g id="xtick_5">
     <g id="line2d_5">
      <g>
       <use style="stroke:#000000;stroke-width:0.8;" x="288.840073" xlink:href="#m78cc71694c" y="252"/>
      </g>
     </g>
     <g id="text_5">
      <!-- 1.6 -->
      <g transform="translate(280.888511 266.598437)scale(0.1 -0.1)">
       <defs>
        <path d="M 33.015625 40.375 
Q 26.375 40.375 22.484375 35.828125 
Q 18.609375 31.296875 18.609375 23.390625 
Q 18.609375 15.53125 22.484375 10.953125 
Q 26.375 6.390625 33.015625 6.390625 
Q 39.65625 6.390625 43.53125 10.953125 
Q 47.40625 15.53125 47.40625 23.390625 
Q 47.40625 31.296875 43.53125 35.828125 
Q 39.65625 40.375 33.015625 40.375 
z
M 52.59375 71.296875 
L 52.59375 62.3125 
Q 48.875 64.0625 45.09375 64.984375 
Q 41.3125 65.921875 37.59375 65.921875 
Q 27.828125 65.921875 22.671875 59.328125 
Q 17.53125 52.734375 16.796875 39.40625 
Q 19.671875 43.65625 24.015625 45.921875 
Q 28.375 48.1875 33.59375 48.1875 
Q 44.578125 48.1875 50.953125 41.515625 
Q 57.328125 34.859375 57.328125 23.390625 
Q 57.328125 12.15625 50.6875 5.359375 
Q 44.046875 -1.421875 33.015625 -1.421875 
Q 20.359375 -1.421875 13.671875 8.265625 
Q 6.984375 17.96875 6.984375 36.375 
Q 6.984375 53.65625 15.1875 63.9375 
Q 23.390625 74.21875 37.203125 74.21875 
Q 40.921875 74.21875 44.703125 73.484375 
Q 48.484375 72.75 52.59375 71.296875 
z
" id="DejaVuSans-54"/>
       </defs>
       <use xlink:href="#DejaVuSans-49"/>
       <use x="63.623047" xlink:href="#DejaVuSans-46"/>
       <use x="95.410156" xlink:href="#DejaVuSans-54"/>
      </g>
     </g>
    </g>
    <g id="xtick_6">
     <g id="line2d_6">
      <g>
       <use style="stroke:#000000;stroke-width:0.8;" x="344.606027" xlink:href="#m78cc71694c" y="252"/>
      </g>
     </g>
     <g id="text_6">
      <!-- 1.8 -->
      <g transform="translate(336.654465 266.598437)scale(0.1 -0.1)">
       <use xlink:href="#DejaVuSans-49"/>
       <use x="63.623047" xlink:href="#DejaVuSans-46"/>
       <use x="95.410156" xlink:href="#DejaVuSans-56"/>
      </g>
     </g>
    </g>
    <g id="text_7">
     <!-- x -->
     <g transform="translate(218.440625 280.276563)scale(0.1 -0.1)">
      <defs>
       <path d="M 54.890625 54.6875 
L 35.109375 28.078125 
L 55.90625 0 
L 45.3125 0 
L 29.390625 21.484375 
L 13.484375 0 
L 2.875 0 
L 24.125 28.609375 
L 4.6875 54.6875 
L 15.28125 54.6875 
L 29.78125 35.203125 
L 44.28125 54.6875 
z
" id="DejaVuSans-120"/>
      </defs>
      <use xlink:href="#DejaVuSans-120"/>
     </g>
    </g>
   </g>
   <g id="matplotlib.axis_2">
    <g id="ytick_1">
     <g id="line2d_7">
      <defs>
       <path d="M 0 0 
L -3.5 0 
" id="m54fda2e2db" style="stroke:#000000;stroke-width:0.8;"/>
      </defs>
      <g>
       <use style="stroke:#000000;stroke-width:0.8;" x="54" xlink:href="#m54fda2e2db" y="236.969687"/>
      </g>
     </g>
     <g id="text_8">
      <!-- 0.8 -->
      <g transform="translate(31.096875 240.768906)scale(0.1 -0.1)">
       <use xlink:href="#DejaVuSans-48"/>
       <use x="63.623047" xlink:href="#DejaVuSans-46"/>
       <use x="95.410156" xlink:href="#DejaVuSans-56"/>
      </g>
     </g>
    </g>
    <g id="ytick_2">
     <g id="line2d_8">
      <g>
       <use style="stroke:#000000;stroke-width:0.8;" x="54" xlink:href="#m54fda2e2db" y="200.802775"/>
      </g>
     </g>
     <g id="text_9">
      <!-- 1.0 -->
      <g transform="translate(31.096875 204.601993)scale(0.1 -0.1)">
       <use xlink:href="#DejaVuSans-49"/>
       <use x="63.623047" xlink:href="#DejaVuSans-46"/>
       <use x="95.410156" xlink:href="#DejaVuSans-48"/>
      </g>
     </g>
    </g>
    <g id="ytick_3">
     <g id="line2d_9">
      <g>
       <use style="stroke:#000000;stroke-width:0.8;" x="54" xlink:href="#m54fda2e2db" y="164.635862"/>
      </g>
     </g>
     <g id="text_10">
      <!-- 1.2 -->
      <g transform="translate(31.096875 168.435081)scale(0.1 -0.1)">
       <use xlink:href="#DejaVuSans-49"/>
       <use x="63.623047" xlink:href="#DejaVuSans-46"/>
       <use x="95.410156" xlink:href="#DejaVuSans-50"/>
      </g>
     </g>
    </g>
    <g id="ytick_4">
     <g id="line2d_10">
      <g>
       <use style="stroke:#000000;stroke-width:0.8;" x="54" xlink:href="#m54fda2e2db" y="128.46895"/>
      </g>
     </g>
     <g id="text_11">
      <!-- 1.4 -->
      <g transform="translate(31.096875 132.268169)scale(0.1 -0.1)">
       <use xlink:href="#DejaVuSans-49"/>
       <use x="63.623047" xlink:href="#DejaVuSans-46"/>
       <use x="95.410156" xlink:href="#DejaVuSans-52"/>
      </g>
     </g>
    </g>
    <g id="ytick_5">
     <g id="line2d_11">
      <g>
       <use style="stroke:#000000;stroke-width:0.8;" x="54" xlink:href="#m54fda2e2db" y="92.302038"/>
      </g>
     </g>
     <g id="text_12">
      <!-- 1.6 -->
      <g transform="translate(31.096875 96.101257)scale(0.1 -0.1)">
       <use xlink:href="#DejaVuSans-49"/>
       <use x="63.623047" xlink:href="#DejaVuSans-46"/>
       <use x="95.410156" xlink:href="#DejaVuSans-54"/>
      </g>
     </g>
    </g>
    <g id="ytick_6">
     <g id="line2d_12">
      <g>
       <use style="stroke:#000000;stroke-width:0.8;" x="54" xlink:href="#m54fda2e2db" y="56.135126"/>
      </g>
     </g>
     <g id="text_13">
      <!-- 1.8 -->
      <g transform="translate(31.096875 59.934345)scale(0.1 -0.1)">
       <use xlink:href="#DejaVuSans-49"/>
       <use x="63.623047" xlink:href="#DejaVuSans-46"/>
       <use x="95.410156" xlink:href="#DejaVuSans-56"/>
      </g>
     </g>
    </g>
    <g id="text_14">
     <!-- y -->
     <g transform="translate(25.017187 146.239375)rotate(-90)scale(0.1 -0.1)">
      <defs>
       <path d="M 32.171875 -5.078125 
Q 28.375 -14.84375 24.75 -17.8125 
Q 21.140625 -20.796875 15.09375 -20.796875 
L 7.90625 -20.796875 
L 7.90625 -13.28125 
L 13.1875 -13.28125 
Q 16.890625 -13.28125 18.9375 -11.515625 
Q 21 -9.765625 23.484375 -3.21875 
L 25.09375 0.875 
L 2.984375 54.6875 
L 12.5 54.6875 
L 29.59375 11.921875 
L 46.6875 54.6875 
L 56.203125 54.6875 
z
" id="DejaVuSans-121"/>
      </defs>
      <use xlink:href="#DejaVuSans-121"/>
     </g>
    </g>
   </g>
   <g id="patch_3">
    <path d="M 54 252 
L 54 34.56 
" style="fill:none;stroke:#000000;stroke-linecap:square;stroke-linejoin:miter;stroke-width:0.8;"/>
   </g>
   <g id="patch_4">
    <path d="M 388.8 252 
L 388.8 34.56 
" style="fill:none;stroke:#000000;stroke-linecap:square;stroke-linejoin:miter;stroke-width:0.8;"/>
   </g>
   <g id="patch_5">
    <path d="M 54 252 
L 388.8 252 
" style="fill:none;stroke:#000000;stroke-linecap:square;stroke-linejoin:miter;stroke-width:0.8;"/>
   </g>
   <g id="patch_6">
    <path d="M 54 34.56 
L 388.8 34.56 
" style="fill:none;stroke:#000000;stroke-linecap:square;stroke-linejoin:miter;stroke-width:0.8;"/>
   </g>
  </g>
 </g>
 <defs>
  <clipPath id="p24eaf908ff">
   <rect height="217.44" width="334.8" x="54" y="34.56"/>
  </clipPath>
 </defs>
</svg>
