<?xml version="1.0" encoding="utf-8" standalone="no"?>
<!DOCTYPE svg PUBLIC "-//W3C//DTD SVG 1.1//EN"
  "http://www.w3.org/Graphics/SVG/1.1/DTD/svg11.dtd">
<!-- Created with matplotlib (https://matplotlib.org/) -->
<svg height="288pt" version="1.1" viewBox="0 0 432 288" width="432pt" xmlns="http://www.w3.org/2000/svg" xmlns:xlink="http://www.w3.org/1999/xlink">
 <metadata>
  <rdf:RDF xmlns:cc="http://creativecommons.org/ns#" xmlns:dc="http://purl.org/dc/elements/1.1/" xmlns:rdf="http://www.w3.org/1999/02/22-rdf-syntax-ns#">
   <cc:Work>
    <dc:type rdf:resource="http://purl.org/dc/dcmitype/StillImage"/>
    <dc:date>2021-06-25T00:57:34.388562</dc:date>
    <dc:format>image/svg+xml</dc:format>
    <dc:creator>
     <cc:Agent>
      <dc:title>Matplotlib v3.3.2, https://matplotlib.org/</dc:title>
     </cc:Agent>
    </dc:creator>
   </cc:Work>
  </rdf:RDF>
 </metadata>
 <defs>
  <style type="text/css">*{stroke-linecap:butt;stroke-linejoin:round;}</style>
 </defs>
 <g id="figure_1">
  <g id="patch_1">
   <path d="M 0 288 
L 432 288 
L 432 0 
L 0 0 
z
" style="fill:none;"/>
  </g>
  <g id="axes_1">
   <g id="patch_2">
    <path d="M 54 252 
L 388.8 252 
L 388.8 34.56 
L 54 34.56 
z
" style="fill:#ffffff;"/>
   </g>
   <g id="PathCollection_1">
    <defs>
     <path d="M 0 3 
C 0.795609 3 1.55874 2.683901 2.12132 2.12132 
C 2.683901 1.55874 3 0.795609 3 -0 
C 3 -0.795609 2.683901 -1.55874 2.12132 -2.12132 
C 1.55874 -2.683901 0.795609 -3 0 -3 
C -0.795609 -3 -1.55874 -2.683901 -2.12132 -2.12132 
C -2.683901 -1.55874 -3 -0.795609 -3 0 
C -3 0.795609 -2.683901 1.55874 -2.12132 2.12132 
C -1.55874 2.683901 -0.795609 3 0 3 
z
" id="C0_0_a5c49bda06"/>
    </defs>
    <g clip-path="url(#p9c47cefd61)">
     <use style="fill:#ffa500;stroke:#ffa500;" x="69.218182" xlink:href="#C0_0_a5c49bda06" y="238.997012"/>
    </g>
    <g clip-path="url(#p9c47cefd61)">
     <use style="fill:#ffa500;stroke:#ffa500;" x="72.323933" xlink:href="#C0_0_a5c49bda06" y="235.475895"/>
    </g>
    <g clip-path="url(#p9c47cefd61)">
     <use style="fill:#ffa500;stroke:#ffa500;" x="75.429685" xlink:href="#C0_0_a5c49bda06" y="239.136095"/>
    </g>
    <g clip-path="url(#p9c47cefd61)">
     <use style="fill:#ffa500;stroke:#ffa500;" x="78.535436" xlink:href="#C0_0_a5c49bda06" y="232.597801"/>
    </g>
    <g clip-path="url(#p9c47cefd61)">
     <use style="fill:#ffa500;stroke:#ffa500;" x="81.641187" xlink:href="#C0_0_a5c49bda06" y="235.043865"/>
    </g>
    <g clip-path="url(#p9c47cefd61)">
     <use style="fill:#ffa500;stroke:#ffa500;" x="84.746939" xlink:href="#C0_0_a5c49bda06" y="229.165665"/>
    </g>
    <g clip-path="url(#p9c47cefd61)">
     <use style="fill:#ffa500;stroke:#ffa500;" x="87.85269" xlink:href="#C0_0_a5c49bda06" y="216.996136"/>
    </g>
    <g clip-path="url(#p9c47cefd61)">
     <use style="fill:#ffa500;stroke:#ffa500;" x="90.958442" xlink:href="#C0_0_a5c49bda06" y="222.83067"/>
    </g>
    <g clip-path="url(#p9c47cefd61)">
     <use style="fill:#ffa500;stroke:#ffa500;" x="94.064193" xlink:href="#C0_0_a5c49bda06" y="232.138622"/>
    </g>
    <g clip-path="url(#p9c47cefd61)">
     <use style="fill:#ffa500;stroke:#ffa500;" x="97.169944" xlink:href="#C0_0_a5c49bda06" y="242.116364"/>
    </g>
    <g clip-path="url(#p9c47cefd61)">
     <use style="fill:#ffa500;stroke:#ffa500;" x="100.275696" xlink:href="#C0_0_a5c49bda06" y="225.470855"/>
    </g>
    <g clip-path="url(#p9c47cefd61)">
     <use style="fill:#ffa500;stroke:#ffa500;" x="103.381447" xlink:href="#C0_0_a5c49bda06" y="232.181621"/>
    </g>
    <g clip-path="url(#p9c47cefd61)">
     <use style="fill:#ffa500;stroke:#ffa500;" x="106.487199" xlink:href="#C0_0_a5c49bda06" y="211.947211"/>
    </g>
    <g clip-path="url(#p9c47cefd61)">
     <use style="fill:#ffa500;stroke:#ffa500;" x="109.59295" xlink:href="#C0_0_a5c49bda06" y="241.333483"/>
    </g>
    <g clip-path="url(#p9c47cefd61)">
     <use style="fill:#ffa500;stroke:#ffa500;" x="112.698701" xlink:href="#C0_0_a5c49bda06" y="228.077731"/>
    </g>
    <g clip-path="url(#p9c47cefd61)">
     <use style="fill:#ffa500;stroke:#ffa500;" x="115.804453" xlink:href="#C0_0_a5c49bda06" y="218.334849"/>
    </g>
    <g clip-path="url(#p9c47cefd61)">
     <use style="fill:#ffa500;stroke:#ffa500;" x="118.910204" xlink:href="#C0_0_a5c49bda06" y="222.615916"/>
    </g>
    <g clip-path="url(#p9c47cefd61)">
     <use style="fill:#ffa500;stroke:#ffa500;" x="122.015955" xlink:href="#C0_0_a5c49bda06" y="225.711382"/>
    </g>
    <g clip-path="url(#p9c47cefd61)">
     <use style="fill:#ffa500;stroke:#ffa500;" x="125.121707" xlink:href="#C0_0_a5c49bda06" y="221.297185"/>
    </g>
    <g clip-path="url(#p9c47cefd61)">
     <use style="fill:#ffa500;stroke:#ffa500;" x="128.227458" xlink:href="#C0_0_a5c49bda06" y="210.595561"/>
    </g>
    <g clip-path="url(#p9c47cefd61)">
     <use style="fill:#ffa500;stroke:#ffa500;" x="131.33321" xlink:href="#C0_0_a5c49bda06" y="206.536996"/>
    </g>
    <g clip-path="url(#p9c47cefd61)">
     <use style="fill:#ffa500;stroke:#ffa500;" x="134.438961" xlink:href="#C0_0_a5c49bda06" y="207.452073"/>
    </g>
    <g clip-path="url(#p9c47cefd61)">
     <use style="fill:#ffa500;stroke:#ffa500;" x="137.544712" xlink:href="#C0_0_a5c49bda06" y="190.004136"/>
    </g>
    <g clip-path="url(#p9c47cefd61)">
     <use style="fill:#ffa500;stroke:#ffa500;" x="140.650464" xlink:href="#C0_0_a5c49bda06" y="199.51365"/>
    </g>
    <g clip-path="url(#p9c47cefd61)">
     <use style="fill:#ffa500;stroke:#ffa500;" x="143.756215" xlink:href="#C0_0_a5c49bda06" y="206.895007"/>
    </g>
    <g clip-path="url(#p9c47cefd61)">
     <use style="fill:#ffa500;stroke:#ffa500;" x="146.861967" xlink:href="#C0_0_a5c49bda06" y="214.889302"/>
    </g>
    <g clip-path="url(#p9c47cefd61)">
     <use style="fill:#ffa500;stroke:#ffa500;" x="149.967718" xlink:href="#C0_0_a5c49bda06" y="177.911837"/>
    </g>
    <g clip-path="url(#p9c47cefd61)">
     <use style="fill:#ffa500;stroke:#ffa500;" x="153.073469" xlink:href="#C0_0_a5c49bda06" y="198.765048"/>
    </g>
    <g clip-path="url(#p9c47cefd61)">
     <use style="fill:#ffa500;stroke:#ffa500;" x="156.179221" xlink:href="#C0_0_a5c49bda06" y="210.875166"/>
    </g>
    <g clip-path="url(#p9c47cefd61)">
     <use style="fill:#ffa500;stroke:#ffa500;" x="159.284972" xlink:href="#C0_0_a5c49bda06" y="200.803895"/>
    </g>
    <g clip-path="url(#p9c47cefd61)">
     <use style="fill:#ffa500;stroke:#ffa500;" x="162.390724" xlink:href="#C0_0_a5c49bda06" y="204.460424"/>
    </g>
    <g clip-path="url(#p9c47cefd61)">
     <use style="fill:#ffa500;stroke:#ffa500;" x="165.496475" xlink:href="#C0_0_a5c49bda06" y="202.547389"/>
    </g>
    <g clip-path="url(#p9c47cefd61)">
     <use style="fill:#ffa500;stroke:#ffa500;" x="168.602226" xlink:href="#C0_0_a5c49bda06" y="207.673509"/>
    </g>
    <g clip-path="url(#p9c47cefd61)">
     <use style="fill:#ffa500;stroke:#ffa500;" x="171.707978" xlink:href="#C0_0_a5c49bda06" y="195.818462"/>
    </g>
    <g clip-path="url(#p9c47cefd61)">
     <use style="fill:#ffa500;stroke:#ffa500;" x="174.813729" xlink:href="#C0_0_a5c49bda06" y="192.38902"/>
    </g>
    <g clip-path="url(#p9c47cefd61)">
     <use style="fill:#ffa500;stroke:#ffa500;" x="177.919481" xlink:href="#C0_0_a5c49bda06" y="204.846547"/>
    </g>
    <g clip-path="url(#p9c47cefd61)">
     <use style="fill:#ffa500;stroke:#ffa500;" x="181.025232" xlink:href="#C0_0_a5c49bda06" y="224.844169"/>
    </g>
    <g clip-path="url(#p9c47cefd61)">
     <use style="fill:#ffa500;stroke:#ffa500;" x="184.130983" xlink:href="#C0_0_a5c49bda06" y="193.834266"/>
    </g>
    <g clip-path="url(#p9c47cefd61)">
     <use style="fill:#ffa500;stroke:#ffa500;" x="187.236735" xlink:href="#C0_0_a5c49bda06" y="189.589345"/>
    </g>
    <g clip-path="url(#p9c47cefd61)">
     <use style="fill:#ffa500;stroke:#ffa500;" x="190.342486" xlink:href="#C0_0_a5c49bda06" y="182.558885"/>
    </g>
    <g clip-path="url(#p9c47cefd61)">
     <use style="fill:#ffa500;stroke:#ffa500;" x="193.448237" xlink:href="#C0_0_a5c49bda06" y="186.456381"/>
    </g>
    <g clip-path="url(#p9c47cefd61)">
     <use style="fill:#ffa500;stroke:#ffa500;" x="196.553989" xlink:href="#C0_0_a5c49bda06" y="181.517257"/>
    </g>
    <g clip-path="url(#p9c47cefd61)">
     <use style="fill:#ffa500;stroke:#ffa500;" x="199.65974" xlink:href="#C0_0_a5c49bda06" y="195.112083"/>
    </g>
    <g clip-path="url(#p9c47cefd61)">
     <use style="fill:#ffa500;stroke:#ffa500;" x="202.765492" xlink:href="#C0_0_a5c49bda06" y="175.72001"/>
    </g>
    <g clip-path="url(#p9c47cefd61)">
     <use style="fill:#ffa500;stroke:#ffa500;" x="205.871243" xlink:href="#C0_0_a5c49bda06" y="174.224022"/>
    </g>
    <g clip-path="url(#p9c47cefd61)">
     <use style="fill:#ffa500;stroke:#ffa500;" x="208.976994" xlink:href="#C0_0_a5c49bda06" y="177.446891"/>
    </g>
    <g clip-path="url(#p9c47cefd61)">
     <use style="fill:#ffa500;stroke:#ffa500;" x="212.082746" xlink:href="#C0_0_a5c49bda06" y="165.042665"/>
    </g>
    <g clip-path="url(#p9c47cefd61)">
     <use style="fill:#ffa500;stroke:#ffa500;" x="215.188497" xlink:href="#C0_0_a5c49bda06" y="173.089878"/>
    </g>
    <g clip-path="url(#p9c47cefd61)">
     <use style="fill:#ffa500;stroke:#ffa500;" x="218.294249" xlink:href="#C0_0_a5c49bda06" y="173.062526"/>
    </g>
    <g clip-path="url(#p9c47cefd61)">
     <use style="fill:#ffa500;stroke:#ffa500;" x="221.4" xlink:href="#C0_0_a5c49bda06" y="171.606616"/>
    </g>
    <g clip-path="url(#p9c47cefd61)">
     <use style="fill:#0000ff;stroke:#0000ff;" x="175.745455" xlink:href="#C0_0_a5c49bda06" y="141.115821"/>
    </g>
    <g clip-path="url(#p9c47cefd61)">
     <use style="fill:#0000ff;stroke:#0000ff;" x="179.782931" xlink:href="#C0_0_a5c49bda06" y="133.078953"/>
    </g>
    <g clip-path="url(#p9c47cefd61)">
     <use style="fill:#0000ff;stroke:#0000ff;" x="183.820408" xlink:href="#C0_0_a5c49bda06" y="137.273894"/>
    </g>
    <g clip-path="url(#p9c47cefd61)">
     <use style="fill:#0000ff;stroke:#0000ff;" x="187.857885" xlink:href="#C0_0_a5c49bda06" y="133.332275"/>
    </g>
    <g clip-path="url(#p9c47cefd61)">
     <use style="fill:#0000ff;stroke:#0000ff;" x="191.895362" xlink:href="#C0_0_a5c49bda06" y="149.366692"/>
    </g>
    <g clip-path="url(#p9c47cefd61)">
     <use style="fill:#0000ff;stroke:#0000ff;" x="195.932839" xlink:href="#C0_0_a5c49bda06" y="139.912206"/>
    </g>
    <g clip-path="url(#p9c47cefd61)">
     <use style="fill:#0000ff;stroke:#0000ff;" x="199.970315" xlink:href="#C0_0_a5c49bda06" y="119.711617"/>
    </g>
    <g clip-path="url(#p9c47cefd61)">
     <use style="fill:#0000ff;stroke:#0000ff;" x="204.007792" xlink:href="#C0_0_a5c49bda06" y="144.700875"/>
    </g>
    <g clip-path="url(#p9c47cefd61)">
     <use style="fill:#0000ff;stroke:#0000ff;" x="208.045269" xlink:href="#C0_0_a5c49bda06" y="128.131646"/>
    </g>
    <g clip-path="url(#p9c47cefd61)">
     <use style="fill:#0000ff;stroke:#0000ff;" x="212.082746" xlink:href="#C0_0_a5c49bda06" y="124.826629"/>
    </g>
    <g clip-path="url(#p9c47cefd61)">
     <use style="fill:#0000ff;stroke:#0000ff;" x="216.120223" xlink:href="#C0_0_a5c49bda06" y="117.310308"/>
    </g>
    <g clip-path="url(#p9c47cefd61)">
     <use style="fill:#0000ff;stroke:#0000ff;" x="220.157699" xlink:href="#C0_0_a5c49bda06" y="128.626455"/>
    </g>
    <g clip-path="url(#p9c47cefd61)">
     <use style="fill:#0000ff;stroke:#0000ff;" x="224.195176" xlink:href="#C0_0_a5c49bda06" y="121.739031"/>
    </g>
    <g clip-path="url(#p9c47cefd61)">
     <use style="fill:#0000ff;stroke:#0000ff;" x="228.232653" xlink:href="#C0_0_a5c49bda06" y="138.988638"/>
    </g>
    <g clip-path="url(#p9c47cefd61)">
     <use style="fill:#0000ff;stroke:#0000ff;" x="232.27013" xlink:href="#C0_0_a5c49bda06" y="116.260628"/>
    </g>
    <g clip-path="url(#p9c47cefd61)">
     <use style="fill:#0000ff;stroke:#0000ff;" x="236.307607" xlink:href="#C0_0_a5c49bda06" y="124.402207"/>
    </g>
    <g clip-path="url(#p9c47cefd61)">
     <use style="fill:#0000ff;stroke:#0000ff;" x="240.345083" xlink:href="#C0_0_a5c49bda06" y="118.305485"/>
    </g>
    <g clip-path="url(#p9c47cefd61)">
     <use style="fill:#0000ff;stroke:#0000ff;" x="244.38256" xlink:href="#C0_0_a5c49bda06" y="125.890258"/>
    </g>
    <g clip-path="url(#p9c47cefd61)">
     <use style="fill:#0000ff;stroke:#0000ff;" x="248.420037" xlink:href="#C0_0_a5c49bda06" y="108.4196"/>
    </g>
    <g clip-path="url(#p9c47cefd61)">
     <use style="fill:#0000ff;stroke:#0000ff;" x="252.457514" xlink:href="#C0_0_a5c49bda06" y="103.776179"/>
    </g>
    <g clip-path="url(#p9c47cefd61)">
     <use style="fill:#0000ff;stroke:#0000ff;" x="256.494991" xlink:href="#C0_0_a5c49bda06" y="111.580274"/>
    </g>
    <g clip-path="url(#p9c47cefd61)">
     <use style="fill:#0000ff;stroke:#0000ff;" x="260.532468" xlink:href="#C0_0_a5c49bda06" y="88.576318"/>
    </g>
    <g clip-path="url(#p9c47cefd61)">
     <use style="fill:#0000ff;stroke:#0000ff;" x="264.569944" xlink:href="#C0_0_a5c49bda06" y="98.201168"/>
    </g>
    <g clip-path="url(#p9c47cefd61)">
     <use style="fill:#0000ff;stroke:#0000ff;" x="268.607421" xlink:href="#C0_0_a5c49bda06" y="93.593227"/>
    </g>
    <g clip-path="url(#p9c47cefd61)">
     <use style="fill:#0000ff;stroke:#0000ff;" x="272.644898" xlink:href="#C0_0_a5c49bda06" y="80.811411"/>
    </g>
    <g clip-path="url(#p9c47cefd61)">
     <use style="fill:#0000ff;stroke:#0000ff;" x="276.682375" xlink:href="#C0_0_a5c49bda06" y="105.797125"/>
    </g>
    <g clip-path="url(#p9c47cefd61)">
     <use style="fill:#0000ff;stroke:#0000ff;" x="280.719852" xlink:href="#C0_0_a5c49bda06" y="89.448853"/>
    </g>
    <g clip-path="url(#p9c47cefd61)">
     <use style="fill:#0000ff;stroke:#0000ff;" x="284.757328" xlink:href="#C0_0_a5c49bda06" y="85.835569"/>
    </g>
    <g clip-path="url(#p9c47cefd61)">
     <use style="fill:#0000ff;stroke:#0000ff;" x="288.794805" xlink:href="#C0_0_a5c49bda06" y="93.853853"/>
    </g>
    <g clip-path="url(#p9c47cefd61)">
     <use style="fill:#0000ff;stroke:#0000ff;" x="292.832282" xlink:href="#C0_0_a5c49bda06" y="88.777455"/>
    </g>
    <g clip-path="url(#p9c47cefd61)">
     <use style="fill:#0000ff;stroke:#0000ff;" x="296.869759" xlink:href="#C0_0_a5c49bda06" y="100.155145"/>
    </g>
    <g clip-path="url(#p9c47cefd61)">
     <use style="fill:#0000ff;stroke:#0000ff;" x="300.907236" xlink:href="#C0_0_a5c49bda06" y="83.585744"/>
    </g>
    <g clip-path="url(#p9c47cefd61)">
     <use style="fill:#0000ff;stroke:#0000ff;" x="304.944712" xlink:href="#C0_0_a5c49bda06" y="93.376379"/>
    </g>
    <g clip-path="url(#p9c47cefd61)">
     <use style="fill:#0000ff;stroke:#0000ff;" x="308.982189" xlink:href="#C0_0_a5c49bda06" y="76.482449"/>
    </g>
    <g clip-path="url(#p9c47cefd61)">
     <use style="fill:#0000ff;stroke:#0000ff;" x="313.019666" xlink:href="#C0_0_a5c49bda06" y="90.783541"/>
    </g>
    <g clip-path="url(#p9c47cefd61)">
     <use style="fill:#0000ff;stroke:#0000ff;" x="317.057143" xlink:href="#C0_0_a5c49bda06" y="77.703087"/>
    </g>
    <g clip-path="url(#p9c47cefd61)">
     <use style="fill:#0000ff;stroke:#0000ff;" x="321.09462" xlink:href="#C0_0_a5c49bda06" y="87.441882"/>
    </g>
    <g clip-path="url(#p9c47cefd61)">
     <use style="fill:#0000ff;stroke:#0000ff;" x="325.132096" xlink:href="#C0_0_a5c49bda06" y="79.627904"/>
    </g>
    <g clip-path="url(#p9c47cefd61)">
     <use style="fill:#0000ff;stroke:#0000ff;" x="329.169573" xlink:href="#C0_0_a5c49bda06" y="90.769344"/>
    </g>
    <g clip-path="url(#p9c47cefd61)">
     <use style="fill:#0000ff;stroke:#0000ff;" x="333.20705" xlink:href="#C0_0_a5c49bda06" y="72.21977"/>
    </g>
    <g clip-path="url(#p9c47cefd61)">
     <use style="fill:#0000ff;stroke:#0000ff;" x="337.244527" xlink:href="#C0_0_a5c49bda06" y="61.859833"/>
    </g>
    <g clip-path="url(#p9c47cefd61)">
     <use style="fill:#0000ff;stroke:#0000ff;" x="341.282004" xlink:href="#C0_0_a5c49bda06" y="67.98486"/>
    </g>
    <g clip-path="url(#p9c47cefd61)">
     <use style="fill:#0000ff;stroke:#0000ff;" x="345.319481" xlink:href="#C0_0_a5c49bda06" y="85.508648"/>
    </g>
    <g clip-path="url(#p9c47cefd61)">
     <use style="fill:#0000ff;stroke:#0000ff;" x="349.356957" xlink:href="#C0_0_a5c49bda06" y="72.280482"/>
    </g>
    <g clip-path="url(#p9c47cefd61)">
     <use style="fill:#0000ff;stroke:#0000ff;" x="353.394434" xlink:href="#C0_0_a5c49bda06" y="47.816492"/>
    </g>
    <g clip-path="url(#p9c47cefd61)">
     <use style="fill:#0000ff;stroke:#0000ff;" x="357.431911" xlink:href="#C0_0_a5c49bda06" y="44.443636"/>
    </g>
    <g clip-path="url(#p9c47cefd61)">
     <use style="fill:#0000ff;stroke:#0000ff;" x="361.469388" xlink:href="#C0_0_a5c49bda06" y="72.254254"/>
    </g>
    <g clip-path="url(#p9c47cefd61)">
     <use style="fill:#0000ff;stroke:#0000ff;" x="365.506865" xlink:href="#C0_0_a5c49bda06" y="62.377934"/>
    </g>
    <g clip-path="url(#p9c47cefd61)">
     <use style="fill:#0000ff;stroke:#0000ff;" x="369.544341" xlink:href="#C0_0_a5c49bda06" y="53.375982"/>
    </g>
    <g clip-path="url(#p9c47cefd61)">
     <use style="fill:#0000ff;stroke:#0000ff;" x="373.581818" xlink:href="#C0_0_a5c49bda06" y="51.873293"/>
    </g>
   </g>
   <g id="matplotlib.axis_1">
    <g id="xtick_1">
     <g id="line2d_1">
      <defs>
       <path d="M 0 0 
L 0 3.5 
" id="me2bbe69145" style="stroke:#000000;stroke-width:0.8;"/>
      </defs>
      <g>
       <use style="stroke:#000000;stroke-width:0.8;" x="69.218182" xlink:href="#me2bbe69145" y="252"/>
      </g>
     </g>
     <g id="text_1">
      <!-- 0.50 -->
      <g transform="translate(58.085369 266.598437)scale(0.1 -0.1)">
       <defs>
        <path d="M 31.78125 66.40625 
Q 24.171875 66.40625 20.328125 58.90625 
Q 16.5 51.421875 16.5 36.375 
Q 16.5 21.390625 20.328125 13.890625 
Q 24.171875 6.390625 31.78125 6.390625 
Q 39.453125 6.390625 43.28125 13.890625 
Q 47.125 21.390625 47.125 36.375 
Q 47.125 51.421875 43.28125 58.90625 
Q 39.453125 66.40625 31.78125 66.40625 
z
M 31.78125 74.21875 
Q 44.046875 74.21875 50.515625 64.515625 
Q 56.984375 54.828125 56.984375 36.375 
Q 56.984375 17.96875 50.515625 8.265625 
Q 44.046875 -1.421875 31.78125 -1.421875 
Q 19.53125 -1.421875 13.0625 8.265625 
Q 6.59375 17.96875 6.59375 36.375 
Q 6.59375 54.828125 13.0625 64.515625 
Q 19.53125 74.21875 31.78125 74.21875 
z
" id="DejaVuSans-48"/>
        <path d="M 10.6875 12.40625 
L 21 12.40625 
L 21 0 
L 10.6875 0 
z
" id="DejaVuSans-46"/>
        <path d="M 10.796875 72.90625 
L 49.515625 72.90625 
L 49.515625 64.59375 
L 19.828125 64.59375 
L 19.828125 46.734375 
Q 21.96875 47.46875 24.109375 47.828125 
Q 26.265625 48.1875 28.421875 48.1875 
Q 40.625 48.1875 47.75 41.5 
Q 54.890625 34.8125 54.890625 23.390625 
Q 54.890625 11.625 47.5625 5.09375 
Q 40.234375 -1.421875 26.90625 -1.421875 
Q 22.3125 -1.421875 17.546875 -0.640625 
Q 12.796875 0.140625 7.71875 1.703125 
L 7.71875 11.625 
Q 12.109375 9.234375 16.796875 8.0625 
Q 21.484375 6.890625 26.703125 6.890625 
Q 35.15625 6.890625 40.078125 11.328125 
Q 45.015625 15.765625 45.015625 23.390625 
Q 45.015625 31 40.078125 35.4375 
Q 35.15625 39.890625 26.703125 39.890625 
Q 22.75 39.890625 18.8125 39.015625 
Q 14.890625 38.140625 10.796875 36.28125 
z
" id="DejaVuSans-53"/>
       </defs>
       <use xlink:href="#DejaVuSans-48"/>
       <use x="63.623047" xlink:href="#DejaVuSans-46"/>
       <use x="95.410156" xlink:href="#DejaVuSans-53"/>
       <use x="159.033203" xlink:href="#DejaVuSans-48"/>
      </g>
     </g>
    </g>
    <g id="xtick_2">
     <g id="line2d_2">
      <g>
       <use style="stroke:#000000;stroke-width:0.8;" x="107.263636" xlink:href="#me2bbe69145" y="252"/>
      </g>
     </g>
     <g id="text_2">
      <!-- 0.75 -->
      <g transform="translate(96.130824 266.598437)scale(0.1 -0.1)">
       <defs>
        <path d="M 8.203125 72.90625 
L 55.078125 72.90625 
L 55.078125 68.703125 
L 28.609375 0 
L 18.3125 0 
L 43.21875 64.59375 
L 8.203125 64.59375 
z
" id="DejaVuSans-55"/>
       </defs>
       <use xlink:href="#DejaVuSans-48"/>
       <use x="63.623047" xlink:href="#DejaVuSans-46"/>
       <use x="95.410156" xlink:href="#DejaVuSans-55"/>
       <use x="159.033203" xlink:href="#DejaVuSans-53"/>
      </g>
     </g>
    </g>
    <g id="xtick_3">
     <g id="line2d_3">
      <g>
       <use style="stroke:#000000;stroke-width:0.8;" x="145.309091" xlink:href="#me2bbe69145" y="252"/>
      </g>
     </g>
     <g id="text_3">
      <!-- 1.00 -->
      <g transform="translate(134.176278 266.598437)scale(0.1 -0.1)">
       <defs>
        <path d="M 12.40625 8.296875 
L 28.515625 8.296875 
L 28.515625 63.921875 
L 10.984375 60.40625 
L 10.984375 69.390625 
L 28.421875 72.90625 
L 38.28125 72.90625 
L 38.28125 8.296875 
L 54.390625 8.296875 
L 54.390625 0 
L 12.40625 0 
z
" id="DejaVuSans-49"/>
       </defs>
       <use xlink:href="#DejaVuSans-49"/>
       <use x="63.623047" xlink:href="#DejaVuSans-46"/>
       <use x="95.410156" xlink:href="#DejaVuSans-48"/>
       <use x="159.033203" xlink:href="#DejaVuSans-48"/>
      </g>
     </g>
    </g>
    <g id="xtick_4">
     <g id="line2d_4">
      <g>
       <use style="stroke:#000000;stroke-width:0.8;" x="183.354545" xlink:href="#me2bbe69145" y="252"/>
      </g>
     </g>
     <g id="text_4">
      <!-- 1.25 -->
      <g transform="translate(172.221733 266.598437)scale(0.1 -0.1)">
       <defs>
        <path d="M 19.1875 8.296875 
L 53.609375 8.296875 
L 53.609375 0 
L 7.328125 0 
L 7.328125 8.296875 
Q 12.9375 14.109375 22.625 23.890625 
Q 32.328125 33.6875 34.8125 36.53125 
Q 39.546875 41.84375 41.421875 45.53125 
Q 43.3125 49.21875 43.3125 52.78125 
Q 43.3125 58.59375 39.234375 62.25 
Q 35.15625 65.921875 28.609375 65.921875 
Q 23.96875 65.921875 18.8125 64.3125 
Q 13.671875 62.703125 7.8125 59.421875 
L 7.8125 69.390625 
Q 13.765625 71.78125 18.9375 73 
Q 24.125 74.21875 28.421875 74.21875 
Q 39.75 74.21875 46.484375 68.546875 
Q 53.21875 62.890625 53.21875 53.421875 
Q 53.21875 48.921875 51.53125 44.890625 
Q 49.859375 40.875 45.40625 35.40625 
Q 44.1875 33.984375 37.640625 27.21875 
Q 31.109375 20.453125 19.1875 8.296875 
z
" id="DejaVuSans-50"/>
       </defs>
       <use xlink:href="#DejaVuSans-49"/>
       <use x="63.623047" xlink:href="#DejaVuSans-46"/>
       <use x="95.410156" xlink:href="#DejaVuSans-50"/>
       <use x="159.033203" xlink:href="#DejaVuSans-53"/>
      </g>
     </g>
    </g>
    <g id="xtick_5">
     <g id="line2d_5">
      <g>
       <use style="stroke:#000000;stroke-width:0.8;" x="221.4" xlink:href="#me2bbe69145" y="252"/>
      </g>
     </g>
     <g id="text_5">
      <!-- 1.50 -->
      <g transform="translate(210.267188 266.598437)scale(0.1 -0.1)">
       <use xlink:href="#DejaVuSans-49"/>
       <use x="63.623047" xlink:href="#DejaVuSans-46"/>
       <use x="95.410156" xlink:href="#DejaVuSans-53"/>
       <use x="159.033203" xlink:href="#DejaVuSans-48"/>
      </g>
     </g>
    </g>
    <g id="xtick_6">
     <g id="line2d_6">
      <g>
       <use style="stroke:#000000;stroke-width:0.8;" x="259.445455" xlink:href="#me2bbe69145" y="252"/>
      </g>
     </g>
     <g id="text_6">
      <!-- 1.75 -->
      <g transform="translate(248.312642 266.598437)scale(0.1 -0.1)">
       <use xlink:href="#DejaVuSans-49"/>
       <use x="63.623047" xlink:href="#DejaVuSans-46"/>
       <use x="95.410156" xlink:href="#DejaVuSans-55"/>
       <use x="159.033203" xlink:href="#DejaVuSans-53"/>
      </g>
     </g>
    </g>
    <g id="xtick_7">
     <g id="line2d_7">
      <g>
       <use style="stroke:#000000;stroke-width:0.8;" x="297.490909" xlink:href="#me2bbe69145" y="252"/>
      </g>
     </g>
     <g id="text_7">
      <!-- 2.00 -->
      <g transform="translate(286.358097 266.598437)scale(0.1 -0.1)">
       <use xlink:href="#DejaVuSans-50"/>
       <use x="63.623047" xlink:href="#DejaVuSans-46"/>
       <use x="95.410156" xlink:href="#DejaVuSans-48"/>
       <use x="159.033203" xlink:href="#DejaVuSans-48"/>
      </g>
     </g>
    </g>
    <g id="xtick_8">
     <g id="line2d_8">
      <g>
       <use style="stroke:#000000;stroke-width:0.8;" x="335.536364" xlink:href="#me2bbe69145" y="252"/>
      </g>
     </g>
     <g id="text_8">
      <!-- 2.25 -->
      <g transform="translate(324.403551 266.598437)scale(0.1 -0.1)">
       <use xlink:href="#DejaVuSans-50"/>
       <use x="63.623047" xlink:href="#DejaVuSans-46"/>
       <use x="95.410156" xlink:href="#DejaVuSans-50"/>
       <use x="159.033203" xlink:href="#DejaVuSans-53"/>
      </g>
     </g>
    </g>
    <g id="xtick_9">
     <g id="line2d_9">
      <g>
       <use style="stroke:#000000;stroke-width:0.8;" x="373.581818" xlink:href="#me2bbe69145" y="252"/>
      </g>
     </g>
     <g id="text_9">
      <!-- 2.50 -->
      <g transform="translate(362.449006 266.598437)scale(0.1 -0.1)">
       <use xlink:href="#DejaVuSans-50"/>
       <use x="63.623047" xlink:href="#DejaVuSans-46"/>
       <use x="95.410156" xlink:href="#DejaVuSans-53"/>
       <use x="159.033203" xlink:href="#DejaVuSans-48"/>
      </g>
     </g>
    </g>
    <g id="text_10">
     <!-- x -->
     <g transform="translate(218.440625 280.276563)scale(0.1 -0.1)">
      <defs>
       <path d="M 54.890625 54.6875 
L 35.109375 28.078125 
L 55.90625 0 
L 45.3125 0 
L 29.390625 21.484375 
L 13.484375 0 
L 2.875 0 
L 24.125 28.609375 
L 4.6875 54.6875 
L 15.28125 54.6875 
L 29.78125 35.203125 
L 44.28125 54.6875 
z
" id="DejaVuSans-120"/>
      </defs>
      <use xlink:href="#DejaVuSans-120"/>
     </g>
    </g>
   </g>
   <g id="matplotlib.axis_2">
    <g id="ytick_1">
     <g id="line2d_10">
      <defs>
       <path d="M 0 0 
L -3.5 0 
" id="m2c38b8f3a0" style="stroke:#000000;stroke-width:0.8;"/>
      </defs>
      <g>
       <use style="stroke:#000000;stroke-width:0.8;" x="54" xlink:href="#m2c38b8f3a0" y="228.914776"/>
      </g>
     </g>
     <g id="text_11">
      <!-- 1.0 -->
      <g transform="translate(31.096875 232.713994)scale(0.1 -0.1)">
       <use xlink:href="#DejaVuSans-49"/>
       <use x="63.623047" xlink:href="#DejaVuSans-46"/>
       <use x="95.410156" xlink:href="#DejaVuSans-48"/>
      </g>
     </g>
    </g>
    <g id="ytick_2">
     <g id="line2d_11">
      <g>
       <use style="stroke:#000000;stroke-width:0.8;" x="54" xlink:href="#m2c38b8f3a0" y="204.07613"/>
      </g>
     </g>
     <g id="text_12">
      <!-- 1.5 -->
      <g transform="translate(31.096875 207.875349)scale(0.1 -0.1)">
       <use xlink:href="#DejaVuSans-49"/>
       <use x="63.623047" xlink:href="#DejaVuSans-46"/>
       <use x="95.410156" xlink:href="#DejaVuSans-53"/>
      </g>
     </g>
    </g>
    <g id="ytick_3">
     <g id="line2d_12">
      <g>
       <use style="stroke:#000000;stroke-width:0.8;" x="54" xlink:href="#m2c38b8f3a0" y="179.237484"/>
      </g>
     </g>
     <g id="text_13">
      <!-- 2.0 -->
      <g transform="translate(31.096875 183.036703)scale(0.1 -0.1)">
       <use xlink:href="#DejaVuSans-50"/>
       <use x="63.623047" xlink:href="#DejaVuSans-46"/>
       <use x="95.410156" xlink:href="#DejaVuSans-48"/>
      </g>
     </g>
    </g>
    <g id="ytick_4">
     <g id="line2d_13">
      <g>
       <use style="stroke:#000000;stroke-width:0.8;" x="54" xlink:href="#m2c38b8f3a0" y="154.398839"/>
      </g>
     </g>
     <g id="text_14">
      <!-- 2.5 -->
      <g transform="translate(31.096875 158.198057)scale(0.1 -0.1)">
       <use xlink:href="#DejaVuSans-50"/>
       <use x="63.623047" xlink:href="#DejaVuSans-46"/>
       <use x="95.410156" xlink:href="#DejaVuSans-53"/>
      </g>
     </g>
    </g>
    <g id="ytick_5">
     <g id="line2d_14">
      <g>
       <use style="stroke:#000000;stroke-width:0.8;" x="54" xlink:href="#m2c38b8f3a0" y="129.560193"/>
      </g>
     </g>
     <g id="text_15">
      <!-- 3.0 -->
      <g transform="translate(31.096875 133.359412)scale(0.1 -0.1)">
       <defs>
        <path d="M 40.578125 39.3125 
Q 47.65625 37.796875 51.625 33 
Q 55.609375 28.21875 55.609375 21.1875 
Q 55.609375 10.40625 48.1875 4.484375 
Q 40.765625 -1.421875 27.09375 -1.421875 
Q 22.515625 -1.421875 17.65625 -0.515625 
Q 12.796875 0.390625 7.625 2.203125 
L 7.625 11.71875 
Q 11.71875 9.328125 16.59375 8.109375 
Q 21.484375 6.890625 26.8125 6.890625 
Q 36.078125 6.890625 40.9375 10.546875 
Q 45.796875 14.203125 45.796875 21.1875 
Q 45.796875 27.640625 41.28125 31.265625 
Q 36.765625 34.90625 28.71875 34.90625 
L 20.21875 34.90625 
L 20.21875 43.015625 
L 29.109375 43.015625 
Q 36.375 43.015625 40.234375 45.921875 
Q 44.09375 48.828125 44.09375 54.296875 
Q 44.09375 59.90625 40.109375 62.90625 
Q 36.140625 65.921875 28.71875 65.921875 
Q 24.65625 65.921875 20.015625 65.03125 
Q 15.375 64.15625 9.8125 62.3125 
L 9.8125 71.09375 
Q 15.4375 72.65625 20.34375 73.4375 
Q 25.25 74.21875 29.59375 74.21875 
Q 40.828125 74.21875 47.359375 69.109375 
Q 53.90625 64.015625 53.90625 55.328125 
Q 53.90625 49.265625 50.4375 45.09375 
Q 46.96875 40.921875 40.578125 39.3125 
z
" id="DejaVuSans-51"/>
       </defs>
       <use xlink:href="#DejaVuSans-51"/>
       <use x="63.623047" xlink:href="#DejaVuSans-46"/>
       <use x="95.410156" xlink:href="#DejaVuSans-48"/>
      </g>
     </g>
    </g>
    <g id="ytick_6">
     <g id="line2d_15">
      <g>
       <use style="stroke:#000000;stroke-width:0.8;" x="54" xlink:href="#m2c38b8f3a0" y="104.721547"/>
      </g>
     </g>
     <g id="text_16">
      <!-- 3.5 -->
      <g transform="translate(31.096875 108.520766)scale(0.1 -0.1)">
       <use xlink:href="#DejaVuSans-51"/>
       <use x="63.623047" xlink:href="#DejaVuSans-46"/>
       <use x="95.410156" xlink:href="#DejaVuSans-53"/>
      </g>
     </g>
    </g>
    <g id="ytick_7">
     <g id="line2d_16">
      <g>
       <use style="stroke:#000000;stroke-width:0.8;" x="54" xlink:href="#m2c38b8f3a0" y="79.882902"/>
      </g>
     </g>
     <g id="text_17">
      <!-- 4.0 -->
      <g transform="translate(31.096875 83.682121)scale(0.1 -0.1)">
       <defs>
        <path d="M 37.796875 64.3125 
L 12.890625 25.390625 
L 37.796875 25.390625 
z
M 35.203125 72.90625 
L 47.609375 72.90625 
L 47.609375 25.390625 
L 58.015625 25.390625 
L 58.015625 17.1875 
L 47.609375 17.1875 
L 47.609375 0 
L 37.796875 0 
L 37.796875 17.1875 
L 4.890625 17.1875 
L 4.890625 26.703125 
z
" id="DejaVuSans-52"/>
       </defs>
       <use xlink:href="#DejaVuSans-52"/>
       <use x="63.623047" xlink:href="#DejaVuSans-46"/>
       <use x="95.410156" xlink:href="#DejaVuSans-48"/>
      </g>
     </g>
    </g>
    <g id="ytick_8">
     <g id="line2d_17">
      <g>
       <use style="stroke:#000000;stroke-width:0.8;" x="54" xlink:href="#m2c38b8f3a0" y="55.044256"/>
      </g>
     </g>
     <g id="text_18">
      <!-- 4.5 -->
      <g transform="translate(31.096875 58.843475)scale(0.1 -0.1)">
       <use xlink:href="#DejaVuSans-52"/>
       <use x="63.623047" xlink:href="#DejaVuSans-46"/>
       <use x="95.410156" xlink:href="#DejaVuSans-53"/>
      </g>
     </g>
    </g>
    <g id="text_19">
     <!-- y -->
     <g transform="translate(25.017187 146.239375)rotate(-90)scale(0.1 -0.1)">
      <defs>
       <path d="M 32.171875 -5.078125 
Q 28.375 -14.84375 24.75 -17.8125 
Q 21.140625 -20.796875 15.09375 -20.796875 
L 7.90625 -20.796875 
L 7.90625 -13.28125 
L 13.1875 -13.28125 
Q 16.890625 -13.28125 18.9375 -11.515625 
Q 21 -9.765625 23.484375 -3.21875 
L 25.09375 0.875 
L 2.984375 54.6875 
L 12.5 54.6875 
L 29.59375 11.921875 
L 46.6875 54.6875 
L 56.203125 54.6875 
z
" id="DejaVuSans-121"/>
      </defs>
      <use xlink:href="#DejaVuSans-121"/>
     </g>
    </g>
   </g>
   <g id="patch_3">
    <path d="M 54 252 
L 54 34.56 
" style="fill:none;stroke:#000000;stroke-linecap:square;stroke-linejoin:miter;stroke-width:0.8;"/>
   </g>
   <g id="patch_4">
    <path d="M 388.8 252 
L 388.8 34.56 
" style="fill:none;stroke:#000000;stroke-linecap:square;stroke-linejoin:miter;stroke-width:0.8;"/>
   </g>
   <g id="patch_5">
    <path d="M 54 252 
L 388.8 252 
" style="fill:none;stroke:#000000;stroke-linecap:square;stroke-linejoin:miter;stroke-width:0.8;"/>
   </g>
   <g id="patch_6">
    <path d="M 54 34.56 
L 388.8 34.56 
" style="fill:none;stroke:#000000;stroke-linecap:square;stroke-linejoin:miter;stroke-width:0.8;"/>
   </g>
  </g>
 </g>
 <defs>
  <clipPath id="p9c47cefd61">
   <rect height="217.44" width="334.8" x="54" y="34.56"/>
  </clipPath>
 </defs>
</svg>
